G04 Layer_Color=65535*
%FSLAX25Y25*%
%MOIN*%
G70*
G01*
G75*
%ADD37C,0.00787*%
%ADD38C,0.01000*%
%ADD39C,0.00913*%
%ADD40C,0.00600*%
%ADD41C,0.00709*%
%ADD42C,0.02000*%
D37*
X411232Y669860D02*
X412034Y670446D01*
X412756Y671127D01*
X413387Y671895D01*
X413916Y672735D01*
X414334Y673635D01*
X414637Y674581D01*
X414817Y675558D01*
X414874Y676549D01*
X414805Y677539D01*
X414612Y678514D01*
X414298Y679456D01*
X413868Y680351D01*
X413329Y681184D01*
X412689Y681944D01*
X411959Y682617D01*
X411150Y683192D01*
X410274Y683661D01*
X403726Y683661D02*
X402850Y683192D01*
X402041Y682617D01*
X401311Y681944D01*
X400671Y681184D01*
X400132Y680351D01*
X399702Y679456D01*
X399388Y678514D01*
X399195Y677539D01*
X399126Y676549D01*
X399183Y675558D01*
X399363Y674581D01*
X399666Y673635D01*
X400084Y672735D01*
X400613Y671895D01*
X401244Y671127D01*
X401966Y670446D01*
X402768Y669860D01*
X391732D02*
X392534Y670446D01*
X393256Y671127D01*
X393887Y671895D01*
X394416Y672735D01*
X394834Y673635D01*
X395137Y674581D01*
X395317Y675558D01*
X395374Y676549D01*
X395305Y677539D01*
X395112Y678514D01*
X394798Y679456D01*
X394368Y680351D01*
X393829Y681184D01*
X393189Y681944D01*
X392459Y682617D01*
X391650Y683192D01*
X390774Y683661D01*
X384226Y683661D02*
X383350Y683192D01*
X382541Y682617D01*
X381811Y681944D01*
X381171Y681184D01*
X380632Y680351D01*
X380202Y679456D01*
X379888Y678514D01*
X379695Y677539D01*
X379626Y676549D01*
X379683Y675558D01*
X379863Y674581D01*
X380166Y673635D01*
X380585Y672735D01*
X381113Y671895D01*
X381744Y671127D01*
X382466Y670446D01*
X383268Y669860D01*
X496955Y681108D02*
X497729Y680492D01*
X498577Y679984D01*
X499484Y679592D01*
X500436Y679322D01*
X501414Y679180D01*
X502403Y679168D01*
X503384Y679286D01*
X504342Y679532D01*
X505259Y679902D01*
X506119Y680390D01*
X506908Y680986D01*
X507611Y681681D01*
X508217Y682462D01*
X508715Y683316D01*
X509096Y684229D01*
X509354Y685183D01*
X509484Y686163D01*
Y687152D01*
X509354Y688132D01*
X509096Y689086D01*
X508715Y689999D01*
X508217Y690853D01*
X507611Y691634D01*
X506908Y692329D01*
X506119Y692925D01*
X505259Y693412D01*
X504342Y693783D01*
X503384Y694029D01*
X502403Y694147D01*
X501414Y694135D01*
X500436Y693993D01*
X499484Y693723D01*
X498577Y693331D01*
X497729Y692822D01*
X496955Y692207D01*
Y664108D02*
X497729Y663492D01*
X498577Y662984D01*
X499484Y662592D01*
X500436Y662322D01*
X501414Y662180D01*
X502403Y662168D01*
X503384Y662286D01*
X504342Y662532D01*
X505259Y662902D01*
X506119Y663390D01*
X506908Y663986D01*
X507611Y664681D01*
X508217Y665462D01*
X508715Y666316D01*
X509096Y667229D01*
X509354Y668183D01*
X509484Y669163D01*
Y670152D01*
X509354Y671132D01*
X509096Y672086D01*
X508715Y672999D01*
X508217Y673853D01*
X507611Y674634D01*
X506908Y675329D01*
X506119Y675925D01*
X505259Y676412D01*
X504342Y676782D01*
X503384Y677029D01*
X502403Y677147D01*
X501414Y677135D01*
X500436Y676992D01*
X499484Y676723D01*
X498577Y676331D01*
X497729Y675822D01*
X496955Y675207D01*
X448732Y670360D02*
X449534Y670946D01*
X450256Y671627D01*
X450887Y672395D01*
X451416Y673235D01*
X451834Y674135D01*
X452137Y675081D01*
X452317Y676058D01*
X452374Y677049D01*
X452305Y678040D01*
X452112Y679014D01*
X451798Y679956D01*
X451368Y680851D01*
X450829Y681684D01*
X450189Y682444D01*
X449459Y683116D01*
X448650Y683692D01*
X447774Y684161D01*
X441226Y684161D02*
X440350Y683692D01*
X439541Y683116D01*
X438811Y682444D01*
X438171Y681684D01*
X437632Y680851D01*
X437202Y679956D01*
X436888Y679014D01*
X436695Y678040D01*
X436626Y677049D01*
X436683Y676058D01*
X436863Y675081D01*
X437166Y674135D01*
X437584Y673235D01*
X438113Y672395D01*
X438744Y671627D01*
X439466Y670946D01*
X440268Y670360D01*
X430232Y669860D02*
X431034Y670446D01*
X431756Y671127D01*
X432387Y671895D01*
X432916Y672735D01*
X433334Y673635D01*
X433637Y674581D01*
X433817Y675558D01*
X433874Y676549D01*
X433805Y677539D01*
X433612Y678514D01*
X433298Y679456D01*
X432868Y680351D01*
X432329Y681184D01*
X431689Y681944D01*
X430959Y682617D01*
X430150Y683192D01*
X429274Y683661D01*
X422726Y683661D02*
X421850Y683192D01*
X421041Y682617D01*
X420311Y681944D01*
X419671Y681184D01*
X419132Y680351D01*
X418702Y679456D01*
X418388Y678514D01*
X418195Y677539D01*
X418126Y676549D01*
X418183Y675558D01*
X418363Y674581D01*
X418666Y673635D01*
X419085Y672735D01*
X419613Y671895D01*
X420244Y671127D01*
X420966Y670446D01*
X421768Y669860D01*
X496955Y681108D02*
Y682612D01*
Y690702D02*
Y692207D01*
Y664108D02*
Y665612D01*
Y673702D02*
Y675207D01*
X346000Y470500D02*
Y490500D01*
X386000Y470500D02*
Y490500D01*
X346000Y470500D02*
X386000D01*
X346000Y490500D02*
X386000D01*
D38*
X306685Y474000D02*
X306605Y474992D01*
X306366Y475958D01*
X305976Y476874D01*
X305444Y477715D01*
X304784Y478460D01*
X304013Y479090D01*
X303151Y479588D01*
X302221Y479941D01*
X301245Y480140D01*
X300251Y480180D01*
X299263Y480060D01*
X298307Y479783D01*
X297408Y479356D01*
X296588Y478791D01*
X295871Y478101D01*
X295273Y477306D01*
X294810Y476424D01*
X294495Y475480D01*
X294335Y474498D01*
X294335Y473502D01*
X294495Y472520D01*
X294810Y471576D01*
X295273Y470694D01*
X295871Y469899D01*
X296588Y469209D01*
X297408Y468644D01*
X298307Y468217D01*
X299263Y467940D01*
X300251Y467820D01*
X301245Y467860D01*
X302221Y468059D01*
X303151Y468412D01*
X304013Y468910D01*
X304784Y469540D01*
X305444Y470285D01*
X305976Y471126D01*
X306366Y472042D01*
X306605Y473008D01*
X306685Y474000D01*
Y494000D02*
X306605Y494992D01*
X306366Y495959D01*
X305976Y496874D01*
X305444Y497715D01*
X304784Y498460D01*
X304013Y499090D01*
X303151Y499587D01*
X302221Y499940D01*
X301245Y500140D01*
X300251Y500180D01*
X299263Y500060D01*
X298307Y499783D01*
X297408Y499356D01*
X296588Y498791D01*
X295871Y498101D01*
X295273Y497305D01*
X294810Y496424D01*
X294495Y495480D01*
X294335Y494498D01*
X294335Y493502D01*
X294495Y492520D01*
X294810Y491576D01*
X295273Y490695D01*
X295871Y489899D01*
X296588Y489209D01*
X297408Y488644D01*
X298307Y488217D01*
X299263Y487940D01*
X300251Y487820D01*
X301245Y487860D01*
X302221Y488060D01*
X303151Y488413D01*
X304013Y488910D01*
X304784Y489540D01*
X305444Y490285D01*
X305976Y491126D01*
X306366Y492041D01*
X306605Y493008D01*
X306685Y494000D01*
X480685Y482000D02*
X480605Y482992D01*
X480366Y483958D01*
X479976Y484874D01*
X479444Y485715D01*
X478784Y486460D01*
X478013Y487090D01*
X477151Y487587D01*
X476221Y487941D01*
X475246Y488140D01*
X474251Y488180D01*
X473263Y488060D01*
X472307Y487783D01*
X471408Y487356D01*
X470588Y486791D01*
X469871Y486101D01*
X469273Y485306D01*
X468810Y484424D01*
X468495Y483480D01*
X468335Y482498D01*
X468335Y481502D01*
X468495Y480520D01*
X468810Y479576D01*
X469273Y478694D01*
X469871Y477899D01*
X470588Y477209D01*
X471408Y476644D01*
X472307Y476217D01*
X473263Y475940D01*
X474251Y475820D01*
X475246Y475860D01*
X476221Y476059D01*
X477151Y476412D01*
X478013Y476910D01*
X478784Y477540D01*
X479444Y478285D01*
X479976Y479126D01*
X480366Y480042D01*
X480605Y481008D01*
X480685Y482000D01*
X451185Y470000D02*
X451105Y470992D01*
X450866Y471958D01*
X450476Y472874D01*
X449944Y473715D01*
X449284Y474460D01*
X448513Y475090D01*
X447651Y475588D01*
X446721Y475941D01*
X445746Y476140D01*
X444751Y476180D01*
X443763Y476060D01*
X442807Y475783D01*
X441908Y475356D01*
X441088Y474791D01*
X440371Y474101D01*
X439773Y473306D01*
X439310Y472424D01*
X438995Y471480D01*
X438835Y470498D01*
X438835Y469502D01*
X438995Y468520D01*
X439310Y467576D01*
X439773Y466694D01*
X440371Y465899D01*
X441088Y465209D01*
X441908Y464644D01*
X442807Y464217D01*
X443763Y463940D01*
X444751Y463820D01*
X445746Y463860D01*
X446721Y464059D01*
X447651Y464412D01*
X448513Y464910D01*
X449284Y465540D01*
X449944Y466285D01*
X450476Y467126D01*
X450866Y468042D01*
X451105Y469008D01*
X451185Y470000D01*
Y493000D02*
X451105Y493992D01*
X450866Y494958D01*
X450476Y495874D01*
X449944Y496715D01*
X449284Y497460D01*
X448513Y498090D01*
X447651Y498588D01*
X446721Y498941D01*
X445746Y499140D01*
X444751Y499180D01*
X443763Y499060D01*
X442807Y498783D01*
X441908Y498356D01*
X441088Y497791D01*
X440371Y497101D01*
X439773Y496306D01*
X439310Y495424D01*
X438995Y494480D01*
X438835Y493498D01*
X438835Y492502D01*
X438995Y491520D01*
X439310Y490576D01*
X439773Y489694D01*
X440371Y488899D01*
X441088Y488209D01*
X441908Y487644D01*
X442807Y487217D01*
X443763Y486940D01*
X444751Y486820D01*
X445746Y486860D01*
X446721Y487059D01*
X447651Y487413D01*
X448513Y487910D01*
X449284Y488540D01*
X449944Y489285D01*
X450476Y490126D01*
X450866Y491042D01*
X451105Y492008D01*
X451185Y493000D01*
X390000Y453000D02*
X389732Y454000D01*
X389000Y454732D01*
X388000Y455000D01*
X387500Y445000D02*
X388457Y445190D01*
X389268Y445732D01*
X389810Y446543D01*
X390000Y447500D01*
X360000D02*
X360190Y446543D01*
X360732Y445732D01*
X361543Y445190D01*
X362500Y445000D01*
Y455000D02*
X361543Y454810D01*
X360732Y454268D01*
X360190Y453457D01*
X360000Y452500D01*
X334185Y331000D02*
X334105Y331992D01*
X333866Y332959D01*
X333476Y333874D01*
X332944Y334715D01*
X332284Y335460D01*
X331513Y336090D01*
X330651Y336588D01*
X329721Y336941D01*
X328746Y337140D01*
X327751Y337180D01*
X326763Y337060D01*
X325807Y336783D01*
X324908Y336356D01*
X324089Y335791D01*
X323371Y335101D01*
X322773Y334306D01*
X322310Y333424D01*
X321995Y332480D01*
X321835Y331498D01*
X321835Y330502D01*
X321995Y329520D01*
X322310Y328576D01*
X322773Y327695D01*
X323371Y326899D01*
X324089Y326209D01*
X324908Y325644D01*
X325807Y325217D01*
X326763Y324940D01*
X327751Y324820D01*
X328746Y324860D01*
X329721Y325060D01*
X330651Y325413D01*
X331513Y325910D01*
X332284Y326540D01*
X332944Y327285D01*
X333476Y328126D01*
X333866Y329042D01*
X334105Y330008D01*
X334185Y331000D01*
X365685D02*
X365605Y331992D01*
X365366Y332959D01*
X364976Y333874D01*
X364444Y334715D01*
X363784Y335460D01*
X363013Y336090D01*
X362151Y336588D01*
X361221Y336941D01*
X360245Y337140D01*
X359251Y337180D01*
X358263Y337060D01*
X357307Y336783D01*
X356408Y336356D01*
X355589Y335791D01*
X354871Y335101D01*
X354273Y334306D01*
X353810Y333424D01*
X353495Y332480D01*
X353335Y331498D01*
X353335Y330502D01*
X353495Y329520D01*
X353810Y328576D01*
X354273Y327695D01*
X354871Y326899D01*
X355589Y326209D01*
X356408Y325644D01*
X357307Y325217D01*
X358263Y324940D01*
X359251Y324820D01*
X360245Y324860D01*
X361221Y325060D01*
X362151Y325413D01*
X363013Y325910D01*
X363784Y326540D01*
X364444Y327285D01*
X364976Y328126D01*
X365366Y329042D01*
X365605Y330008D01*
X365685Y331000D01*
X398185D02*
X398105Y331992D01*
X397866Y332959D01*
X397476Y333874D01*
X396944Y334715D01*
X396284Y335460D01*
X395513Y336090D01*
X394651Y336588D01*
X393721Y336941D01*
X392745Y337140D01*
X391751Y337180D01*
X390763Y337060D01*
X389807Y336783D01*
X388908Y336356D01*
X388088Y335791D01*
X387371Y335101D01*
X386773Y334306D01*
X386310Y333424D01*
X385995Y332480D01*
X385835Y331498D01*
X385835Y330502D01*
X385995Y329520D01*
X386310Y328576D01*
X386773Y327695D01*
X387371Y326899D01*
X388088Y326209D01*
X388908Y325644D01*
X389807Y325217D01*
X390763Y324940D01*
X391751Y324820D01*
X392745Y324860D01*
X393721Y325060D01*
X394651Y325413D01*
X395513Y325910D01*
X396284Y326540D01*
X396944Y327285D01*
X397476Y328126D01*
X397866Y329042D01*
X398105Y330008D01*
X398185Y331000D01*
X211138Y689126D02*
X255862D01*
X211138Y719870D02*
X255862D01*
Y672626D02*
Y719870D01*
X211138Y672626D02*
Y719870D01*
Y672626D02*
X255862D01*
X295469Y467000D02*
X305531D01*
X295469Y481000D02*
X305531D01*
X311500Y470874D02*
Y477126D01*
X289500Y470874D02*
Y477126D01*
X294594Y481874D02*
X295469Y481000D01*
X288689Y481874D02*
X294594D01*
X305531Y481000D02*
X306406Y481874D01*
X312311D01*
X294594Y466126D02*
X295469Y467000D01*
X288689Y466126D02*
X294594D01*
X305531Y467000D02*
X306406Y466126D01*
X312311D01*
X311500Y470874D02*
X312311Y470063D01*
Y466126D02*
Y470063D01*
X311500Y477126D02*
X312311Y477937D01*
Y481874D01*
X288689Y470063D02*
X289500Y470874D01*
X288689Y466126D02*
Y470063D01*
Y477937D02*
X289500Y477126D01*
X288689Y477937D02*
Y481874D01*
X295469Y487000D02*
X305531D01*
X295469Y501000D02*
X305531D01*
X311500Y490874D02*
Y497126D01*
X289500Y490874D02*
Y497126D01*
X294594Y501874D02*
X295469Y501000D01*
X288689Y501874D02*
X294594D01*
X305531Y501000D02*
X306406Y501874D01*
X312311D01*
X294594Y486126D02*
X295469Y487000D01*
X288689Y486126D02*
X294594D01*
X305531Y487000D02*
X306406Y486126D01*
X312311D01*
X311500Y490874D02*
X312311Y490063D01*
Y486126D02*
Y490063D01*
X311500Y497126D02*
X312311Y497937D01*
Y501874D01*
X288689Y490063D02*
X289500Y490874D01*
X288689Y486126D02*
Y490063D01*
Y497937D02*
X289500Y497126D01*
X288689Y497937D02*
Y501874D01*
X481500Y476969D02*
Y487031D01*
X467500Y476969D02*
Y487031D01*
X471374Y493000D02*
X477626D01*
X471374Y471000D02*
X477626D01*
X466626Y476094D02*
X467500Y476969D01*
X466626Y470189D02*
Y476094D01*
Y487906D02*
X467500Y487031D01*
X466626Y487906D02*
Y493811D01*
X481500Y476969D02*
X482374Y476094D01*
Y470189D02*
Y476094D01*
X481500Y487031D02*
X482374Y487906D01*
Y493811D01*
X477626Y493000D02*
X478437Y493811D01*
X482374D01*
X470563D02*
X471374Y493000D01*
X466626Y493811D02*
X470563D01*
X477626Y471000D02*
X478437Y470189D01*
X482374D01*
X470563D02*
X471374Y471000D01*
X466626Y470189D02*
X470563D01*
X439969Y463000D02*
X450031D01*
X439969Y477000D02*
X450031D01*
X456000Y466874D02*
Y473126D01*
X434000Y466874D02*
Y473126D01*
X439094Y477874D02*
X439969Y477000D01*
X433189Y477874D02*
X439094D01*
X450031Y477000D02*
X450906Y477874D01*
X456811D01*
X439094Y462126D02*
X439969Y463000D01*
X433189Y462126D02*
X439094D01*
X450031Y463000D02*
X450906Y462126D01*
X456811D01*
X456000Y466874D02*
X456811Y466063D01*
Y462126D02*
Y466063D01*
X456000Y473126D02*
X456811Y473937D01*
Y477874D01*
X433189Y466063D02*
X434000Y466874D01*
X433189Y462126D02*
Y466063D01*
Y473937D02*
X434000Y473126D01*
X433189Y473937D02*
Y477874D01*
X439969Y486000D02*
X450031D01*
X439969Y500000D02*
X450031D01*
X456000Y489874D02*
Y496126D01*
X434000Y489874D02*
Y496126D01*
X439094Y500874D02*
X439969Y500000D01*
X433189Y500874D02*
X439094D01*
X450031Y500000D02*
X450906Y500874D01*
X456811D01*
X439094Y485126D02*
X439969Y486000D01*
X433189Y485126D02*
X439094D01*
X450031Y486000D02*
X450906Y485126D01*
X456811D01*
X456000Y489874D02*
X456811Y489063D01*
Y485126D02*
Y489063D01*
X456000Y496126D02*
X456811Y496937D01*
Y500874D01*
X433189Y489063D02*
X434000Y489874D01*
X433189Y485126D02*
Y489063D01*
Y496937D02*
X434000Y496126D01*
X433189Y496937D02*
Y500874D01*
X284862Y327500D02*
Y339500D01*
X230362Y327500D02*
X284862D01*
X230362Y339500D02*
X284862D01*
X230362Y327500D02*
Y339500D01*
X206500Y323500D02*
X308862D01*
X206500D02*
Y453421D01*
X308862Y323500D02*
Y453421D01*
X206500D02*
X308862D01*
X489681Y328000D02*
Y340000D01*
X435181Y328000D02*
X489681D01*
X435181Y340000D02*
X489681D01*
X435181Y328000D02*
Y340000D01*
X411319Y324000D02*
X513681D01*
X411319D02*
Y453921D01*
X513681Y324000D02*
Y453921D01*
X411319D02*
X513681D01*
X203504Y509610D02*
X518465D01*
X203504D02*
Y651343D01*
X518465Y509610D02*
Y651343D01*
X203504D02*
X518465D01*
X360000Y447500D02*
Y452500D01*
X362500Y445000D02*
X387500D01*
X390000Y447500D02*
Y453000D01*
X362500Y455000D02*
X388000D01*
X335000Y325969D02*
Y336031D01*
X321000Y325969D02*
Y336031D01*
X324874Y342000D02*
X331126D01*
X324874Y320000D02*
X331126D01*
X320126Y325094D02*
X321000Y325969D01*
X320126Y319189D02*
Y325094D01*
Y336906D02*
X321000Y336031D01*
X320126Y336906D02*
Y342811D01*
X335000Y325969D02*
X335874Y325094D01*
Y319189D02*
Y325094D01*
X335000Y336031D02*
X335874Y336906D01*
Y342811D01*
X331126Y342000D02*
X331937Y342811D01*
X335874D01*
X324063D02*
X324874Y342000D01*
X320126Y342811D02*
X324063D01*
X331126Y320000D02*
X331937Y319189D01*
X335874D01*
X324063D02*
X324874Y320000D01*
X320126Y319189D02*
X324063D01*
X366500Y325969D02*
Y336031D01*
X352500Y325969D02*
Y336031D01*
X356374Y342000D02*
X362626D01*
X356374Y320000D02*
X362626D01*
X351626Y325094D02*
X352500Y325969D01*
X351626Y319189D02*
Y325094D01*
Y336906D02*
X352500Y336031D01*
X351626Y336906D02*
Y342811D01*
X366500Y325969D02*
X367374Y325094D01*
Y319189D02*
Y325094D01*
X366500Y336031D02*
X367374Y336906D01*
Y342811D01*
X362626Y342000D02*
X363437Y342811D01*
X367374D01*
X355563D02*
X356374Y342000D01*
X351626Y342811D02*
X355563D01*
X362626Y320000D02*
X363437Y319189D01*
X367374D01*
X355563D02*
X356374Y320000D01*
X351626Y319189D02*
X355563D01*
X399000Y325969D02*
Y336031D01*
X385000Y325969D02*
Y336031D01*
X388874Y342000D02*
X395126D01*
X388874Y320000D02*
X395126D01*
X384126Y325094D02*
X385000Y325969D01*
X384126Y319189D02*
Y325094D01*
Y336906D02*
X385000Y336031D01*
X384126Y336906D02*
Y342811D01*
X399000Y325969D02*
X399874Y325094D01*
Y319189D02*
Y325094D01*
X399000Y336031D02*
X399874Y336906D01*
Y342811D01*
X395126Y342000D02*
X395937Y342811D01*
X399874D01*
X388063D02*
X388874Y342000D01*
X384126Y342811D02*
X388063D01*
X395126Y320000D02*
X395937Y319189D01*
X399874D01*
X388063D02*
X388874Y320000D01*
X384126Y319189D02*
X388063D01*
X337878Y661843D02*
Y693339D01*
X337882Y693343D02*
X369378D01*
X337882Y661843D02*
X369378D01*
Y661846D02*
Y693343D01*
X346130Y685343D02*
X361878D01*
Y669469D02*
Y685217D01*
X345878Y669469D02*
Y685217D01*
Y669343D02*
X361626D01*
X425999Y695498D02*
X424999Y696498D01*
X423000D01*
X422000Y695498D01*
Y691500D01*
X423000Y690500D01*
X424999D01*
X425999Y691500D01*
X427998Y690500D02*
X429997D01*
X428998D01*
Y696498D01*
X427998Y695498D01*
X443499Y695998D02*
X442499Y696998D01*
X440500D01*
X439500Y695998D01*
Y692000D01*
X440500Y691000D01*
X442499D01*
X443499Y692000D01*
X449497Y691000D02*
X445498D01*
X449497Y694999D01*
Y695998D01*
X448497Y696998D01*
X446498D01*
X445498Y695998D01*
X386499Y695498D02*
X385499Y696498D01*
X383500D01*
X382500Y695498D01*
Y691500D01*
X383500Y690500D01*
X385499D01*
X386499Y691500D01*
X388498Y695498D02*
X389498Y696498D01*
X391497D01*
X392497Y695498D01*
Y694499D01*
X391497Y693499D01*
X390497D01*
X391497D01*
X392497Y692499D01*
Y691500D01*
X391497Y690500D01*
X389498D01*
X388498Y691500D01*
X405999Y695498D02*
X404999Y696498D01*
X403000D01*
X402000Y695498D01*
Y691500D01*
X403000Y690500D01*
X404999D01*
X405999Y691500D01*
X410997Y690500D02*
Y696498D01*
X407998Y693499D01*
X411997D01*
X416999Y320998D02*
X414999D01*
X415999D01*
Y316000D01*
X414999Y315000D01*
X414000D01*
X413000Y316000D01*
X422997Y319998D02*
X421997Y320998D01*
X419998D01*
X418998Y319998D01*
Y318999D01*
X419998Y317999D01*
X421997D01*
X422997Y316999D01*
Y316000D01*
X421997Y315000D01*
X419998D01*
X418998Y316000D01*
X424996Y315000D02*
X426996D01*
X425996D01*
Y320998D01*
X424996Y319998D01*
X210999Y320498D02*
X208999D01*
X209999D01*
Y315500D01*
X208999Y314500D01*
X208000D01*
X207000Y315500D01*
X216997Y319498D02*
X215997Y320498D01*
X213998D01*
X212998Y319498D01*
Y318499D01*
X213998Y317499D01*
X215997D01*
X216997Y316499D01*
Y315500D01*
X215997Y314500D01*
X213998D01*
X212998Y315500D01*
X222995Y314500D02*
X218996D01*
X222995Y318499D01*
Y319498D01*
X221995Y320498D01*
X219996D01*
X218996Y319498D01*
X483500Y660498D02*
Y654500D01*
X487499D01*
X493497Y659498D02*
X492497Y660498D01*
X490498D01*
X489498Y659498D01*
Y655500D01*
X490498Y654500D01*
X492497D01*
X493497Y655500D01*
X495496Y660498D02*
Y654500D01*
X498495D01*
X499495Y655500D01*
Y659498D01*
X498495Y660498D01*
X495496D01*
X501494Y657499D02*
X505493D01*
X507492Y654500D02*
X509492D01*
X508492D01*
Y660498D01*
X507492Y659498D01*
X218000Y496498D02*
Y490500D01*
X221999D01*
X227997Y496498D02*
X223998D01*
Y490500D01*
X227997D01*
X223998Y493499D02*
X225997D01*
X229996Y496498D02*
Y490500D01*
X232995D01*
X233995Y491500D01*
Y495498D01*
X232995Y496498D01*
X229996D01*
X235994Y490500D02*
X237994D01*
X236994D01*
Y496498D01*
X235994Y495498D01*
X485499Y672498D02*
X481500D01*
Y669499D01*
X483499Y670499D01*
X484499D01*
X485499Y669499D01*
Y667500D01*
X484499Y666500D01*
X482500D01*
X481500Y667500D01*
X487498Y672498D02*
Y668499D01*
X489497Y666500D01*
X491497Y668499D01*
Y672498D01*
X469000Y688498D02*
X470000Y689498D01*
X471999D01*
X472999Y688498D01*
Y687499D01*
X471999Y686499D01*
X470999D01*
X471999D01*
X472999Y685499D01*
Y684500D01*
X471999Y683500D01*
X470000D01*
X469000Y684500D01*
X474998Y683500D02*
Y684500D01*
X475998D01*
Y683500D01*
X474998D01*
X479996Y688498D02*
X480996Y689498D01*
X482996D01*
X483995Y688498D01*
Y687499D01*
X482996Y686499D01*
X481996D01*
X482996D01*
X483995Y685499D01*
Y684500D01*
X482996Y683500D01*
X480996D01*
X479996Y684500D01*
X485994Y689498D02*
Y685499D01*
X487994Y683500D01*
X489993Y685499D01*
Y689498D01*
X253000Y496498D02*
Y490500D01*
X256999D01*
X262997Y496498D02*
X258998D01*
Y490500D01*
X262997D01*
X258998Y493499D02*
X260997D01*
X264996Y496498D02*
Y490500D01*
X267995D01*
X268995Y491500D01*
Y495498D01*
X267995Y496498D01*
X264996D01*
X273993Y490500D02*
Y496498D01*
X270994Y493499D01*
X274993D01*
X344499Y453498D02*
X342500D01*
X341500Y452498D01*
Y448500D01*
X342500Y447500D01*
X344499D01*
X345499Y448500D01*
Y452498D01*
X344499Y453498D01*
X351497Y452498D02*
X350497Y453498D01*
X348498D01*
X347498Y452498D01*
Y451499D01*
X348498Y450499D01*
X350497D01*
X351497Y449499D01*
Y448500D01*
X350497Y447500D01*
X348498D01*
X347498Y448500D01*
X357495Y447500D02*
X353496D01*
X357495Y451499D01*
Y452498D01*
X356495Y453498D01*
X354496D01*
X353496Y452498D01*
X211600Y723400D02*
Y729398D01*
X214599D01*
X215599Y728398D01*
Y726399D01*
X214599Y725399D01*
X211600D01*
X217598Y723400D02*
X219597D01*
X218598D01*
Y729398D01*
X217598Y728398D01*
X303500Y656500D02*
Y662498D01*
X306499D01*
X307499Y661498D01*
Y659499D01*
X306499Y658499D01*
X303500D01*
X305499D02*
X307499Y656500D01*
X313497D02*
X309498D01*
X313497Y660499D01*
Y661498D01*
X312497Y662498D01*
X310498D01*
X309498Y661498D01*
X346500Y492500D02*
Y498498D01*
X349499D01*
X350499Y497498D01*
Y495499D01*
X349499Y494499D01*
X346500D01*
X348499D02*
X350499Y492500D01*
X356497Y498498D02*
X352498D01*
Y495499D01*
X354497D01*
X352498D01*
Y492500D01*
X358496D02*
X360495D01*
X359496D01*
Y498498D01*
X358496Y497498D01*
X415500Y495498D02*
Y490500D01*
X416500Y489500D01*
X418499D01*
X419499Y490500D01*
Y495498D01*
X421498Y489500D02*
Y495498D01*
X424497D01*
X425497Y494498D01*
Y492499D01*
X424497Y491499D01*
X421498D01*
X405500Y472498D02*
Y466500D01*
X408499D01*
X409499Y467500D01*
Y471498D01*
X408499Y472498D01*
X405500D01*
X414497D02*
X412498D01*
X411498Y471498D01*
Y467500D01*
X412498Y466500D01*
X414497D01*
X415497Y467500D01*
Y471498D01*
X414497Y472498D01*
X417496D02*
Y466500D01*
X419495Y468499D01*
X421495Y466500D01*
Y472498D01*
X423494Y466500D02*
Y472498D01*
X427493Y466500D01*
Y472498D01*
X489999Y484998D02*
X486000D01*
Y479000D01*
X489999D01*
X486000Y481999D02*
X487999D01*
X491998Y479000D02*
Y484998D01*
X495997Y479000D01*
Y484998D01*
X497996D02*
X501995D01*
X499996D01*
Y479000D01*
X507993Y484998D02*
X503994D01*
Y479000D01*
X507993D01*
X503994Y481999D02*
X505994D01*
X509992Y479000D02*
Y484998D01*
X512991D01*
X513991Y483998D01*
Y481999D01*
X512991Y480999D01*
X509992D01*
X511992D02*
X513991Y479000D01*
X315500Y492000D02*
Y495999D01*
X317499D01*
X318166Y495332D01*
Y493999D01*
X317499Y493333D01*
X315500D01*
X316833D02*
X318166Y492000D01*
X322165Y495999D02*
X319499D01*
Y492000D01*
X322165D01*
X319499Y493999D02*
X320832D01*
X326163Y495332D02*
X325497Y495999D01*
X324164D01*
X323497Y495332D01*
Y494666D01*
X324164Y493999D01*
X325497D01*
X326163Y493333D01*
Y492666D01*
X325497Y492000D01*
X324164D01*
X323497Y492666D01*
X330162Y495999D02*
X327496D01*
Y492000D01*
X330162D01*
X327496Y493999D02*
X328829D01*
X331495Y495999D02*
X334161D01*
X332828D01*
Y492000D01*
X342158D02*
X339492D01*
X342158Y494666D01*
Y495332D01*
X341492Y495999D01*
X340159D01*
X339492Y495332D01*
X315500Y472000D02*
Y475999D01*
X317499D01*
X318166Y475332D01*
Y473999D01*
X317499Y473333D01*
X315500D01*
X316833D02*
X318166Y472000D01*
X322165Y475999D02*
X319499D01*
Y472000D01*
X322165D01*
X319499Y473999D02*
X320832D01*
X326163Y475332D02*
X325497Y475999D01*
X324164D01*
X323497Y475332D01*
Y474666D01*
X324164Y473999D01*
X325497D01*
X326163Y473333D01*
Y472666D01*
X325497Y472000D01*
X324164D01*
X323497Y472666D01*
X330162Y475999D02*
X327496D01*
Y472000D01*
X330162D01*
X327496Y473999D02*
X328829D01*
X331495Y475999D02*
X334161D01*
X332828D01*
Y472000D01*
X339492D02*
X340825D01*
X340159D01*
Y475999D01*
X339492Y475332D01*
X376499Y667841D02*
X375499Y668841D01*
X373500D01*
X372500Y667841D01*
Y666841D01*
X373500Y665842D01*
X375499D01*
X376499Y664842D01*
Y663842D01*
X375499Y662843D01*
X373500D01*
X372500Y663842D01*
X378498Y668841D02*
Y662843D01*
X380497Y664842D01*
X382497Y662843D01*
Y668841D01*
X388495D02*
X384496D01*
Y665842D01*
X386495Y666841D01*
X387495D01*
X388495Y665842D01*
Y663842D01*
X387495Y662843D01*
X385496D01*
X384496Y663842D01*
X249000Y457000D02*
Y461723D01*
X251361D01*
X252149Y460936D01*
Y459361D01*
X251361Y458574D01*
X249000D01*
X250574D02*
X252149Y457000D01*
X256872Y460936D02*
X256084Y461723D01*
X254510D01*
X253723Y460936D01*
Y457787D01*
X254510Y457000D01*
X256084D01*
X256872Y457787D01*
Y459361D01*
X255297D01*
X258446Y461723D02*
Y457000D01*
X260807D01*
X261594Y457787D01*
Y458574D01*
X260807Y459361D01*
X258446D01*
X260807D01*
X261594Y460149D01*
Y460936D01*
X260807Y461723D01*
X258446D01*
X267892D02*
Y457000D01*
X271040D01*
X275763Y461723D02*
X272614D01*
Y457000D01*
X275763D01*
X272614Y459361D02*
X274189D01*
X277337Y461723D02*
Y457000D01*
X279699D01*
X280486Y457787D01*
Y460936D01*
X279699Y461723D01*
X277337D01*
X212500Y457000D02*
Y461723D01*
X214861D01*
X215649Y460936D01*
Y459361D01*
X214861Y458574D01*
X212500D01*
X214074D02*
X215649Y457000D01*
X220372Y460936D02*
X219584Y461723D01*
X218010D01*
X217223Y460936D01*
Y457787D01*
X218010Y457000D01*
X219584D01*
X220372Y457787D01*
Y459361D01*
X218797D01*
X221946Y461723D02*
Y457000D01*
X224307D01*
X225094Y457787D01*
Y458574D01*
X224307Y459361D01*
X221946D01*
X224307D01*
X225094Y460149D01*
Y460936D01*
X224307Y461723D01*
X221946D01*
X231392D02*
Y457000D01*
X234540D01*
X239263Y461723D02*
X236114D01*
Y457000D01*
X239263D01*
X236114Y459361D02*
X237689D01*
X240837Y461723D02*
Y457000D01*
X243199D01*
X243986Y457787D01*
Y460936D01*
X243199Y461723D01*
X240837D01*
D39*
X275764Y476000D02*
X275721Y476998D01*
X275592Y477989D01*
X275379Y478966D01*
X275082Y479920D01*
X274705Y480845D01*
X274249Y481735D01*
X273719Y482582D01*
X273118Y483380D01*
X272450Y484124D01*
X271721Y484807D01*
X270936Y485425D01*
X270100Y485974D01*
X269221Y486448D01*
X268304Y486846D01*
X267356Y487163D01*
X266385Y487397D01*
X265397Y487547D01*
X264400Y487611D01*
X263400Y487590D01*
X262407Y487483D01*
X261426Y487290D01*
X260466Y487014D01*
X259532Y486657D01*
X258633Y486221D01*
X257775Y485709D01*
X256964Y485125D01*
X256206Y484473D01*
X255507Y483759D01*
X254872Y482987D01*
X254306Y482164D01*
X253813Y481295D01*
X253396Y480387D01*
X253059Y479446D01*
X252803Y478480D01*
X252632Y477495D01*
X252546Y476500D01*
Y475500D01*
X252632Y474505D01*
X252803Y473520D01*
X253058Y472554D01*
X253396Y471613D01*
X253813Y470705D01*
X254306Y469836D01*
X254872Y469013D01*
X255507Y468241D01*
X256206Y467527D01*
X256964Y466875D01*
X257775Y466291D01*
X258633Y465779D01*
X259532Y465343D01*
X260466Y464986D01*
X261426Y464710D01*
X262407Y464517D01*
X263400Y464410D01*
X264400Y464389D01*
X265397Y464453D01*
X266385Y464603D01*
X267356Y464837D01*
X268304Y465154D01*
X269221Y465552D01*
X270100Y466026D01*
X270936Y466575D01*
X271721Y467193D01*
X272450Y467876D01*
X273118Y468620D01*
X273719Y469418D01*
X274249Y470265D01*
X274705Y471155D01*
X275082Y472080D01*
X275379Y473034D01*
X275592Y474011D01*
X275721Y475002D01*
X275764Y476000D01*
X240063D02*
X240020Y476998D01*
X239891Y477989D01*
X239678Y478966D01*
X239381Y479920D01*
X239004Y480845D01*
X238548Y481735D01*
X238018Y482582D01*
X237417Y483380D01*
X236749Y484124D01*
X236020Y484807D01*
X235235Y485425D01*
X234400Y485974D01*
X233520Y486448D01*
X232603Y486846D01*
X231655Y487163D01*
X230684Y487397D01*
X229696Y487547D01*
X228699Y487611D01*
X227700Y487590D01*
X226706Y487483D01*
X225725Y487290D01*
X224765Y487014D01*
X223832Y486657D01*
X222933Y486221D01*
X222074Y485709D01*
X221264Y485125D01*
X220506Y484473D01*
X219807Y483759D01*
X219172Y482987D01*
X218605Y482164D01*
X218112Y481295D01*
X217695Y480387D01*
X217358Y479446D01*
X217103Y478480D01*
X216931Y477495D01*
X216845Y476500D01*
Y475500D01*
X216931Y474505D01*
X217103Y473520D01*
X217358Y472554D01*
X217695Y471613D01*
X218112Y470705D01*
X218605Y469836D01*
X219172Y469013D01*
X219807Y468241D01*
X220506Y467527D01*
X221263Y466875D01*
X222074Y466291D01*
X222933Y465779D01*
X223832Y465343D01*
X224765Y464986D01*
X225725Y464710D01*
X226706Y464517D01*
X227700Y464410D01*
X228699Y464389D01*
X229696Y464453D01*
X230684Y464603D01*
X231655Y464837D01*
X232603Y465154D01*
X233520Y465552D01*
X234400Y466026D01*
X235235Y466575D01*
X236020Y467193D01*
X236749Y467876D01*
X237417Y468620D01*
X238018Y469418D01*
X238548Y470265D01*
X239004Y471155D01*
X239381Y472080D01*
X239678Y473034D01*
X239891Y474011D01*
X240020Y475002D01*
X240063Y476000D01*
D40*
X275000Y672000D02*
X300000D01*
X275000Y669500D02*
Y672000D01*
X300000Y655300D02*
Y658500D01*
Y669500D02*
Y672000D01*
X283500Y658000D02*
X284000Y658500D01*
X283500Y659000D02*
X284000Y658500D01*
X283000Y657500D02*
Y659500D01*
X282500Y657000D02*
X283000Y657500D01*
X282500Y660000D02*
X283000Y659500D01*
X283500Y658000D02*
Y659000D01*
X283000Y657500D02*
X283500Y658000D01*
X283000Y659500D02*
X283500Y659000D01*
X282500Y658500D02*
X284000D01*
X276500D02*
X282500D01*
Y660000D01*
Y657000D02*
Y658500D01*
X282000Y656500D02*
X282500Y657000D01*
X282000Y660500D02*
X282500Y660000D01*
X282000Y656500D02*
Y660500D01*
X275000Y655300D02*
X300000D01*
X275000D02*
Y658500D01*
D41*
X239925Y345159D02*
X240515Y345749D01*
Y346930D01*
X239925Y347520D01*
X239335D01*
X238744Y346930D01*
Y345749D01*
X238154Y345159D01*
X237564D01*
X236973Y345749D01*
Y346930D01*
X237564Y347520D01*
X240515Y343978D02*
X236973D01*
X238154Y342797D01*
X236973Y341617D01*
X240515D01*
X440590Y320817D02*
X439409D01*
X440000D01*
Y317865D01*
X439409Y317275D01*
X438819D01*
X438229Y317865D01*
X442361Y317275D02*
X443542D01*
X444132Y317865D01*
Y319046D01*
X443542Y319636D01*
X442361D01*
X441771Y319046D01*
Y317865D01*
X442361Y317275D01*
X445313Y319636D02*
Y317865D01*
X445903Y317275D01*
X447674D01*
Y316684D01*
X447084Y316094D01*
X446493D01*
X447674Y317275D02*
Y319636D01*
X448855Y317275D02*
X450626D01*
X451216Y317865D01*
X450626Y318455D01*
X449445D01*
X448855Y319046D01*
X449445Y319636D01*
X451216D01*
X452987Y320227D02*
Y319636D01*
X452397D01*
X453578D01*
X452987D01*
Y317865D01*
X453578Y317275D01*
X455349D02*
X456530D01*
X455939D01*
Y319636D01*
X455349D01*
X460662D02*
X458891D01*
X458301Y319046D01*
Y317865D01*
X458891Y317275D01*
X460662D01*
X461843D02*
Y320817D01*
Y318455D02*
X463614Y319636D01*
X461843Y318455D02*
X463614Y317275D01*
X468927D02*
Y320817D01*
X470108Y319636D01*
X471289Y320817D01*
Y317275D01*
X473060D02*
X474240D01*
X474831Y317865D01*
Y319046D01*
X474240Y319636D01*
X473060D01*
X472469Y319046D01*
Y317865D01*
X473060Y317275D01*
X478373Y320817D02*
Y317275D01*
X476602D01*
X476012Y317865D01*
Y319046D01*
X476602Y319636D01*
X478373D01*
X479554D02*
Y317865D01*
X480144Y317275D01*
X481915D01*
Y319636D01*
X483096Y317275D02*
X484277D01*
X483686D01*
Y320817D01*
X483096D01*
X487819Y317275D02*
X486638D01*
X486048Y317865D01*
Y319046D01*
X486638Y319636D01*
X487819D01*
X488409Y319046D01*
Y318455D01*
X486048D01*
X444744Y345659D02*
X445334Y346249D01*
Y347430D01*
X444744Y348020D01*
X444153D01*
X443563Y347430D01*
Y346249D01*
X442973Y345659D01*
X442382D01*
X441792Y346249D01*
Y347430D01*
X442382Y348020D01*
X445334Y344478D02*
X441792D01*
X442973Y343297D01*
X441792Y342117D01*
X445334D01*
X484744Y348930D02*
X485334Y349520D01*
Y350701D01*
X484744Y351291D01*
X482382D01*
X481792Y350701D01*
Y349520D01*
X482382Y348930D01*
X483563D01*
Y350111D01*
X481792Y347749D02*
X485334D01*
X481792Y345388D01*
X485334D01*
Y344207D02*
X481792D01*
Y342436D01*
X482382Y341846D01*
X484744D01*
X485334Y342436D01*
Y344207D01*
X235771Y320317D02*
X234590D01*
X235181D01*
Y317365D01*
X234590Y316775D01*
X234000D01*
X233410Y317365D01*
X237542Y316775D02*
X238723D01*
X239313Y317365D01*
Y318546D01*
X238723Y319136D01*
X237542D01*
X236952Y318546D01*
Y317365D01*
X237542Y316775D01*
X240494Y319136D02*
Y317365D01*
X241084Y316775D01*
X242856D01*
Y316184D01*
X242265Y315594D01*
X241675D01*
X242856Y316775D02*
Y319136D01*
X244036Y316775D02*
X245807D01*
X246398Y317365D01*
X245807Y317955D01*
X244626D01*
X244036Y318546D01*
X244626Y319136D01*
X246398D01*
X248169Y319726D02*
Y319136D01*
X247578D01*
X248759D01*
X248169D01*
Y317365D01*
X248759Y316775D01*
X250530D02*
X251711D01*
X251120D01*
Y319136D01*
X250530D01*
X255843D02*
X254072D01*
X253482Y318546D01*
Y317365D01*
X254072Y316775D01*
X255843D01*
X257024D02*
Y320317D01*
Y317955D02*
X258795Y319136D01*
X257024Y317955D02*
X258795Y316775D01*
X264108D02*
Y320317D01*
X265289Y319136D01*
X266470Y320317D01*
Y316775D01*
X268241D02*
X269422D01*
X270012Y317365D01*
Y318546D01*
X269422Y319136D01*
X268241D01*
X267651Y318546D01*
Y317365D01*
X268241Y316775D01*
X273554Y320317D02*
Y316775D01*
X271783D01*
X271193Y317365D01*
Y318546D01*
X271783Y319136D01*
X273554D01*
X274735D02*
Y317365D01*
X275325Y316775D01*
X277096D01*
Y319136D01*
X278277Y316775D02*
X279458D01*
X278867D01*
Y320317D01*
X278277D01*
X283000Y316775D02*
X281819D01*
X281229Y317365D01*
Y318546D01*
X281819Y319136D01*
X283000D01*
X283590Y318546D01*
Y317955D01*
X281229D01*
X474834Y351791D02*
X472473D01*
X471292Y350611D01*
X472473Y349430D01*
X474834D01*
X474244Y345888D02*
X474834Y346478D01*
Y347659D01*
X474244Y348249D01*
X471882D01*
X471292Y347659D01*
Y346478D01*
X471882Y345888D01*
X474244Y342346D02*
X474834Y342936D01*
Y344117D01*
X474244Y344707D01*
X471882D01*
X471292Y344117D01*
Y342936D01*
X471882Y342346D01*
X455250Y351291D02*
X452889D01*
X451708Y350111D01*
X452889Y348930D01*
X455250D01*
X451708Y347749D02*
X455250D01*
Y345978D01*
X454660Y345388D01*
X453479D01*
X452889Y345978D01*
Y347749D01*
Y346568D02*
X451708Y345388D01*
X454070Y344207D02*
X452298D01*
X451708Y343617D01*
Y341846D01*
X451118D01*
X450527Y342436D01*
Y343026D01*
X451708Y341846D02*
X454070D01*
X279925Y348430D02*
X280515Y349020D01*
Y350201D01*
X279925Y350791D01*
X277564D01*
X276973Y350201D01*
Y349020D01*
X277564Y348430D01*
X278744D01*
Y349611D01*
X276973Y347249D02*
X280515D01*
X276973Y344888D01*
X280515D01*
Y343707D02*
X276973D01*
Y341936D01*
X277564Y341346D01*
X279925D01*
X280515Y341936D01*
Y343707D01*
X465334Y351291D02*
X462973D01*
X461792Y350111D01*
X462973Y348930D01*
X465334D01*
X461792Y347749D02*
X465334D01*
Y345978D01*
X464744Y345388D01*
X463563D01*
X462973Y345978D01*
Y347749D01*
Y346568D02*
X461792Y345388D01*
X464153Y344207D02*
X461792Y341846D01*
X462973Y343026D01*
X464153Y341846D01*
X461792Y344207D01*
X270015Y351291D02*
X267654D01*
X266473Y350111D01*
X267654Y348930D01*
X270015D01*
X269425Y345388D02*
X270015Y345978D01*
Y347159D01*
X269425Y347749D01*
X267064D01*
X266473Y347159D01*
Y345978D01*
X267064Y345388D01*
X269425Y341846D02*
X270015Y342436D01*
Y343617D01*
X269425Y344207D01*
X267064D01*
X266473Y343617D01*
Y342436D01*
X267064Y341846D01*
X260515Y350791D02*
X258154D01*
X256973Y349611D01*
X258154Y348430D01*
X260515D01*
X256973Y347249D02*
X260515D01*
Y345478D01*
X259925Y344888D01*
X258744D01*
X258154Y345478D01*
Y347249D01*
Y346069D02*
X256973Y344888D01*
X259335Y343707D02*
X256973Y341346D01*
X258154Y342526D01*
X259335Y341346D01*
X256973Y343707D01*
X250431Y350791D02*
X248070D01*
X246889Y349611D01*
X248070Y348430D01*
X250431D01*
X246889Y347249D02*
X250431D01*
Y345478D01*
X249841Y344888D01*
X248660D01*
X248070Y345478D01*
Y347249D01*
Y346069D02*
X246889Y344888D01*
X249251Y343707D02*
X247480D01*
X246889Y343117D01*
Y341346D01*
X246299D01*
X245709Y341936D01*
Y342526D01*
X246889Y341346D02*
X249251D01*
D42*
X356000Y358497D02*
Y350500D01*
X359999D01*
X361332Y351833D01*
Y353166D01*
X359999Y354499D01*
X356000D01*
X359999D01*
X361332Y355832D01*
Y357165D01*
X359999Y358497D01*
X356000D01*
X325500Y350000D02*
Y355332D01*
X328166Y357997D01*
X330832Y355332D01*
Y350000D01*
Y353999D01*
X325500D01*
X393832Y357165D02*
X392499Y358497D01*
X389833D01*
X388500Y357165D01*
Y351833D01*
X389833Y350500D01*
X392499D01*
X393832Y351833D01*
M02*
