M48
;Layer_Color=9474304
;FILE_FORMAT=2:5
INCH,TZ
;TYPE=PLATED
T1F00S00C0.02362
T2F00S00C0.03000
T3F00S00C0.03150
T4F00S00C0.03200
T5F00S00C0.03543
T6F00S00C0.03937
T7F00S00C0.04331
T8F00S00C0.07087
%
T01
X219000Y476000
X225299
X231598
X237898
X254701
X261000
X267299
X273598
T02
X365000Y450000
X385000
X393000Y609000
X373000
T03
X237681Y333500
X247681
X257681
X267681
X277681
X254701Y424021
X267299Y456320
X442500Y334000
X452500
X462500
X472500
X482500
X381000Y475500
Y485500
X371000
Y475500
X361000
Y485500
X351000
Y475500
X341878Y667657
Y677500
Y687343
X365500
Y677500
Y667657
X387500Y666657
X407000
X426000
X444500Y667157
Y686843
X426000Y686343
X407000
X387500
X497000Y686657
X507000
Y669657
X497000
T04
X277500Y664000
X287500
X297500
T05
X295000Y403500
X305000
Y433500
X295000
X315000
X325000
X335000
X345000
X355000
X365000
X375000
X385000
X395000
X405000
X415000
X425000
Y403500
X415000
X405000
X395000
X385000
X375000
X365000
X355000
X345000
X335000
X325000
X315000
X328000Y340843
Y321157
X359500
Y340843
X392000
Y321157
X474500Y472157
Y491843
X454843Y493000
X435157
Y470000
X454843
X428500Y565000
X418500
X408500
X398500
X388500
X378500
X368500
X358500
X348500
X338500
X328500
X318500
Y595000
X328500
X338500
X348500
X358500
X368500
X378500
X388500
X398500
X408500
X418500
X428500
X308500
X298500
Y565000
X308500
X310343Y494000
X290657
Y474000
X310343
T06
X235000Y641500
X245000
X255000
X265000
X275000
X285000
X295000
X305000
X315000
X325000
X335000
X345000
X355000
X365000
X375000
X385000
T07
X223500Y680500
X243500
T08
X508622Y519453
X213346
Y641500
X508622
M30
