G04 Layer_Color=32768*
%FSLAX25Y25*%
%MOIN*%
G70*
G01*
G75*
%ADD71C,0.00394*%
D71*
X321110Y357220D02*
X334890D01*
X321110Y384780D02*
X334890D01*
Y357220D02*
Y384780D01*
X321110Y357220D02*
Y384780D01*
X328000Y369032D02*
Y372969D01*
X326031Y371000D02*
X329968D01*
X352610Y357220D02*
X366390D01*
X352610Y384780D02*
X366390D01*
Y357220D02*
Y384780D01*
X352610Y357220D02*
Y384780D01*
X359500Y369032D02*
Y372969D01*
X357531Y371000D02*
X361468D01*
X385110Y357220D02*
X398890D01*
X385110Y384780D02*
X398890D01*
Y357220D02*
Y384780D01*
X385110Y357220D02*
Y384780D01*
X392000Y369032D02*
Y372969D01*
X390031Y371000D02*
X393968D01*
X270280Y406610D02*
Y420390D01*
X242720Y406610D02*
Y420390D01*
X270280D01*
X242720Y406610D02*
X270280D01*
X254531Y413500D02*
X258468D01*
X256500Y411531D02*
Y415468D01*
X270280Y423110D02*
Y436890D01*
X242720Y423110D02*
Y436890D01*
X270280D01*
X242720Y423110D02*
X270280D01*
X254531Y430000D02*
X258468D01*
X256500Y428031D02*
Y431968D01*
X360000Y416531D02*
Y420468D01*
X358031Y418500D02*
X361968D01*
X490280Y679768D02*
Y693547D01*
X462720Y679768D02*
Y693547D01*
X490280D01*
X462720Y679768D02*
X490280D01*
X474531Y686657D02*
X478469D01*
X476500Y684689D02*
Y688626D01*
X462720Y662768D02*
Y676547D01*
X490280Y662768D02*
Y676547D01*
X462720Y662768D02*
X490280D01*
X462720Y676547D02*
X490280D01*
X474531Y669657D02*
X478469D01*
X476500Y667689D02*
Y671626D01*
X286720Y446610D02*
Y460390D01*
X314280Y446610D02*
Y460390D01*
X286720Y446610D02*
X314280D01*
X286720Y460390D02*
X314280D01*
X298532Y453500D02*
X302469D01*
X300500Y451532D02*
Y455469D01*
X347610Y548280D02*
X361390D01*
X347610Y520720D02*
X361390D01*
X347610D02*
Y548280D01*
X361390Y520720D02*
Y548280D01*
X354500Y532531D02*
Y536468D01*
X352532Y534500D02*
X356469D01*
X411610Y546780D02*
X425390D01*
X411610Y519220D02*
X425390D01*
X411610D02*
Y546780D01*
X425390Y519220D02*
Y546780D01*
X418500Y531031D02*
Y534968D01*
X416532Y533000D02*
X420469D01*
X427110Y546780D02*
X440890D01*
X427110Y519220D02*
X440890D01*
X427110D02*
Y546780D01*
X440890Y519220D02*
Y546780D01*
X434000Y531031D02*
Y534968D01*
X432032Y533000D02*
X435969D01*
X331610Y548280D02*
X345390D01*
X331610Y520720D02*
X345390D01*
X331610D02*
Y548280D01*
X345390Y520720D02*
Y548280D01*
X338500Y532531D02*
Y536468D01*
X336532Y534500D02*
X340469D01*
X315110Y548280D02*
X328890D01*
X315110Y520720D02*
X328890D01*
X315110D02*
Y548280D01*
X328890Y520720D02*
Y548280D01*
X322000Y532531D02*
Y536468D01*
X320032Y534500D02*
X323969D01*
X299110Y520720D02*
X312890D01*
X299110Y548280D02*
X312890D01*
Y520720D02*
Y548280D01*
X299110Y520720D02*
Y548280D01*
X306000Y532532D02*
Y536469D01*
X304031Y534500D02*
X307968D01*
X442610Y546780D02*
X456390D01*
X442610Y519220D02*
X456390D01*
X442610D02*
Y546780D01*
X456390Y519220D02*
Y546780D01*
X449500Y531031D02*
Y534968D01*
X447532Y533000D02*
X451469D01*
X363500Y578031D02*
Y581968D01*
X361531Y580000D02*
X365468D01*
M02*
