G04 Layer_Color=32896*
%FSLAX25Y25*%
%MOIN*%
G70*
G01*
G75*
%ADD37C,0.00787*%
%ADD38C,0.01000*%
%ADD67C,0.00984*%
%ADD68C,0.02362*%
%ADD69C,0.00500*%
D37*
X290315Y416000D02*
X291272Y416190D01*
X292083Y416732D01*
X292625Y417543D01*
X292815Y418500D01*
X292625Y419457D01*
X292083Y420268D01*
X291272Y420810D01*
X290315Y421000D01*
X293815Y577500D02*
X294772Y577690D01*
X295583Y578232D01*
X296125Y579043D01*
X296315Y580000D01*
X296125Y580957D01*
X295583Y581768D01*
X294772Y582310D01*
X293815Y582500D01*
X423410Y619783D02*
X422622D01*
X423410D01*
X455909Y619953D02*
X455122D01*
X455909D01*
X334102Y363520D02*
Y378480D01*
X321898Y363520D02*
Y378480D01*
X365602Y363520D02*
Y378480D01*
X353398Y363520D02*
Y378480D01*
X398102Y363520D02*
Y378480D01*
X385898Y363520D02*
Y378480D01*
X249020Y419602D02*
X263980D01*
X249020Y407398D02*
X263980D01*
X249020Y436102D02*
X263980D01*
X249020Y423898D02*
X263980D01*
X290315Y428933D02*
X429685D01*
X290315Y408067D02*
X429685D01*
X290315Y421000D02*
Y428933D01*
Y408067D02*
Y416000D01*
X429685Y408067D02*
Y428933D01*
X469020Y692760D02*
X483980D01*
X469020Y680555D02*
X483980D01*
X469020Y663555D02*
X483980D01*
X469020Y675760D02*
X483980D01*
X293020Y447398D02*
X307980D01*
X293020Y459602D02*
X307980D01*
X348398Y527020D02*
Y541980D01*
X360602Y527020D02*
Y541980D01*
X412398Y525520D02*
Y540480D01*
X424602Y525520D02*
Y540480D01*
X427898Y525520D02*
Y540480D01*
X440102Y525520D02*
Y540480D01*
X332398Y527020D02*
Y541980D01*
X344602Y527020D02*
Y541980D01*
X315898Y527020D02*
Y541980D01*
X328102Y527020D02*
Y541980D01*
X312102Y527020D02*
Y541980D01*
X299898Y527020D02*
Y541980D01*
X443398Y525520D02*
Y540480D01*
X455602Y525520D02*
Y540480D01*
X293815Y590433D02*
X433185D01*
X293815Y569567D02*
X433185D01*
X293815Y582500D02*
Y590433D01*
Y569567D02*
Y577500D01*
X433185Y569567D02*
Y590433D01*
D38*
X396000Y604000D02*
X397000Y604268D01*
X397732Y605000D01*
X398000Y606000D01*
Y611500D02*
X397810Y612457D01*
X397268Y613268D01*
X396457Y613810D01*
X395500Y614000D01*
X370500D02*
X369543Y613810D01*
X368732Y613268D01*
X368190Y612457D01*
X368000Y611500D01*
Y606500D02*
X368190Y605543D01*
X368732Y604732D01*
X369543Y604190D01*
X370500Y604000D01*
X368000Y606500D02*
Y611500D01*
X370500Y614000D02*
X395500D01*
X398000Y606000D02*
Y611500D01*
X370500Y604000D02*
X396000D01*
X387501Y622998D02*
X389500D01*
X390500Y621998D01*
Y618000D01*
X389500Y617000D01*
X387501D01*
X386501Y618000D01*
Y621998D01*
X387501Y622998D01*
X380503Y621998D02*
X381503Y622998D01*
X383502D01*
X384502Y621998D01*
Y620999D01*
X383502Y619999D01*
X381503D01*
X380503Y618999D01*
Y618000D01*
X381503Y617000D01*
X383502D01*
X384502Y618000D01*
X378504Y617000D02*
X376504D01*
X377504D01*
Y622998D01*
X378504Y621998D01*
X424000Y611500D02*
Y617498D01*
X421001D01*
X420001Y616498D01*
Y614499D01*
X421001Y613499D01*
X424000D01*
X418002Y611500D02*
Y617498D01*
X415003D01*
X414003Y616498D01*
Y614499D01*
X415003Y613499D01*
X418002D01*
X416003D02*
X414003Y611500D01*
X412004Y614499D02*
X408005D01*
X406006Y611500D02*
X404006D01*
X405006D01*
Y617498D01*
X406006Y616498D01*
X457500Y613012D02*
Y619010D01*
X454501D01*
X453501Y618010D01*
Y616011D01*
X454501Y615011D01*
X457500D01*
X451502Y613012D02*
Y619010D01*
X448503D01*
X447503Y618010D01*
Y616011D01*
X448503Y615011D01*
X451502D01*
X449503D02*
X447503Y613012D01*
X445504Y616011D02*
X441505D01*
X435507Y613012D02*
X439506D01*
X435507Y617010D01*
Y618010D01*
X436507Y619010D01*
X438506D01*
X439506Y618010D01*
X424600Y550020D02*
Y556018D01*
X421601D01*
X420601Y555019D01*
Y553019D01*
X421601Y552020D01*
X424600D01*
X422601D02*
X420601Y550020D01*
X418602D02*
X416603D01*
X417602D01*
Y556018D01*
X418602Y555019D01*
X440100Y550000D02*
Y555998D01*
X437101D01*
X436101Y554998D01*
Y552999D01*
X437101Y551999D01*
X440100D01*
X438101D02*
X436101Y550000D01*
X434102Y554998D02*
X433102Y555998D01*
X431103D01*
X430103Y554998D01*
Y553999D01*
X431103Y552999D01*
X432103D01*
X431103D01*
X430103Y551999D01*
Y551000D01*
X431103Y550000D01*
X433102D01*
X434102Y551000D01*
X455600Y550020D02*
Y556018D01*
X452601D01*
X451601Y555019D01*
Y553019D01*
X452601Y552020D01*
X455600D01*
X453601D02*
X451601Y550020D01*
X446603D02*
Y556018D01*
X449602Y553019D01*
X445603D01*
X328100Y551500D02*
Y557498D01*
X325101D01*
X324101Y556498D01*
Y554499D01*
X325101Y553499D01*
X328100D01*
X326101D02*
X324101Y551500D01*
X318103Y557498D02*
X322102D01*
Y554499D01*
X320103Y555499D01*
X319103D01*
X318103Y554499D01*
Y552500D01*
X319103Y551500D01*
X321102D01*
X322102Y552500D01*
X344600Y551500D02*
Y557498D01*
X341601D01*
X340601Y556498D01*
Y554499D01*
X341601Y553499D01*
X344600D01*
X342601D02*
X340601Y551500D01*
X334603Y557498D02*
X336603Y556498D01*
X338602Y554499D01*
Y552500D01*
X337602Y551500D01*
X335603D01*
X334603Y552500D01*
Y553499D01*
X335603Y554499D01*
X338602D01*
X312100Y551500D02*
Y557498D01*
X309101D01*
X308101Y556498D01*
Y554499D01*
X309101Y553499D01*
X312100D01*
X310101D02*
X308101Y551500D01*
X306102Y557498D02*
X302103D01*
Y556498D01*
X306102Y552500D01*
Y551500D01*
X360600D02*
Y557498D01*
X357601D01*
X356601Y556498D01*
Y554499D01*
X357601Y553499D01*
X360600D01*
X358601D02*
X356601Y551500D01*
X354602Y556498D02*
X353602Y557498D01*
X351603D01*
X350603Y556498D01*
Y555499D01*
X351603Y554499D01*
X350603Y553499D01*
Y552500D01*
X351603Y551500D01*
X353602D01*
X354602Y552500D01*
Y553499D01*
X353602Y554499D01*
X354602Y555499D01*
Y556498D01*
X353602Y554499D02*
X351603D01*
X489500Y679757D02*
Y685755D01*
X486501D01*
X485501Y684756D01*
Y682756D01*
X486501Y681757D01*
X489500D01*
X487501D02*
X485501Y679757D01*
X483502Y680757D02*
X482502Y679757D01*
X480503D01*
X479503Y680757D01*
Y684756D01*
X480503Y685755D01*
X482502D01*
X483502Y684756D01*
Y683756D01*
X482502Y682756D01*
X479503D01*
X489500Y696757D02*
Y702755D01*
X486501D01*
X485501Y701756D01*
Y699756D01*
X486501Y698757D01*
X489500D01*
X487501D02*
X485501Y696757D01*
X483502D02*
X481503D01*
X482502D01*
Y702755D01*
X483502Y701756D01*
X478504D02*
X477504Y702755D01*
X475504D01*
X474505Y701756D01*
Y697757D01*
X475504Y696757D01*
X477504D01*
X478504Y697757D01*
Y701756D01*
X365600Y388000D02*
Y393998D01*
X362601D01*
X361601Y392998D01*
Y390999D01*
X362601Y389999D01*
X365600D01*
X363601D02*
X361601Y388000D01*
X359602D02*
X357603D01*
X358602D01*
Y393998D01*
X359602Y392998D01*
X354604Y388000D02*
X352604D01*
X353604D01*
Y393998D01*
X354604Y392998D01*
X334100Y388000D02*
Y393998D01*
X331101D01*
X330101Y392998D01*
Y390999D01*
X331101Y389999D01*
X334100D01*
X332101D02*
X330101Y388000D01*
X328102D02*
X326103D01*
X327102D01*
Y393998D01*
X328102Y392998D01*
X319105Y388000D02*
X323104D01*
X319105Y391999D01*
Y392998D01*
X320105Y393998D01*
X322104D01*
X323104Y392998D01*
X331500Y451000D02*
Y456998D01*
X328501D01*
X327501Y455998D01*
Y453999D01*
X328501Y452999D01*
X331500D01*
X329501D02*
X327501Y451000D01*
X325502D02*
X323503D01*
X324502D01*
Y456998D01*
X325502Y455998D01*
X320504D02*
X319504Y456998D01*
X317505D01*
X316505Y455998D01*
Y454999D01*
X317505Y453999D01*
X318504D01*
X317505D01*
X316505Y452999D01*
Y452000D01*
X317505Y451000D01*
X319504D01*
X320504Y452000D01*
X398100Y388000D02*
Y393998D01*
X395101D01*
X394101Y392998D01*
Y390999D01*
X395101Y389999D01*
X398100D01*
X396101D02*
X394101Y388000D01*
X392102D02*
X390103D01*
X391102D01*
Y393998D01*
X392102Y392998D01*
X384105Y388000D02*
Y393998D01*
X387104Y390999D01*
X383105D01*
X239500Y411000D02*
Y416998D01*
X236501D01*
X235501Y415998D01*
Y413999D01*
X236501Y412999D01*
X239500D01*
X237501D02*
X235501Y411000D01*
X233502D02*
X231503D01*
X232502D01*
Y416998D01*
X233502Y415998D01*
X224505Y416998D02*
X228504D01*
Y413999D01*
X226504Y414999D01*
X225504D01*
X224505Y413999D01*
Y412000D01*
X225504Y411000D01*
X227504D01*
X228504Y412000D01*
X240000Y427500D02*
Y433498D01*
X237001D01*
X236001Y432498D01*
Y430499D01*
X237001Y429499D01*
X240000D01*
X238001D02*
X236001Y427500D01*
X234002D02*
X232003D01*
X233002D01*
Y433498D01*
X234002Y432498D01*
X225005Y433498D02*
X227004Y432498D01*
X229004Y430499D01*
Y428500D01*
X228004Y427500D01*
X226005D01*
X225005Y428500D01*
Y429499D01*
X226005Y430499D01*
X229004D01*
X283500Y584002D02*
Y589000D01*
X284500Y590000D01*
X286499D01*
X287499Y589000D01*
Y584002D01*
X289498Y590000D02*
X291497D01*
X290498D01*
Y584002D01*
X289498Y585002D01*
X278500Y422502D02*
Y427500D01*
X279500Y428500D01*
X281499D01*
X282499Y427500D01*
Y422502D01*
X288497Y428500D02*
X284498D01*
X288497Y424501D01*
Y423502D01*
X287497Y422502D01*
X285498D01*
X284498Y423502D01*
D67*
X290374Y433500D02*
X289636Y433926D01*
Y433074D01*
X290374Y433500D01*
X293874Y595000D02*
X293136Y595426D01*
Y594574D01*
X293874Y595000D01*
D68*
X295433Y424996D02*
X294988Y425919D01*
X293989Y426148D01*
X293188Y425508D01*
Y424484D01*
X293989Y423845D01*
X294988Y424073D01*
X295433Y424996D01*
X298933Y586496D02*
X298488Y587420D01*
X297489Y587647D01*
X296688Y587008D01*
Y585984D01*
X297489Y585345D01*
X298488Y585573D01*
X298933Y586496D01*
D69*
X420929Y644323D02*
X427228D01*
X400772D02*
X406638D01*
X400772Y629677D02*
X401756D01*
X426205D02*
X427228D01*
X400772D02*
Y644323D01*
X427228Y629677D02*
Y644323D01*
X453429Y644492D02*
X459728D01*
X433272D02*
X439138D01*
X433272Y629846D02*
X434256D01*
X458705D02*
X459728D01*
X433272D02*
Y644492D01*
X459728Y629846D02*
Y644492D01*
M02*
