G04 Layer_Color=16711935*
%FSLAX25Y25*%
%MOIN*%
G70*
G01*
G75*
%ADD71C,0.00394*%
D71*
X296024Y429130D02*
X295760Y430114D01*
X295039Y430835D01*
X294055Y431098D01*
X293071Y430835D01*
X292350Y430114D01*
X292087Y429130D01*
X292350Y428146D01*
X293071Y427425D01*
X294055Y427161D01*
X295039Y427425D01*
X295760Y428146D01*
X296024Y429130D01*
X299524Y590630D02*
X299260Y591614D01*
X298539Y592335D01*
X297555Y592598D01*
X296571Y592335D01*
X295850Y591614D01*
X295587Y590630D01*
X295850Y589646D01*
X296571Y588925D01*
X297555Y588661D01*
X298539Y588925D01*
X299260Y589646D01*
X299524Y590630D01*
X321406Y358303D02*
X334594D01*
X321406Y383697D02*
X334594D01*
Y358303D02*
Y383697D01*
X321406Y358303D02*
Y383697D01*
X352906Y358303D02*
X366094D01*
X352906Y383697D02*
X366094D01*
Y358303D02*
Y383697D01*
X352906Y358303D02*
Y383697D01*
X385406Y358303D02*
X398594D01*
X385406Y383697D02*
X398594D01*
Y358303D02*
Y383697D01*
X385406Y358303D02*
Y383697D01*
X269197Y406906D02*
Y420094D01*
X243803Y406906D02*
Y420094D01*
X269197D01*
X243803Y406906D02*
X269197D01*
Y423406D02*
Y436594D01*
X243803Y423406D02*
Y436594D01*
X269197D01*
X243803Y423406D02*
X269197D01*
X290512Y432673D02*
X429488D01*
X290512Y404327D02*
X429488D01*
X290512D02*
Y432673D01*
X429488Y404327D02*
Y432673D01*
X489197Y680063D02*
Y693252D01*
X463803Y680063D02*
Y693252D01*
X489197D01*
X463803Y680063D02*
X489197D01*
X463803Y663063D02*
Y676252D01*
X489197Y663063D02*
Y676252D01*
X463803Y663063D02*
X489197D01*
X463803Y676252D02*
X489197D01*
X287803Y446906D02*
Y460094D01*
X313197Y446906D02*
Y460094D01*
X287803Y446906D02*
X313197D01*
X287803Y460094D02*
X313197D01*
X347906Y547197D02*
X361094D01*
X347906Y521803D02*
X361094D01*
X347906D02*
Y547197D01*
X361094Y521803D02*
Y547197D01*
X411906Y545697D02*
X425094D01*
X411906Y520303D02*
X425094D01*
X411906D02*
Y545697D01*
X425094Y520303D02*
Y545697D01*
X427406D02*
X440594D01*
X427406Y520303D02*
X440594D01*
X427406D02*
Y545697D01*
X440594Y520303D02*
Y545697D01*
X331906Y547197D02*
X345094D01*
X331906Y521803D02*
X345094D01*
X331906D02*
Y547197D01*
X345094Y521803D02*
Y547197D01*
X315406D02*
X328594D01*
X315406Y521803D02*
X328594D01*
X315406D02*
Y547197D01*
X328594Y521803D02*
Y547197D01*
X299406Y521803D02*
X312594D01*
X299406Y547197D02*
X312594D01*
Y521803D02*
Y547197D01*
X299406Y521803D02*
Y547197D01*
X442906Y545697D02*
X456094D01*
X442906Y520303D02*
X456094D01*
X442906D02*
Y545697D01*
X456094Y520303D02*
Y545697D01*
X294012Y594173D02*
X432988D01*
X294012Y565827D02*
X432988D01*
X294012D02*
Y594173D01*
X432988Y565827D02*
Y594173D01*
M02*
