G04 Layer_Color=16711935*
%FSLAX25Y25*%
%MOIN*%
G70*
G01*
G75*
%ADD40C,0.00500*%
%ADD66C,0.00197*%
D40*
X70299Y200000D02*
X70222Y200985D01*
X69991Y201946D01*
X69612Y202860D01*
X69096Y203702D01*
X68454Y204454D01*
X67703Y205096D01*
X66860Y205612D01*
X65947Y205991D01*
X64985Y206222D01*
X64000Y206299D01*
X63015Y206222D01*
X62054Y205991D01*
X61140Y205612D01*
X60298Y205096D01*
X59546Y204454D01*
X58904Y203702D01*
X58388Y202860D01*
X58009Y201946D01*
X57779Y200985D01*
X57701Y200000D01*
X57779Y199015D01*
X58009Y198054D01*
X58388Y197140D01*
X58904Y196298D01*
X59546Y195546D01*
X60298Y194904D01*
X61140Y194388D01*
X62054Y194009D01*
X63015Y193779D01*
X64000Y193701D01*
X64985Y193779D01*
X65947Y194009D01*
X66860Y194388D01*
X67703Y194904D01*
X68454Y195546D01*
X69096Y196298D01*
X69612Y197140D01*
X69991Y198054D01*
X70222Y199015D01*
X70299Y200000D01*
X365299D02*
X365222Y200985D01*
X364991Y201946D01*
X364612Y202860D01*
X364096Y203702D01*
X363454Y204454D01*
X362702Y205096D01*
X361860Y205612D01*
X360946Y205991D01*
X359985Y206222D01*
X359000Y206299D01*
X358015Y206222D01*
X357053Y205991D01*
X356140Y205612D01*
X355297Y205096D01*
X354546Y204454D01*
X353904Y203702D01*
X353388Y202860D01*
X353009Y201946D01*
X352779Y200985D01*
X352701Y200000D01*
X352779Y199015D01*
X353009Y198054D01*
X353388Y197140D01*
X353904Y196298D01*
X354546Y195546D01*
X355297Y194904D01*
X356140Y194388D01*
X357053Y194009D01*
X358015Y193779D01*
X359000Y193701D01*
X359985Y193779D01*
X360946Y194009D01*
X361860Y194388D01*
X362702Y194904D01*
X363454Y195546D01*
X364096Y196298D01*
X364612Y197140D01*
X364991Y198054D01*
X365222Y199015D01*
X365299Y200000D01*
X390299Y10000D02*
X390222Y10985D01*
X389991Y11947D01*
X389612Y12860D01*
X389096Y13702D01*
X388454Y14454D01*
X387702Y15096D01*
X386860Y15612D01*
X385946Y15991D01*
X384985Y16221D01*
X384000Y16299D01*
X383015Y16221D01*
X382053Y15991D01*
X381140Y15612D01*
X380297Y15096D01*
X379546Y14454D01*
X378904Y13702D01*
X378388Y12860D01*
X378009Y11947D01*
X377779Y10985D01*
X377701Y10000D01*
X377779Y9015D01*
X378009Y8054D01*
X378388Y7140D01*
X378904Y6297D01*
X379546Y5546D01*
X380297Y4904D01*
X381140Y4388D01*
X382053Y4009D01*
X383015Y3779D01*
X384000Y3701D01*
X384985Y3779D01*
X385946Y4009D01*
X386860Y4388D01*
X387702Y4904D01*
X388454Y5546D01*
X389096Y6297D01*
X389612Y7140D01*
X389991Y8054D01*
X390222Y9015D01*
X390299Y10000D01*
X0Y0D02*
X394000D01*
Y140000D01*
Y215000D01*
X0D02*
X394000D01*
X0Y0D02*
Y215000D01*
X96772Y96398D02*
X123228D01*
Y111043D01*
X96772D02*
X123228D01*
X96772Y96398D02*
Y111043D01*
X29772Y95677D02*
X56228D01*
Y110323D01*
X29772D02*
X56228D01*
X29772Y95677D02*
Y110323D01*
D66*
X95787Y112028D02*
X102638D01*
Y120453D01*
X117362D01*
Y112028D02*
Y120453D01*
Y112028D02*
X124213D01*
Y95413D02*
Y112028D01*
X121850Y95413D02*
X124213D01*
X121850Y86988D02*
Y95413D01*
X98150Y86988D02*
X121850D01*
X98150D02*
Y95413D01*
X95787D02*
X98150D01*
X95787D02*
Y112028D01*
X28787Y111307D02*
X35638D01*
Y119732D01*
X50362D01*
Y111307D02*
Y119732D01*
Y111307D02*
X57213D01*
Y94693D02*
Y111307D01*
X54850Y94693D02*
X57213D01*
X54850Y86268D02*
Y94693D01*
X31150Y86268D02*
X54850D01*
X31150D02*
Y94693D01*
X28787D02*
X31150D01*
X28787D02*
Y111307D01*
M02*
