G04 Layer_Physical_Order=2*
G04 Layer_Color=16711680*
%FSLAX25Y25*%
%MOIN*%
G70*
G01*
G75*
%ADD12C,0.01000*%
%ADD13C,0.03000*%
%ADD14C,0.02000*%
%ADD15C,0.06299*%
%ADD16R,0.06000X0.06000*%
%ADD17C,0.06000*%
%ADD18C,0.05905*%
%ADD19R,0.05905X0.05905*%
%ADD20R,0.05315X0.05315*%
%ADD21C,0.05315*%
%ADD22C,0.04724*%
%ADD23R,0.04724X0.04724*%
%ADD24R,0.05905X0.05905*%
%ADD25P,0.07671X8X22.5*%
%ADD26C,0.10000*%
%ADD27P,0.08523X8X22.5*%
%ADD28R,0.07874X0.07874*%
%ADD29R,0.09842X0.09842*%
%ADD30P,0.10653X8X202.5*%
%ADD31R,0.06299X0.06299*%
%ADD32R,0.05315X0.05315*%
%ADD33C,0.05000*%
%ADD34R,0.04331X0.12992*%
%ADD35C,0.01500*%
G36*
X394000Y0D02*
X0D01*
Y215000D01*
X394000D01*
Y0D01*
D02*
G37*
%LPC*%
G36*
X287000Y56987D02*
X285968Y56851D01*
X285007Y56453D01*
X284181Y55819D01*
X283547Y54993D01*
X283149Y54032D01*
X283013Y53000D01*
X283149Y51968D01*
X283547Y51007D01*
X284181Y50181D01*
X285007Y49547D01*
X285968Y49149D01*
X287000Y49013D01*
X288032Y49149D01*
X288993Y49547D01*
X289819Y50181D01*
X290453Y51007D01*
X290851Y51968D01*
X290987Y53000D01*
X290851Y54032D01*
X290453Y54993D01*
X289819Y55819D01*
X288993Y56453D01*
X288032Y56851D01*
X287000Y56987D01*
D02*
G37*
G36*
X146724Y48496D02*
X140394D01*
Y44039D01*
X139418D01*
X138819Y44819D01*
X137993Y45453D01*
X137032Y45851D01*
X136000Y45987D01*
X134968Y45851D01*
X134007Y45453D01*
X133181Y44819D01*
X132547Y43993D01*
X132149Y43032D01*
X132013Y42000D01*
X132149Y40968D01*
X132547Y40007D01*
X133181Y39181D01*
X134007Y38547D01*
X134968Y38149D01*
X136000Y38013D01*
X137032Y38149D01*
X137993Y38547D01*
X138819Y39181D01*
X139418Y39961D01*
X140394D01*
Y33504D01*
X146724D01*
Y48496D01*
D02*
G37*
G36*
X317000Y46987D02*
X315968Y46851D01*
X315007Y46453D01*
X314181Y45819D01*
X313547Y44993D01*
X313149Y44032D01*
X313013Y43000D01*
X313149Y41968D01*
X313547Y41007D01*
X314181Y40181D01*
X315007Y39547D01*
X315968Y39149D01*
X317000Y39013D01*
X318032Y39149D01*
X318993Y39547D01*
X319819Y40181D01*
X320453Y41007D01*
X320851Y41968D01*
X320987Y43000D01*
X320851Y44032D01*
X320453Y44993D01*
X319819Y45819D01*
X318993Y46453D01*
X318032Y46851D01*
X317000Y46987D01*
D02*
G37*
G36*
X20000Y60807D02*
X18917Y60665D01*
X17907Y60247D01*
X17041Y59582D01*
X16375Y58715D01*
X15957Y57705D01*
X15815Y56622D01*
X15957Y55539D01*
X16375Y54529D01*
X17041Y53663D01*
X17907Y52997D01*
X18917Y52579D01*
X20000Y52437D01*
X21083Y52579D01*
X22093Y52997D01*
X22960Y53663D01*
X23625Y54529D01*
X24043Y55539D01*
X24185Y56622D01*
X24043Y57705D01*
X23625Y58715D01*
X22960Y59582D01*
X22093Y60247D01*
X21083Y60665D01*
X20000Y60807D01*
D02*
G37*
G36*
X191165Y65496D02*
X184835D01*
Y59529D01*
X184000D01*
X183415Y59413D01*
X182919Y59081D01*
X180919Y57081D01*
X180587Y56585D01*
X180471Y56000D01*
Y17000D01*
X180587Y16415D01*
X180919Y15919D01*
X181919Y14919D01*
X182415Y14587D01*
X182852Y14500D01*
X182803Y14000D01*
X180000D01*
Y6000D01*
X188000D01*
Y12184D01*
X188462Y12375D01*
X191919Y8919D01*
X192415Y8587D01*
X193000Y8471D01*
X200000D01*
Y6000D01*
X208000D01*
Y11022D01*
X208462Y11214D01*
X210009Y9666D01*
X210103Y8956D01*
X210506Y7983D01*
X211147Y7147D01*
X211983Y6506D01*
X212956Y6103D01*
X214000Y5965D01*
X215044Y6103D01*
X216017Y6506D01*
X216853Y7147D01*
X217494Y7983D01*
X217897Y8956D01*
X218035Y10000D01*
X217897Y11044D01*
X217494Y12017D01*
X216853Y12853D01*
X216017Y13494D01*
X215044Y13897D01*
X214000Y14035D01*
X212956Y13897D01*
X211983Y13494D01*
X211148Y12853D01*
X209893Y14109D01*
X210084Y14571D01*
X217267D01*
X220305Y11532D01*
X220103Y11044D01*
X219966Y10000D01*
X220103Y8956D01*
X220506Y7983D01*
X221147Y7147D01*
X221983Y6506D01*
X222956Y6103D01*
X224000Y5965D01*
X225044Y6103D01*
X226017Y6506D01*
X226853Y7147D01*
X227494Y7983D01*
X227897Y8956D01*
X228034Y10000D01*
X227897Y11044D01*
X227494Y12017D01*
X226853Y12853D01*
X226017Y13494D01*
X225044Y13897D01*
X224000Y14035D01*
X222956Y13897D01*
X222468Y13695D01*
X218981Y17181D01*
X218485Y17513D01*
X217900Y17629D01*
X196534D01*
X194529Y19634D01*
Y25000D01*
X194413Y25585D01*
X194081Y26081D01*
X193081Y27081D01*
X192585Y27413D01*
X192000Y27529D01*
X191165D01*
Y33496D01*
X185529D01*
Y34504D01*
X191165D01*
Y49496D01*
X184835D01*
Y42998D01*
X183991Y42154D01*
X183529Y42346D01*
Y55366D01*
X184335Y56172D01*
X184835Y55965D01*
Y50504D01*
X191165D01*
Y65496D01*
D02*
G37*
G36*
X317000Y56987D02*
X315968Y56851D01*
X315007Y56453D01*
X314181Y55819D01*
X313547Y54993D01*
X313149Y54032D01*
X313013Y53000D01*
X313149Y51968D01*
X313547Y51007D01*
X314181Y50181D01*
X315007Y49547D01*
X315968Y49149D01*
X317000Y49013D01*
X318032Y49149D01*
X318993Y49547D01*
X319819Y50181D01*
X320453Y51007D01*
X320851Y51968D01*
X320987Y53000D01*
X320851Y54032D01*
X320453Y54993D01*
X319819Y55819D01*
X318993Y56453D01*
X318032Y56851D01*
X317000Y56987D01*
D02*
G37*
G36*
X287000Y46987D02*
X285968Y46851D01*
X285007Y46453D01*
X284181Y45819D01*
X283547Y44993D01*
X283149Y44032D01*
X283013Y43000D01*
X283149Y41968D01*
X283547Y41007D01*
X284181Y40181D01*
X285007Y39547D01*
X285968Y39149D01*
X287000Y39013D01*
X288032Y39149D01*
X288993Y39547D01*
X289819Y40181D01*
X290453Y41007D01*
X290851Y41968D01*
X290987Y43000D01*
X290851Y44032D01*
X290453Y44993D01*
X289819Y45819D01*
X288993Y46453D01*
X288032Y46851D01*
X287000Y46987D01*
D02*
G37*
G36*
X384000Y34034D02*
X382956Y33897D01*
X381983Y33494D01*
X381147Y32853D01*
X380506Y32017D01*
X380304Y31529D01*
X377696D01*
X377494Y32017D01*
X376853Y32853D01*
X376017Y33494D01*
X375044Y33897D01*
X374000Y34034D01*
X372956Y33897D01*
X371983Y33494D01*
X371147Y32853D01*
X370506Y32017D01*
X370103Y31044D01*
X369966Y30000D01*
X370103Y28956D01*
X370506Y27983D01*
X371147Y27147D01*
X371983Y26506D01*
X372956Y26103D01*
X374000Y25965D01*
X375044Y26103D01*
X376017Y26506D01*
X376853Y27147D01*
X377494Y27983D01*
X377696Y28471D01*
X380304D01*
X380506Y27983D01*
X381147Y27147D01*
X381983Y26506D01*
X382956Y26103D01*
X384000Y25965D01*
X385044Y26103D01*
X386017Y26506D01*
X386853Y27147D01*
X387494Y27983D01*
X387897Y28956D01*
X388035Y30000D01*
X387897Y31044D01*
X387494Y32017D01*
X386853Y32853D01*
X386017Y33494D01*
X385044Y33897D01*
X384000Y34034D01*
D02*
G37*
G36*
X317000Y36987D02*
X315968Y36851D01*
X315007Y36453D01*
X314181Y35819D01*
X313547Y34993D01*
X313149Y34032D01*
X313013Y33000D01*
X313149Y31968D01*
X313547Y31007D01*
X314181Y30181D01*
X315007Y29547D01*
X315968Y29149D01*
X317000Y29013D01*
X318032Y29149D01*
X318993Y29547D01*
X319819Y30181D01*
X320453Y31007D01*
X320851Y31968D01*
X320987Y33000D01*
X320851Y34032D01*
X320453Y34993D01*
X319819Y35819D01*
X318993Y36453D01*
X318032Y36851D01*
X317000Y36987D01*
D02*
G37*
G36*
X277606Y48496D02*
X271275D01*
Y33996D01*
X271275Y33504D01*
X271275Y33004D01*
Y18504D01*
X277606D01*
Y21471D01*
X283355D01*
X283547Y21007D01*
X284181Y20181D01*
X285007Y19547D01*
X285968Y19149D01*
X287000Y19013D01*
X288032Y19149D01*
X288993Y19547D01*
X289819Y20181D01*
X290453Y21007D01*
X290851Y21968D01*
X290987Y23000D01*
X290851Y24032D01*
X290453Y24993D01*
X289819Y25819D01*
X288993Y26453D01*
X288032Y26851D01*
X287000Y26987D01*
X285968Y26851D01*
X285007Y26453D01*
X284181Y25819D01*
X283547Y24993D01*
X283355Y24529D01*
X278074D01*
X277606Y24997D01*
Y33004D01*
X277606Y33496D01*
X277606Y33996D01*
Y38578D01*
X278068Y38769D01*
X283109Y33728D01*
X283013Y33000D01*
X283149Y31968D01*
X283547Y31007D01*
X284181Y30181D01*
X285007Y29547D01*
X285968Y29149D01*
X287000Y29013D01*
X288032Y29149D01*
X288993Y29547D01*
X289819Y30181D01*
X290453Y31007D01*
X290851Y31968D01*
X290987Y33000D01*
X290851Y34032D01*
X290453Y34993D01*
X289819Y35819D01*
X288993Y36453D01*
X288032Y36851D01*
X287000Y36987D01*
X285968Y36851D01*
X285007Y36453D01*
X284839Y36324D01*
X279081Y42081D01*
X278585Y42413D01*
X278000Y42529D01*
X277606D01*
Y48496D01*
D02*
G37*
G36*
X384000Y44034D02*
X382956Y43897D01*
X381983Y43494D01*
X381147Y42853D01*
X380506Y42017D01*
X380103Y41044D01*
X379965Y40000D01*
X380103Y38956D01*
X380506Y37983D01*
X381147Y37147D01*
X381983Y36506D01*
X382956Y36103D01*
X384000Y35965D01*
X385044Y36103D01*
X386017Y36506D01*
X386853Y37147D01*
X387494Y37983D01*
X387897Y38956D01*
X388035Y40000D01*
X387897Y41044D01*
X387494Y42017D01*
X386853Y42853D01*
X386017Y43494D01*
X385044Y43897D01*
X384000Y44034D01*
D02*
G37*
G36*
X374000D02*
X372956Y43897D01*
X371983Y43494D01*
X371147Y42853D01*
X370506Y42017D01*
X370103Y41044D01*
X369966Y40000D01*
X370103Y38956D01*
X370506Y37983D01*
X371147Y37147D01*
X371983Y36506D01*
X372956Y36103D01*
X374000Y35965D01*
X375044Y36103D01*
X376017Y36506D01*
X376853Y37147D01*
X377494Y37983D01*
X377897Y38956D01*
X378034Y40000D01*
X377897Y41044D01*
X377494Y42017D01*
X376853Y42853D01*
X376017Y43494D01*
X375044Y43897D01*
X374000Y44034D01*
D02*
G37*
G36*
X97469Y37937D02*
X92532D01*
X90328Y35733D01*
X89672D01*
X87468Y37937D01*
X82531D01*
X80437Y35842D01*
X79937Y36050D01*
Y37937D01*
X70063D01*
Y28063D01*
X79937D01*
Y29950D01*
X80437Y30158D01*
X82451Y28144D01*
Y25056D01*
X79944Y22549D01*
X23000D01*
X22025Y22355D01*
X21198Y21802D01*
X18198Y18802D01*
X17645Y17976D01*
X17451Y17000D01*
Y14921D01*
X14079D01*
Y3079D01*
X25921D01*
Y14921D01*
X22549D01*
Y15944D01*
X24056Y17451D01*
X63944D01*
X65451Y15944D01*
Y14921D01*
X62079D01*
Y3079D01*
X73921D01*
Y14921D01*
X70549D01*
Y17000D01*
X70536Y17064D01*
X70853Y17451D01*
X81000D01*
X81976Y17645D01*
X82802Y18198D01*
X86802Y22198D01*
X87355Y23024D01*
X87549Y24000D01*
Y28144D01*
X89672Y30267D01*
X90328D01*
X92532Y28063D01*
X97469D01*
X99937Y30531D01*
Y35469D01*
X97469Y37937D01*
D02*
G37*
G36*
X13500Y79273D02*
X12324Y79157D01*
X11193Y78814D01*
X10150Y78257D01*
X9237Y77507D01*
X8487Y76594D01*
X7930Y75551D01*
X7587Y74420D01*
X7471Y73244D01*
X7587Y72068D01*
X7930Y70937D01*
X8487Y69894D01*
X9237Y68981D01*
X10150Y68231D01*
X11193Y67674D01*
X12324Y67331D01*
X13500Y67215D01*
X14676Y67331D01*
X15807Y67674D01*
X16849Y68231D01*
X17763Y68981D01*
X18513Y69894D01*
X19070Y70937D01*
X19413Y72068D01*
X19529Y73244D01*
X19413Y74420D01*
X19070Y75551D01*
X18513Y76594D01*
X17763Y77507D01*
X16849Y78257D01*
X15807Y78814D01*
X14676Y79157D01*
X13500Y79273D01*
D02*
G37*
G36*
X384000Y74035D02*
X382956Y73897D01*
X381983Y73494D01*
X381147Y72853D01*
X380506Y72017D01*
X380103Y71044D01*
X379965Y70000D01*
X380103Y68956D01*
X380506Y67983D01*
X381147Y67147D01*
X381983Y66506D01*
X382956Y66103D01*
X384000Y65965D01*
X385044Y66103D01*
X386017Y66506D01*
X386853Y67147D01*
X387494Y67983D01*
X387897Y68956D01*
X388035Y70000D01*
X387897Y71044D01*
X387494Y72017D01*
X386853Y72853D01*
X386017Y73494D01*
X385044Y73897D01*
X384000Y74035D01*
D02*
G37*
G36*
X374000D02*
X372956Y73897D01*
X371983Y73494D01*
X371147Y72853D01*
X370506Y72017D01*
X370103Y71044D01*
X369966Y70000D01*
X370103Y68956D01*
X370506Y67983D01*
X371147Y67147D01*
X371983Y66506D01*
X372956Y66103D01*
X374000Y65965D01*
X375044Y66103D01*
X376017Y66506D01*
X376853Y67147D01*
X377494Y67983D01*
X377897Y68956D01*
X378034Y70000D01*
X377897Y71044D01*
X377494Y72017D01*
X376853Y72853D01*
X376017Y73494D01*
X375044Y73897D01*
X374000Y74035D01*
D02*
G37*
G36*
Y84035D02*
X372956Y83897D01*
X371983Y83494D01*
X371147Y82853D01*
X370506Y82017D01*
X370103Y81044D01*
X369966Y80000D01*
X370103Y78956D01*
X370506Y77983D01*
X371147Y77147D01*
X371983Y76506D01*
X372956Y76103D01*
X374000Y75965D01*
X375044Y76103D01*
X376017Y76506D01*
X376853Y77147D01*
X377494Y77983D01*
X377897Y78956D01*
X378034Y80000D01*
X377897Y81044D01*
X377494Y82017D01*
X376853Y82853D01*
X376017Y83494D01*
X375044Y83897D01*
X374000Y84035D01*
D02*
G37*
G36*
X287000Y76987D02*
X285968Y76851D01*
X285007Y76453D01*
X284181Y75819D01*
X283547Y74993D01*
X283149Y74032D01*
X283013Y73000D01*
X283149Y71968D01*
X283547Y71007D01*
X284181Y70181D01*
X285007Y69547D01*
X285968Y69149D01*
X287000Y69013D01*
X288032Y69149D01*
X288993Y69547D01*
X289819Y70181D01*
X290453Y71007D01*
X290851Y71968D01*
X290987Y73000D01*
X290851Y74032D01*
X290453Y74993D01*
X289819Y75819D01*
X288993Y76453D01*
X288032Y76851D01*
X287000Y76987D01*
D02*
G37*
G36*
X165000Y79273D02*
X163824Y79157D01*
X162693Y78814D01*
X161651Y78257D01*
X160737Y77507D01*
X159987Y76594D01*
X159430Y75551D01*
X159087Y74420D01*
X158971Y73244D01*
X159087Y72068D01*
X159430Y70937D01*
X159987Y69894D01*
X160737Y68981D01*
X161651Y68231D01*
X162693Y67674D01*
X163824Y67331D01*
X165000Y67215D01*
X166176Y67331D01*
X167307Y67674D01*
X168350Y68231D01*
X169263Y68981D01*
X170013Y69894D01*
X170570Y70937D01*
X170913Y72068D01*
X171029Y73244D01*
X170913Y74420D01*
X170570Y75551D01*
X170013Y76594D01*
X169263Y77507D01*
X168350Y78257D01*
X167307Y78814D01*
X166176Y79157D01*
X165000Y79273D01*
D02*
G37*
G36*
X146945Y65496D02*
X140614D01*
Y61039D01*
X139418D01*
X138819Y61819D01*
X137993Y62453D01*
X137032Y62851D01*
X136000Y62987D01*
X134968Y62851D01*
X134007Y62453D01*
X133181Y61819D01*
X132547Y60993D01*
X132149Y60032D01*
X132013Y59000D01*
X132149Y57968D01*
X132547Y57007D01*
X133181Y56181D01*
X134007Y55547D01*
X134968Y55149D01*
X136000Y55013D01*
X137032Y55149D01*
X137993Y55547D01*
X138819Y56181D01*
X139418Y56961D01*
X140614D01*
Y50504D01*
X146945D01*
Y65496D01*
D02*
G37*
G36*
X213606D02*
X207276D01*
Y50504D01*
X213606D01*
Y52018D01*
X214068Y52210D01*
X216271Y50007D01*
Y42546D01*
X215809Y42354D01*
X215081Y43081D01*
X214585Y43413D01*
X214000Y43529D01*
X213606D01*
Y49496D01*
X207276D01*
Y34504D01*
X213606D01*
Y39577D01*
X214068Y39769D01*
X214471Y39366D01*
Y28000D01*
X214587Y27415D01*
X214919Y26919D01*
X215846Y25991D01*
X215654Y25529D01*
X213606D01*
Y33496D01*
X207276D01*
Y18504D01*
X213606D01*
Y22471D01*
X239000D01*
X239585Y22587D01*
X240081Y22919D01*
X241530Y24367D01*
X241862Y24863D01*
X241978Y25449D01*
Y27994D01*
X242144Y28063D01*
X242847Y28602D01*
X243386Y29304D01*
X243520Y29629D01*
X243556Y29655D01*
X244104Y29733D01*
X247919Y25919D01*
X248415Y25587D01*
X248835Y25504D01*
Y18504D01*
X255165D01*
Y33496D01*
X255165D01*
Y33504D01*
X255165D01*
Y48496D01*
X248835D01*
Y42529D01*
X238633D01*
X235529Y45634D01*
Y52994D01*
X235696Y53063D01*
X236398Y53602D01*
X236862Y54206D01*
X237102Y54253D01*
X237197D01*
X237438Y54206D01*
X237901Y53602D01*
X238604Y53063D01*
X239422Y52724D01*
X240299Y52609D01*
X241177Y52724D01*
X241995Y53063D01*
X242697Y53602D01*
X243236Y54304D01*
X243575Y55122D01*
X243690Y56000D01*
X243575Y56878D01*
X243236Y57696D01*
X242697Y58398D01*
X241995Y58937D01*
X241177Y59276D01*
X240299Y59391D01*
X239422Y59276D01*
X238604Y58937D01*
X237901Y58398D01*
X237438Y57794D01*
X237197Y57747D01*
X237102D01*
X236862Y57794D01*
X236398Y58398D01*
X235696Y58937D01*
X234878Y59276D01*
X234000Y59391D01*
X233122Y59276D01*
X232304Y58937D01*
X231602Y58398D01*
X231563Y58347D01*
X231063Y58517D01*
Y59362D01*
X224339D01*
Y58517D01*
X223839Y58347D01*
X223799Y58398D01*
X223097Y58937D01*
X222279Y59276D01*
X221402Y59391D01*
X220524Y59276D01*
X219706Y58937D01*
X219004Y58398D01*
X218465Y57696D01*
X218126Y56878D01*
X218010Y56000D01*
X218126Y55122D01*
X218465Y54304D01*
X219004Y53602D01*
X219706Y53063D01*
X219872Y52994D01*
Y41598D01*
X219989Y41013D01*
X220320Y40517D01*
X225919Y34919D01*
X226003Y34862D01*
X225851Y34362D01*
X224488D01*
Y33517D01*
X223988Y33347D01*
X223949Y33398D01*
X223247Y33937D01*
X223081Y34006D01*
Y35449D01*
X222964Y36034D01*
X222633Y36530D01*
X219329Y39834D01*
Y50641D01*
X219213Y51226D01*
X218881Y51722D01*
X213606Y56998D01*
Y65496D01*
D02*
G37*
G36*
X39685Y60807D02*
X38602Y60665D01*
X37592Y60247D01*
X36726Y59582D01*
X36060Y58715D01*
X35642Y57705D01*
X35500Y56622D01*
X35642Y55539D01*
X36060Y54529D01*
X36726Y53663D01*
X37592Y52997D01*
X38602Y52579D01*
X39685Y52437D01*
X40768Y52579D01*
X41778Y52997D01*
X42645Y53663D01*
X43310Y54529D01*
X43728Y55539D01*
X43870Y56622D01*
X43728Y57705D01*
X43310Y58715D01*
X42645Y59582D01*
X41778Y60247D01*
X40768Y60665D01*
X39685Y60807D01*
D02*
G37*
G36*
X29843D02*
X28759Y60665D01*
X27750Y60247D01*
X26883Y59582D01*
X26218Y58715D01*
X25800Y57705D01*
X25657Y56622D01*
X25800Y55539D01*
X26218Y54529D01*
X26883Y53663D01*
X27750Y52997D01*
X28759Y52579D01*
X29843Y52437D01*
X30926Y52579D01*
X31935Y52997D01*
X32802Y53663D01*
X33467Y54529D01*
X33885Y55539D01*
X34028Y56622D01*
X33885Y57705D01*
X33467Y58715D01*
X32802Y59582D01*
X31935Y60247D01*
X30926Y60665D01*
X29843Y60807D01*
D02*
G37*
G36*
X287000Y66987D02*
X285968Y66851D01*
X285007Y66453D01*
X284181Y65819D01*
X283547Y64993D01*
X283149Y64032D01*
X283013Y63000D01*
X283149Y61968D01*
X283547Y61007D01*
X284181Y60181D01*
X285007Y59547D01*
X285968Y59149D01*
X287000Y59013D01*
X288032Y59149D01*
X288993Y59547D01*
X289819Y60181D01*
X290453Y61007D01*
X290851Y61968D01*
X290987Y63000D01*
X290851Y64032D01*
X290453Y64993D01*
X289819Y65819D01*
X288993Y66453D01*
X288032Y66851D01*
X287000Y66987D01*
D02*
G37*
G36*
X384000Y64034D02*
X382956Y63897D01*
X381983Y63494D01*
X381147Y62853D01*
X380506Y62017D01*
X380103Y61044D01*
X379965Y60000D01*
X380103Y58956D01*
X380506Y57983D01*
X381147Y57147D01*
X381983Y56506D01*
X382956Y56103D01*
X384000Y55966D01*
X385044Y56103D01*
X386017Y56506D01*
X386853Y57147D01*
X387494Y57983D01*
X387897Y58956D01*
X388035Y60000D01*
X387897Y61044D01*
X387494Y62017D01*
X386853Y62853D01*
X386017Y63494D01*
X385044Y63897D01*
X384000Y64034D01*
D02*
G37*
G36*
X126000Y62987D02*
X124968Y62851D01*
X124007Y62453D01*
X123181Y61819D01*
X122547Y60993D01*
X122149Y60032D01*
X122013Y59000D01*
X122149Y57968D01*
X122547Y57007D01*
X123181Y56181D01*
X124007Y55547D01*
X124968Y55149D01*
X126000Y55013D01*
X127032Y55149D01*
X127993Y55547D01*
X128819Y56181D01*
X129453Y57007D01*
X129851Y57968D01*
X129987Y59000D01*
X129851Y60032D01*
X129453Y60993D01*
X128819Y61819D01*
X127993Y62453D01*
X127032Y62851D01*
X126000Y62987D01*
D02*
G37*
G36*
X264000Y14035D02*
X262956Y13897D01*
X261983Y13494D01*
X261147Y12853D01*
X260506Y12017D01*
X260103Y11044D01*
X259965Y10000D01*
X260103Y8956D01*
X260506Y7983D01*
X261147Y7147D01*
X261983Y6506D01*
X262956Y6103D01*
X264000Y5965D01*
X265044Y6103D01*
X266017Y6506D01*
X266853Y7147D01*
X267494Y7983D01*
X267897Y8956D01*
X268035Y10000D01*
X267897Y11044D01*
X267494Y12017D01*
X266853Y12853D01*
X266017Y13494D01*
X265044Y13897D01*
X264000Y14035D01*
D02*
G37*
G36*
X254000D02*
X252956Y13897D01*
X251983Y13494D01*
X251147Y12853D01*
X250506Y12017D01*
X250103Y11044D01*
X249966Y10000D01*
X250103Y8956D01*
X250506Y7983D01*
X251147Y7147D01*
X251983Y6506D01*
X252956Y6103D01*
X254000Y5965D01*
X255044Y6103D01*
X256017Y6506D01*
X256853Y7147D01*
X257494Y7983D01*
X257897Y8956D01*
X258034Y10000D01*
X257897Y11044D01*
X257494Y12017D01*
X256853Y12853D01*
X256017Y13494D01*
X255044Y13897D01*
X254000Y14035D01*
D02*
G37*
G36*
X244000D02*
X242956Y13897D01*
X241983Y13494D01*
X241147Y12853D01*
X240506Y12017D01*
X240103Y11044D01*
X239966Y10000D01*
X240103Y8956D01*
X240506Y7983D01*
X241147Y7147D01*
X241983Y6506D01*
X242956Y6103D01*
X244000Y5965D01*
X245044Y6103D01*
X246017Y6506D01*
X246853Y7147D01*
X247494Y7983D01*
X247897Y8956D01*
X248035Y10000D01*
X247897Y11044D01*
X247494Y12017D01*
X246853Y12853D01*
X246017Y13494D01*
X245044Y13897D01*
X244000Y14035D01*
D02*
G37*
G36*
X314000D02*
X312956Y13897D01*
X311983Y13494D01*
X311147Y12853D01*
X310506Y12017D01*
X310103Y11044D01*
X309965Y10000D01*
X310103Y8956D01*
X310506Y7983D01*
X311147Y7147D01*
X311983Y6506D01*
X312956Y6103D01*
X314000Y5965D01*
X315044Y6103D01*
X316017Y6506D01*
X316853Y7147D01*
X317494Y7983D01*
X317897Y8956D01*
X318035Y10000D01*
X317897Y11044D01*
X317494Y12017D01*
X316853Y12853D01*
X316017Y13494D01*
X315044Y13897D01*
X314000Y14035D01*
D02*
G37*
G36*
X304000D02*
X302956Y13897D01*
X301983Y13494D01*
X301147Y12853D01*
X300506Y12017D01*
X300103Y11044D01*
X299966Y10000D01*
X300103Y8956D01*
X300506Y7983D01*
X301147Y7147D01*
X301983Y6506D01*
X302956Y6103D01*
X304000Y5965D01*
X305044Y6103D01*
X306017Y6506D01*
X306853Y7147D01*
X307494Y7983D01*
X307897Y8956D01*
X308034Y10000D01*
X307897Y11044D01*
X307494Y12017D01*
X306853Y12853D01*
X306017Y13494D01*
X305044Y13897D01*
X304000Y14035D01*
D02*
G37*
G36*
X274000D02*
X272956Y13897D01*
X271983Y13494D01*
X271147Y12853D01*
X270506Y12017D01*
X270103Y11044D01*
X269966Y10000D01*
X270103Y8956D01*
X270506Y7983D01*
X271147Y7147D01*
X271983Y6506D01*
X272956Y6103D01*
X274000Y5965D01*
X275044Y6103D01*
X276017Y6506D01*
X276853Y7147D01*
X277494Y7983D01*
X277897Y8956D01*
X278034Y10000D01*
X277897Y11044D01*
X277494Y12017D01*
X276853Y12853D01*
X276017Y13494D01*
X275044Y13897D01*
X274000Y14035D01*
D02*
G37*
G36*
X234000D02*
X232956Y13897D01*
X231983Y13494D01*
X231147Y12853D01*
X230506Y12017D01*
X230103Y11044D01*
X229965Y10000D01*
X230103Y8956D01*
X230506Y7983D01*
X231147Y7147D01*
X231983Y6506D01*
X232956Y6103D01*
X234000Y5965D01*
X235044Y6103D01*
X236017Y6506D01*
X236853Y7147D01*
X237494Y7983D01*
X237897Y8956D01*
X238035Y10000D01*
X237897Y11044D01*
X237494Y12017D01*
X236853Y12853D01*
X236017Y13494D01*
X235044Y13897D01*
X234000Y14035D01*
D02*
G37*
G36*
X384000Y14980D02*
X382711Y14810D01*
X381510Y14312D01*
X380479Y13521D01*
X379688Y12490D01*
X379190Y11289D01*
X379020Y10000D01*
X379190Y8711D01*
X379688Y7510D01*
X380479Y6479D01*
X381510Y5688D01*
X382711Y5190D01*
X384000Y5020D01*
X385289Y5190D01*
X386490Y5688D01*
X387521Y6479D01*
X388313Y7510D01*
X388810Y8711D01*
X388980Y10000D01*
X388810Y11289D01*
X388313Y12490D01*
X387521Y13521D01*
X386490Y14312D01*
X385289Y14810D01*
X384000Y14980D01*
D02*
G37*
G36*
X90961Y14921D02*
X85039D01*
X82079Y11961D01*
Y6039D01*
X85039Y3079D01*
X90961D01*
X93921Y6039D01*
Y11961D01*
X90961Y14921D01*
D02*
G37*
G36*
X42961D02*
X37039D01*
X34079Y11961D01*
Y6039D01*
X37039Y3079D01*
X42961D01*
X45921Y6039D01*
Y11961D01*
X42961Y14921D01*
D02*
G37*
G36*
X154000Y14035D02*
X152956Y13897D01*
X151983Y13494D01*
X151147Y12853D01*
X150506Y12017D01*
X150103Y11044D01*
X149966Y10000D01*
X150103Y8956D01*
X150506Y7983D01*
X151147Y7147D01*
X151983Y6506D01*
X152956Y6103D01*
X154000Y5965D01*
X155044Y6103D01*
X156017Y6506D01*
X156853Y7147D01*
X157494Y7983D01*
X157897Y8956D01*
X158035Y10000D01*
X157897Y11044D01*
X157494Y12017D01*
X156853Y12853D01*
X156017Y13494D01*
X155044Y13897D01*
X154000Y14035D01*
D02*
G37*
G36*
X144000D02*
X142956Y13897D01*
X141983Y13494D01*
X141147Y12853D01*
X140506Y12017D01*
X140103Y11044D01*
X139965Y10000D01*
X140103Y8956D01*
X140506Y7983D01*
X141147Y7147D01*
X141983Y6506D01*
X142956Y6103D01*
X144000Y5965D01*
X145044Y6103D01*
X146017Y6506D01*
X146853Y7147D01*
X147494Y7983D01*
X147897Y8956D01*
X148035Y10000D01*
X147897Y11044D01*
X147494Y12017D01*
X146853Y12853D01*
X146017Y13494D01*
X145044Y13897D01*
X144000Y14035D01*
D02*
G37*
G36*
X134000D02*
X132956Y13897D01*
X131983Y13494D01*
X131147Y12853D01*
X130506Y12017D01*
X130103Y11044D01*
X129965Y10000D01*
X130103Y8956D01*
X130506Y7983D01*
X131147Y7147D01*
X131983Y6506D01*
X132956Y6103D01*
X134000Y5965D01*
X135044Y6103D01*
X136017Y6506D01*
X136853Y7147D01*
X137494Y7983D01*
X137897Y8956D01*
X138034Y10000D01*
X137897Y11044D01*
X137494Y12017D01*
X136853Y12853D01*
X136017Y13494D01*
X135044Y13897D01*
X134000Y14035D01*
D02*
G37*
G36*
X146945Y31496D02*
X140614D01*
Y27039D01*
X139418D01*
X138819Y27819D01*
X137993Y28453D01*
X137032Y28851D01*
X136000Y28987D01*
X134968Y28851D01*
X134007Y28453D01*
X133181Y27819D01*
X132547Y26993D01*
X132149Y26032D01*
X132013Y25000D01*
X132149Y23968D01*
X132547Y23007D01*
X133181Y22181D01*
X134007Y21547D01*
X134968Y21149D01*
X136000Y21013D01*
X137032Y21149D01*
X137993Y21547D01*
X138819Y22181D01*
X139418Y22961D01*
X140614D01*
Y16504D01*
X146945D01*
Y31496D01*
D02*
G37*
G36*
X126000Y28987D02*
X124968Y28851D01*
X124007Y28453D01*
X123181Y27819D01*
X122547Y26993D01*
X122149Y26032D01*
X122013Y25000D01*
X122149Y23968D01*
X122547Y23007D01*
X123181Y22181D01*
X124007Y21547D01*
X124968Y21149D01*
X126000Y21013D01*
X127032Y21149D01*
X127993Y21547D01*
X128819Y22181D01*
X129453Y23007D01*
X129851Y23968D01*
X129987Y25000D01*
X129851Y26032D01*
X129453Y26993D01*
X128819Y27819D01*
X127993Y28453D01*
X127032Y28851D01*
X126000Y28987D01*
D02*
G37*
G36*
X320953Y26953D02*
X313047D01*
Y19047D01*
X320953D01*
Y26953D01*
D02*
G37*
G36*
X24150Y37150D02*
X15850D01*
Y28850D01*
X24150D01*
Y37150D01*
D02*
G37*
G36*
X39685Y37185D02*
X38602Y37043D01*
X37592Y36625D01*
X36726Y35960D01*
X36060Y35093D01*
X35642Y34083D01*
X35500Y33000D01*
X35642Y31917D01*
X36060Y30907D01*
X36726Y30040D01*
X37592Y29375D01*
X38602Y28957D01*
X39685Y28815D01*
X40768Y28957D01*
X41778Y29375D01*
X42645Y30040D01*
X43310Y30907D01*
X43728Y31917D01*
X43870Y33000D01*
X43728Y34083D01*
X43310Y35093D01*
X42645Y35960D01*
X41778Y36625D01*
X40768Y37043D01*
X39685Y37185D01*
D02*
G37*
G36*
X29843D02*
X28759Y37043D01*
X27750Y36625D01*
X26883Y35960D01*
X26218Y35093D01*
X25800Y34083D01*
X25657Y33000D01*
X25800Y31917D01*
X26218Y30907D01*
X26883Y30040D01*
X27750Y29375D01*
X28759Y28957D01*
X29843Y28815D01*
X30926Y28957D01*
X31935Y29375D01*
X32802Y30040D01*
X33467Y30907D01*
X33885Y31917D01*
X34028Y33000D01*
X33885Y34083D01*
X33467Y35093D01*
X32802Y35960D01*
X31935Y36625D01*
X30926Y37043D01*
X29843Y37185D01*
D02*
G37*
G36*
X169386Y65496D02*
X163055D01*
Y50504D01*
X163868D01*
X164071Y50141D01*
X164105Y50004D01*
X163961Y49280D01*
Y48496D01*
X162835D01*
Y33504D01*
X163961D01*
Y31496D01*
X163055D01*
Y16504D01*
X164691D01*
Y14323D01*
X164315Y13993D01*
X164000Y14035D01*
X162956Y13897D01*
X161983Y13494D01*
X161147Y12853D01*
X160506Y12017D01*
X160103Y11044D01*
X159966Y10000D01*
X160103Y8956D01*
X160506Y7983D01*
X161147Y7147D01*
X161983Y6506D01*
X162956Y6103D01*
X164000Y5965D01*
X165044Y6103D01*
X166017Y6506D01*
X166853Y7147D01*
X167494Y7983D01*
X167696Y8471D01*
X170304D01*
X170506Y7983D01*
X171147Y7147D01*
X171983Y6506D01*
X172956Y6103D01*
X174000Y5965D01*
X175044Y6103D01*
X176017Y6506D01*
X176853Y7147D01*
X177494Y7983D01*
X177897Y8956D01*
X178034Y10000D01*
X177897Y11044D01*
X177494Y12017D01*
X176853Y12853D01*
X176017Y13494D01*
X175044Y13897D01*
X174000Y14035D01*
X172956Y13897D01*
X171983Y13494D01*
X171147Y12853D01*
X170506Y12017D01*
X170304Y11529D01*
X168104D01*
X167712Y12029D01*
X167750Y12220D01*
Y16504D01*
X169386D01*
Y31496D01*
X168039D01*
Y33504D01*
X169165D01*
Y48496D01*
X168531D01*
X168499Y48513D01*
X168159Y48996D01*
X168260Y49500D01*
Y50504D01*
X169386D01*
Y65496D01*
D02*
G37*
G36*
X344000Y14035D02*
X342956Y13897D01*
X341983Y13494D01*
X341147Y12853D01*
X340506Y12017D01*
X340103Y11044D01*
X339966Y10000D01*
X340103Y8956D01*
X340506Y7983D01*
X341147Y7147D01*
X341983Y6506D01*
X342956Y6103D01*
X344000Y5965D01*
X345044Y6103D01*
X346017Y6506D01*
X346853Y7147D01*
X347494Y7983D01*
X347897Y8956D01*
X348035Y10000D01*
X347897Y11044D01*
X347494Y12017D01*
X346853Y12853D01*
X346017Y13494D01*
X345044Y13897D01*
X344000Y14035D01*
D02*
G37*
G36*
X334000D02*
X332956Y13897D01*
X331983Y13494D01*
X331147Y12853D01*
X330506Y12017D01*
X330103Y11044D01*
X329965Y10000D01*
X330103Y8956D01*
X330506Y7983D01*
X331147Y7147D01*
X331983Y6506D01*
X332956Y6103D01*
X334000Y5965D01*
X335044Y6103D01*
X336017Y6506D01*
X336853Y7147D01*
X337494Y7983D01*
X337897Y8956D01*
X338035Y10000D01*
X337897Y11044D01*
X337494Y12017D01*
X336853Y12853D01*
X336017Y13494D01*
X335044Y13897D01*
X334000Y14035D01*
D02*
G37*
G36*
X324000D02*
X322956Y13897D01*
X321983Y13494D01*
X321147Y12853D01*
X320506Y12017D01*
X320103Y11044D01*
X319966Y10000D01*
X320103Y8956D01*
X320506Y7983D01*
X321147Y7147D01*
X321983Y6506D01*
X322956Y6103D01*
X324000Y5965D01*
X325044Y6103D01*
X326017Y6506D01*
X326853Y7147D01*
X327494Y7983D01*
X327897Y8956D01*
X328034Y10000D01*
X327897Y11044D01*
X327494Y12017D01*
X326853Y12853D01*
X326017Y13494D01*
X325044Y13897D01*
X324000Y14035D01*
D02*
G37*
G36*
X298000Y14000D02*
X290000D01*
Y6000D01*
X298000D01*
Y14000D01*
D02*
G37*
G36*
X364000Y14035D02*
X362956Y13897D01*
X361983Y13494D01*
X361147Y12853D01*
X360506Y12017D01*
X360103Y11044D01*
X359965Y10000D01*
X360103Y8956D01*
X360506Y7983D01*
X361147Y7147D01*
X361983Y6506D01*
X362956Y6103D01*
X364000Y5965D01*
X365044Y6103D01*
X366017Y6506D01*
X366853Y7147D01*
X367494Y7983D01*
X367897Y8956D01*
X368035Y10000D01*
X367897Y11044D01*
X367494Y12017D01*
X366853Y12853D01*
X366017Y13494D01*
X365044Y13897D01*
X364000Y14035D01*
D02*
G37*
G36*
X354000D02*
X352956Y13897D01*
X351983Y13494D01*
X351147Y12853D01*
X350506Y12017D01*
X350103Y11044D01*
X349966Y10000D01*
X350103Y8956D01*
X350506Y7983D01*
X351147Y7147D01*
X351983Y6506D01*
X352956Y6103D01*
X354000Y5965D01*
X355044Y6103D01*
X356017Y6506D01*
X356853Y7147D01*
X357494Y7983D01*
X357897Y8956D01*
X358034Y10000D01*
X357897Y11044D01*
X357494Y12017D01*
X356853Y12853D01*
X356017Y13494D01*
X355044Y13897D01*
X354000Y14035D01*
D02*
G37*
G36*
X384000Y84035D02*
X382956Y83897D01*
X381983Y83494D01*
X381147Y82853D01*
X380506Y82017D01*
X380103Y81044D01*
X379965Y80000D01*
X380103Y78956D01*
X380506Y77983D01*
X381147Y77147D01*
X381983Y76506D01*
X382956Y76103D01*
X384000Y75965D01*
X385044Y76103D01*
X386017Y76506D01*
X386853Y77147D01*
X387494Y77983D01*
X387897Y78956D01*
X388035Y80000D01*
X387897Y81044D01*
X387494Y82017D01*
X386853Y82853D01*
X386017Y83494D01*
X385044Y83897D01*
X384000Y84035D01*
D02*
G37*
G36*
X374000Y164034D02*
X372956Y163897D01*
X371983Y163494D01*
X371147Y162853D01*
X370506Y162017D01*
X370103Y161044D01*
X369966Y160000D01*
X370103Y158956D01*
X370506Y157983D01*
X371147Y157147D01*
X371983Y156506D01*
X372956Y156103D01*
X374000Y155965D01*
X375044Y156103D01*
X376017Y156506D01*
X376853Y157147D01*
X377494Y157983D01*
X377897Y158956D01*
X378034Y160000D01*
X377897Y161044D01*
X377494Y162017D01*
X376853Y162853D01*
X376017Y163494D01*
X375044Y163897D01*
X374000Y164034D01*
D02*
G37*
G36*
X13000Y160273D02*
X11824Y160157D01*
X10693Y159814D01*
X9650Y159257D01*
X8737Y158507D01*
X7987Y157594D01*
X7430Y156551D01*
X7087Y155420D01*
X6971Y154244D01*
X7087Y153068D01*
X7430Y151937D01*
X7987Y150894D01*
X8737Y149981D01*
X9650Y149231D01*
X10693Y148674D01*
X11824Y148331D01*
X13000Y148215D01*
X14176Y148331D01*
X15307Y148674D01*
X16350Y149231D01*
X17263Y149981D01*
X18013Y150894D01*
X18570Y151937D01*
X18913Y153068D01*
X19029Y154244D01*
X18913Y155420D01*
X18570Y156551D01*
X18013Y157594D01*
X17263Y158507D01*
X16350Y159257D01*
X15307Y159814D01*
X14176Y160157D01*
X13000Y160273D01*
D02*
G37*
G36*
X384000Y164034D02*
X382956Y163897D01*
X381983Y163494D01*
X381147Y162853D01*
X380506Y162017D01*
X380103Y161044D01*
X379965Y160000D01*
X380103Y158956D01*
X380506Y157983D01*
X381147Y157147D01*
X381983Y156506D01*
X382956Y156103D01*
X384000Y155965D01*
X385044Y156103D01*
X386017Y156506D01*
X386853Y157147D01*
X387494Y157983D01*
X387897Y158956D01*
X388035Y160000D01*
X387897Y161044D01*
X387494Y162017D01*
X386853Y162853D01*
X386017Y163494D01*
X385044Y163897D01*
X384000Y164034D01*
D02*
G37*
G36*
Y174035D02*
X382956Y173897D01*
X381983Y173494D01*
X381147Y172853D01*
X380506Y172017D01*
X380103Y171044D01*
X379965Y170000D01*
X380103Y168956D01*
X380506Y167983D01*
X381147Y167147D01*
X381983Y166506D01*
X382956Y166103D01*
X384000Y165965D01*
X385044Y166103D01*
X386017Y166506D01*
X386853Y167147D01*
X387494Y167983D01*
X387897Y168956D01*
X388035Y170000D01*
X387897Y171044D01*
X387494Y172017D01*
X386853Y172853D01*
X386017Y173494D01*
X385044Y173897D01*
X384000Y174035D01*
D02*
G37*
G36*
X374000D02*
X372956Y173897D01*
X371983Y173494D01*
X371147Y172853D01*
X370506Y172017D01*
X370103Y171044D01*
X369966Y170000D01*
X370103Y168956D01*
X370506Y167983D01*
X371147Y167147D01*
X371983Y166506D01*
X372956Y166103D01*
X374000Y165965D01*
X375044Y166103D01*
X376017Y166506D01*
X376853Y167147D01*
X377494Y167983D01*
X377897Y168956D01*
X378034Y170000D01*
X377897Y171044D01*
X377494Y172017D01*
X376853Y172853D01*
X376017Y173494D01*
X375044Y173897D01*
X374000Y174035D01*
D02*
G37*
G36*
Y144035D02*
X372956Y143897D01*
X371983Y143494D01*
X371147Y142853D01*
X370506Y142017D01*
X370103Y141044D01*
X369966Y140000D01*
X370103Y138956D01*
X370506Y137983D01*
X371147Y137147D01*
X371983Y136506D01*
X372956Y136103D01*
X374000Y135966D01*
X375044Y136103D01*
X376017Y136506D01*
X376853Y137147D01*
X377494Y137983D01*
X377897Y138956D01*
X378034Y140000D01*
X377897Y141044D01*
X377494Y142017D01*
X376853Y142853D01*
X376017Y143494D01*
X375044Y143897D01*
X374000Y144035D01*
D02*
G37*
G36*
X384000Y134035D02*
X382956Y133897D01*
X381983Y133494D01*
X381147Y132853D01*
X380506Y132017D01*
X380103Y131044D01*
X379965Y130000D01*
X380103Y128956D01*
X380506Y127983D01*
X381147Y127147D01*
X381983Y126506D01*
X382956Y126103D01*
X384000Y125965D01*
X385044Y126103D01*
X386017Y126506D01*
X386853Y127147D01*
X387494Y127983D01*
X387897Y128956D01*
X388035Y130000D01*
X387897Y131044D01*
X387494Y132017D01*
X386853Y132853D01*
X386017Y133494D01*
X385044Y133897D01*
X384000Y134035D01*
D02*
G37*
G36*
Y144035D02*
X382956Y143897D01*
X381983Y143494D01*
X381147Y142853D01*
X380506Y142017D01*
X380103Y141044D01*
X379965Y140000D01*
X380103Y138956D01*
X380506Y137983D01*
X381147Y137147D01*
X381983Y136506D01*
X382956Y136103D01*
X384000Y135966D01*
X385044Y136103D01*
X386017Y136506D01*
X386853Y137147D01*
X387494Y137983D01*
X387897Y138956D01*
X388035Y140000D01*
X387897Y141044D01*
X387494Y142017D01*
X386853Y142853D01*
X386017Y143494D01*
X385044Y143897D01*
X384000Y144035D01*
D02*
G37*
G36*
Y154034D02*
X382956Y153897D01*
X381983Y153494D01*
X381147Y152853D01*
X380506Y152017D01*
X380103Y151044D01*
X379965Y150000D01*
X380103Y148956D01*
X380506Y147983D01*
X381147Y147147D01*
X381983Y146506D01*
X382956Y146103D01*
X384000Y145966D01*
X385044Y146103D01*
X386017Y146506D01*
X386853Y147147D01*
X387494Y147983D01*
X387897Y148956D01*
X388035Y150000D01*
X387897Y151044D01*
X387494Y152017D01*
X386853Y152853D01*
X386017Y153494D01*
X385044Y153897D01*
X384000Y154034D01*
D02*
G37*
G36*
X374000D02*
X372956Y153897D01*
X371983Y153494D01*
X371147Y152853D01*
X370506Y152017D01*
X370103Y151044D01*
X369966Y150000D01*
X370103Y148956D01*
X370506Y147983D01*
X371147Y147147D01*
X371983Y146506D01*
X372956Y146103D01*
X374000Y145966D01*
X375044Y146103D01*
X376017Y146506D01*
X376853Y147147D01*
X377494Y147983D01*
X377897Y148956D01*
X378034Y150000D01*
X377897Y151044D01*
X377494Y152017D01*
X376853Y152853D01*
X376017Y153494D01*
X375044Y153897D01*
X374000Y154034D01*
D02*
G37*
G36*
X249000Y175987D02*
X247968Y175851D01*
X247007Y175453D01*
X246181Y174819D01*
X245547Y173993D01*
X245149Y173032D01*
X245013Y172000D01*
X245149Y170968D01*
X245547Y170007D01*
X246181Y169181D01*
X247007Y168547D01*
X247968Y168149D01*
X249000Y168013D01*
X250032Y168149D01*
X250993Y168547D01*
X251819Y169181D01*
X252453Y170007D01*
X252851Y170968D01*
X252987Y172000D01*
X252851Y173032D01*
X252453Y173993D01*
X251819Y174819D01*
X250993Y175453D01*
X250032Y175851D01*
X249000Y175987D01*
D02*
G37*
G36*
X384000Y194035D02*
X382956Y193897D01*
X381983Y193494D01*
X381147Y192853D01*
X380506Y192017D01*
X380103Y191044D01*
X379965Y190000D01*
X380103Y188956D01*
X380506Y187983D01*
X381147Y187147D01*
X381983Y186506D01*
X382956Y186103D01*
X384000Y185966D01*
X385044Y186103D01*
X386017Y186506D01*
X386853Y187147D01*
X387494Y187983D01*
X387897Y188956D01*
X388035Y190000D01*
X387897Y191044D01*
X387494Y192017D01*
X386853Y192853D01*
X386017Y193494D01*
X385044Y193897D01*
X384000Y194035D01*
D02*
G37*
G36*
X374000D02*
X372956Y193897D01*
X371983Y193494D01*
X371147Y192853D01*
X370506Y192017D01*
X370103Y191044D01*
X369966Y190000D01*
X370103Y188956D01*
X370506Y187983D01*
X371147Y187147D01*
X371983Y186506D01*
X372956Y186103D01*
X374000Y185966D01*
X375044Y186103D01*
X376017Y186506D01*
X376853Y187147D01*
X377494Y187983D01*
X377897Y188956D01*
X378034Y190000D01*
X377897Y191044D01*
X377494Y192017D01*
X376853Y192853D01*
X376017Y193494D01*
X375044Y193897D01*
X374000Y194035D01*
D02*
G37*
G36*
X64000Y204980D02*
X62711Y204810D01*
X61510Y204312D01*
X60479Y203521D01*
X59688Y202490D01*
X59190Y201289D01*
X59020Y200000D01*
X59190Y198711D01*
X59688Y197510D01*
X60479Y196479D01*
X61510Y195687D01*
X62711Y195190D01*
X64000Y195020D01*
X65289Y195190D01*
X66490Y195687D01*
X67521Y196479D01*
X68313Y197510D01*
X68810Y198711D01*
X68980Y200000D01*
X68810Y201289D01*
X68313Y202490D01*
X67521Y203521D01*
X66490Y204312D01*
X65289Y204810D01*
X64000Y204980D01*
D02*
G37*
G36*
X384000Y204034D02*
X382956Y203897D01*
X381983Y203494D01*
X381147Y202853D01*
X380506Y202017D01*
X380304Y201529D01*
X377696D01*
X377494Y202017D01*
X376853Y202853D01*
X376017Y203494D01*
X375044Y203897D01*
X374000Y204034D01*
X372956Y203897D01*
X371983Y203494D01*
X371147Y202853D01*
X370506Y202017D01*
X370103Y201044D01*
X369966Y200000D01*
X370103Y198956D01*
X370506Y197983D01*
X371147Y197147D01*
X371983Y196506D01*
X372956Y196103D01*
X374000Y195966D01*
X375044Y196103D01*
X376017Y196506D01*
X376853Y197147D01*
X377494Y197983D01*
X377696Y198471D01*
X380304D01*
X380506Y197983D01*
X381147Y197147D01*
X381983Y196506D01*
X382956Y196103D01*
X384000Y195966D01*
X385044Y196103D01*
X386017Y196506D01*
X386853Y197147D01*
X387494Y197983D01*
X387897Y198956D01*
X388035Y200000D01*
X387897Y201044D01*
X387494Y202017D01*
X386853Y202853D01*
X386017Y203494D01*
X385044Y203897D01*
X384000Y204034D01*
D02*
G37*
G36*
X359000Y204980D02*
X357711Y204810D01*
X356510Y204312D01*
X355479Y203521D01*
X354688Y202490D01*
X354190Y201289D01*
X354020Y200000D01*
X354190Y198711D01*
X354688Y197510D01*
X355479Y196479D01*
X356510Y195687D01*
X357711Y195190D01*
X359000Y195020D01*
X360289Y195190D01*
X361490Y195687D01*
X362521Y196479D01*
X363313Y197510D01*
X363810Y198711D01*
X363980Y200000D01*
X363810Y201289D01*
X363313Y202490D01*
X362521Y203521D01*
X361490Y204312D01*
X360289Y204810D01*
X359000Y204980D01*
D02*
G37*
G36*
X384000Y184035D02*
X382956Y183897D01*
X381983Y183494D01*
X381147Y182853D01*
X380506Y182017D01*
X380103Y181044D01*
X379965Y180000D01*
X380103Y178956D01*
X380506Y177983D01*
X381147Y177147D01*
X381983Y176506D01*
X382956Y176103D01*
X384000Y175965D01*
X385044Y176103D01*
X386017Y176506D01*
X386853Y177147D01*
X387494Y177983D01*
X387897Y178956D01*
X388035Y180000D01*
X387897Y181044D01*
X387494Y182017D01*
X386853Y182853D01*
X386017Y183494D01*
X385044Y183897D01*
X384000Y184035D01*
D02*
G37*
G36*
X374000D02*
X372956Y183897D01*
X371983Y183494D01*
X371147Y182853D01*
X370506Y182017D01*
X370103Y181044D01*
X369966Y180000D01*
X370103Y178956D01*
X370506Y177983D01*
X371147Y177147D01*
X371983Y176506D01*
X372956Y176103D01*
X374000Y175965D01*
X375044Y176103D01*
X376017Y176506D01*
X376853Y177147D01*
X377494Y177983D01*
X377897Y178956D01*
X378034Y180000D01*
X377897Y181044D01*
X377494Y182017D01*
X376853Y182853D01*
X376017Y183494D01*
X375044Y183897D01*
X374000Y184035D01*
D02*
G37*
G36*
X23000Y186987D02*
X21968Y186851D01*
X21007Y186453D01*
X20181Y185819D01*
X19547Y184993D01*
X19149Y184032D01*
X19013Y183000D01*
X19149Y181968D01*
X19547Y181007D01*
X20181Y180181D01*
X21007Y179547D01*
X21968Y179149D01*
X23000Y179013D01*
X24032Y179149D01*
X24993Y179547D01*
X25819Y180181D01*
X26453Y181007D01*
X26851Y181968D01*
X26987Y183000D01*
X26851Y184032D01*
X26453Y184993D01*
X25819Y185819D01*
X24993Y186453D01*
X24032Y186851D01*
X23000Y186987D01*
D02*
G37*
G36*
X177000Y208529D02*
X86200D01*
X85615Y208413D01*
X85119Y208081D01*
X70967Y193929D01*
X54000D01*
X53415Y193813D01*
X52919Y193481D01*
X47619Y188181D01*
X47287Y187685D01*
X47171Y187100D01*
Y184567D01*
X46671Y184467D01*
X46453Y184993D01*
X45819Y185819D01*
X44993Y186453D01*
X44032Y186851D01*
X43000Y186987D01*
X41968Y186851D01*
X41007Y186453D01*
X40181Y185819D01*
X39547Y184993D01*
X39149Y184032D01*
X39013Y183000D01*
X39149Y181968D01*
X39547Y181007D01*
X40181Y180181D01*
X41007Y179547D01*
X41968Y179149D01*
X43000Y179013D01*
X44032Y179149D01*
X44993Y179547D01*
X45819Y180181D01*
X46453Y181007D01*
X46671Y181533D01*
X47171Y181433D01*
Y179500D01*
X47287Y178915D01*
X47619Y178419D01*
X63119Y162919D01*
X63615Y162587D01*
X64200Y162471D01*
X231000D01*
X231585Y162587D01*
X232081Y162919D01*
X234531Y165369D01*
X237504Y168341D01*
X237968Y168149D01*
X239000Y168013D01*
X240032Y168149D01*
X240993Y168547D01*
X241819Y169181D01*
X242453Y170007D01*
X242851Y170968D01*
X242987Y172000D01*
X242851Y173032D01*
X242453Y173993D01*
X241941Y174661D01*
X242151Y175161D01*
X244200D01*
X244980Y175316D01*
X245642Y175758D01*
X248025Y178141D01*
X249000Y178013D01*
X250032Y178149D01*
X250993Y178547D01*
X251819Y179181D01*
X252453Y180007D01*
X252851Y180968D01*
X252987Y182000D01*
X252858Y182975D01*
X254547Y184663D01*
X255047Y184526D01*
Y178047D01*
X256961D01*
Y175418D01*
X256181Y174819D01*
X255547Y173993D01*
X255149Y173032D01*
X255013Y172000D01*
X255149Y170968D01*
X255547Y170007D01*
X256181Y169181D01*
X257007Y168547D01*
X257968Y168149D01*
X259000Y168013D01*
X259975Y168141D01*
X262358Y165758D01*
X262358Y165758D01*
X263020Y165316D01*
X263800Y165161D01*
X263800Y165161D01*
X299200D01*
X299980Y165316D01*
X300642Y165758D01*
X303025Y168141D01*
X304000Y168013D01*
X304975Y168141D01*
X310458Y162658D01*
X311120Y162216D01*
X311900Y162061D01*
X341100D01*
X341880Y162216D01*
X342542Y162658D01*
X348025Y168141D01*
X349000Y168013D01*
X350032Y168149D01*
X350993Y168547D01*
X351819Y169181D01*
X352453Y170007D01*
X352851Y170968D01*
X352987Y172000D01*
X352851Y173032D01*
X352453Y173993D01*
X352237Y174275D01*
X352458Y174723D01*
X353300D01*
X353885Y174840D01*
X354381Y175171D01*
X354713Y175668D01*
X354829Y176253D01*
Y187600D01*
X354713Y188185D01*
X354381Y188681D01*
X349829Y193234D01*
Y204300D01*
X349713Y204885D01*
X349381Y205381D01*
X348885Y205713D01*
X348300Y205829D01*
X228300D01*
X227715Y205713D01*
X227219Y205381D01*
X225532Y203695D01*
X225044Y203897D01*
X224000Y204034D01*
X222956Y203897D01*
X221983Y203494D01*
X221147Y202853D01*
X220506Y202017D01*
X220103Y201044D01*
X219966Y200000D01*
X220103Y198956D01*
X220506Y197983D01*
X221147Y197147D01*
X221335Y197003D01*
X221175Y196529D01*
X216826D01*
X216665Y197003D01*
X216853Y197147D01*
X217494Y197983D01*
X217897Y198956D01*
X218035Y200000D01*
X217897Y201044D01*
X217494Y202017D01*
X216853Y202853D01*
X216017Y203494D01*
X215044Y203897D01*
X214000Y204034D01*
X212956Y203897D01*
X211983Y203494D01*
X211147Y202853D01*
X210506Y202017D01*
X210103Y201044D01*
X209965Y200000D01*
X210103Y198956D01*
X210506Y197983D01*
X211147Y197147D01*
X211335Y197003D01*
X211175Y196529D01*
X206825D01*
X206665Y197003D01*
X206853Y197147D01*
X207494Y197983D01*
X207897Y198956D01*
X208034Y200000D01*
X207897Y201044D01*
X207494Y202017D01*
X206853Y202853D01*
X206017Y203494D01*
X205044Y203897D01*
X204000Y204034D01*
X202956Y203897D01*
X201983Y203494D01*
X201147Y202853D01*
X200506Y202017D01*
X200103Y201044D01*
X199966Y200000D01*
X200103Y198956D01*
X200506Y197983D01*
X201147Y197147D01*
X201335Y197003D01*
X201174Y196529D01*
X196826D01*
X196665Y197003D01*
X196853Y197147D01*
X197494Y197983D01*
X197897Y198956D01*
X198035Y200000D01*
X197897Y201044D01*
X197494Y202017D01*
X196853Y202853D01*
X196017Y203494D01*
X195044Y203897D01*
X194000Y204034D01*
X192956Y203897D01*
X191983Y203494D01*
X191147Y202853D01*
X190506Y202017D01*
X190103Y201044D01*
X189965Y200000D01*
X190103Y198956D01*
X190506Y197983D01*
X191147Y197147D01*
X191335Y197003D01*
X191174Y196529D01*
X186826D01*
X186665Y197003D01*
X186853Y197147D01*
X187494Y197983D01*
X187897Y198956D01*
X188034Y200000D01*
X187897Y201044D01*
X187494Y202017D01*
X186853Y202853D01*
X186017Y203494D01*
X185044Y203897D01*
X184000Y204034D01*
X182956Y203897D01*
X182468Y203695D01*
X178081Y208081D01*
X177585Y208413D01*
X177000Y208529D01*
D02*
G37*
G36*
X33000Y186987D02*
X31968Y186851D01*
X31007Y186453D01*
X30181Y185819D01*
X29547Y184993D01*
X29149Y184032D01*
X29013Y183000D01*
X29149Y181968D01*
X29547Y181007D01*
X30181Y180181D01*
X31007Y179547D01*
X31968Y179149D01*
X33000Y179013D01*
X34032Y179149D01*
X34993Y179547D01*
X35819Y180181D01*
X36453Y181007D01*
X36851Y181968D01*
X36987Y183000D01*
X36851Y184032D01*
X36453Y184993D01*
X35819Y185819D01*
X34993Y186453D01*
X34032Y186851D01*
X33000Y186987D01*
D02*
G37*
G36*
X89657Y96815D02*
X82342D01*
Y89500D01*
X89657D01*
Y96815D01*
D02*
G37*
G36*
X346000Y106987D02*
X344968Y106851D01*
X344007Y106453D01*
X343181Y105819D01*
X342547Y104993D01*
X342149Y104032D01*
X342013Y103000D01*
X342149Y101968D01*
X342547Y101007D01*
X343181Y100181D01*
X344007Y99547D01*
X344968Y99149D01*
X346000Y99013D01*
X347032Y99149D01*
X347496Y99341D01*
X350171Y96667D01*
Y94567D01*
X349671Y94467D01*
X349453Y94993D01*
X348819Y95819D01*
X347993Y96453D01*
X347032Y96851D01*
X346000Y96987D01*
X344968Y96851D01*
X344007Y96453D01*
X343181Y95819D01*
X342547Y94993D01*
X342149Y94032D01*
X342013Y93000D01*
X342149Y91968D01*
X342547Y91007D01*
X343181Y90181D01*
X344007Y89547D01*
X344968Y89149D01*
X346000Y89013D01*
X347032Y89149D01*
X347993Y89547D01*
X348819Y90181D01*
X349453Y91007D01*
X349671Y91533D01*
X350171Y91433D01*
Y84567D01*
X349671Y84467D01*
X349453Y84993D01*
X348819Y85819D01*
X347993Y86453D01*
X347032Y86851D01*
X346000Y86987D01*
X344968Y86851D01*
X344007Y86453D01*
X343181Y85819D01*
X342547Y84993D01*
X342149Y84032D01*
X342013Y83000D01*
X342149Y81968D01*
X342547Y81007D01*
X343181Y80181D01*
X344007Y79547D01*
X344471Y79355D01*
Y67000D01*
X344587Y66415D01*
X344919Y65919D01*
X356919Y53919D01*
X357415Y53587D01*
X358000Y53471D01*
X371175D01*
X371335Y52997D01*
X371147Y52853D01*
X370506Y52017D01*
X370103Y51044D01*
X369966Y50000D01*
X370103Y48956D01*
X370506Y47983D01*
X371147Y47147D01*
X371983Y46506D01*
X372956Y46103D01*
X374000Y45965D01*
X375044Y46103D01*
X376017Y46506D01*
X376853Y47147D01*
X377494Y47983D01*
X377897Y48956D01*
X378034Y50000D01*
X377897Y51044D01*
X377494Y52017D01*
X376853Y52853D01*
X376665Y52997D01*
X376825Y53471D01*
X378366D01*
X380305Y51532D01*
X380103Y51044D01*
X379965Y50000D01*
X380103Y48956D01*
X380506Y47983D01*
X381147Y47147D01*
X381983Y46506D01*
X382956Y46103D01*
X384000Y45965D01*
X385044Y46103D01*
X386017Y46506D01*
X386853Y47147D01*
X387494Y47983D01*
X387897Y48956D01*
X388035Y50000D01*
X387897Y51044D01*
X387494Y52017D01*
X386853Y52853D01*
X386017Y53494D01*
X385044Y53897D01*
X384000Y54035D01*
X382956Y53897D01*
X382468Y53695D01*
X380081Y56081D01*
X379585Y56413D01*
X379000Y56529D01*
X376825D01*
X376665Y57003D01*
X376853Y57147D01*
X377494Y57983D01*
X377897Y58956D01*
X378034Y60000D01*
X377897Y61044D01*
X377494Y62017D01*
X376853Y62853D01*
X376017Y63494D01*
X375044Y63897D01*
X374000Y64034D01*
X372956Y63897D01*
X371983Y63494D01*
X371147Y62853D01*
X370797Y62397D01*
X370299Y62364D01*
X353506Y79157D01*
X353527Y79285D01*
X353865Y79470D01*
X354072Y79520D01*
X354968Y79149D01*
X356000Y79013D01*
X357032Y79149D01*
X357993Y79547D01*
X358819Y80181D01*
X359453Y81007D01*
X359851Y81968D01*
X359987Y83000D01*
X359851Y84032D01*
X359453Y84993D01*
X358819Y85819D01*
X357993Y86453D01*
X357032Y86851D01*
X356000Y86987D01*
X354968Y86851D01*
X354007Y86453D01*
X353678Y86200D01*
X353229Y86422D01*
Y89578D01*
X353678Y89799D01*
X354007Y89547D01*
X354968Y89149D01*
X356000Y89013D01*
X357032Y89149D01*
X357993Y89547D01*
X358819Y90181D01*
X359453Y91007D01*
X359851Y91968D01*
X359987Y93000D01*
X359851Y94032D01*
X359453Y94993D01*
X358819Y95819D01*
X357993Y96453D01*
X357032Y96851D01*
X356000Y96987D01*
X354968Y96851D01*
X354007Y96453D01*
X353678Y96201D01*
X353229Y96422D01*
Y97300D01*
X353113Y97885D01*
X352781Y98381D01*
X349659Y101504D01*
X349851Y101968D01*
X349987Y103000D01*
X349851Y104032D01*
X349453Y104993D01*
X348819Y105819D01*
X347993Y106453D01*
X347032Y106851D01*
X346000Y106987D01*
D02*
G37*
G36*
X19000Y116532D02*
X18045Y116406D01*
X17155Y116037D01*
X16391Y115451D01*
X15805Y114687D01*
X15437Y113797D01*
X15311Y112843D01*
X15437Y111888D01*
X15805Y110998D01*
X16391Y110234D01*
X17155Y109648D01*
X18045Y109279D01*
X19000Y109154D01*
X19955Y109279D01*
X20844Y109648D01*
X21609Y110234D01*
X22195Y110998D01*
X22563Y111888D01*
X22689Y112843D01*
X22563Y113797D01*
X22195Y114687D01*
X21609Y115451D01*
X20844Y116037D01*
X19955Y116406D01*
X19000Y116532D01*
D02*
G37*
G36*
X22658Y96815D02*
X15342D01*
Y89500D01*
X22658D01*
Y96815D01*
D02*
G37*
G36*
X356000Y106987D02*
X354968Y106851D01*
X354007Y106453D01*
X353181Y105819D01*
X352547Y104993D01*
X352149Y104032D01*
X352013Y103000D01*
X352149Y101968D01*
X352547Y101007D01*
X353181Y100181D01*
X354007Y99547D01*
X354968Y99149D01*
X356000Y99013D01*
X357032Y99149D01*
X357993Y99547D01*
X358819Y100181D01*
X359453Y101007D01*
X359851Y101968D01*
X359987Y103000D01*
X359851Y104032D01*
X359453Y104993D01*
X358819Y105819D01*
X357993Y106453D01*
X357032Y106851D01*
X356000Y106987D01*
D02*
G37*
G36*
X384000Y94034D02*
X382956Y93897D01*
X381983Y93494D01*
X381147Y92853D01*
X380506Y92017D01*
X380103Y91044D01*
X379965Y90000D01*
X380103Y88956D01*
X380506Y87983D01*
X381147Y87147D01*
X381983Y86506D01*
X382956Y86103D01*
X384000Y85966D01*
X385044Y86103D01*
X386017Y86506D01*
X386853Y87147D01*
X387494Y87983D01*
X387897Y88956D01*
X388035Y90000D01*
X387897Y91044D01*
X387494Y92017D01*
X386853Y92853D01*
X386017Y93494D01*
X385044Y93897D01*
X384000Y94034D01*
D02*
G37*
G36*
Y114034D02*
X382956Y113897D01*
X381983Y113494D01*
X381147Y112853D01*
X380506Y112017D01*
X380103Y111044D01*
X379965Y110000D01*
X380103Y108956D01*
X380506Y107983D01*
X381147Y107147D01*
X381983Y106506D01*
X382956Y106103D01*
X384000Y105965D01*
X385044Y106103D01*
X386017Y106506D01*
X386853Y107147D01*
X387494Y107983D01*
X387897Y108956D01*
X388035Y110000D01*
X387897Y111044D01*
X387494Y112017D01*
X386853Y112853D01*
X386017Y113494D01*
X385044Y113897D01*
X384000Y114034D01*
D02*
G37*
G36*
X13000Y186987D02*
X11968Y186851D01*
X11007Y186453D01*
X10181Y185819D01*
X9547Y184993D01*
X9149Y184032D01*
X9013Y183000D01*
X9149Y181968D01*
X9547Y181007D01*
X10181Y180181D01*
X11007Y179547D01*
X11968Y179149D01*
X13000Y179013D01*
X14032Y179149D01*
X14496Y179341D01*
X40169Y153669D01*
X40665Y153337D01*
X41250Y153221D01*
X121626D01*
X121796Y152721D01*
X121504Y152496D01*
X121153Y152039D01*
X85400D01*
X84620Y151884D01*
X83958Y151442D01*
X61058Y128542D01*
X59558Y127042D01*
X59116Y126380D01*
X58961Y125600D01*
Y66400D01*
X59116Y65620D01*
X59558Y64958D01*
X64359Y60158D01*
X64152Y59658D01*
X57500D01*
Y52342D01*
X64815D01*
Y58994D01*
X65315Y59201D01*
X75458Y49058D01*
X75458Y49058D01*
X76120Y48616D01*
X76900Y48461D01*
X76900Y48461D01*
X102343D01*
X103123Y48616D01*
X103785Y49058D01*
X107069Y52342D01*
X111500D01*
Y59658D01*
X104185D01*
Y55226D01*
X101498Y52539D01*
X90477D01*
X90307Y53039D01*
X90766Y53391D01*
X91352Y54155D01*
X91721Y55045D01*
X91846Y56000D01*
X91721Y56955D01*
X91352Y57845D01*
X90766Y58609D01*
X90002Y59195D01*
X89112Y59563D01*
X88157Y59689D01*
X87203Y59563D01*
X86313Y59195D01*
X85549Y58609D01*
X84963Y57845D01*
X84771Y57381D01*
X84229D01*
X84037Y57845D01*
X83451Y58609D01*
X82687Y59195D01*
X81797Y59563D01*
X80843Y59689D01*
X79888Y59563D01*
X78998Y59195D01*
X78234Y58609D01*
X77648Y57845D01*
X77279Y56955D01*
X77154Y56000D01*
X77279Y55045D01*
X77648Y54155D01*
X78234Y53391D01*
X78693Y53039D01*
X78523Y52539D01*
X77745D01*
X63039Y67245D01*
Y89126D01*
X63342Y89500D01*
X63539Y89500D01*
X65216D01*
Y71000D01*
X65351Y70317D01*
X65738Y69738D01*
X70738Y64738D01*
X70738Y64738D01*
X71317Y64351D01*
X72000Y64216D01*
X72000Y64216D01*
X111261D01*
X115216Y60261D01*
Y46000D01*
X115351Y45317D01*
X115738Y44738D01*
X119738Y40738D01*
X119738Y40738D01*
X120317Y40352D01*
X121000Y40216D01*
X122461D01*
X122547Y40007D01*
X123181Y39181D01*
X124007Y38547D01*
X124968Y38149D01*
X126000Y38013D01*
X127032Y38149D01*
X127993Y38547D01*
X128819Y39181D01*
X129453Y40007D01*
X129851Y40968D01*
X129987Y42000D01*
X129851Y43032D01*
X129453Y43993D01*
X128819Y44819D01*
X127993Y45453D01*
X127032Y45851D01*
X126000Y45987D01*
X124968Y45851D01*
X124007Y45453D01*
X123181Y44819D01*
X122547Y43993D01*
X122461Y43784D01*
X121739D01*
X118784Y46739D01*
Y61000D01*
X118784Y61000D01*
X118649Y61683D01*
X118262Y62262D01*
X118262Y62262D01*
X113262Y67262D01*
X112683Y67649D01*
X112000Y67784D01*
X72739D01*
X68784Y71739D01*
Y89500D01*
X70657D01*
Y96815D01*
X63539D01*
X63342Y96815D01*
X63039Y97189D01*
Y111541D01*
X63539Y111640D01*
X63805Y110998D01*
X64391Y110234D01*
X65156Y109648D01*
X66045Y109279D01*
X67000Y109154D01*
X67955Y109279D01*
X68844Y109648D01*
X69609Y110234D01*
X70195Y110998D01*
X70563Y111888D01*
X70689Y112843D01*
X70563Y113797D01*
X70195Y114687D01*
X69609Y115451D01*
X68844Y116037D01*
X67955Y116406D01*
X67000Y116532D01*
X66045Y116406D01*
X65156Y116037D01*
X64391Y115451D01*
X63805Y114687D01*
X63539Y114045D01*
X63039Y114144D01*
Y124755D01*
X63942Y125658D01*
X86245Y147961D01*
X121153D01*
X121504Y147504D01*
X122235Y146943D01*
X123086Y146590D01*
X124000Y146470D01*
X124914Y146590D01*
X125765Y146943D01*
X126496Y147504D01*
X127057Y148235D01*
X127410Y149086D01*
X127530Y150000D01*
X127410Y150914D01*
X127057Y151765D01*
X126496Y152496D01*
X126204Y152721D01*
X126374Y153221D01*
X152617D01*
X158919Y146919D01*
X159415Y146587D01*
X160000Y146471D01*
X162109D01*
X162390Y146415D01*
X167610D01*
X167891Y146471D01*
X284208D01*
X284378Y145971D01*
X284181Y145819D01*
X283547Y144993D01*
X283149Y144032D01*
X283013Y143000D01*
X283149Y141968D01*
X283547Y141007D01*
X283829Y140639D01*
X283583Y140139D01*
X161543D01*
Y141272D01*
X159272Y143543D01*
X154728D01*
X152457Y141272D01*
Y141039D01*
X140000D01*
X139220Y140884D01*
X138558Y140442D01*
X132558Y134442D01*
X132116Y133780D01*
X131961Y133000D01*
Y115888D01*
X131392Y115451D01*
X130805Y114687D01*
X130437Y113797D01*
X130311Y112843D01*
X130437Y111888D01*
X130805Y110998D01*
X131392Y110234D01*
X132156Y109648D01*
X133045Y109279D01*
X134000Y109154D01*
X134955Y109279D01*
X135845Y109648D01*
X136609Y110234D01*
X137195Y110998D01*
X137563Y111888D01*
X137689Y112843D01*
X137563Y113797D01*
X137195Y114687D01*
X136609Y115451D01*
X136039Y115888D01*
Y132155D01*
X140845Y136961D01*
X152457D01*
Y136728D01*
X154728Y134457D01*
X159272D01*
X160876Y136061D01*
X283736D01*
X283983Y135561D01*
X283547Y134993D01*
X283149Y134032D01*
X283013Y133000D01*
X283149Y131968D01*
X283547Y131007D01*
X284181Y130181D01*
X285007Y129547D01*
X285968Y129149D01*
X287000Y129013D01*
X288032Y129149D01*
X288993Y129547D01*
X289819Y130181D01*
X289971Y130378D01*
X290471Y130209D01*
Y125792D01*
X289971Y125622D01*
X289819Y125819D01*
X288993Y126453D01*
X288032Y126851D01*
X287000Y126987D01*
X285968Y126851D01*
X285007Y126453D01*
X284181Y125819D01*
X283547Y124993D01*
X283355Y124529D01*
X161256D01*
X160671Y124413D01*
X160175Y124081D01*
X159326Y123233D01*
X159272Y123287D01*
X154728D01*
X152457Y121016D01*
Y116472D01*
X154728Y114201D01*
X159272D01*
X161543Y116472D01*
Y121016D01*
X161489Y121070D01*
X161890Y121471D01*
X283355D01*
X283547Y121007D01*
X284181Y120181D01*
X284378Y120029D01*
X284208Y119529D01*
X166000D01*
X165415Y119413D01*
X164919Y119081D01*
X162919Y117081D01*
X162587Y116585D01*
X162471Y116000D01*
Y112634D01*
X161326Y111489D01*
X159272Y113543D01*
X154728D01*
X152457Y111272D01*
Y106728D01*
X154728Y104457D01*
X159272D01*
X161543Y106728D01*
Y107579D01*
X161585Y107587D01*
X162081Y107919D01*
X165081Y110919D01*
X165413Y111415D01*
X165529Y112000D01*
Y115366D01*
X166633Y116471D01*
X284208D01*
X284378Y115971D01*
X284181Y115819D01*
X283547Y114993D01*
X283149Y114032D01*
X283013Y113000D01*
X283149Y111968D01*
X283341Y111504D01*
X272366Y100529D01*
X161543D01*
Y101272D01*
X159272Y103543D01*
X154728D01*
X152457Y101272D01*
Y96728D01*
X153350Y95835D01*
X153159Y95373D01*
X137657D01*
Y96815D01*
X130342D01*
Y89500D01*
X137657D01*
Y92314D01*
X152846D01*
X153037Y91852D01*
X152457Y91272D01*
Y86728D01*
X154728Y84457D01*
X159272D01*
X161543Y86728D01*
Y88471D01*
X269367D01*
X270919Y86919D01*
X271415Y86587D01*
X272000Y86471D01*
X284208D01*
X284378Y85971D01*
X284181Y85819D01*
X283547Y84993D01*
X283149Y84032D01*
X283013Y83000D01*
X283149Y81968D01*
X283547Y81007D01*
X284181Y80181D01*
X285007Y79547D01*
X285968Y79149D01*
X287000Y79013D01*
X288032Y79149D01*
X288496Y79341D01*
X300919Y66919D01*
X301415Y66587D01*
X302000Y66471D01*
X314209D01*
X314378Y65971D01*
X314181Y65819D01*
X313547Y64993D01*
X313149Y64032D01*
X313013Y63000D01*
X313149Y61968D01*
X313547Y61007D01*
X314181Y60181D01*
X315007Y59547D01*
X315968Y59149D01*
X317000Y59013D01*
X318032Y59149D01*
X318993Y59547D01*
X319819Y60181D01*
X320453Y61007D01*
X320851Y61968D01*
X320987Y63000D01*
X320851Y64032D01*
X320453Y64993D01*
X319819Y65819D01*
X319622Y65971D01*
X319792Y66471D01*
X322000D01*
X322585Y66587D01*
X323081Y66919D01*
X331081Y74919D01*
X340081Y83919D01*
X340413Y84415D01*
X340529Y85000D01*
Y109367D01*
X341585Y110422D01*
X342047Y110231D01*
Y109047D01*
X349953D01*
Y116953D01*
X348039D01*
Y119000D01*
X347884Y119780D01*
X347442Y120442D01*
X347442Y120442D01*
X338242Y129642D01*
X337580Y130084D01*
X336800Y130239D01*
X320429D01*
X320208Y130688D01*
X320453Y131007D01*
X320851Y131968D01*
X320987Y133000D01*
X320851Y134032D01*
X320453Y134993D01*
X319819Y135819D01*
X318993Y136453D01*
X318032Y136851D01*
X317000Y136987D01*
X315968Y136851D01*
X315007Y136453D01*
X314181Y135819D01*
X313547Y134993D01*
X313149Y134032D01*
X313013Y133000D01*
X313149Y131968D01*
X313547Y131007D01*
X313792Y130688D01*
X313571Y130239D01*
X312945D01*
X303642Y139542D01*
X302980Y139984D01*
X302200Y140139D01*
X290417D01*
X290171Y140639D01*
X290453Y141007D01*
X290851Y141968D01*
X290987Y143000D01*
X290851Y144032D01*
X290453Y144993D01*
X289819Y145819D01*
X289622Y145971D01*
X289791Y146471D01*
X314209D01*
X314378Y145971D01*
X314181Y145819D01*
X313547Y144993D01*
X313149Y144032D01*
X313013Y143000D01*
X313149Y141968D01*
X313547Y141007D01*
X314181Y140181D01*
X315007Y139547D01*
X315968Y139149D01*
X317000Y139013D01*
X318032Y139149D01*
X318993Y139547D01*
X319819Y140181D01*
X320453Y141007D01*
X320851Y141968D01*
X320987Y143000D01*
X320851Y144032D01*
X320453Y144993D01*
X319819Y145819D01*
X319622Y145971D01*
X319792Y146471D01*
X327867D01*
X356974Y117363D01*
X356741Y116889D01*
X356000Y116987D01*
X354968Y116851D01*
X354007Y116453D01*
X353181Y115819D01*
X352547Y114993D01*
X352149Y114032D01*
X352013Y113000D01*
X352149Y111968D01*
X352547Y111007D01*
X353181Y110181D01*
X354007Y109547D01*
X354968Y109149D01*
X356000Y109013D01*
X357032Y109149D01*
X357993Y109547D01*
X358819Y110181D01*
X359453Y111007D01*
X359851Y111968D01*
X359987Y113000D01*
X359889Y113741D01*
X360363Y113974D01*
X370419Y103919D01*
X370915Y103587D01*
X371207Y103529D01*
X371332Y102994D01*
X371147Y102853D01*
X370506Y102017D01*
X370103Y101044D01*
X369966Y100000D01*
X370103Y98956D01*
X370506Y97983D01*
X371147Y97147D01*
X371983Y96506D01*
X372956Y96103D01*
X374000Y95965D01*
X375044Y96103D01*
X376017Y96506D01*
X376853Y97147D01*
X377494Y97983D01*
X377897Y98956D01*
X378034Y100000D01*
X377897Y101044D01*
X377494Y102017D01*
X376853Y102853D01*
X376665Y102997D01*
X376825Y103471D01*
X378366D01*
X380305Y101532D01*
X380103Y101044D01*
X379965Y100000D01*
X380103Y98956D01*
X380506Y97983D01*
X381147Y97147D01*
X381983Y96506D01*
X382956Y96103D01*
X384000Y95965D01*
X385044Y96103D01*
X386017Y96506D01*
X386853Y97147D01*
X387494Y97983D01*
X387897Y98956D01*
X388035Y100000D01*
X387897Y101044D01*
X387494Y102017D01*
X386853Y102853D01*
X386017Y103494D01*
X385044Y103897D01*
X384000Y104034D01*
X382956Y103897D01*
X382468Y103695D01*
X380081Y106081D01*
X379585Y106413D01*
X379000Y106529D01*
X376825D01*
X376665Y107003D01*
X376853Y107147D01*
X377494Y107983D01*
X377897Y108956D01*
X378034Y110000D01*
X377897Y111044D01*
X377494Y112017D01*
X376853Y112853D01*
X376017Y113494D01*
X375044Y113897D01*
X374000Y114034D01*
X372956Y113897D01*
X371983Y113494D01*
X371147Y112853D01*
X370506Y112017D01*
X370103Y111044D01*
X369966Y110000D01*
X370056Y109314D01*
X369582Y109081D01*
X329581Y149081D01*
X329085Y149413D01*
X328500Y149529D01*
X319792D01*
X319622Y150029D01*
X319819Y150181D01*
X320453Y151007D01*
X320851Y151968D01*
X320987Y153000D01*
X320851Y154032D01*
X320453Y154993D01*
X319819Y155819D01*
X318993Y156453D01*
X318032Y156851D01*
X317000Y156987D01*
X315968Y156851D01*
X315007Y156453D01*
X314181Y155819D01*
X313547Y154993D01*
X313149Y154032D01*
X313013Y153000D01*
X313149Y151968D01*
X313547Y151007D01*
X314181Y150181D01*
X314378Y150029D01*
X314209Y149529D01*
X289791D01*
X289622Y150029D01*
X289819Y150181D01*
X290453Y151007D01*
X290851Y151968D01*
X290987Y153000D01*
X290851Y154032D01*
X290453Y154993D01*
X289819Y155819D01*
X288993Y156453D01*
X288032Y156851D01*
X287000Y156987D01*
X285968Y156851D01*
X285007Y156453D01*
X284181Y155819D01*
X283547Y154993D01*
X283149Y154032D01*
X283013Y153000D01*
X283149Y151968D01*
X283547Y151007D01*
X284181Y150181D01*
X284378Y150029D01*
X284208Y149529D01*
X169425D01*
X169369Y149686D01*
X169303Y150029D01*
X170013Y150894D01*
X170570Y151937D01*
X170913Y153068D01*
X171029Y154244D01*
X170913Y155420D01*
X170570Y156551D01*
X170013Y157594D01*
X169263Y158507D01*
X168350Y159257D01*
X167307Y159814D01*
X166176Y160157D01*
X165000Y160273D01*
X163824Y160157D01*
X162693Y159814D01*
X161651Y159257D01*
X160737Y158507D01*
X159987Y157594D01*
X159430Y156551D01*
X159087Y155420D01*
X158971Y154244D01*
X159087Y153068D01*
X159430Y151937D01*
X159987Y150894D01*
X160040Y150830D01*
X159669Y150494D01*
X154331Y155831D01*
X153835Y156163D01*
X153250Y156279D01*
X41884D01*
X16659Y181504D01*
X16851Y181968D01*
X16987Y183000D01*
X16851Y184032D01*
X16453Y184993D01*
X15819Y185819D01*
X14993Y186453D01*
X14032Y186851D01*
X13000Y186987D01*
D02*
G37*
G36*
X384000Y124035D02*
X382956Y123897D01*
X381983Y123494D01*
X381147Y122853D01*
X380506Y122017D01*
X380103Y121044D01*
X379965Y120000D01*
X380103Y118956D01*
X380506Y117983D01*
X381147Y117147D01*
X381983Y116506D01*
X382956Y116103D01*
X384000Y115965D01*
X385044Y116103D01*
X386017Y116506D01*
X386853Y117147D01*
X387494Y117983D01*
X387897Y118956D01*
X388035Y120000D01*
X387897Y121044D01*
X387494Y122017D01*
X386853Y122853D01*
X386017Y123494D01*
X385044Y123897D01*
X384000Y124035D01*
D02*
G37*
G36*
X374000Y134035D02*
X372956Y133897D01*
X371983Y133494D01*
X371147Y132853D01*
X370506Y132017D01*
X370103Y131044D01*
X369966Y130000D01*
X370103Y128956D01*
X370506Y127983D01*
X371147Y127147D01*
X371983Y126506D01*
X372956Y126103D01*
X374000Y125965D01*
X375044Y126103D01*
X376017Y126506D01*
X376853Y127147D01*
X377494Y127983D01*
X377897Y128956D01*
X378034Y130000D01*
X377897Y131044D01*
X377494Y132017D01*
X376853Y132853D01*
X376017Y133494D01*
X375044Y133897D01*
X374000Y134035D01*
D02*
G37*
G36*
X159272Y133543D02*
X154728D01*
X152457Y131272D01*
Y126728D01*
X154728Y124457D01*
X159272D01*
X161543Y126728D01*
Y131272D01*
X159272Y133543D01*
D02*
G37*
G36*
X374000Y94034D02*
X372956Y93897D01*
X371983Y93494D01*
X371147Y92853D01*
X370506Y92017D01*
X370103Y91044D01*
X369966Y90000D01*
X370103Y88956D01*
X370506Y87983D01*
X371147Y87147D01*
X371983Y86506D01*
X372956Y86103D01*
X374000Y85966D01*
X375044Y86103D01*
X376017Y86506D01*
X376853Y87147D01*
X377494Y87983D01*
X377897Y88956D01*
X378034Y90000D01*
X377897Y91044D01*
X377494Y92017D01*
X376853Y92853D01*
X376017Y93494D01*
X375044Y93897D01*
X374000Y94034D01*
D02*
G37*
G36*
X86000Y116532D02*
X85045Y116406D01*
X84155Y116037D01*
X83391Y115451D01*
X82805Y114687D01*
X82437Y113797D01*
X82311Y112843D01*
X82437Y111888D01*
X82805Y110998D01*
X83391Y110234D01*
X84155Y109648D01*
X85045Y109279D01*
X86000Y109154D01*
X86955Y109279D01*
X87845Y109648D01*
X88609Y110234D01*
X89195Y110998D01*
X89563Y111888D01*
X89689Y112843D01*
X89563Y113797D01*
X89195Y114687D01*
X88609Y115451D01*
X87845Y116037D01*
X86955Y116406D01*
X86000Y116532D01*
D02*
G37*
G36*
X374000Y124035D02*
X372956Y123897D01*
X371983Y123494D01*
X371147Y122853D01*
X370506Y122017D01*
X370103Y121044D01*
X369966Y120000D01*
X370103Y118956D01*
X370506Y117983D01*
X371147Y117147D01*
X371983Y116506D01*
X372956Y116103D01*
X374000Y115965D01*
X375044Y116103D01*
X376017Y116506D01*
X376853Y117147D01*
X377494Y117983D01*
X377897Y118956D01*
X378034Y120000D01*
X377897Y121044D01*
X377494Y122017D01*
X376853Y122853D01*
X376017Y123494D01*
X375044Y123897D01*
X374000Y124035D01*
D02*
G37*
%LPD*%
G36*
X231602Y53602D02*
X232304Y53063D01*
X232471Y52994D01*
Y45000D01*
X232587Y44415D01*
X232919Y43919D01*
X236919Y39919D01*
X237415Y39587D01*
X238000Y39471D01*
X248835D01*
Y33504D01*
X248835D01*
Y33496D01*
X248835D01*
Y29981D01*
X248373Y29790D01*
X246529Y31633D01*
Y34000D01*
X246413Y34585D01*
X246081Y35081D01*
X244081Y37081D01*
X243585Y37413D01*
X243000Y37529D01*
X227634D01*
X222931Y42232D01*
Y52994D01*
X223097Y53063D01*
X223799Y53602D01*
X223839Y53653D01*
X224339Y53483D01*
Y52638D01*
X231063D01*
Y53483D01*
X231563Y53653D01*
X231602Y53602D01*
D02*
G37*
G36*
X180305Y201532D02*
X180103Y201044D01*
X179965Y200000D01*
X180103Y198956D01*
X180506Y197983D01*
X181147Y197147D01*
X181335Y197003D01*
X181175Y196529D01*
X172000D01*
Y204000D01*
X164000D01*
Y196529D01*
X160826D01*
X160665Y197003D01*
X160853Y197147D01*
X161494Y197983D01*
X161897Y198956D01*
X162034Y200000D01*
X161897Y201044D01*
X161494Y202017D01*
X160853Y202853D01*
X160017Y203494D01*
X159044Y203897D01*
X158000Y204034D01*
X156956Y203897D01*
X155983Y203494D01*
X155147Y202853D01*
X154506Y202017D01*
X154103Y201044D01*
X153965Y200000D01*
X154103Y198956D01*
X154506Y197983D01*
X155147Y197147D01*
X155335Y197003D01*
X155175Y196529D01*
X150826D01*
X150665Y197003D01*
X150853Y197147D01*
X151494Y197983D01*
X151897Y198956D01*
X152034Y200000D01*
X151897Y201044D01*
X151494Y202017D01*
X150853Y202853D01*
X150017Y203494D01*
X149044Y203897D01*
X148000Y204034D01*
X146956Y203897D01*
X145983Y203494D01*
X145147Y202853D01*
X144506Y202017D01*
X144103Y201044D01*
X143965Y200000D01*
X144103Y198956D01*
X144506Y197983D01*
X145147Y197147D01*
X145335Y197003D01*
X145175Y196529D01*
X140825D01*
X140665Y197003D01*
X140853Y197147D01*
X141494Y197983D01*
X141897Y198956D01*
X142034Y200000D01*
X141897Y201044D01*
X141494Y202017D01*
X140853Y202853D01*
X140017Y203494D01*
X139044Y203897D01*
X138000Y204034D01*
X136956Y203897D01*
X135983Y203494D01*
X135147Y202853D01*
X134506Y202017D01*
X134103Y201044D01*
X133966Y200000D01*
X134103Y198956D01*
X134506Y197983D01*
X135147Y197147D01*
X135335Y197003D01*
X135175Y196529D01*
X130825D01*
X130665Y197003D01*
X130853Y197147D01*
X131494Y197983D01*
X131897Y198956D01*
X132035Y200000D01*
X131897Y201044D01*
X131494Y202017D01*
X130853Y202853D01*
X130017Y203494D01*
X129044Y203897D01*
X128000Y204034D01*
X126956Y203897D01*
X125983Y203494D01*
X125147Y202853D01*
X124506Y202017D01*
X124103Y201044D01*
X123966Y200000D01*
X124103Y198956D01*
X124506Y197983D01*
X125147Y197147D01*
X125335Y197003D01*
X125174Y196529D01*
X120826D01*
X120665Y197003D01*
X120853Y197147D01*
X121494Y197983D01*
X121897Y198956D01*
X122035Y200000D01*
X121897Y201044D01*
X121494Y202017D01*
X120853Y202853D01*
X120017Y203494D01*
X119044Y203897D01*
X118000Y204034D01*
X116956Y203897D01*
X115983Y203494D01*
X115147Y202853D01*
X114506Y202017D01*
X114103Y201044D01*
X113965Y200000D01*
X114103Y198956D01*
X114506Y197983D01*
X115147Y197147D01*
X115352Y196990D01*
X115227Y196455D01*
X115015Y196413D01*
X114519Y196081D01*
X109967Y191529D01*
X73546D01*
X73354Y191991D01*
X86834Y205471D01*
X176366D01*
X180305Y201532D01*
D02*
G37*
G36*
X270740Y202322D02*
X270506Y202017D01*
X270103Y201044D01*
X269966Y200000D01*
X270103Y198956D01*
X270506Y197983D01*
X271147Y197147D01*
X271335Y197003D01*
X271175Y196529D01*
X258000D01*
Y202771D01*
X270519D01*
X270740Y202322D01*
D02*
G37*
G36*
X340000Y198163D02*
X336067Y194229D01*
X331046D01*
X330854Y194691D01*
X332468Y196305D01*
X332956Y196103D01*
X334000Y195966D01*
X335044Y196103D01*
X336017Y196506D01*
X336853Y197147D01*
X337494Y197983D01*
X337897Y198956D01*
X338035Y200000D01*
X337897Y201044D01*
X337494Y202017D01*
X337260Y202322D01*
X337481Y202771D01*
X340000D01*
Y198163D01*
D02*
G37*
G36*
X65808Y187971D02*
X64496Y186659D01*
X64032Y186851D01*
X63000Y186987D01*
X61968Y186851D01*
X61007Y186453D01*
X60181Y185819D01*
X59547Y184993D01*
X59149Y184032D01*
X59013Y183000D01*
X59149Y181968D01*
X59547Y181007D01*
X60181Y180181D01*
X61007Y179547D01*
X61968Y179149D01*
X63000Y179013D01*
X64032Y179149D01*
X64993Y179547D01*
X65819Y180181D01*
X66453Y181007D01*
X66851Y181968D01*
X66987Y183000D01*
X66851Y184032D01*
X66659Y184496D01*
X67933Y185771D01*
X69578D01*
X69800Y185322D01*
X69547Y184993D01*
X69149Y184032D01*
X69013Y183000D01*
X69149Y181968D01*
X69547Y181007D01*
X70181Y180181D01*
X71007Y179547D01*
X71968Y179149D01*
X73000Y179013D01*
X74032Y179149D01*
X74993Y179547D01*
X75819Y180181D01*
X76453Y181007D01*
X76851Y181968D01*
X76987Y183000D01*
X76851Y184032D01*
X76453Y184993D01*
X76200Y185322D01*
X76422Y185771D01*
X79047D01*
Y179047D01*
X86953D01*
Y185771D01*
X102600D01*
X102769Y185271D01*
X102181Y184819D01*
X101547Y183993D01*
X101149Y183032D01*
X101013Y182000D01*
X101149Y180968D01*
X101547Y180007D01*
X102181Y179181D01*
X103007Y178547D01*
X103968Y178149D01*
X105000Y178013D01*
X106032Y178149D01*
X106993Y178547D01*
X107819Y179181D01*
X108453Y180007D01*
X108851Y180968D01*
X108987Y182000D01*
X108851Y183032D01*
X108453Y183993D01*
X107819Y184819D01*
X107231Y185271D01*
X107401Y185771D01*
X112600D01*
X112769Y185271D01*
X112181Y184819D01*
X111547Y183993D01*
X111149Y183032D01*
X111013Y182000D01*
X111149Y180968D01*
X111547Y180007D01*
X112181Y179181D01*
X112961Y178582D01*
Y175418D01*
X112181Y174819D01*
X111547Y173993D01*
X111149Y173032D01*
X111013Y172000D01*
X111149Y170968D01*
X111547Y170007D01*
X112181Y169181D01*
X113007Y168547D01*
X113968Y168149D01*
X115000Y168013D01*
X116032Y168149D01*
X116993Y168547D01*
X117819Y169181D01*
X118453Y170007D01*
X118851Y170968D01*
X118987Y172000D01*
X118851Y173032D01*
X118453Y173993D01*
X117819Y174819D01*
X117039Y175418D01*
Y176424D01*
X117501Y176615D01*
X118358Y175758D01*
X118358Y175758D01*
X119020Y175316D01*
X119800Y175161D01*
X119800Y175161D01*
X121849D01*
X122059Y174661D01*
X121547Y173993D01*
X121149Y173032D01*
X121013Y172000D01*
X121149Y170968D01*
X121547Y170007D01*
X122181Y169181D01*
X123007Y168547D01*
X123968Y168149D01*
X125000Y168013D01*
X125975Y168141D01*
X128125Y165991D01*
X127934Y165529D01*
X64833D01*
X51604Y178758D01*
X51888Y179182D01*
X51968Y179149D01*
X53000Y179013D01*
X54032Y179149D01*
X54993Y179547D01*
X55819Y180181D01*
X56453Y181007D01*
X56851Y181968D01*
X56987Y183000D01*
X56851Y184032D01*
X56659Y184496D01*
X60633Y188471D01*
X65601D01*
X65808Y187971D01*
D02*
G37*
G36*
X335141Y182975D02*
X335013Y182000D01*
X335149Y180968D01*
X335547Y180007D01*
X336181Y179181D01*
X337007Y178547D01*
X337647Y178282D01*
X337547Y177782D01*
X333253D01*
X332667Y177666D01*
X332171Y177334D01*
X330496Y175659D01*
X330032Y175851D01*
X329000Y175987D01*
X327968Y175851D01*
X327007Y175453D01*
X326181Y174819D01*
X325547Y173993D01*
X325149Y173032D01*
X325013Y172000D01*
X325149Y170968D01*
X325547Y170007D01*
X326181Y169181D01*
X327007Y168547D01*
X327968Y168149D01*
X329000Y168013D01*
X330032Y168149D01*
X330993Y168547D01*
X331819Y169181D01*
X332453Y170007D01*
X332851Y170968D01*
X332987Y172000D01*
X332851Y173032D01*
X332659Y173496D01*
X333886Y174723D01*
X335542D01*
X335763Y174275D01*
X335547Y173993D01*
X335149Y173032D01*
X335013Y172000D01*
X335149Y170968D01*
X335547Y170007D01*
X336181Y169181D01*
X337007Y168547D01*
X337968Y168149D01*
X339000Y168013D01*
X340032Y168149D01*
X340993Y168547D01*
X341819Y169181D01*
X342453Y170007D01*
X342851Y170968D01*
X342987Y172000D01*
X342851Y173032D01*
X342453Y173993D01*
X342237Y174275D01*
X342458Y174723D01*
X345542D01*
X345763Y174275D01*
X345547Y173993D01*
X345149Y173032D01*
X345013Y172000D01*
X345142Y171025D01*
X340255Y166139D01*
X312745D01*
X307858Y171025D01*
X307987Y172000D01*
X307851Y173032D01*
X307453Y173993D01*
X306819Y174819D01*
X306039Y175418D01*
Y178047D01*
X307953D01*
Y185761D01*
X326587D01*
X326757Y185261D01*
X326181Y184819D01*
X325547Y183993D01*
X325149Y183032D01*
X325013Y182000D01*
X325149Y180968D01*
X325547Y180007D01*
X326181Y179181D01*
X327007Y178547D01*
X327968Y178149D01*
X329000Y178013D01*
X330032Y178149D01*
X330993Y178547D01*
X331819Y179181D01*
X332453Y180007D01*
X332851Y180968D01*
X332987Y182000D01*
X332851Y183032D01*
X332453Y183993D01*
X331819Y184819D01*
X331243Y185261D01*
X331413Y185761D01*
X332355D01*
X335141Y182975D01*
D02*
G37*
G36*
X146059Y174661D02*
X145547Y173993D01*
X145149Y173032D01*
X145013Y172000D01*
X145149Y170968D01*
X145547Y170007D01*
X146181Y169181D01*
X146626Y168839D01*
X146456Y168339D01*
X131545D01*
X128858Y171025D01*
X128987Y172000D01*
X128851Y173032D01*
X128453Y173993D01*
X127941Y174661D01*
X128151Y175161D01*
X145849D01*
X146059Y174661D01*
D02*
G37*
G36*
X236059D02*
X235547Y173993D01*
X235149Y173032D01*
X235013Y172000D01*
X235149Y170968D01*
X235341Y170504D01*
X232369Y167531D01*
X230366Y165529D01*
X214120D01*
X213913Y166029D01*
X215442Y167558D01*
X215884Y168220D01*
X215945Y168527D01*
X215993Y168547D01*
X216819Y169181D01*
X217453Y170007D01*
X217851Y170968D01*
X217987Y172000D01*
X217851Y173032D01*
X217453Y173993D01*
X216941Y174661D01*
X217151Y175161D01*
X235849D01*
X236059Y174661D01*
D02*
G37*
G36*
X200142Y182975D02*
X200013Y182000D01*
X200149Y180968D01*
X200547Y180007D01*
X201181Y179181D01*
X202007Y178547D01*
X202968Y178149D01*
X204000Y178013D01*
X204975Y178141D01*
X207358Y175758D01*
X207358Y175758D01*
X208020Y175316D01*
X208800Y175161D01*
X208800Y175161D01*
X210849D01*
X211059Y174661D01*
X210547Y173993D01*
X210149Y173032D01*
X210013Y172000D01*
X210149Y170968D01*
X210547Y170007D01*
X210906Y169539D01*
X210659Y169039D01*
X207341D01*
X207094Y169539D01*
X207453Y170007D01*
X207851Y170968D01*
X207987Y172000D01*
X207851Y173032D01*
X207453Y173993D01*
X206819Y174819D01*
X205993Y175453D01*
X205032Y175851D01*
X204000Y175987D01*
X202968Y175851D01*
X202007Y175453D01*
X201181Y174819D01*
X200547Y173993D01*
X200149Y173032D01*
X200013Y172000D01*
X200149Y170968D01*
X200547Y170007D01*
X200906Y169539D01*
X200659Y169039D01*
X197341D01*
X197094Y169539D01*
X197453Y170007D01*
X197851Y170968D01*
X197987Y172000D01*
X197851Y173032D01*
X197453Y173993D01*
X196819Y174819D01*
X195993Y175453D01*
X195032Y175851D01*
X194000Y175987D01*
X192968Y175851D01*
X192007Y175453D01*
X191181Y174819D01*
X190547Y173993D01*
X190149Y173032D01*
X190013Y172000D01*
X190149Y170968D01*
X190547Y170007D01*
X190906Y169539D01*
X190659Y169039D01*
X190145D01*
X187042Y172142D01*
X186380Y172584D01*
X185600Y172739D01*
X181145D01*
X172953Y180931D01*
Y185953D01*
X173408Y186061D01*
X192168D01*
X192268Y185561D01*
X192007Y185453D01*
X191181Y184819D01*
X190547Y183993D01*
X190149Y183032D01*
X190013Y182000D01*
X190149Y180968D01*
X190547Y180007D01*
X191181Y179181D01*
X192007Y178547D01*
X192968Y178149D01*
X194000Y178013D01*
X195032Y178149D01*
X195993Y178547D01*
X196819Y179181D01*
X197453Y180007D01*
X197851Y180968D01*
X197987Y182000D01*
X197851Y183032D01*
X197453Y183993D01*
X196819Y184819D01*
X195993Y185453D01*
X195732Y185561D01*
X195832Y186061D01*
X197055D01*
X200142Y182975D01*
D02*
G37*
G36*
X290142D02*
X290013Y182000D01*
X290149Y180968D01*
X290547Y180007D01*
X291181Y179181D01*
X292007Y178547D01*
X292968Y178149D01*
X294000Y178013D01*
X295032Y178149D01*
X295993Y178547D01*
X296819Y179181D01*
X297453Y180007D01*
X297851Y180968D01*
X297987Y182000D01*
X297859Y182975D01*
X299585Y184702D01*
X300047Y184510D01*
Y178047D01*
X301961D01*
Y175418D01*
X301181Y174819D01*
X300547Y173993D01*
X300149Y173032D01*
X300013Y172000D01*
X300142Y171025D01*
X298355Y169239D01*
X297429D01*
X297208Y169688D01*
X297453Y170007D01*
X297851Y170968D01*
X297987Y172000D01*
X297851Y173032D01*
X297453Y173993D01*
X296819Y174819D01*
X295993Y175453D01*
X295032Y175851D01*
X294000Y175987D01*
X292968Y175851D01*
X292007Y175453D01*
X291181Y174819D01*
X290547Y173993D01*
X290149Y173032D01*
X290013Y172000D01*
X290149Y170968D01*
X290547Y170007D01*
X290792Y169688D01*
X290571Y169239D01*
X287429D01*
X287208Y169688D01*
X287453Y170007D01*
X287851Y170968D01*
X287987Y172000D01*
X287851Y173032D01*
X287453Y173993D01*
X286819Y174819D01*
X285993Y175453D01*
X285032Y175851D01*
X284000Y175987D01*
X282968Y175851D01*
X282007Y175453D01*
X281181Y174819D01*
X280547Y173993D01*
X280149Y173032D01*
X280013Y172000D01*
X280149Y170968D01*
X280547Y170007D01*
X280792Y169688D01*
X280571Y169239D01*
X264645D01*
X262859Y171025D01*
X262987Y172000D01*
X262851Y173032D01*
X262453Y173993D01*
X261819Y174819D01*
X261039Y175418D01*
Y178047D01*
X262953D01*
Y184761D01*
X280571D01*
X280792Y184312D01*
X280547Y183993D01*
X280149Y183032D01*
X280013Y182000D01*
X280149Y180968D01*
X280547Y180007D01*
X281181Y179181D01*
X282007Y178547D01*
X282968Y178149D01*
X284000Y178013D01*
X285032Y178149D01*
X285993Y178547D01*
X286819Y179181D01*
X287453Y180007D01*
X287851Y180968D01*
X287987Y182000D01*
X287851Y183032D01*
X287453Y183993D01*
X287208Y184312D01*
X287429Y184761D01*
X288355D01*
X290142Y182975D01*
D02*
G37*
G36*
X346771Y192600D02*
X346887Y192015D01*
X347219Y191519D01*
X351771Y186967D01*
Y185953D01*
X345047D01*
Y178047D01*
X344657Y177782D01*
X340453D01*
X340353Y178282D01*
X340993Y178547D01*
X341819Y179181D01*
X342453Y180007D01*
X342851Y180968D01*
X342987Y182000D01*
X342851Y183032D01*
X342453Y183993D01*
X341819Y184819D01*
X340993Y185453D01*
X340032Y185851D01*
X339000Y185987D01*
X338025Y185859D01*
X334642Y189242D01*
X333980Y189684D01*
X333200Y189839D01*
X299800D01*
X299020Y189684D01*
X298358Y189242D01*
X294975Y185859D01*
X294000Y185987D01*
X293025Y185859D01*
X290642Y188242D01*
X289980Y188684D01*
X289200Y188839D01*
X253800D01*
X253800Y188839D01*
X253020Y188684D01*
X252358Y188242D01*
X252358Y188242D01*
X249975Y185859D01*
X249000Y185987D01*
X247968Y185851D01*
X247007Y185453D01*
X246181Y184819D01*
X245547Y183993D01*
X245149Y183032D01*
X245013Y182000D01*
X245142Y181025D01*
X243355Y179239D01*
X242429D01*
X242208Y179688D01*
X242453Y180007D01*
X242851Y180968D01*
X242987Y182000D01*
X242851Y183032D01*
X242453Y183993D01*
X241819Y184819D01*
X240993Y185453D01*
X240032Y185851D01*
X239000Y185987D01*
X237968Y185851D01*
X237007Y185453D01*
X236181Y184819D01*
X235547Y183993D01*
X235149Y183032D01*
X235013Y182000D01*
X235149Y180968D01*
X235547Y180007D01*
X235792Y179688D01*
X235571Y179239D01*
X217953D01*
Y185953D01*
X210047D01*
Y179474D01*
X209547Y179337D01*
X207858Y181025D01*
X207987Y182000D01*
X207851Y183032D01*
X207453Y183993D01*
X206819Y184819D01*
X205993Y185453D01*
X205032Y185851D01*
X204000Y185987D01*
X203025Y185859D01*
X199342Y189542D01*
X198680Y189984D01*
X197900Y190139D01*
X165100D01*
X164320Y189984D01*
X163658Y189542D01*
X159975Y185859D01*
X159000Y185987D01*
X157968Y185851D01*
X157007Y185453D01*
X156181Y184819D01*
X155547Y183993D01*
X155149Y183032D01*
X155013Y182000D01*
X155141Y181025D01*
X153355Y179239D01*
X152429D01*
X152208Y179688D01*
X152453Y180007D01*
X152851Y180968D01*
X152987Y182000D01*
X152851Y183032D01*
X152453Y183993D01*
X151819Y184819D01*
X150993Y185453D01*
X150032Y185851D01*
X149000Y185987D01*
X147968Y185851D01*
X147007Y185453D01*
X146181Y184819D01*
X145547Y183993D01*
X145149Y183032D01*
X145013Y182000D01*
X145149Y180968D01*
X145547Y180007D01*
X145792Y179688D01*
X145571Y179239D01*
X128953D01*
Y185953D01*
X121047D01*
Y179474D01*
X120547Y179337D01*
X118859Y181025D01*
X118987Y182000D01*
X118851Y183032D01*
X118453Y183993D01*
X117819Y184819D01*
X117132Y185347D01*
X117208Y185844D01*
X117225Y185875D01*
X117285Y185887D01*
X117781Y186219D01*
X122733Y191171D01*
X336700D01*
X337285Y191287D01*
X337781Y191619D01*
X342163Y196000D01*
X346771D01*
Y192600D01*
D02*
G37*
G36*
X165047Y184510D02*
Y178047D01*
X170069D01*
X178858Y169258D01*
X179520Y168816D01*
X180300Y168661D01*
X184755D01*
X187387Y166029D01*
X187180Y165529D01*
X169067D01*
X168875Y165991D01*
X170442Y167558D01*
X170884Y168220D01*
X170945Y168527D01*
X170993Y168547D01*
X171819Y169181D01*
X172453Y170007D01*
X172851Y170968D01*
X172987Y172000D01*
X172851Y173032D01*
X172453Y173993D01*
X171819Y174819D01*
X170993Y175453D01*
X170032Y175851D01*
X169000Y175987D01*
X167968Y175851D01*
X167007Y175453D01*
X166181Y174819D01*
X165547Y173993D01*
X165149Y173032D01*
X165013Y172000D01*
X165149Y170968D01*
X165547Y170007D01*
X166181Y169181D01*
X166188Y169072D01*
X165455Y168339D01*
X161544D01*
X161374Y168839D01*
X161819Y169181D01*
X162453Y170007D01*
X162851Y170968D01*
X162987Y172000D01*
X162851Y173032D01*
X162453Y173993D01*
X161819Y174819D01*
X160993Y175453D01*
X160032Y175851D01*
X159000Y175987D01*
X157968Y175851D01*
X157007Y175453D01*
X156181Y174819D01*
X155547Y173993D01*
X155149Y173032D01*
X155013Y172000D01*
X155149Y170968D01*
X155547Y170007D01*
X156181Y169181D01*
X156626Y168839D01*
X156456Y168339D01*
X151544D01*
X151374Y168839D01*
X151819Y169181D01*
X152453Y170007D01*
X152851Y170968D01*
X152987Y172000D01*
X152851Y173032D01*
X152453Y173993D01*
X151941Y174661D01*
X152151Y175161D01*
X154200D01*
X154980Y175316D01*
X155642Y175758D01*
X158025Y178141D01*
X159000Y178013D01*
X160032Y178149D01*
X160993Y178547D01*
X161819Y179181D01*
X162453Y180007D01*
X162851Y180968D01*
X162987Y182000D01*
X162858Y182975D01*
X164585Y184702D01*
X165047Y184510D01*
D02*
G37*
%LPC*%
G36*
X98000Y204034D02*
X96956Y203897D01*
X95983Y203494D01*
X95147Y202853D01*
X94506Y202017D01*
X94103Y201044D01*
X93966Y200000D01*
X94103Y198956D01*
X94506Y197983D01*
X95147Y197147D01*
X95983Y196506D01*
X96956Y196103D01*
X98000Y195966D01*
X99044Y196103D01*
X100017Y196506D01*
X100853Y197147D01*
X101494Y197983D01*
X101897Y198956D01*
X102034Y200000D01*
X101897Y201044D01*
X101494Y202017D01*
X100853Y202853D01*
X100017Y203494D01*
X99044Y203897D01*
X98000Y204034D01*
D02*
G37*
G36*
X108000D02*
X106956Y203897D01*
X105983Y203494D01*
X105147Y202853D01*
X104506Y202017D01*
X104103Y201044D01*
X103965Y200000D01*
X104103Y198956D01*
X104506Y197983D01*
X105147Y197147D01*
X105983Y196506D01*
X106956Y196103D01*
X108000Y195966D01*
X109044Y196103D01*
X110017Y196506D01*
X110853Y197147D01*
X111494Y197983D01*
X111897Y198956D01*
X112034Y200000D01*
X111897Y201044D01*
X111494Y202017D01*
X110853Y202853D01*
X110017Y203494D01*
X109044Y203897D01*
X108000Y204034D01*
D02*
G37*
G36*
X105000Y175987D02*
X103968Y175851D01*
X103007Y175453D01*
X102181Y174819D01*
X101547Y173993D01*
X101149Y173032D01*
X101013Y172000D01*
X101149Y170968D01*
X101547Y170007D01*
X102181Y169181D01*
X103007Y168547D01*
X103968Y168149D01*
X105000Y168013D01*
X106032Y168149D01*
X106993Y168547D01*
X107819Y169181D01*
X108453Y170007D01*
X108851Y170968D01*
X108987Y172000D01*
X108851Y173032D01*
X108453Y173993D01*
X107819Y174819D01*
X106993Y175453D01*
X106032Y175851D01*
X105000Y175987D01*
D02*
G37*
%LPD*%
G36*
X350171Y81433D02*
Y78800D01*
X350287Y78215D01*
X350619Y77719D01*
X369419Y58919D01*
X369915Y58587D01*
X370286Y58513D01*
X370506Y57983D01*
X371147Y57147D01*
X371335Y57003D01*
X371175Y56529D01*
X358633D01*
X347529Y67633D01*
Y79355D01*
X347993Y79547D01*
X348819Y80181D01*
X349453Y81007D01*
X349671Y81533D01*
X350171Y81433D01*
D02*
G37*
G36*
X272819Y91919D02*
X273315Y91587D01*
X273900Y91471D01*
X283355D01*
X283547Y91007D01*
X284181Y90181D01*
X284378Y90029D01*
X284208Y89529D01*
X272634D01*
X271081Y91081D01*
X270585Y91413D01*
X270000Y91529D01*
X161293D01*
X161010Y91874D01*
X161199Y92314D01*
X272423D01*
X272819Y91919D01*
D02*
G37*
G36*
X304919Y71919D02*
X305415Y71587D01*
X306000Y71471D01*
X313355D01*
X313547Y71007D01*
X314181Y70181D01*
X314378Y70029D01*
X314209Y69529D01*
X302634D01*
X290659Y81504D01*
X290851Y81968D01*
X290987Y83000D01*
X290851Y84032D01*
X290453Y84993D01*
X289819Y85819D01*
X289622Y85971D01*
X289791Y86471D01*
X290367D01*
X304919Y71919D01*
D02*
G37*
G36*
X310658Y126758D02*
X310658Y126758D01*
X311320Y126316D01*
X312100Y126161D01*
X313849D01*
X314059Y125661D01*
X313547Y124993D01*
X313149Y124032D01*
X313013Y123000D01*
X313149Y121968D01*
X313547Y121007D01*
X314181Y120181D01*
X315007Y119547D01*
X315968Y119149D01*
X317000Y119013D01*
X318032Y119149D01*
X318993Y119547D01*
X319819Y120181D01*
X320453Y121007D01*
X320851Y121968D01*
X320987Y123000D01*
X320851Y124032D01*
X320453Y124993D01*
X319941Y125661D01*
X320151Y126161D01*
X335955D01*
X343961Y118155D01*
Y116953D01*
X342047D01*
Y114529D01*
X342000D01*
X341415Y114413D01*
X340919Y114081D01*
X337919Y111081D01*
X337587Y110585D01*
X337471Y110000D01*
Y85633D01*
X332006Y80168D01*
X331463Y80333D01*
X331413Y80585D01*
X331081Y81081D01*
X320659Y91504D01*
X320851Y91968D01*
X320987Y93000D01*
X320851Y94032D01*
X320453Y94993D01*
X319819Y95819D01*
X318993Y96453D01*
X318032Y96851D01*
X317000Y96987D01*
X315968Y96851D01*
X315007Y96453D01*
X314181Y95819D01*
X313547Y94993D01*
X313149Y94032D01*
X313013Y93000D01*
X313149Y91968D01*
X313547Y91007D01*
X314181Y90181D01*
X315007Y89547D01*
X315968Y89149D01*
X317000Y89013D01*
X318032Y89149D01*
X318496Y89341D01*
X328471Y79366D01*
Y76634D01*
X321367Y69529D01*
X319792D01*
X319622Y70029D01*
X319819Y70181D01*
X320453Y71007D01*
X320851Y71968D01*
X320987Y73000D01*
X320851Y74032D01*
X320453Y74993D01*
X319819Y75819D01*
X318993Y76453D01*
X318032Y76851D01*
X317000Y76987D01*
X315968Y76851D01*
X315007Y76453D01*
X314181Y75819D01*
X313547Y74993D01*
X313355Y74529D01*
X306633D01*
X292081Y89081D01*
X291585Y89413D01*
X291000Y89529D01*
X289791D01*
X289622Y90029D01*
X289819Y90181D01*
X290453Y91007D01*
X290645Y91471D01*
X306366D01*
X313341Y84496D01*
X313149Y84032D01*
X313013Y83000D01*
X313149Y81968D01*
X313547Y81007D01*
X314181Y80181D01*
X315007Y79547D01*
X315968Y79149D01*
X317000Y79013D01*
X318032Y79149D01*
X318993Y79547D01*
X319819Y80181D01*
X320453Y81007D01*
X320851Y81968D01*
X320987Y83000D01*
X320851Y84032D01*
X320453Y84993D01*
X319819Y85819D01*
X318993Y86453D01*
X318032Y86851D01*
X317000Y86987D01*
X315968Y86851D01*
X315504Y86659D01*
X308081Y94081D01*
X307585Y94413D01*
X307000Y94529D01*
X290645D01*
X290453Y94993D01*
X289819Y95819D01*
X288993Y96453D01*
X288529Y96645D01*
Y99355D01*
X288993Y99547D01*
X289819Y100181D01*
X290453Y101007D01*
X290851Y101968D01*
X290987Y103000D01*
X290851Y104032D01*
X290453Y104993D01*
X289819Y105819D01*
X288993Y106453D01*
X288032Y106851D01*
X287000Y106987D01*
X285968Y106851D01*
X285007Y106453D01*
X284181Y105819D01*
X283547Y104993D01*
X283149Y104032D01*
X283013Y103000D01*
X283149Y101968D01*
X283547Y101007D01*
X284181Y100181D01*
X285007Y99547D01*
X285471Y99355D01*
Y96645D01*
X285007Y96453D01*
X284181Y95819D01*
X283547Y94993D01*
X283355Y94529D01*
X274534D01*
X274138Y94925D01*
X273642Y95256D01*
X273057Y95373D01*
X160841D01*
X160650Y95835D01*
X161543Y96728D01*
Y97471D01*
X273000D01*
X273585Y97587D01*
X274081Y97919D01*
X285504Y109341D01*
X285968Y109149D01*
X287000Y109013D01*
X288032Y109149D01*
X288993Y109547D01*
X289819Y110181D01*
X290453Y111007D01*
X290851Y111968D01*
X290987Y113000D01*
X290851Y114032D01*
X290453Y114993D01*
X289819Y115819D01*
X289504Y116061D01*
X289584Y116576D01*
X289614Y116606D01*
X290081Y116919D01*
X293081Y119919D01*
X293413Y120415D01*
X293529Y121000D01*
Y132000D01*
X293413Y132585D01*
X293081Y133081D01*
X292081Y134081D01*
X291585Y134413D01*
X291000Y134529D01*
X290645D01*
X290453Y134993D01*
X290017Y135561D01*
X290264Y136061D01*
X301355D01*
X310658Y126758D01*
D02*
G37*
%LPC*%
G36*
X317000Y106987D02*
X315968Y106851D01*
X315007Y106453D01*
X314181Y105819D01*
X313547Y104993D01*
X313149Y104032D01*
X313013Y103000D01*
X313149Y101968D01*
X313547Y101007D01*
X314181Y100181D01*
X315007Y99547D01*
X315968Y99149D01*
X317000Y99013D01*
X318032Y99149D01*
X318496Y99341D01*
X321919Y95919D01*
X322415Y95587D01*
X323000Y95471D01*
X327304D01*
X327506Y94983D01*
X328147Y94147D01*
X328983Y93506D01*
X329956Y93103D01*
X331000Y92966D01*
X332044Y93103D01*
X333017Y93506D01*
X333853Y94147D01*
X334494Y94983D01*
X334897Y95956D01*
X335034Y97000D01*
X334897Y98044D01*
X334494Y99017D01*
X333853Y99853D01*
X333017Y100494D01*
X332044Y100897D01*
X331000Y101034D01*
X329956Y100897D01*
X328983Y100494D01*
X328147Y99853D01*
X327506Y99017D01*
X327304Y98529D01*
X323634D01*
X320659Y101504D01*
X320851Y101968D01*
X320987Y103000D01*
X320851Y104032D01*
X320453Y104993D01*
X319819Y105819D01*
X318993Y106453D01*
X318032Y106851D01*
X317000Y106987D01*
D02*
G37*
G36*
X331000Y121035D02*
X329956Y120897D01*
X328983Y120494D01*
X328147Y119853D01*
X327506Y119017D01*
X327103Y118044D01*
X326965Y117000D01*
X327103Y115956D01*
X327305Y115468D01*
X326366Y114529D01*
X320645D01*
X320453Y114993D01*
X319819Y115819D01*
X318993Y116453D01*
X318032Y116851D01*
X317000Y116987D01*
X315968Y116851D01*
X315007Y116453D01*
X314181Y115819D01*
X313547Y114993D01*
X313149Y114032D01*
X313013Y113000D01*
X313149Y111968D01*
X313547Y111007D01*
X314181Y110181D01*
X315007Y109547D01*
X315968Y109149D01*
X317000Y109013D01*
X318032Y109149D01*
X318993Y109547D01*
X319819Y110181D01*
X320453Y111007D01*
X320645Y111471D01*
X327000D01*
X327585Y111587D01*
X328081Y111919D01*
X329468Y113305D01*
X329956Y113103D01*
X331000Y112966D01*
X332044Y113103D01*
X333017Y113506D01*
X333853Y114147D01*
X334494Y114983D01*
X334897Y115956D01*
X335034Y117000D01*
X334897Y118044D01*
X334494Y119017D01*
X333853Y119853D01*
X333017Y120494D01*
X332044Y120897D01*
X331000Y121035D01*
D02*
G37*
%LPD*%
D12*
X329000Y195000D02*
X334000Y200000D01*
X115600Y195000D02*
X329000D01*
X110600Y190000D02*
X115600Y195000D01*
X60000Y190000D02*
X110600D01*
X53000Y183000D02*
X60000Y190000D01*
X336700Y192700D02*
X344000Y200000D01*
X122100Y192700D02*
X336700D01*
X116700Y187300D02*
X122100Y192700D01*
X67300Y187300D02*
X116700D01*
X63000Y183000D02*
X67300Y187300D01*
X273000Y99000D02*
X287000Y113000D01*
X177000Y207000D02*
X184000Y200000D01*
X71600Y192400D02*
X86200Y207000D01*
X177000D01*
X48700Y187100D02*
X54000Y192400D01*
X71600D01*
X48700Y179500D02*
Y187100D01*
X348300Y192600D02*
X353300Y187600D01*
Y176253D02*
Y187600D01*
X348300Y192600D02*
Y204300D01*
X224000Y200000D02*
X228300Y204300D01*
X348300D01*
X161256Y123000D02*
X287000D01*
X358000Y55000D02*
X379000D01*
X384000Y50000D01*
X346000Y67000D02*
X358000Y55000D01*
X346000Y67000D02*
Y83000D01*
X370500Y60000D02*
X374000D01*
X351700Y78800D02*
Y97300D01*
Y78800D02*
X370500Y60000D01*
X346000Y103000D02*
X351700Y97300D01*
X342000Y113000D02*
X346000D01*
X339000Y110000D02*
X342000Y113000D01*
X339000Y85000D02*
Y110000D01*
X330000Y76000D02*
X339000Y85000D01*
X330000Y76000D02*
Y80000D01*
X317000Y93000D02*
X330000Y80000D01*
X322000Y68000D02*
X330000Y76000D01*
X302000Y68000D02*
X322000D01*
X287000Y83000D02*
X302000Y68000D01*
X374000Y30000D02*
X384000D01*
X191246Y14300D02*
X207538D01*
X211838Y10000D02*
X214000D01*
X186000Y42000D02*
X188000D01*
X187746Y17800D02*
X191246Y14300D01*
X207538D02*
X211838Y10000D01*
X184000Y40000D02*
X186000Y42000D01*
X184000Y19000D02*
X185200Y17800D01*
X187746D01*
X184000Y19000D02*
Y40000D01*
X187000Y16000D02*
X193000Y10000D01*
X204000D01*
X184000Y58000D02*
X188000D01*
X183000Y16000D02*
X187000D01*
X141843Y93843D02*
X166157D01*
X307000Y93000D02*
X317000Y83000D01*
X273900Y93000D02*
X287000D01*
X307000D01*
X374000Y200000D02*
X384000D01*
X379000Y105000D02*
X384000Y100000D01*
X371500Y105000D02*
X379000D01*
X216000Y28000D02*
Y40000D01*
X234150Y27150D02*
Y31000D01*
X233000Y26000D02*
X234150Y27150D01*
X218000Y26000D02*
X233000D01*
X210441Y42000D02*
X214000D01*
X216000Y40000D01*
Y28000D02*
X218000Y26000D01*
X239000Y24000D02*
X240449Y25449D01*
Y31000D01*
X212441Y24000D02*
X239000D01*
X210441Y26000D02*
X212441Y24000D01*
X245000Y31000D02*
X249000Y27000D01*
X251000D01*
X245000Y31000D02*
Y34000D01*
X251000Y27000D02*
X252000Y26000D01*
X243000Y36000D02*
X245000Y34000D01*
X238000Y41000D02*
X252000D01*
X234000Y45000D02*
Y56000D01*
Y45000D02*
X238000Y41000D01*
X323000Y97000D02*
X331000D01*
X317000Y103000D02*
X323000Y97000D01*
X327000Y113000D02*
X331000Y117000D01*
X317000Y113000D02*
X327000D01*
X291000Y88000D02*
X306000Y73000D01*
X317000D01*
X272000Y88000D02*
X291000D01*
X158000Y90000D02*
X270000D01*
X272000Y88000D01*
X195900Y16100D02*
X217900D01*
X193000Y19000D02*
Y25000D01*
X217900Y16100D02*
X224000Y10000D01*
X188000Y26000D02*
X192000D01*
X193000Y25000D01*
Y19000D02*
X195900Y16100D01*
X286000Y33000D02*
X287000D01*
X278000Y41000D02*
X286000Y33000D01*
X274441Y41000D02*
X278000D01*
X277441Y23000D02*
X287000D01*
X274441Y26000D02*
X277441Y23000D01*
X48700Y179500D02*
X64200Y164000D01*
X233450Y166450D02*
X239000Y172000D01*
X64200Y164000D02*
X231000D01*
X233450Y166450D01*
X13000Y183000D02*
X41250Y154750D01*
X167666Y148000D02*
X328500D01*
X371500Y105000D01*
X157000Y89000D02*
X158000Y90000D01*
X157000Y99000D02*
X273000D01*
X157000Y118744D02*
X161256Y123000D01*
X160000Y148000D02*
X162334D01*
X162390Y147944D01*
X167610D01*
X167666Y148000D01*
X287000Y133000D02*
X291000D01*
X292000Y132000D01*
Y121000D02*
Y132000D01*
X289000Y118000D02*
X292000Y121000D01*
X166000Y118000D02*
X289000D01*
X164000Y116000D02*
X166000Y118000D01*
X164000Y112000D02*
Y116000D01*
X161000Y109000D02*
X164000Y112000D01*
X157000Y109000D02*
X161000D01*
X287000Y93000D02*
Y103000D01*
X134000Y93157D02*
X134686Y93843D01*
X141843D01*
X166157D02*
X273057D01*
X273900Y93000D01*
X153250Y154750D02*
X160000Y148000D01*
X41250Y154750D02*
X153250D01*
X164000Y10000D02*
X174000D01*
X166220Y51100D02*
Y58000D01*
Y12220D02*
Y24000D01*
X164000Y10000D02*
X166220Y12220D01*
X182000Y56000D02*
X184000Y58000D01*
X182000Y17000D02*
X183000Y16000D01*
X182000Y17000D02*
Y56000D01*
X210441Y58000D02*
X217800Y50641D01*
Y39200D02*
Y50641D01*
Y39200D02*
X221551Y35449D01*
Y31000D02*
Y35449D01*
X221402Y41598D02*
Y56000D01*
Y41598D02*
X227000Y36000D01*
X243000D01*
X329000Y172000D02*
X333253Y176253D01*
X353300D01*
X134000Y93157D02*
X134843Y94000D01*
D13*
X20000Y9000D02*
Y17000D01*
X68000Y9000D02*
Y17000D01*
X20000D02*
X23000Y20000D01*
X65000D02*
X68000Y17000D01*
X23000Y20000D02*
X65000D01*
X81000D01*
X85000Y24000D01*
Y33000D01*
D14*
X346000Y113000D02*
Y119000D01*
X312100Y128200D02*
X336800D01*
X346000Y119000D01*
X302200Y138100D02*
X312100Y128200D01*
X281700Y138100D02*
X302200D01*
X157900D02*
X281700D01*
X134000Y133000D02*
X140000Y139000D01*
X134000Y112843D02*
Y133000D01*
X299800Y187800D02*
X333200D01*
X339000Y182000D01*
X289200Y186800D02*
X294000Y182000D01*
X253800Y186800D02*
X289200D01*
X294000Y182000D02*
X299800Y187800D01*
X249000Y182000D02*
X253800Y186800D01*
X197900Y188100D02*
X204000Y182000D01*
X165100Y188100D02*
X197900D01*
X159000Y182000D02*
X165100Y188100D01*
X244200Y177200D02*
X249000Y182000D01*
X204000D02*
X208800Y177200D01*
X244200D01*
X154200D02*
X159000Y182000D01*
X115000D02*
X119800Y177200D01*
X154200D01*
X61000Y125600D02*
X62500Y127100D01*
X61000Y66400D02*
Y125600D01*
X304000Y172000D02*
Y182000D01*
X259000Y172000D02*
Y182000D01*
X341100Y164100D02*
X349000Y172000D01*
X299200Y167200D02*
X304000Y172000D01*
X311900Y164100D01*
X341100D01*
X263800Y167200D02*
X299200D01*
X259000Y172000D02*
X263800Y167200D01*
X180300Y170700D02*
X185600D01*
X169000Y182000D02*
X180300Y170700D01*
X125000Y172000D02*
X130700Y166300D01*
X166300D01*
X169000Y169000D01*
Y172000D01*
X157000Y139000D02*
X157900Y138100D01*
X140000Y139000D02*
X157000D01*
X185600Y170700D02*
X189300Y167000D01*
X212000D01*
X214000Y169000D01*
Y172000D01*
X115000D02*
Y182000D01*
X62500Y127100D02*
X85400Y150000D01*
X124000D01*
X143780Y58000D02*
Y59000D01*
X143559Y41000D02*
Y42000D01*
X143780Y24000D02*
Y25000D01*
X166000Y49280D02*
X166220Y49500D01*
X166000Y32500D02*
Y41000D01*
Y49280D01*
Y24220D02*
Y32500D01*
Y24220D02*
X166220Y24000D01*
X102343Y50500D02*
X107843Y56000D01*
X61000Y66400D02*
X76900Y50500D01*
X102343D01*
X136000Y59000D02*
X143780D01*
X136000Y42000D02*
X143559D01*
X136000Y25000D02*
X143780D01*
X166220Y49500D02*
Y58000D01*
D15*
X64000Y200000D02*
D03*
X384000Y10000D02*
D03*
X359000Y200000D02*
D03*
X29843Y33000D02*
D03*
X39685D02*
D03*
Y56622D02*
D03*
X29843D02*
D03*
X20000D02*
D03*
D16*
X294000Y10000D02*
D03*
X344000Y200000D02*
D03*
X204000Y10000D02*
D03*
X254000Y200000D02*
D03*
X184000Y10000D02*
D03*
X168000Y200000D02*
D03*
D17*
X324000Y10000D02*
D03*
X334000D02*
D03*
X344000D02*
D03*
X354000D02*
D03*
X364000D02*
D03*
X304000D02*
D03*
X314000D02*
D03*
Y200000D02*
D03*
X304000D02*
D03*
X294000D02*
D03*
X284000D02*
D03*
X274000D02*
D03*
X334000D02*
D03*
X324000D02*
D03*
X234000Y10000D02*
D03*
X244000D02*
D03*
X254000D02*
D03*
X264000D02*
D03*
X274000D02*
D03*
X214000D02*
D03*
X224000D02*
D03*
Y200000D02*
D03*
X214000D02*
D03*
X204000D02*
D03*
X194000D02*
D03*
X184000D02*
D03*
X244000D02*
D03*
X234000D02*
D03*
X374000Y30000D02*
D03*
X384000D02*
D03*
X374000Y40000D02*
D03*
X384000D02*
D03*
X374000Y50000D02*
D03*
X384000D02*
D03*
X374000Y60000D02*
D03*
X384000D02*
D03*
X374000Y70000D02*
D03*
X384000D02*
D03*
X374000Y80000D02*
D03*
X384000D02*
D03*
X374000Y90000D02*
D03*
X384000D02*
D03*
X374000Y100000D02*
D03*
X384000D02*
D03*
Y110000D02*
D03*
X374000D02*
D03*
Y120000D02*
D03*
X384000D02*
D03*
X374000Y130000D02*
D03*
X384000D02*
D03*
X374000Y140000D02*
D03*
X384000D02*
D03*
X374000Y150000D02*
D03*
X384000D02*
D03*
X374000Y160000D02*
D03*
X384000D02*
D03*
X374000Y170000D02*
D03*
X384000D02*
D03*
X374000Y180000D02*
D03*
X384000D02*
D03*
X374000Y190000D02*
D03*
X384000D02*
D03*
X374000Y200000D02*
D03*
X384000D02*
D03*
X174000Y10000D02*
D03*
X164000D02*
D03*
X154000D02*
D03*
X144000D02*
D03*
X134000D02*
D03*
X138000Y200000D02*
D03*
X128000D02*
D03*
X118000D02*
D03*
X108000D02*
D03*
X98000D02*
D03*
X158000D02*
D03*
X148000D02*
D03*
X331000Y97000D02*
D03*
Y117000D02*
D03*
D18*
X356000Y83000D02*
D03*
X346000D02*
D03*
X356000Y93000D02*
D03*
X346000D02*
D03*
X356000Y103000D02*
D03*
X346000D02*
D03*
X356000Y113000D02*
D03*
X13000Y183000D02*
D03*
X23000D02*
D03*
X33000D02*
D03*
X43000D02*
D03*
X53000D02*
D03*
X63000D02*
D03*
X73000D02*
D03*
X194000Y172000D02*
D03*
X204000D02*
D03*
X214000D02*
D03*
X194000Y182000D02*
D03*
X204000D02*
D03*
X126000Y59000D02*
D03*
X136000D02*
D03*
X126000Y42000D02*
D03*
X136000D02*
D03*
X239000Y172000D02*
D03*
X249000D02*
D03*
X259000D02*
D03*
X239000Y182000D02*
D03*
X249000D02*
D03*
X284000Y172000D02*
D03*
X294000D02*
D03*
X304000D02*
D03*
X284000Y182000D02*
D03*
X294000D02*
D03*
X329000Y172000D02*
D03*
X339000D02*
D03*
X349000D02*
D03*
X329000Y182000D02*
D03*
X339000D02*
D03*
X105000Y172000D02*
D03*
X115000D02*
D03*
X125000D02*
D03*
X105000Y182000D02*
D03*
X115000D02*
D03*
X149000Y172000D02*
D03*
X159000D02*
D03*
X169000D02*
D03*
X149000Y182000D02*
D03*
X159000D02*
D03*
X317000Y33000D02*
D03*
Y43000D02*
D03*
Y53000D02*
D03*
Y63000D02*
D03*
Y73000D02*
D03*
Y83000D02*
D03*
Y93000D02*
D03*
Y103000D02*
D03*
Y113000D02*
D03*
Y123000D02*
D03*
Y133000D02*
D03*
Y143000D02*
D03*
Y153000D02*
D03*
X287000Y23000D02*
D03*
Y33000D02*
D03*
Y43000D02*
D03*
Y53000D02*
D03*
Y63000D02*
D03*
Y73000D02*
D03*
Y83000D02*
D03*
Y93000D02*
D03*
Y103000D02*
D03*
Y113000D02*
D03*
Y123000D02*
D03*
Y133000D02*
D03*
Y143000D02*
D03*
Y153000D02*
D03*
X126000Y25000D02*
D03*
X136000D02*
D03*
D19*
X346000Y113000D02*
D03*
D20*
X19000Y93157D02*
D03*
X134000D02*
D03*
X86000D02*
D03*
X67000D02*
D03*
D21*
X19000Y112843D02*
D03*
X134000D02*
D03*
X80843Y56000D02*
D03*
X88157D02*
D03*
X86000Y112843D02*
D03*
X67000D02*
D03*
D22*
X240449Y31000D02*
D03*
X221551D02*
D03*
X234150D02*
D03*
X240299Y56000D02*
D03*
X221402D02*
D03*
X234000D02*
D03*
D23*
X227850Y31000D02*
D03*
X227701Y56000D02*
D03*
D24*
X83000Y183000D02*
D03*
X214000Y182000D02*
D03*
X259000D02*
D03*
X304000D02*
D03*
X349000D02*
D03*
X125000D02*
D03*
X169000D02*
D03*
X317000Y23000D02*
D03*
D25*
X157000Y118744D02*
D03*
Y129000D02*
D03*
Y139000D02*
D03*
Y109000D02*
D03*
Y99000D02*
D03*
Y89000D02*
D03*
D26*
X165000Y73244D02*
D03*
Y154244D02*
D03*
X13000D02*
D03*
X13500Y73244D02*
D03*
D27*
X85000Y33000D02*
D03*
X95000D02*
D03*
D28*
X75000D02*
D03*
D29*
X20000Y9000D02*
D03*
X68000D02*
D03*
D30*
X40000D02*
D03*
X88000D02*
D03*
D31*
X20000Y33000D02*
D03*
D32*
X61157Y56000D02*
D03*
X107843D02*
D03*
D33*
X124000Y150000D02*
D03*
D34*
X188000Y42000D02*
D03*
X210441D02*
D03*
X188000Y26000D02*
D03*
X210441D02*
D03*
X143780Y58000D02*
D03*
X166220D02*
D03*
X143559Y41000D02*
D03*
X166000D02*
D03*
X143780Y24000D02*
D03*
X166220D02*
D03*
X274441Y26000D02*
D03*
X252000D02*
D03*
X188000Y58000D02*
D03*
X210441D02*
D03*
X274441Y41000D02*
D03*
X252000D02*
D03*
D35*
X72000Y66000D02*
X112000D01*
X67000Y71000D02*
X72000Y66000D01*
X67000Y71000D02*
Y93157D01*
X121000Y42000D02*
X126000D01*
X117000Y46000D02*
Y61000D01*
Y46000D02*
X121000Y42000D01*
X112000Y66000D02*
X117000Y61000D01*
M02*
