M48
;Layer_Color=9474304
;FILE_FORMAT=2:5
INCH,TZ
;TYPE=PLATED
T1F00S00C0.02362
T2F00S00C0.02800
T3F00S00C0.03000
T4F00S00C0.03150
T5F00S00C0.03543
T6F00S00C0.03937
T7F00S00C0.04331
T8F00S00C0.05906
T9F00S00C0.07874
%
T01
X221551Y31000
X227850
X234150
X240449
X240299Y56000
X234000
X227701
X221402
T02
X124000Y150000
T03
X134000Y10000
X144000
X154000
X164000
X174000
X184000
X204000
X214000
X224000
X234000
X244000
X254000
X264000
X274000
X294000
X304000
X314000
X324000
X334000
X344000
X354000
X364000
X374000Y30000
X384000
Y40000
X374000
Y50000
X384000
Y60000
X374000
Y70000
X384000
Y80000
X374000
Y90000
X384000
Y100000
X374000
Y110000
X384000
Y120000
X374000
Y130000
X384000
Y140000
X374000
Y150000
X384000
Y160000
X374000
Y170000
X384000
Y180000
X374000
X331000Y117000
Y97000
X184000Y200000
X168000
X158000
X148000
X138000
X128000
X118000
X108000
X98000
X194000
X204000
X214000
X224000
X234000
X244000
X254000
X274000
X284000
X294000
X304000
X314000
X324000
X334000
X344000
X374000
Y190000
X384000
Y200000
T04
X20000Y33000
X29843
X39685
X126000Y25000
X136000
X356000Y83000
Y93000
Y103000
Y113000
X346000
Y103000
Y93000
Y83000
X157000Y89000
Y99000
Y109000
Y118744
Y129000
Y139000
X134000Y112843
Y93157
X136000Y59000
X126000
Y42000
X136000
X107843Y56000
X88157
X80843
X61157
X39685Y56622
X67000Y93157
X86000
Y112843
X67000
X19000
Y93157
X20000Y56622
X29843
T05
X287000Y23000
Y33000
X317000
Y23000
X349000Y172000
Y182000
X339000
Y172000
X329000
Y182000
X304000
Y172000
X294000
X284000
Y182000
X294000
X259000
Y172000
X249000
X239000
Y182000
X249000
X214000
Y172000
X204000
X194000
Y182000
X204000
X287000Y153000
Y143000
Y133000
Y123000
Y113000
Y103000
Y93000
Y83000
Y73000
Y63000
Y53000
Y43000
X317000
Y53000
Y63000
Y73000
Y83000
Y93000
Y103000
Y113000
Y123000
Y133000
Y143000
Y153000
X169000Y172000
X159000
X149000
Y182000
X159000
X169000
X125000
Y172000
X115000
X105000
Y182000
X115000
X83000Y183000
X73000
X63000
X53000
X43000
X33000
X23000
X13000
T06
X75000Y33000
X85000
X95000
T07
X20000Y9000
X40000
X68000
X88000
T08
X165000Y73244
Y154244
X13000
X13500Y73244
T09
X384000Y10000
X64000Y200000
X359000
M30
