G04 Layer_Color=16711935*
%FSLAX25Y25*%
%MOIN*%
G70*
G01*
G75*
%ADD44C,0.07099*%
%ADD45R,0.06800X0.06800*%
%ADD46C,0.06800*%
%ADD47C,0.06706*%
%ADD48R,0.06706X0.06706*%
%ADD49R,0.06115X0.06115*%
%ADD50C,0.06115*%
%ADD51C,0.05524*%
%ADD52R,0.05524X0.05524*%
%ADD53R,0.06706X0.06706*%
%ADD54P,0.08536X8X22.5*%
%ADD55C,0.10800*%
%ADD56P,0.09389X8X22.5*%
%ADD57R,0.08674X0.08674*%
%ADD58R,0.10642X0.10642*%
%ADD59P,0.11519X8X202.5*%
%ADD60R,0.07099X0.07099*%
%ADD61R,0.06115X0.06115*%
%ADD62C,0.05800*%
%ADD63R,0.05131X0.13792*%
D44*
X64000Y200000D02*
D03*
X384000Y10000D02*
D03*
X359000Y200000D02*
D03*
X29843Y33000D02*
D03*
X39685D02*
D03*
Y56622D02*
D03*
X29843D02*
D03*
X20000D02*
D03*
D45*
X294000Y10000D02*
D03*
X344000Y200000D02*
D03*
X204000Y10000D02*
D03*
X254000Y200000D02*
D03*
X184000Y10000D02*
D03*
X168000Y200000D02*
D03*
D46*
X324000Y10000D02*
D03*
X334000D02*
D03*
X344000D02*
D03*
X354000D02*
D03*
X364000D02*
D03*
X304000D02*
D03*
X314000D02*
D03*
Y200000D02*
D03*
X304000D02*
D03*
X294000D02*
D03*
X284000D02*
D03*
X274000D02*
D03*
X334000D02*
D03*
X324000D02*
D03*
X234000Y10000D02*
D03*
X244000D02*
D03*
X254000D02*
D03*
X264000D02*
D03*
X274000D02*
D03*
X214000D02*
D03*
X224000D02*
D03*
Y200000D02*
D03*
X214000D02*
D03*
X204000D02*
D03*
X194000D02*
D03*
X184000D02*
D03*
X244000D02*
D03*
X234000D02*
D03*
X374000Y30000D02*
D03*
X384000D02*
D03*
X374000Y40000D02*
D03*
X384000D02*
D03*
X374000Y50000D02*
D03*
X384000D02*
D03*
X374000Y60000D02*
D03*
X384000D02*
D03*
X374000Y70000D02*
D03*
X384000D02*
D03*
X374000Y80000D02*
D03*
X384000D02*
D03*
X374000Y90000D02*
D03*
X384000D02*
D03*
X374000Y100000D02*
D03*
X384000D02*
D03*
Y110000D02*
D03*
X374000D02*
D03*
Y120000D02*
D03*
X384000D02*
D03*
X374000Y130000D02*
D03*
X384000D02*
D03*
X374000Y140000D02*
D03*
X384000D02*
D03*
X374000Y150000D02*
D03*
X384000D02*
D03*
X374000Y160000D02*
D03*
X384000D02*
D03*
X374000Y170000D02*
D03*
X384000D02*
D03*
X374000Y180000D02*
D03*
X384000D02*
D03*
X374000Y190000D02*
D03*
X384000D02*
D03*
X374000Y200000D02*
D03*
X384000D02*
D03*
X174000Y10000D02*
D03*
X164000D02*
D03*
X154000D02*
D03*
X144000D02*
D03*
X134000D02*
D03*
X138000Y200000D02*
D03*
X128000D02*
D03*
X118000D02*
D03*
X108000D02*
D03*
X98000D02*
D03*
X158000D02*
D03*
X148000D02*
D03*
X331000Y97000D02*
D03*
Y117000D02*
D03*
D47*
X356000Y83000D02*
D03*
X346000D02*
D03*
X356000Y93000D02*
D03*
X346000D02*
D03*
X356000Y103000D02*
D03*
X346000D02*
D03*
X356000Y113000D02*
D03*
X13000Y183000D02*
D03*
X23000D02*
D03*
X33000D02*
D03*
X43000D02*
D03*
X53000D02*
D03*
X63000D02*
D03*
X73000D02*
D03*
X194000Y172000D02*
D03*
X204000D02*
D03*
X214000D02*
D03*
X194000Y182000D02*
D03*
X204000D02*
D03*
X126000Y59000D02*
D03*
X136000D02*
D03*
X126000Y42000D02*
D03*
X136000D02*
D03*
X239000Y172000D02*
D03*
X249000D02*
D03*
X259000D02*
D03*
X239000Y182000D02*
D03*
X249000D02*
D03*
X284000Y172000D02*
D03*
X294000D02*
D03*
X304000D02*
D03*
X284000Y182000D02*
D03*
X294000D02*
D03*
X329000Y172000D02*
D03*
X339000D02*
D03*
X349000D02*
D03*
X329000Y182000D02*
D03*
X339000D02*
D03*
X105000Y172000D02*
D03*
X115000D02*
D03*
X125000D02*
D03*
X105000Y182000D02*
D03*
X115000D02*
D03*
X149000Y172000D02*
D03*
X159000D02*
D03*
X169000D02*
D03*
X149000Y182000D02*
D03*
X159000D02*
D03*
X317000Y33000D02*
D03*
Y43000D02*
D03*
Y53000D02*
D03*
Y63000D02*
D03*
Y73000D02*
D03*
Y83000D02*
D03*
Y93000D02*
D03*
Y103000D02*
D03*
Y113000D02*
D03*
Y123000D02*
D03*
Y133000D02*
D03*
Y143000D02*
D03*
Y153000D02*
D03*
X287000Y23000D02*
D03*
Y33000D02*
D03*
Y43000D02*
D03*
Y53000D02*
D03*
Y63000D02*
D03*
Y73000D02*
D03*
Y83000D02*
D03*
Y93000D02*
D03*
Y103000D02*
D03*
Y113000D02*
D03*
Y123000D02*
D03*
Y133000D02*
D03*
Y143000D02*
D03*
Y153000D02*
D03*
X126000Y25000D02*
D03*
X136000D02*
D03*
D48*
X346000Y113000D02*
D03*
D49*
X19000Y93157D02*
D03*
X134000D02*
D03*
X86000D02*
D03*
X67000D02*
D03*
D50*
X19000Y112843D02*
D03*
X134000D02*
D03*
X80843Y56000D02*
D03*
X88157D02*
D03*
X86000Y112843D02*
D03*
X67000D02*
D03*
D51*
X240449Y31000D02*
D03*
X221551D02*
D03*
X234150D02*
D03*
X240299Y56000D02*
D03*
X221402D02*
D03*
X234000D02*
D03*
D52*
X227850Y31000D02*
D03*
X227701Y56000D02*
D03*
D53*
X83000Y183000D02*
D03*
X214000Y182000D02*
D03*
X259000D02*
D03*
X304000D02*
D03*
X349000D02*
D03*
X125000D02*
D03*
X169000D02*
D03*
X317000Y23000D02*
D03*
D54*
X157000Y118744D02*
D03*
Y129000D02*
D03*
Y139000D02*
D03*
Y109000D02*
D03*
Y99000D02*
D03*
Y89000D02*
D03*
D55*
X165000Y73244D02*
D03*
Y154244D02*
D03*
X13000D02*
D03*
X13500Y73244D02*
D03*
D56*
X85000Y33000D02*
D03*
X95000D02*
D03*
D57*
X75000D02*
D03*
D58*
X20000Y9000D02*
D03*
X68000D02*
D03*
D59*
X40000D02*
D03*
X88000D02*
D03*
D60*
X20000Y33000D02*
D03*
D61*
X61157Y56000D02*
D03*
X107843D02*
D03*
D62*
X124000Y150000D02*
D03*
D63*
X188000Y42000D02*
D03*
X210441D02*
D03*
X188000Y26000D02*
D03*
X210441D02*
D03*
X143780Y58000D02*
D03*
X166220D02*
D03*
X143559Y41000D02*
D03*
X166000D02*
D03*
X143780Y24000D02*
D03*
X166220D02*
D03*
X274441Y26000D02*
D03*
X252000D02*
D03*
X188000Y58000D02*
D03*
X210441D02*
D03*
X274441Y41000D02*
D03*
X252000D02*
D03*
M02*
