G04 Layer_Color=32896*
%FSLAX25Y25*%
%MOIN*%
G70*
G01*
G75*
%ADD12C,0.01000*%
%ADD36C,0.00787*%
%ADD64C,0.00100*%
%ADD65C,0.00709*%
D12*
X163000Y82244D02*
Y144744D01*
X151000Y82244D02*
X163000D01*
X151000D02*
Y144744D01*
X163000D01*
X11500Y91244D02*
X15000Y94744D01*
Y127744D01*
X11500Y131244D02*
X15000Y127744D01*
X11500Y131244D02*
Y136244D01*
Y86244D02*
Y91244D01*
Y86244D02*
X86500D01*
X11500Y136244D02*
X86500D01*
Y86244D02*
Y136244D01*
X171854Y66756D02*
Y161244D01*
X6500Y66756D02*
X171854D01*
X6500Y161244D02*
X171854D01*
X7500Y91378D02*
Y136622D01*
X6500Y137622D02*
X7500Y136622D01*
X6500Y137622D02*
Y161244D01*
Y90378D02*
X7500Y91378D01*
X6500Y66756D02*
Y90378D01*
X170000Y54000D02*
X173999D01*
Y55999D01*
X173332Y56666D01*
X171999D01*
X171333Y55999D01*
Y54000D01*
Y55333D02*
X170000Y56666D01*
Y57999D02*
Y59332D01*
Y58665D01*
X173999D01*
X173332Y57999D01*
X170000Y38000D02*
X173999D01*
Y39999D01*
X173332Y40666D01*
X171999D01*
X171333Y39999D01*
Y38000D01*
Y39333D02*
X170000Y40666D01*
Y44664D02*
Y41999D01*
X172666Y44664D01*
X173332D01*
X173999Y43998D01*
Y42665D01*
X173332Y41999D01*
X170000Y19000D02*
X173999D01*
Y20999D01*
X173332Y21666D01*
X171999D01*
X171333Y20999D01*
Y19000D01*
Y20333D02*
X170000Y21666D01*
X173332Y22999D02*
X173999Y23665D01*
Y24998D01*
X173332Y25664D01*
X172666D01*
X171999Y24998D01*
Y24332D01*
Y24998D01*
X171333Y25664D01*
X170667D01*
X170000Y24998D01*
Y23665D01*
X170667Y22999D01*
X185000Y62000D02*
X181001D01*
Y60001D01*
X181668Y59334D01*
X183001D01*
X183667Y60001D01*
Y62000D01*
Y60667D02*
X185000Y59334D01*
Y56002D02*
X181001D01*
X183001Y58001D01*
Y55335D01*
X184000Y47000D02*
X180001D01*
Y45001D01*
X180668Y44334D01*
X182001D01*
X182667Y45001D01*
Y47000D01*
Y45667D02*
X184000Y44334D01*
X180001Y40336D02*
Y43001D01*
X182001D01*
X181334Y41668D01*
Y41002D01*
X182001Y40336D01*
X183334D01*
X184000Y41002D01*
Y42335D01*
X183334Y43001D01*
X185000Y29001D02*
X181001D01*
X183001Y31000D01*
Y28334D01*
X181668Y27001D02*
X181001Y26335D01*
Y25002D01*
X181668Y24336D01*
X184334D01*
X185000Y25002D01*
Y26335D01*
X184334Y27001D01*
X181668D01*
X249000Y30000D02*
X245001D01*
Y28001D01*
X245668Y27334D01*
X247001D01*
X247667Y28001D01*
Y30000D01*
Y28667D02*
X249000Y27334D01*
X245668Y26001D02*
X245001Y25335D01*
Y24002D01*
X245668Y23336D01*
X246334D01*
X247001Y24002D01*
X247667Y23336D01*
X248334D01*
X249000Y24002D01*
Y25335D01*
X248334Y26001D01*
X247667D01*
X247001Y25335D01*
X246334Y26001D01*
X245668D01*
X247001Y25335D02*
Y24002D01*
X249000Y45000D02*
X245001D01*
Y43001D01*
X245668Y42334D01*
X247001D01*
X247667Y43001D01*
Y45000D01*
Y43667D02*
X249000Y42334D01*
X248334Y41001D02*
X249000Y40335D01*
Y39002D01*
X248334Y38335D01*
X245668D01*
X245001Y39002D01*
Y40335D01*
X245668Y41001D01*
X246334D01*
X247001Y40335D01*
Y38335D01*
X185901Y169698D02*
X186901Y170698D01*
X188900D01*
X189900Y169698D01*
Y168699D01*
X188900Y167699D01*
X186901D01*
X185901Y166699D01*
Y165700D01*
X186901Y164700D01*
X188900D01*
X189900Y165700D01*
X183902Y170698D02*
Y164700D01*
X180903D01*
X179903Y165700D01*
Y169698D01*
X180903Y170698D01*
X183902D01*
X177904Y167699D02*
X173905D01*
X171906Y164700D02*
X169906D01*
X170906D01*
Y170698D01*
X171906Y169698D01*
D36*
X191740Y35898D02*
X206701D01*
X191740Y48102D02*
X206701D01*
X191740Y19898D02*
X206701D01*
X191740Y32102D02*
X206701D01*
X147520Y51898D02*
X162480D01*
X147520Y64102D02*
X162480D01*
X147299Y34898D02*
X162260D01*
X147299Y47102D02*
X162260D01*
X147520Y17898D02*
X162480D01*
X147520Y30102D02*
X162480D01*
X255740Y32102D02*
X270701D01*
X255740Y19898D02*
X270701D01*
X191740Y51898D02*
X206701D01*
X191740Y64102D02*
X206701D01*
X255740Y47102D02*
X270701D01*
X255740Y34898D02*
X270701D01*
D64*
X205700Y156600D02*
X221500D01*
X237800D02*
X253600D01*
X205600Y156500D02*
X221600D01*
X237700D02*
X253700D01*
X205600Y156400D02*
X221600D01*
X237700D02*
X253700D01*
X205500Y156300D02*
X221600D01*
X237700D02*
X253700D01*
X205500Y156200D02*
X221600D01*
X237700D02*
X253700D01*
X205500Y156100D02*
X221600D01*
X237700D02*
X253700D01*
X205500Y156000D02*
X221600D01*
X237700D02*
X253700D01*
X205500Y155900D02*
X221600D01*
X237700D02*
X253700D01*
X205500Y155800D02*
X221600D01*
X237700D02*
X253700D01*
X205500Y155700D02*
X221600D01*
X237700D02*
X253700D01*
X205500Y155600D02*
X221600D01*
X237700D02*
X253700D01*
X205500Y155500D02*
X221600D01*
X237700D02*
X253700D01*
X205500Y155400D02*
X221600D01*
X237700D02*
X253700D01*
X205500Y155300D02*
X221600D01*
X237700D02*
X253700D01*
X205500Y155200D02*
X221600D01*
X237700D02*
X253700D01*
X205500Y155100D02*
X221600D01*
X237700D02*
X253700D01*
X205500Y155000D02*
X221600D01*
X237700D02*
X253700D01*
X205500Y154900D02*
X221600D01*
X237700D02*
X253700D01*
X205500Y154800D02*
X221600D01*
X237700D02*
X253700D01*
X205500Y154700D02*
X221600D01*
X237700D02*
X253700D01*
X205500Y154600D02*
X207800D01*
X219400D02*
X221600D01*
X237700D02*
X239900D01*
X251500D02*
X253700D01*
X205500Y154500D02*
X207600D01*
X219500D02*
X221600D01*
X237700D02*
X239800D01*
X251600D02*
X253700D01*
X205500Y154400D02*
X207600D01*
X219600D02*
X221600D01*
X237700D02*
X239700D01*
X251700D02*
X253700D01*
X205500Y154300D02*
X207600D01*
X219600D02*
X221600D01*
X237700D02*
X239700D01*
X251700D02*
X253700D01*
X205500Y154200D02*
X207600D01*
X219600D02*
X221600D01*
X237700D02*
X239700D01*
X251700D02*
X253700D01*
X205500Y154100D02*
X207600D01*
X219600D02*
X221600D01*
X237700D02*
X239700D01*
X251700D02*
X253700D01*
X205500Y154000D02*
X207600D01*
X219600D02*
X221600D01*
X237700D02*
X239700D01*
X251700D02*
X253700D01*
X205500Y153900D02*
X207600D01*
X219600D02*
X221600D01*
X237700D02*
X239700D01*
X251700D02*
X253700D01*
X205500Y153800D02*
X207600D01*
X219600D02*
X221600D01*
X237700D02*
X239700D01*
X251700D02*
X253700D01*
X205500Y153700D02*
X207600D01*
X219600D02*
X221600D01*
X237700D02*
X239700D01*
X251700D02*
X253700D01*
X205500Y153600D02*
X207600D01*
X219600D02*
X221600D01*
X237700D02*
X239700D01*
X251700D02*
X253700D01*
X205500Y153500D02*
X207600D01*
X219600D02*
X221600D01*
X237700D02*
X239700D01*
X251700D02*
X253700D01*
X205500Y153400D02*
X207600D01*
X219600D02*
X221600D01*
X237700D02*
X239700D01*
X251700D02*
X253700D01*
X205500Y153300D02*
X207600D01*
X219600D02*
X221600D01*
X237700D02*
X239700D01*
X251700D02*
X253700D01*
X205500Y153200D02*
X207600D01*
X219600D02*
X221600D01*
X237700D02*
X239700D01*
X251700D02*
X253700D01*
X205500Y153100D02*
X207600D01*
X219600D02*
X221600D01*
X237700D02*
X239700D01*
X251700D02*
X253700D01*
X205500Y153000D02*
X207600D01*
X219600D02*
X221600D01*
X237700D02*
X239700D01*
X251700D02*
X253700D01*
X205600Y152900D02*
X207600D01*
X219600D02*
X221600D01*
X237700D02*
X239700D01*
X251700D02*
X253700D01*
X205600Y152800D02*
X207600D01*
X219600D02*
X221600D01*
X237700D02*
X239700D01*
X251700D02*
X253700D01*
X205600Y152700D02*
X207600D01*
X219600D02*
X221600D01*
X237700D02*
X239700D01*
X251700D02*
X253700D01*
X205600Y152600D02*
X207600D01*
X209700D02*
X217500D01*
X219600D02*
X221600D01*
X237700D02*
X239700D01*
X241800D02*
X249600D01*
X251700D02*
X253700D01*
X205600Y152500D02*
X207600D01*
X209600D02*
X217600D01*
X219600D02*
X221600D01*
X237700D02*
X239700D01*
X241700D02*
X249700D01*
X251700D02*
X253700D01*
X205600Y152400D02*
X207600D01*
X209600D02*
X217600D01*
X219600D02*
X221600D01*
X237700D02*
X239700D01*
X241700D02*
X249700D01*
X251700D02*
X253700D01*
X205600Y152300D02*
X207600D01*
X209600D02*
X217600D01*
X219600D02*
X221600D01*
X237700D02*
X239700D01*
X241700D02*
X249700D01*
X251700D02*
X253700D01*
X205600Y152200D02*
X207600D01*
X209600D02*
X217600D01*
X219600D02*
X221600D01*
X237700D02*
X239700D01*
X241700D02*
X249700D01*
X251700D02*
X253700D01*
X205600Y152100D02*
X207600D01*
X209600D02*
X217600D01*
X219600D02*
X221600D01*
X237700D02*
X239700D01*
X241700D02*
X249700D01*
X251700D02*
X253700D01*
X205600Y152000D02*
X207600D01*
X209600D02*
X217600D01*
X219600D02*
X221600D01*
X237700D02*
X239700D01*
X241700D02*
X249700D01*
X251700D02*
X253700D01*
X205600Y151900D02*
X207600D01*
X209600D02*
X217600D01*
X219600D02*
X221600D01*
X237700D02*
X239700D01*
X241700D02*
X249700D01*
X251700D02*
X253700D01*
X205600Y151800D02*
X207600D01*
X209600D02*
X217600D01*
X219600D02*
X221600D01*
X237700D02*
X239700D01*
X241700D02*
X249700D01*
X251700D02*
X253700D01*
X205600Y151700D02*
X207600D01*
X209600D02*
X217600D01*
X219600D02*
X221600D01*
X237700D02*
X239700D01*
X241700D02*
X249700D01*
X251700D02*
X253700D01*
X205600Y151600D02*
X207600D01*
X209600D02*
X217600D01*
X219600D02*
X221600D01*
X237700D02*
X239700D01*
X241700D02*
X249700D01*
X251700D02*
X253700D01*
X205600Y151500D02*
X207600D01*
X209600D02*
X217600D01*
X219600D02*
X221600D01*
X237700D02*
X239700D01*
X241700D02*
X249700D01*
X251700D02*
X253700D01*
X205600Y151400D02*
X207600D01*
X209600D02*
X217600D01*
X219600D02*
X221600D01*
X237700D02*
X239700D01*
X241700D02*
X249700D01*
X251700D02*
X253700D01*
X205600Y151300D02*
X207600D01*
X209600D02*
X217600D01*
X219600D02*
X221600D01*
X237700D02*
X239700D01*
X241700D02*
X249700D01*
X251700D02*
X253700D01*
X205600Y151200D02*
X207600D01*
X209600D02*
X217600D01*
X219600D02*
X221600D01*
X237700D02*
X239700D01*
X241700D02*
X249700D01*
X251700D02*
X253700D01*
X205600Y151100D02*
X207600D01*
X209600D02*
X217600D01*
X219600D02*
X221600D01*
X237700D02*
X239700D01*
X241700D02*
X249700D01*
X251700D02*
X253700D01*
X205600Y151000D02*
X207600D01*
X209600D02*
X217600D01*
X219600D02*
X221600D01*
X237700D02*
X239700D01*
X241700D02*
X249700D01*
X251700D02*
X253700D01*
X205600Y150900D02*
X207600D01*
X209600D02*
X217600D01*
X219600D02*
X221600D01*
X237700D02*
X239700D01*
X241700D02*
X249700D01*
X251700D02*
X253700D01*
X205600Y150800D02*
X207600D01*
X209600D02*
X217600D01*
X219600D02*
X221600D01*
X237700D02*
X239700D01*
X241700D02*
X249700D01*
X251700D02*
X253700D01*
X205600Y150700D02*
X207600D01*
X209600D02*
X217600D01*
X219600D02*
X221600D01*
X237700D02*
X239700D01*
X241700D02*
X249700D01*
X251700D02*
X253700D01*
X205600Y150600D02*
X207600D01*
X209600D02*
X211800D01*
X215400D02*
X217600D01*
X219600D02*
X221600D01*
X237700D02*
X239700D01*
X241700D02*
X243900D01*
X247500D02*
X249700D01*
X251700D02*
X253700D01*
X205600Y150500D02*
X207600D01*
X209600D02*
X211700D01*
X215500D02*
X217600D01*
X219600D02*
X221600D01*
X237700D02*
X239700D01*
X241700D02*
X243800D01*
X247600D02*
X249700D01*
X251700D02*
X253700D01*
X205600Y150400D02*
X207600D01*
X209600D02*
X211600D01*
X215600D02*
X217600D01*
X219600D02*
X221600D01*
X237700D02*
X239700D01*
X241700D02*
X243700D01*
X247700D02*
X249700D01*
X251700D02*
X253700D01*
X205600Y150300D02*
X207600D01*
X209600D02*
X211600D01*
X215600D02*
X217600D01*
X219600D02*
X221600D01*
X237700D02*
X239700D01*
X241700D02*
X243700D01*
X247700D02*
X249700D01*
X251700D02*
X253700D01*
X205600Y150200D02*
X207600D01*
X209600D02*
X211600D01*
X215600D02*
X217600D01*
X219600D02*
X221600D01*
X237700D02*
X239700D01*
X241700D02*
X243700D01*
X247700D02*
X249700D01*
X251700D02*
X253700D01*
X205600Y150100D02*
X207600D01*
X209600D02*
X211600D01*
X215600D02*
X217600D01*
X219600D02*
X221600D01*
X237700D02*
X239700D01*
X241700D02*
X243700D01*
X247700D02*
X249700D01*
X251700D02*
X253700D01*
X205600Y150000D02*
X207600D01*
X209600D02*
X211600D01*
X215600D02*
X217600D01*
X219600D02*
X221600D01*
X237700D02*
X239700D01*
X241700D02*
X243700D01*
X247700D02*
X249700D01*
X251700D02*
X253700D01*
X205600Y149900D02*
X207600D01*
X209600D02*
X211600D01*
X215600D02*
X217600D01*
X219600D02*
X221600D01*
X237700D02*
X239700D01*
X241700D02*
X243700D01*
X247700D02*
X249700D01*
X251700D02*
X253700D01*
X205600Y149800D02*
X207600D01*
X209600D02*
X211600D01*
X215600D02*
X217600D01*
X219600D02*
X221600D01*
X237700D02*
X239700D01*
X241700D02*
X243700D01*
X247700D02*
X249700D01*
X251700D02*
X253700D01*
X205600Y149700D02*
X207600D01*
X209600D02*
X211600D01*
X215600D02*
X217600D01*
X219600D02*
X221600D01*
X237700D02*
X239700D01*
X241700D02*
X243700D01*
X247700D02*
X249700D01*
X251700D02*
X253700D01*
X205600Y149600D02*
X207600D01*
X209600D02*
X211600D01*
X212600D02*
X214600D01*
X215600D02*
X217600D01*
X219600D02*
X221600D01*
X237700D02*
X239700D01*
X241700D02*
X243700D01*
X244700D02*
X246600D01*
X247700D02*
X249700D01*
X251700D02*
X253700D01*
X205600Y149500D02*
X207600D01*
X209600D02*
X211600D01*
X212600D02*
X214600D01*
X215600D02*
X217600D01*
X219600D02*
X221600D01*
X237700D02*
X239700D01*
X241700D02*
X243700D01*
X244700D02*
X246700D01*
X247700D02*
X249700D01*
X251700D02*
X253700D01*
X205600Y149400D02*
X207600D01*
X209600D02*
X211600D01*
X212600D02*
X214600D01*
X215600D02*
X217600D01*
X219600D02*
X221600D01*
X237700D02*
X239700D01*
X241700D02*
X243700D01*
X244700D02*
X246700D01*
X247700D02*
X249700D01*
X251700D02*
X253700D01*
X205600Y149300D02*
X207600D01*
X209600D02*
X211600D01*
X212600D02*
X214600D01*
X215600D02*
X217600D01*
X219600D02*
X221600D01*
X237700D02*
X239700D01*
X241700D02*
X243700D01*
X244700D02*
X246700D01*
X247700D02*
X249700D01*
X251700D02*
X253700D01*
X205600Y149200D02*
X207600D01*
X209600D02*
X211600D01*
X212600D02*
X214600D01*
X215600D02*
X217600D01*
X219600D02*
X221600D01*
X237700D02*
X239700D01*
X241700D02*
X243700D01*
X244700D02*
X246700D01*
X247700D02*
X249700D01*
X251700D02*
X253700D01*
X205600Y149100D02*
X207600D01*
X209600D02*
X211600D01*
X212600D02*
X214600D01*
X215600D02*
X217600D01*
X219600D02*
X221600D01*
X237700D02*
X239700D01*
X241700D02*
X243700D01*
X244700D02*
X246700D01*
X247700D02*
X249700D01*
X251700D02*
X253700D01*
X205600Y149000D02*
X207600D01*
X209600D02*
X211600D01*
X212600D02*
X214600D01*
X215600D02*
X217600D01*
X219600D02*
X221600D01*
X237700D02*
X239700D01*
X241700D02*
X243700D01*
X244700D02*
X246700D01*
X247700D02*
X249700D01*
X251700D02*
X253700D01*
X205600Y148900D02*
X207600D01*
X209600D02*
X211600D01*
X212600D02*
X214600D01*
X215600D02*
X217600D01*
X219600D02*
X221600D01*
X237700D02*
X239700D01*
X241700D02*
X243700D01*
X244700D02*
X246700D01*
X247700D02*
X249700D01*
X251700D02*
X253700D01*
X205600Y148800D02*
X207600D01*
X209600D02*
X211600D01*
X212600D02*
X214600D01*
X215600D02*
X217600D01*
X219600D02*
X221600D01*
X237700D02*
X239700D01*
X241700D02*
X243700D01*
X244700D02*
X246700D01*
X247700D02*
X249700D01*
X251700D02*
X253700D01*
X205600Y148700D02*
X207600D01*
X209600D02*
X211600D01*
X212600D02*
X214600D01*
X215600D02*
X217600D01*
X219600D02*
X221600D01*
X237700D02*
X239700D01*
X241700D02*
X243700D01*
X244700D02*
X246700D01*
X247700D02*
X249700D01*
X251700D02*
X253700D01*
X205600Y148600D02*
X207600D01*
X209600D02*
X211600D01*
X212600D02*
X214600D01*
X215600D02*
X217600D01*
X219600D02*
X221600D01*
X237700D02*
X239700D01*
X241700D02*
X243700D01*
X244700D02*
X246700D01*
X247700D02*
X249700D01*
X251700D02*
X253700D01*
X205600Y148500D02*
X207600D01*
X209600D02*
X211600D01*
X212600D02*
X214600D01*
X215600D02*
X217600D01*
X219600D02*
X221600D01*
X237700D02*
X239700D01*
X241700D02*
X243700D01*
X244700D02*
X246700D01*
X247700D02*
X249700D01*
X251700D02*
X253700D01*
X205600Y148400D02*
X207600D01*
X209600D02*
X211600D01*
X212600D02*
X214600D01*
X215600D02*
X217600D01*
X219600D02*
X221600D01*
X237700D02*
X239700D01*
X241700D02*
X243700D01*
X244700D02*
X246700D01*
X247700D02*
X249700D01*
X251700D02*
X253700D01*
X205600Y148300D02*
X207600D01*
X209600D02*
X211600D01*
X212600D02*
X214600D01*
X215600D02*
X217600D01*
X219600D02*
X221600D01*
X237700D02*
X239700D01*
X241700D02*
X243700D01*
X244700D02*
X246700D01*
X247700D02*
X249700D01*
X251700D02*
X253700D01*
X205600Y148200D02*
X207600D01*
X209600D02*
X211600D01*
X212600D02*
X214600D01*
X215600D02*
X217600D01*
X219600D02*
X221600D01*
X237700D02*
X239700D01*
X241700D02*
X243700D01*
X244700D02*
X246700D01*
X247700D02*
X249700D01*
X251700D02*
X253700D01*
X205600Y148100D02*
X207600D01*
X209600D02*
X211600D01*
X212600D02*
X214600D01*
X215600D02*
X217600D01*
X219600D02*
X221600D01*
X237700D02*
X239700D01*
X241700D02*
X243700D01*
X244700D02*
X246700D01*
X247700D02*
X249700D01*
X251700D02*
X253700D01*
X205600Y148000D02*
X207600D01*
X209600D02*
X211600D01*
X212600D02*
X214600D01*
X215600D02*
X217600D01*
X219600D02*
X221600D01*
X237700D02*
X239700D01*
X241700D02*
X243700D01*
X244700D02*
X246700D01*
X247700D02*
X249700D01*
X251700D02*
X253700D01*
X205600Y147900D02*
X207600D01*
X209600D02*
X211600D01*
X212600D02*
X214600D01*
X215600D02*
X217600D01*
X219600D02*
X221600D01*
X237700D02*
X239700D01*
X241700D02*
X243700D01*
X244700D02*
X246700D01*
X247700D02*
X249700D01*
X251700D02*
X253700D01*
X205600Y147800D02*
X207600D01*
X209600D02*
X211600D01*
X212600D02*
X214500D01*
X215600D02*
X217600D01*
X219600D02*
X221600D01*
X237700D02*
X239700D01*
X241700D02*
X243700D01*
X244800D02*
X246700D01*
X247700D02*
X249700D01*
X251700D02*
X253700D01*
X205600Y147700D02*
X207600D01*
X209600D02*
X211600D01*
X212700D02*
X214400D01*
X215600D02*
X217600D01*
X219600D02*
X221600D01*
X237700D02*
X239700D01*
X241700D02*
X243700D01*
X244900D02*
X246600D01*
X247700D02*
X249700D01*
X251700D02*
X253700D01*
X205600Y147600D02*
X207600D01*
X209600D02*
X211600D01*
X215600D02*
X217600D01*
X219600D02*
X221600D01*
X237700D02*
X239700D01*
X241700D02*
X243700D01*
X247700D02*
X249700D01*
X251700D02*
X253700D01*
X205600Y147500D02*
X207600D01*
X209600D02*
X211600D01*
X215600D02*
X217600D01*
X219600D02*
X221600D01*
X237700D02*
X239700D01*
X241700D02*
X243700D01*
X247700D02*
X249700D01*
X251700D02*
X253700D01*
X205600Y147400D02*
X207600D01*
X209600D02*
X211600D01*
X215600D02*
X217600D01*
X219600D02*
X221600D01*
X237700D02*
X239700D01*
X241700D02*
X243700D01*
X247700D02*
X249700D01*
X251700D02*
X253700D01*
X205600Y147300D02*
X207600D01*
X209600D02*
X211600D01*
X215600D02*
X217600D01*
X219600D02*
X221600D01*
X237700D02*
X239700D01*
X241700D02*
X243700D01*
X247700D02*
X249700D01*
X251700D02*
X253700D01*
X205600Y147200D02*
X207600D01*
X209600D02*
X211600D01*
X215600D02*
X217600D01*
X219600D02*
X221600D01*
X237700D02*
X239700D01*
X241700D02*
X243700D01*
X247700D02*
X249700D01*
X251700D02*
X253700D01*
X205600Y147100D02*
X207600D01*
X209600D02*
X211600D01*
X215600D02*
X217600D01*
X219600D02*
X221600D01*
X237700D02*
X239700D01*
X241700D02*
X243700D01*
X247700D02*
X249700D01*
X251700D02*
X253700D01*
X205600Y147000D02*
X207600D01*
X209600D02*
X211600D01*
X215600D02*
X217600D01*
X219600D02*
X221600D01*
X237700D02*
X239700D01*
X241700D02*
X243700D01*
X247700D02*
X249700D01*
X251700D02*
X253700D01*
X205600Y146900D02*
X207600D01*
X209600D02*
X211600D01*
X215600D02*
X217600D01*
X219600D02*
X221600D01*
X237700D02*
X239700D01*
X241700D02*
X243700D01*
X247700D02*
X249700D01*
X251700D02*
X253700D01*
X205600Y146800D02*
X207600D01*
X209600D02*
X211700D01*
X215500D02*
X217600D01*
X219600D02*
X221600D01*
X237700D02*
X239700D01*
X241700D02*
X243800D01*
X247600D02*
X249700D01*
X251700D02*
X253700D01*
X205600Y146700D02*
X207600D01*
X209600D02*
X211800D01*
X215400D02*
X217600D01*
X219600D02*
X221600D01*
X237700D02*
X239700D01*
X241700D02*
X243900D01*
X247500D02*
X249700D01*
X251700D02*
X253700D01*
X205600Y146600D02*
X207600D01*
X209600D02*
X217600D01*
X219600D02*
X221600D01*
X237700D02*
X239700D01*
X241700D02*
X249700D01*
X251700D02*
X253700D01*
X205600Y146500D02*
X207600D01*
X209600D02*
X217600D01*
X219600D02*
X221600D01*
X237700D02*
X239700D01*
X241700D02*
X249700D01*
X251700D02*
X253700D01*
X205600Y146400D02*
X207600D01*
X209600D02*
X217600D01*
X219600D02*
X221600D01*
X237700D02*
X239700D01*
X241700D02*
X249700D01*
X251700D02*
X253700D01*
X205600Y146300D02*
X207600D01*
X209600D02*
X217600D01*
X219600D02*
X221600D01*
X237700D02*
X239700D01*
X241700D02*
X249700D01*
X251700D02*
X253700D01*
X205600Y146200D02*
X207600D01*
X209600D02*
X217600D01*
X219600D02*
X221600D01*
X237700D02*
X239700D01*
X241700D02*
X249700D01*
X251700D02*
X253700D01*
X205600Y146100D02*
X207600D01*
X209600D02*
X217600D01*
X219600D02*
X221600D01*
X237700D02*
X239700D01*
X241700D02*
X249700D01*
X251700D02*
X253700D01*
X205600Y146000D02*
X207600D01*
X209600D02*
X217600D01*
X219600D02*
X221600D01*
X237700D02*
X239700D01*
X241700D02*
X249700D01*
X251700D02*
X253700D01*
X205600Y145900D02*
X207600D01*
X209600D02*
X217600D01*
X219600D02*
X221600D01*
X237700D02*
X239700D01*
X241700D02*
X249700D01*
X251700D02*
X253700D01*
X205600Y145800D02*
X207600D01*
X209600D02*
X217600D01*
X219600D02*
X221600D01*
X237700D02*
X239700D01*
X241700D02*
X249700D01*
X251700D02*
X253700D01*
X205600Y145700D02*
X207600D01*
X209600D02*
X217600D01*
X219600D02*
X221600D01*
X237700D02*
X239700D01*
X241700D02*
X249700D01*
X251700D02*
X253700D01*
X205600Y145600D02*
X207600D01*
X209600D02*
X217600D01*
X219600D02*
X221600D01*
X237700D02*
X239700D01*
X241700D02*
X249700D01*
X251700D02*
X253700D01*
X205600Y145500D02*
X207600D01*
X209600D02*
X217600D01*
X219600D02*
X221600D01*
X237700D02*
X239700D01*
X241700D02*
X249700D01*
X251700D02*
X253700D01*
X205600Y145400D02*
X207600D01*
X209600D02*
X217600D01*
X219600D02*
X221600D01*
X237700D02*
X239700D01*
X241700D02*
X249700D01*
X251700D02*
X253700D01*
X205600Y145300D02*
X207600D01*
X209600D02*
X217600D01*
X219600D02*
X221600D01*
X237700D02*
X239700D01*
X241700D02*
X249700D01*
X251700D02*
X253700D01*
X205600Y145200D02*
X207600D01*
X209600D02*
X217600D01*
X219600D02*
X221600D01*
X237700D02*
X239700D01*
X241600D02*
X249700D01*
X251700D02*
X253700D01*
X205600Y145100D02*
X207600D01*
X209600D02*
X217600D01*
X219600D02*
X221600D01*
X237700D02*
X239700D01*
X241600D02*
X249700D01*
X251700D02*
X253700D01*
X205600Y145000D02*
X207600D01*
X209600D02*
X217600D01*
X219600D02*
X221600D01*
X237700D02*
X239700D01*
X241700D02*
X249700D01*
X251700D02*
X253700D01*
X205600Y144900D02*
X207600D01*
X209600D02*
X217600D01*
X219600D02*
X221600D01*
X237700D02*
X239700D01*
X241700D02*
X249700D01*
X251700D02*
X253700D01*
X205600Y144800D02*
X207600D01*
X209600D02*
X217600D01*
X219600D02*
X221600D01*
X237700D02*
X239700D01*
X241700D02*
X249700D01*
X251700D02*
X253700D01*
X205600Y144700D02*
X207600D01*
X209700D02*
X217500D01*
X219600D02*
X221600D01*
X237700D02*
X239700D01*
X241800D02*
X249600D01*
X251700D02*
X253700D01*
X205600Y144600D02*
X207600D01*
X219600D02*
X221600D01*
X237700D02*
X239700D01*
X242100D02*
X242400D01*
X251700D02*
X253700D01*
X205600Y144500D02*
X207600D01*
X219600D02*
X221600D01*
X237700D02*
X239700D01*
X251700D02*
X253700D01*
X205600Y144400D02*
X207600D01*
X219600D02*
X221600D01*
X237700D02*
X239700D01*
X251700D02*
X253700D01*
X205600Y144300D02*
X207600D01*
X219600D02*
X221600D01*
X237700D02*
X239700D01*
X251700D02*
X253700D01*
X205500Y144200D02*
X207600D01*
X219600D02*
X221600D01*
X237700D02*
X239700D01*
X251700D02*
X253700D01*
X205500Y144100D02*
X207600D01*
X219600D02*
X221600D01*
X237700D02*
X239700D01*
X251700D02*
X253700D01*
X205500Y144000D02*
X207600D01*
X219600D02*
X221600D01*
X237700D02*
X239700D01*
X251700D02*
X253700D01*
X205500Y143900D02*
X207600D01*
X219600D02*
X221600D01*
X237700D02*
X239700D01*
X251700D02*
X253700D01*
X205500Y143800D02*
X207600D01*
X219600D02*
X221600D01*
X237700D02*
X239700D01*
X251700D02*
X253700D01*
X205500Y143700D02*
X207600D01*
X219600D02*
X221600D01*
X237700D02*
X239700D01*
X251700D02*
X253700D01*
X205500Y143600D02*
X207600D01*
X219600D02*
X221600D01*
X237700D02*
X239700D01*
X251700D02*
X253700D01*
X205500Y143500D02*
X207600D01*
X219600D02*
X221600D01*
X237700D02*
X239700D01*
X251700D02*
X253700D01*
X205500Y143400D02*
X207600D01*
X219600D02*
X221600D01*
X237700D02*
X239700D01*
X251700D02*
X253700D01*
X205500Y143300D02*
X207600D01*
X219600D02*
X221600D01*
X237700D02*
X239700D01*
X251700D02*
X253700D01*
X205500Y143200D02*
X207600D01*
X219600D02*
X221600D01*
X237700D02*
X239700D01*
X251700D02*
X253700D01*
X205500Y143100D02*
X207600D01*
X219600D02*
X221600D01*
X237700D02*
X239700D01*
X251700D02*
X253700D01*
X205500Y143000D02*
X207600D01*
X219600D02*
X221600D01*
X237700D02*
X239700D01*
X251700D02*
X253700D01*
X205500Y142900D02*
X207600D01*
X219600D02*
X221600D01*
X237700D02*
X239700D01*
X251700D02*
X253700D01*
X205500Y142800D02*
X207600D01*
X219600D02*
X221600D01*
X237700D02*
X239700D01*
X251600D02*
X253700D01*
X205500Y142700D02*
X207700D01*
X219500D02*
X221600D01*
X237700D02*
X239800D01*
X251600D02*
X253700D01*
X205500Y142600D02*
X221600D01*
X229100D02*
X230400D01*
X237700D02*
X253700D01*
X205500Y142500D02*
X221600D01*
X228300D02*
X231100D01*
X237700D02*
X253700D01*
X205500Y142400D02*
X221600D01*
X227900D02*
X231500D01*
X237700D02*
X253700D01*
X205500Y142300D02*
X221600D01*
X227500D02*
X231900D01*
X237700D02*
X253700D01*
X205500Y142200D02*
X221600D01*
X227200D02*
X232200D01*
X237700D02*
X253700D01*
X205500Y142100D02*
X221600D01*
X227000D02*
X232400D01*
X237700D02*
X253700D01*
X205500Y142000D02*
X221600D01*
X226700D02*
X232600D01*
X237700D02*
X253700D01*
X205500Y141900D02*
X221600D01*
X226500D02*
X232800D01*
X237700D02*
X253700D01*
X205500Y141800D02*
X221600D01*
X226300D02*
X233000D01*
X237700D02*
X253700D01*
X205500Y141700D02*
X221600D01*
X226100D02*
X233200D01*
X237700D02*
X253700D01*
X205500Y141600D02*
X221600D01*
X225900D02*
X233400D01*
X237700D02*
X253700D01*
X205500Y141500D02*
X221600D01*
X225800D02*
X233500D01*
X237700D02*
X253700D01*
X205500Y141400D02*
X221600D01*
X225600D02*
X233700D01*
X237700D02*
X253700D01*
X205500Y141300D02*
X221600D01*
X225500D02*
X233800D01*
X237700D02*
X253700D01*
X205500Y141200D02*
X221600D01*
X225300D02*
X234000D01*
X237700D02*
X253700D01*
X205500Y141100D02*
X221600D01*
X225200D02*
X234100D01*
X237700D02*
X253700D01*
X205500Y141000D02*
X221600D01*
X225100D02*
X234200D01*
X237700D02*
X253700D01*
X205600Y140900D02*
X221600D01*
X225000D02*
X234300D01*
X237700D02*
X253700D01*
X205600Y140800D02*
X221600D01*
X224900D02*
X234400D01*
X237700D02*
X253700D01*
X205700Y140700D02*
X221500D01*
X224800D02*
X234500D01*
X237800D02*
X253600D01*
X212400Y140600D02*
X214900D01*
X224600D02*
X229400D01*
X229900D02*
X234600D01*
X244300D02*
X247100D01*
X212500Y140500D02*
X214700D01*
X224500D02*
X228700D01*
X230600D02*
X234700D01*
X244600D02*
X246900D01*
X212600Y140400D02*
X214700D01*
X224500D02*
X228300D01*
X231000D02*
X234800D01*
X244600D02*
X246800D01*
X212600Y140300D02*
X214600D01*
X224400D02*
X228000D01*
X231300D02*
X234900D01*
X244700D02*
X246700D01*
X212600Y140200D02*
X214600D01*
X224300D02*
X227700D01*
X231600D02*
X235000D01*
X244700D02*
X246700D01*
X212600Y140100D02*
X214600D01*
X224200D02*
X227500D01*
X231800D02*
X235100D01*
X244700D02*
X246700D01*
X212600Y140000D02*
X214600D01*
X224100D02*
X227300D01*
X232000D02*
X235200D01*
X244700D02*
X246700D01*
X212600Y139900D02*
X214600D01*
X224000D02*
X227100D01*
X232200D02*
X235200D01*
X244700D02*
X246700D01*
X212600Y139800D02*
X214600D01*
X223900D02*
X227000D01*
X232300D02*
X235300D01*
X244700D02*
X246700D01*
X212600Y139700D02*
X214600D01*
X223900D02*
X226800D01*
X232500D02*
X235400D01*
X244700D02*
X246700D01*
X212600Y139600D02*
X214600D01*
X223800D02*
X226700D01*
X232600D02*
X235500D01*
X244700D02*
X246700D01*
X212600Y139500D02*
X214600D01*
X223700D02*
X226600D01*
X232700D02*
X235500D01*
X244700D02*
X246700D01*
X212600Y139400D02*
X214600D01*
X223700D02*
X226400D01*
X232900D02*
X235600D01*
X244700D02*
X246700D01*
X212600Y139300D02*
X214600D01*
X223600D02*
X226300D01*
X233000D02*
X235600D01*
X244700D02*
X246700D01*
X212600Y139200D02*
X214600D01*
X223500D02*
X226200D01*
X233100D02*
X235700D01*
X244700D02*
X246700D01*
X212600Y139100D02*
X214600D01*
X223500D02*
X226100D01*
X233200D02*
X235800D01*
X244700D02*
X246700D01*
X212600Y139000D02*
X214600D01*
X223400D02*
X226000D01*
X233300D02*
X235800D01*
X244700D02*
X246700D01*
X212600Y138900D02*
X214600D01*
X223400D02*
X225900D01*
X233400D02*
X235900D01*
X244700D02*
X246700D01*
X212600Y138800D02*
X214600D01*
X223300D02*
X225800D01*
X233500D02*
X235900D01*
X244700D02*
X246700D01*
X212600Y138700D02*
X214600D01*
X223300D02*
X225800D01*
X233500D02*
X236000D01*
X244700D02*
X246700D01*
X212600Y138600D02*
X214600D01*
X223200D02*
X225700D01*
X229100D02*
X230100D01*
X233600D02*
X236000D01*
X244700D02*
X246700D01*
X212600Y138500D02*
X214600D01*
X223200D02*
X225600D01*
X228700D02*
X230600D01*
X233700D02*
X236100D01*
X244700D02*
X246700D01*
X212600Y138400D02*
X214600D01*
X223100D02*
X225500D01*
X228400D02*
X230800D01*
X233800D02*
X236100D01*
X244700D02*
X246700D01*
X212600Y138300D02*
X214600D01*
X223100D02*
X225500D01*
X228200D02*
X231100D01*
X233800D02*
X236100D01*
X244700D02*
X246700D01*
X212600Y138200D02*
X214600D01*
X223100D02*
X225400D01*
X228100D02*
X231200D01*
X233900D02*
X236200D01*
X244700D02*
X246700D01*
X212600Y138100D02*
X214600D01*
X223000D02*
X225300D01*
X227900D02*
X231400D01*
X234000D02*
X236200D01*
X244700D02*
X246700D01*
X212600Y138000D02*
X214600D01*
X223000D02*
X225300D01*
X227800D02*
X231500D01*
X234000D02*
X236300D01*
X244700D02*
X246700D01*
X212600Y137900D02*
X214600D01*
X223000D02*
X225200D01*
X227600D02*
X231600D01*
X234100D02*
X236300D01*
X244700D02*
X246700D01*
X212600Y137800D02*
X214600D01*
X222900D02*
X225200D01*
X227500D02*
X231800D01*
X234100D02*
X236300D01*
X244700D02*
X246700D01*
X212600Y137700D02*
X214600D01*
X222900D02*
X225100D01*
X227400D02*
X231900D01*
X234200D02*
X236400D01*
X244700D02*
X246700D01*
X212600Y137600D02*
X214600D01*
X222900D02*
X225100D01*
X227300D02*
X231900D01*
X234200D02*
X236400D01*
X244700D02*
X246700D01*
X212600Y137500D02*
X214600D01*
X222800D02*
X225000D01*
X227300D02*
X232000D01*
X234300D02*
X236400D01*
X244700D02*
X246700D01*
X212600Y137400D02*
X214600D01*
X222800D02*
X225000D01*
X227200D02*
X232100D01*
X234300D02*
X236400D01*
X244700D02*
X246700D01*
X212600Y137300D02*
X214600D01*
X222800D02*
X225000D01*
X227100D02*
X232200D01*
X234300D02*
X236500D01*
X244700D02*
X246700D01*
X212600Y137200D02*
X214600D01*
X222800D02*
X224900D01*
X227100D02*
X232200D01*
X234400D02*
X236500D01*
X244700D02*
X246700D01*
X212600Y137100D02*
X214600D01*
X222800D02*
X224900D01*
X227000D02*
X232300D01*
X234400D02*
X236500D01*
X244700D02*
X246700D01*
X212600Y137000D02*
X214600D01*
X222700D02*
X224800D01*
X226900D02*
X232400D01*
X234400D02*
X236500D01*
X244700D02*
X246700D01*
X212600Y136900D02*
X214600D01*
X222700D02*
X224800D01*
X226900D02*
X232400D01*
X234500D02*
X236600D01*
X244700D02*
X246700D01*
X212600Y136800D02*
X214600D01*
X222700D02*
X224800D01*
X226800D02*
X232400D01*
X234500D02*
X236600D01*
X244700D02*
X246700D01*
X212600Y136700D02*
X214600D01*
X222700D02*
X224800D01*
X226800D02*
X232500D01*
X234500D02*
X236600D01*
X244700D02*
X246700D01*
X212600Y136600D02*
X214600D01*
X222700D02*
X224700D01*
X226800D02*
X232500D01*
X234500D02*
X236600D01*
X244700D02*
X246700D01*
X212600Y136500D02*
X214600D01*
X222700D02*
X224700D01*
X226700D02*
X229300D01*
X230000D02*
X232600D01*
X234600D02*
X236600D01*
X244700D02*
X246700D01*
X212600Y136400D02*
X214600D01*
X222700D02*
X224700D01*
X226700D02*
X229100D01*
X230200D02*
X232600D01*
X234600D02*
X236600D01*
X244700D02*
X246700D01*
X212600Y136300D02*
X214600D01*
X222600D02*
X224700D01*
X226700D02*
X229000D01*
X230300D02*
X232600D01*
X234600D02*
X236600D01*
X244700D02*
X246700D01*
X212600Y136200D02*
X214600D01*
X222600D02*
X224700D01*
X226700D02*
X228900D01*
X230400D02*
X232600D01*
X234600D02*
X236700D01*
X244700D02*
X246700D01*
X212600Y136100D02*
X214600D01*
X222600D02*
X224700D01*
X226600D02*
X228800D01*
X230500D02*
X232600D01*
X234600D02*
X236700D01*
X244700D02*
X246700D01*
X212600Y136000D02*
X214600D01*
X222600D02*
X224700D01*
X226600D02*
X228800D01*
X230500D02*
X232700D01*
X234600D02*
X236700D01*
X244700D02*
X246700D01*
X212600Y135900D02*
X214600D01*
X222600D02*
X224600D01*
X226600D02*
X228700D01*
X230600D02*
X232700D01*
X234600D02*
X236700D01*
X244700D02*
X246700D01*
X212600Y135800D02*
X214600D01*
X222600D02*
X224600D01*
X226600D02*
X228700D01*
X230600D02*
X232700D01*
X234600D02*
X236700D01*
X244700D02*
X246700D01*
X212600Y135700D02*
X214600D01*
X222600D02*
X224600D01*
X226600D02*
X228700D01*
X230600D02*
X232700D01*
X234700D02*
X236700D01*
X244700D02*
X246700D01*
X212600Y135600D02*
X214600D01*
X222600D02*
X224600D01*
X226600D02*
X228700D01*
X230600D02*
X232700D01*
X234700D02*
X236700D01*
X244700D02*
X246700D01*
X212600Y135500D02*
X214600D01*
X222600D02*
X224600D01*
X226600D02*
X228700D01*
X230600D02*
X232700D01*
X234700D02*
X236700D01*
X244700D02*
X246700D01*
X212600Y135400D02*
X214600D01*
X222600D02*
X224600D01*
X226600D02*
X228700D01*
X230600D02*
X232700D01*
X234600D02*
X236700D01*
X244700D02*
X246700D01*
X212600Y135300D02*
X214600D01*
X222600D02*
X224700D01*
X226600D02*
X228700D01*
X230600D02*
X232700D01*
X234600D02*
X236700D01*
X244700D02*
X246700D01*
X212600Y135200D02*
X214600D01*
X222600D02*
X224700D01*
X226600D02*
X228800D01*
X230500D02*
X232700D01*
X234600D02*
X236700D01*
X244700D02*
X246700D01*
X212600Y135100D02*
X214600D01*
X222600D02*
X224700D01*
X226700D02*
X228800D01*
X230500D02*
X232600D01*
X234600D02*
X236700D01*
X244700D02*
X246700D01*
X212600Y135000D02*
X214600D01*
X222600D02*
X224700D01*
X226700D02*
X228900D01*
X230400D02*
X232600D01*
X234600D02*
X236700D01*
X244700D02*
X246700D01*
X212600Y134900D02*
X214600D01*
X222700D02*
X224700D01*
X226700D02*
X229000D01*
X230300D02*
X232600D01*
X234600D02*
X236600D01*
X244700D02*
X246700D01*
X212600Y134800D02*
X214600D01*
X222700D02*
X224700D01*
X226700D02*
X229100D01*
X230200D02*
X232600D01*
X234600D02*
X236600D01*
X244700D02*
X246700D01*
X212600Y134700D02*
X214600D01*
X222700D02*
X224700D01*
X226700D02*
X229300D01*
X230000D02*
X232500D01*
X234600D02*
X236600D01*
X244700D02*
X246700D01*
X203800Y134600D02*
X205300D01*
X212600D02*
X214600D01*
X222700D02*
X224800D01*
X226800D02*
X232500D01*
X234500D02*
X236600D01*
X244700D02*
X246700D01*
X254000D02*
X255500D01*
X203200Y134500D02*
X206000D01*
X212600D02*
X214600D01*
X222700D02*
X224800D01*
X226800D02*
X232500D01*
X234500D02*
X236600D01*
X244700D02*
X246700D01*
X253300D02*
X256200D01*
X202800Y134400D02*
X206400D01*
X212600D02*
X214600D01*
X222700D02*
X224800D01*
X226900D02*
X232400D01*
X234500D02*
X236600D01*
X244700D02*
X246700D01*
X252900D02*
X256600D01*
X202400Y134300D02*
X206700D01*
X212600D02*
X214600D01*
X222700D02*
X224800D01*
X226900D02*
X232400D01*
X234500D02*
X236600D01*
X244700D02*
X246700D01*
X252600D02*
X256900D01*
X202100Y134200D02*
X207000D01*
X212600D02*
X214600D01*
X222800D02*
X224900D01*
X226900D02*
X232300D01*
X234400D02*
X236500D01*
X244700D02*
X246700D01*
X252300D02*
X257200D01*
X201900Y134100D02*
X207300D01*
X212600D02*
X214600D01*
X222800D02*
X224900D01*
X227000D02*
X232300D01*
X234400D02*
X236500D01*
X244700D02*
X246700D01*
X252000D02*
X257500D01*
X201600Y134000D02*
X207500D01*
X212600D02*
X214600D01*
X222800D02*
X224900D01*
X227100D02*
X232200D01*
X234400D02*
X236500D01*
X244700D02*
X246700D01*
X251800D02*
X257700D01*
X201400Y133900D02*
X207700D01*
X212600D02*
X214600D01*
X222800D02*
X225000D01*
X227100D02*
X232200D01*
X234300D02*
X236500D01*
X244700D02*
X246700D01*
X251600D02*
X257900D01*
X201200Y133800D02*
X207900D01*
X212600D02*
X214600D01*
X222800D02*
X225000D01*
X227200D02*
X232100D01*
X234300D02*
X236500D01*
X244700D02*
X246700D01*
X251400D02*
X258100D01*
X201100Y133700D02*
X208100D01*
X212600D02*
X214600D01*
X222900D02*
X225000D01*
X227300D02*
X232000D01*
X234200D02*
X236400D01*
X244700D02*
X246700D01*
X251200D02*
X258200D01*
X200900Y133600D02*
X208300D01*
X212600D02*
X214600D01*
X222900D02*
X225100D01*
X227400D02*
X231900D01*
X234200D02*
X236400D01*
X244700D02*
X246700D01*
X251000D02*
X258400D01*
X200700Y133500D02*
X208400D01*
X212600D02*
X214600D01*
X222900D02*
X225100D01*
X227500D02*
X231800D01*
X234200D02*
X236400D01*
X244700D02*
X246700D01*
X250900D02*
X258600D01*
X200600Y133400D02*
X208600D01*
X212600D02*
X214600D01*
X223000D02*
X225200D01*
X227600D02*
X231700D01*
X234100D02*
X236300D01*
X244700D02*
X246700D01*
X250700D02*
X258700D01*
X200400Y133300D02*
X208700D01*
X212600D02*
X214600D01*
X223000D02*
X225200D01*
X227700D02*
X231600D01*
X234100D02*
X236300D01*
X244700D02*
X246700D01*
X250600D02*
X258900D01*
X200300Y133200D02*
X208800D01*
X212600D02*
X214600D01*
X223000D02*
X225300D01*
X227800D02*
X231500D01*
X234000D02*
X236300D01*
X244700D02*
X246700D01*
X250500D02*
X259000D01*
X200200Y133100D02*
X209000D01*
X212600D02*
X214600D01*
X223100D02*
X225300D01*
X227900D02*
X231400D01*
X233900D02*
X236200D01*
X244700D02*
X246700D01*
X250300D02*
X259100D01*
X200100Y133000D02*
X209100D01*
X212600D02*
X214600D01*
X223100D02*
X225400D01*
X228100D02*
X231200D01*
X233900D02*
X236200D01*
X244700D02*
X246700D01*
X250200D02*
X259200D01*
X199900Y132900D02*
X209200D01*
X212600D02*
X214600D01*
X223100D02*
X225500D01*
X228300D02*
X231000D01*
X233800D02*
X236200D01*
X244700D02*
X246700D01*
X250100D02*
X259400D01*
X199800Y132800D02*
X209300D01*
X212600D02*
X214600D01*
X223200D02*
X225500D01*
X228500D02*
X230800D01*
X233700D02*
X236100D01*
X244700D02*
X246700D01*
X250000D02*
X259500D01*
X199700Y132700D02*
X209400D01*
X212600D02*
X214600D01*
X223200D02*
X225600D01*
X228800D02*
X230500D01*
X233700D02*
X236100D01*
X244700D02*
X246700D01*
X249900D02*
X259600D01*
X199600Y132600D02*
X209500D01*
X212600D02*
X214600D01*
X223300D02*
X225700D01*
X229200D02*
X230100D01*
X233600D02*
X236000D01*
X244700D02*
X246700D01*
X249800D02*
X259700D01*
X199500Y132500D02*
X203700D01*
X205400D02*
X209600D01*
X212600D02*
X214600D01*
X223300D02*
X225800D01*
X233500D02*
X236000D01*
X244700D02*
X246700D01*
X249700D02*
X253900D01*
X255500D02*
X259800D01*
X199400Y132400D02*
X203300D01*
X205800D02*
X209700D01*
X212600D02*
X214600D01*
X223400D02*
X225800D01*
X233400D02*
X235900D01*
X244700D02*
X246700D01*
X249600D02*
X253500D01*
X256000D02*
X259900D01*
X199300Y132300D02*
X203000D01*
X206200D02*
X209800D01*
X212600D02*
X214600D01*
X223400D02*
X225900D01*
X233400D02*
X235900D01*
X244700D02*
X246700D01*
X249500D02*
X253100D01*
X256300D02*
X260000D01*
X199200Y132200D02*
X202700D01*
X206400D02*
X209900D01*
X212600D02*
X214600D01*
X223500D02*
X226000D01*
X233300D02*
X235800D01*
X244700D02*
X246700D01*
X249400D02*
X252900D01*
X256600D02*
X260000D01*
X199100Y132100D02*
X202500D01*
X206700D02*
X210000D01*
X212600D02*
X214600D01*
X223500D02*
X226100D01*
X233200D02*
X235800D01*
X244700D02*
X246700D01*
X249300D02*
X252600D01*
X256800D02*
X260100D01*
X199100Y132000D02*
X202300D01*
X206900D02*
X210100D01*
X212600D02*
X214600D01*
X223600D02*
X226200D01*
X233100D02*
X235700D01*
X244700D02*
X246700D01*
X249200D02*
X252400D01*
X257000D02*
X260200D01*
X199000Y131900D02*
X202100D01*
X207000D02*
X210200D01*
X212600D02*
X214600D01*
X223600D02*
X226300D01*
X233000D02*
X235700D01*
X244700D02*
X246700D01*
X249100D02*
X252300D01*
X257200D02*
X260300D01*
X198900Y131800D02*
X201900D01*
X207200D02*
X210200D01*
X212600D02*
X214600D01*
X223700D02*
X226400D01*
X232800D02*
X235600D01*
X244700D02*
X246700D01*
X249100D02*
X252100D01*
X257400D02*
X260400D01*
X198800Y131700D02*
X201800D01*
X207400D02*
X210300D01*
X212600D02*
X214600D01*
X223800D02*
X226600D01*
X232700D02*
X235500D01*
X244700D02*
X246700D01*
X249000D02*
X251900D01*
X257500D02*
X260400D01*
X198800Y131600D02*
X201600D01*
X207500D02*
X210400D01*
X212600D02*
X214600D01*
X223800D02*
X226700D01*
X232600D02*
X235500D01*
X244700D02*
X246700D01*
X248900D02*
X251800D01*
X257700D02*
X260500D01*
X198700Y131500D02*
X201500D01*
X207600D02*
X210400D01*
X212600D02*
X214600D01*
X223900D02*
X226800D01*
X232500D02*
X235400D01*
X244700D02*
X246700D01*
X248800D02*
X251700D01*
X257800D02*
X260600D01*
X198600Y131400D02*
X201400D01*
X207800D02*
X210500D01*
X212600D02*
X214600D01*
X224000D02*
X227000D01*
X232300D02*
X235300D01*
X244700D02*
X246700D01*
X248800D02*
X251500D01*
X257900D02*
X260600D01*
X198600Y131300D02*
X201300D01*
X207900D02*
X210600D01*
X212600D02*
X214600D01*
X224100D02*
X227200D01*
X232100D02*
X235200D01*
X244700D02*
X246700D01*
X248700D02*
X251400D01*
X258000D02*
X260700D01*
X198500Y131200D02*
X201200D01*
X208000D02*
X210600D01*
X212600D02*
X214600D01*
X224100D02*
X227300D01*
X232000D02*
X235200D01*
X244700D02*
X246700D01*
X248700D02*
X251300D01*
X258100D02*
X260800D01*
X198400Y131100D02*
X201100D01*
X208100D02*
X210700D01*
X212600D02*
X214600D01*
X224200D02*
X227500D01*
X231800D02*
X235100D01*
X244700D02*
X246700D01*
X248600D02*
X251200D01*
X258200D02*
X260800D01*
X198400Y131000D02*
X201000D01*
X208200D02*
X210700D01*
X212600D02*
X214600D01*
X224300D02*
X227700D01*
X231600D02*
X235000D01*
X244700D02*
X246700D01*
X248500D02*
X251100D01*
X258300D02*
X260900D01*
X198300Y130900D02*
X200900D01*
X208300D02*
X210800D01*
X212600D02*
X214600D01*
X224400D02*
X228000D01*
X231300D02*
X234900D01*
X244700D02*
X246700D01*
X248500D02*
X251000D01*
X258400D02*
X260900D01*
X198300Y130800D02*
X200800D01*
X208400D02*
X210800D01*
X212600D02*
X214600D01*
X224500D02*
X228300D01*
X231000D02*
X234800D01*
X244700D02*
X246700D01*
X248400D02*
X250900D01*
X258500D02*
X261000D01*
X198200Y130700D02*
X200700D01*
X208500D02*
X210900D01*
X212600D02*
X214600D01*
X224600D02*
X228700D01*
X230600D02*
X234700D01*
X244700D02*
X246700D01*
X248400D02*
X250800D01*
X258600D02*
X261000D01*
X198200Y130600D02*
X200600D01*
X208500D02*
X210900D01*
X212600D02*
X214600D01*
X224700D02*
X229600D01*
X229800D02*
X234600D01*
X244700D02*
X246700D01*
X248300D02*
X250800D01*
X258700D02*
X261100D01*
X198100Y130500D02*
X200500D01*
X203700D02*
X205400D01*
X208600D02*
X211000D01*
X212600D02*
X214600D01*
X224800D02*
X234500D01*
X244700D02*
X246700D01*
X248300D02*
X250700D01*
X253900D02*
X255500D01*
X258700D02*
X261100D01*
X198100Y130400D02*
X200500D01*
X203400D02*
X205700D01*
X208700D02*
X211000D01*
X212600D02*
X214600D01*
X224900D02*
X234400D01*
X244700D02*
X246700D01*
X248200D02*
X250600D01*
X253600D02*
X255900D01*
X258800D02*
X261200D01*
X198100Y130300D02*
X200400D01*
X203200D02*
X205900D01*
X208700D02*
X211100D01*
X212600D02*
X214600D01*
X225000D02*
X234300D01*
X244700D02*
X246700D01*
X248200D02*
X250500D01*
X253400D02*
X256100D01*
X258900D02*
X261200D01*
X198000Y130200D02*
X200300D01*
X203000D02*
X206100D01*
X208800D02*
X211100D01*
X212600D02*
X214600D01*
X225100D02*
X234200D01*
X244700D02*
X246700D01*
X248200D02*
X250500D01*
X253200D02*
X256300D01*
X258900D02*
X261300D01*
X198000Y130100D02*
X200300D01*
X202900D02*
X206300D01*
X208900D02*
X211200D01*
X212600D02*
X214600D01*
X225200D02*
X234000D01*
X244700D02*
X246700D01*
X248100D02*
X250400D01*
X253000D02*
X256400D01*
X259000D02*
X261300D01*
X197900Y130000D02*
X200200D01*
X202700D02*
X206400D01*
X208900D02*
X211200D01*
X212600D02*
X214600D01*
X225400D02*
X233900D01*
X244700D02*
X246700D01*
X248100D02*
X250400D01*
X252900D02*
X256600D01*
X259100D02*
X261300D01*
X197900Y129900D02*
X200200D01*
X202600D02*
X206600D01*
X209000D02*
X211200D01*
X212600D02*
X214600D01*
X225500D02*
X233800D01*
X244700D02*
X246700D01*
X248000D02*
X250300D01*
X252700D02*
X256700D01*
X259100D02*
X261400D01*
X197900Y129800D02*
X200100D01*
X202500D02*
X206700D01*
X209000D02*
X211300D01*
X212600D02*
X214600D01*
X225600D02*
X233600D01*
X244700D02*
X246700D01*
X248000D02*
X250300D01*
X252600D02*
X256800D01*
X259200D02*
X261400D01*
X197800Y129700D02*
X200100D01*
X202400D02*
X206800D01*
X209100D02*
X211300D01*
X212600D02*
X214600D01*
X225800D02*
X233500D01*
X244700D02*
X246700D01*
X248000D02*
X250200D01*
X252500D02*
X256900D01*
X259200D02*
X261400D01*
X197800Y129600D02*
X200000D01*
X202300D02*
X206900D01*
X209100D02*
X211300D01*
X212600D02*
X214600D01*
X225900D02*
X233300D01*
X244700D02*
X246700D01*
X247900D02*
X250200D01*
X252400D02*
X257000D01*
X259300D02*
X261500D01*
X197800Y129500D02*
X200000D01*
X202200D02*
X206900D01*
X209200D02*
X211400D01*
X212600D02*
X214600D01*
X226100D02*
X233100D01*
X244700D02*
X246700D01*
X247900D02*
X250100D01*
X252300D02*
X257100D01*
X259300D02*
X261500D01*
X197800Y129400D02*
X199900D01*
X202100D02*
X207000D01*
X209200D02*
X211400D01*
X212600D02*
X214600D01*
X226300D02*
X233000D01*
X244700D02*
X246700D01*
X247900D02*
X250100D01*
X252300D02*
X257200D01*
X259300D02*
X261500D01*
X197700Y129300D02*
X199900D01*
X202100D02*
X207100D01*
X209300D02*
X211400D01*
X212600D02*
X214600D01*
X226500D02*
X232800D01*
X244700D02*
X246700D01*
X247900D02*
X250000D01*
X252200D02*
X257200D01*
X259400D02*
X261500D01*
X197700Y129200D02*
X199900D01*
X202000D02*
X207200D01*
X209300D02*
X211400D01*
X212600D02*
X214600D01*
X226700D02*
X232500D01*
X244700D02*
X246700D01*
X247800D02*
X250000D01*
X252100D02*
X257300D01*
X259400D02*
X261600D01*
X197700Y129100D02*
X199800D01*
X201900D02*
X207200D01*
X209300D02*
X211500D01*
X212600D02*
X214600D01*
X226900D02*
X232300D01*
X244700D02*
X246700D01*
X247800D02*
X250000D01*
X252100D02*
X257400D01*
X259500D02*
X261600D01*
X197700Y129000D02*
X199800D01*
X201900D02*
X207300D01*
X209400D02*
X211500D01*
X212600D02*
X214600D01*
X227200D02*
X232000D01*
X244700D02*
X246700D01*
X247800D02*
X249900D01*
X252000D02*
X257400D01*
X259500D02*
X261600D01*
X197600Y128900D02*
X199800D01*
X201800D02*
X207300D01*
X209400D02*
X211500D01*
X212600D02*
X214600D01*
X227800D02*
X231700D01*
X244700D02*
X246700D01*
X247800D02*
X249900D01*
X252000D02*
X257500D01*
X259500D02*
X261600D01*
X197600Y128800D02*
X199700D01*
X201800D02*
X207400D01*
X209400D02*
X211500D01*
X212600D02*
X214600D01*
X228200D02*
X231300D01*
X244700D02*
X246700D01*
X247800D02*
X249900D01*
X251900D02*
X257500D01*
X259500D02*
X261700D01*
X197600Y128700D02*
X199700D01*
X201700D02*
X207400D01*
X209400D02*
X211500D01*
X212600D02*
X214600D01*
X228400D02*
X231000D01*
X244700D02*
X246700D01*
X247800D02*
X249900D01*
X251900D02*
X257500D01*
X259600D02*
X261700D01*
X197600Y128600D02*
X199700D01*
X201700D02*
X207400D01*
X209500D02*
X211500D01*
X212600D02*
X214600D01*
X228500D02*
X230900D01*
X244700D02*
X246700D01*
X247700D02*
X249800D01*
X251900D02*
X257600D01*
X259600D02*
X261700D01*
X197600Y128500D02*
X199700D01*
X201700D02*
X204300D01*
X204900D02*
X207500D01*
X209500D02*
X211600D01*
X212600D02*
X214600D01*
X228500D02*
X230800D01*
X244700D02*
X246700D01*
X247700D02*
X249800D01*
X251800D02*
X254400D01*
X255000D02*
X257600D01*
X259600D02*
X261700D01*
X197600Y128400D02*
X199700D01*
X201600D02*
X204100D01*
X205100D02*
X207500D01*
X209500D02*
X211600D01*
X212600D02*
X214600D01*
X228600D02*
X230700D01*
X244700D02*
X246700D01*
X247700D02*
X249800D01*
X251800D02*
X254200D01*
X255200D02*
X257600D01*
X259600D02*
X261700D01*
X197600Y128300D02*
X199600D01*
X201600D02*
X203900D01*
X205200D02*
X207500D01*
X209500D02*
X211600D01*
X212600D02*
X214600D01*
X228600D02*
X230700D01*
X244700D02*
X246700D01*
X247700D02*
X249800D01*
X251800D02*
X254100D01*
X255400D02*
X257700D01*
X259600D02*
X261700D01*
X197500Y128200D02*
X199600D01*
X201600D02*
X203800D01*
X205300D02*
X207500D01*
X209500D02*
X211600D01*
X212600D02*
X214600D01*
X228700D02*
X230600D01*
X244700D02*
X246700D01*
X247700D02*
X249800D01*
X251800D02*
X254000D01*
X255500D02*
X257700D01*
X259700D02*
X261700D01*
X197500Y128100D02*
X199600D01*
X201600D02*
X203800D01*
X205400D02*
X207600D01*
X209500D02*
X211600D01*
X212600D02*
X214600D01*
X228700D02*
X230600D01*
X244700D02*
X246700D01*
X247700D02*
X249800D01*
X251700D02*
X253900D01*
X255500D02*
X257700D01*
X259700D02*
X261800D01*
X197500Y128000D02*
X199600D01*
X201600D02*
X203700D01*
X205400D02*
X207600D01*
X209500D02*
X211600D01*
X212600D02*
X214600D01*
X228700D02*
X230600D01*
X244700D02*
X246700D01*
X247700D02*
X249700D01*
X251700D02*
X253900D01*
X255600D02*
X257700D01*
X259700D02*
X261800D01*
X197500Y127900D02*
X199600D01*
X201600D02*
X203700D01*
X205500D02*
X207600D01*
X209600D02*
X211600D01*
X212600D02*
X214600D01*
X228700D02*
X230600D01*
X244700D02*
X246700D01*
X247700D02*
X249700D01*
X251700D02*
X253800D01*
X255600D02*
X257700D01*
X259700D02*
X261800D01*
X197500Y127800D02*
X199600D01*
X201600D02*
X203600D01*
X205500D02*
X207600D01*
X209600D02*
X211600D01*
X212600D02*
X214600D01*
X228700D02*
X230600D01*
X244700D02*
X246700D01*
X247700D02*
X249700D01*
X251700D02*
X253800D01*
X255700D02*
X257700D01*
X259700D02*
X261800D01*
X197500Y127700D02*
X199600D01*
X201600D02*
X203600D01*
X205500D02*
X207600D01*
X209600D02*
X211600D01*
X212600D02*
X214600D01*
X228700D02*
X230700D01*
X244700D02*
X246700D01*
X247700D02*
X249700D01*
X251700D02*
X253800D01*
X255700D02*
X257700D01*
X259700D02*
X261800D01*
X197500Y127600D02*
X199600D01*
X201600D02*
X203600D01*
X205500D02*
X207600D01*
X209600D02*
X211600D01*
X212600D02*
X214600D01*
X228700D02*
X230700D01*
X244700D02*
X246700D01*
X247700D02*
X249700D01*
X251700D02*
X253700D01*
X255700D02*
X257700D01*
X259700D02*
X261800D01*
X197500Y127500D02*
X199600D01*
X201600D02*
X203600D01*
X205500D02*
X207600D01*
X209600D02*
X211600D01*
X212600D02*
X214600D01*
X228700D02*
X230700D01*
X244700D02*
X246700D01*
X247700D02*
X249700D01*
X251700D02*
X253800D01*
X255700D02*
X257700D01*
X259700D02*
X261800D01*
X197500Y127400D02*
X199600D01*
X201600D02*
X203600D01*
X205500D02*
X207600D01*
X209600D02*
X211600D01*
X212600D02*
X214600D01*
X228700D02*
X230700D01*
X244700D02*
X246700D01*
X247700D02*
X249700D01*
X251700D02*
X253800D01*
X255700D02*
X257700D01*
X259700D02*
X261800D01*
X197500Y127300D02*
X199600D01*
X201600D02*
X203600D01*
X205500D02*
X207600D01*
X209600D02*
X211600D01*
X212600D02*
X214600D01*
X228700D02*
X230700D01*
X244700D02*
X246700D01*
X247700D02*
X249700D01*
X251700D02*
X253800D01*
X255700D02*
X257700D01*
X259700D02*
X261800D01*
X197500Y127200D02*
X199600D01*
X201600D02*
X203700D01*
X205500D02*
X207600D01*
X209500D02*
X211600D01*
X212600D02*
X214600D01*
X228600D02*
X230700D01*
X244700D02*
X246700D01*
X247700D02*
X249700D01*
X251700D02*
X253800D01*
X255600D02*
X257700D01*
X259700D02*
X261800D01*
X197500Y127100D02*
X199600D01*
X201600D02*
X203700D01*
X205400D02*
X207600D01*
X209500D02*
X211600D01*
X212600D02*
X214600D01*
X228600D02*
X230700D01*
X244700D02*
X246700D01*
X247700D02*
X249800D01*
X251700D02*
X253900D01*
X255600D02*
X257700D01*
X259700D02*
X261800D01*
X197500Y127000D02*
X199600D01*
X201600D02*
X203800D01*
X205300D02*
X207500D01*
X209500D02*
X211600D01*
X212600D02*
X214600D01*
X228600D02*
X230700D01*
X244700D02*
X246700D01*
X247700D02*
X249800D01*
X251800D02*
X254000D01*
X255500D02*
X257700D01*
X259700D02*
X261800D01*
X197600Y126900D02*
X199600D01*
X201600D02*
X203900D01*
X205200D02*
X207500D01*
X209500D02*
X211600D01*
X212600D02*
X214600D01*
X228600D02*
X230700D01*
X244700D02*
X246700D01*
X247700D02*
X249800D01*
X251800D02*
X254000D01*
X255400D02*
X257700D01*
X259700D02*
X261700D01*
X197600Y126800D02*
X199600D01*
X201600D02*
X204000D01*
X205100D02*
X207500D01*
X209500D02*
X211600D01*
X212600D02*
X214600D01*
X228600D02*
X230700D01*
X244700D02*
X246700D01*
X247700D02*
X249800D01*
X251800D02*
X254200D01*
X255300D02*
X257600D01*
X259700D02*
X261700D01*
X197600Y126700D02*
X199700D01*
X201700D02*
X204200D01*
X205000D02*
X207500D01*
X209500D02*
X211600D01*
X212600D02*
X214600D01*
X228600D02*
X230700D01*
X244700D02*
X246700D01*
X247700D02*
X249800D01*
X251800D02*
X254300D01*
X255100D02*
X257600D01*
X259600D02*
X261700D01*
X197600Y126600D02*
X199700D01*
X201700D02*
X207400D01*
X209500D02*
X211500D01*
X212600D02*
X214600D01*
X217000D02*
X219000D01*
X224400D02*
X226300D01*
X228600D02*
X230700D01*
X240300D02*
X242300D01*
X244700D02*
X246700D01*
X247700D02*
X249800D01*
X251900D02*
X257600D01*
X259600D02*
X261700D01*
X197600Y126500D02*
X199700D01*
X201700D02*
X207400D01*
X209400D02*
X211500D01*
X212600D02*
X214600D01*
X216700D02*
X226500D01*
X228600D02*
X230700D01*
X232900D02*
X242600D01*
X244700D02*
X246700D01*
X247800D02*
X249900D01*
X251900D02*
X257600D01*
X259600D02*
X261700D01*
X197600Y126400D02*
X199700D01*
X201800D02*
X207400D01*
X209400D02*
X211500D01*
X212600D02*
X214600D01*
X216600D02*
X226600D01*
X228600D02*
X230700D01*
X232800D02*
X242600D01*
X244700D02*
X246700D01*
X247800D02*
X249900D01*
X251900D02*
X257500D01*
X259600D02*
X261700D01*
X197600Y126300D02*
X199700D01*
X201800D02*
X207300D01*
X209400D02*
X211500D01*
X212600D02*
X214600D01*
X216600D02*
X226600D01*
X228600D02*
X230700D01*
X232700D02*
X242700D01*
X244700D02*
X246700D01*
X247800D02*
X249900D01*
X252000D02*
X257500D01*
X259500D02*
X261700D01*
X197700Y126200D02*
X199800D01*
X201900D02*
X207300D01*
X209400D02*
X211500D01*
X212600D02*
X214600D01*
X216600D02*
X226700D01*
X228600D02*
X230700D01*
X232700D02*
X242700D01*
X244700D02*
X246700D01*
X247800D02*
X249900D01*
X252000D02*
X257400D01*
X259500D02*
X261600D01*
X197700Y126100D02*
X199800D01*
X201900D02*
X207200D01*
X209300D02*
X211500D01*
X212600D02*
X214600D01*
X216600D02*
X226700D01*
X228600D02*
X230700D01*
X232700D02*
X242700D01*
X244700D02*
X246700D01*
X247800D02*
X250000D01*
X252100D02*
X257400D01*
X259500D02*
X261600D01*
X197700Y126000D02*
X199800D01*
X202000D02*
X207200D01*
X209300D02*
X211400D01*
X212600D02*
X214600D01*
X216600D02*
X226700D01*
X228600D02*
X230700D01*
X232600D02*
X242700D01*
X244700D02*
X246700D01*
X247900D02*
X250000D01*
X252100D02*
X257300D01*
X259500D02*
X261600D01*
X197700Y125900D02*
X199900D01*
X202000D02*
X207100D01*
X209300D02*
X211400D01*
X212600D02*
X214600D01*
X216600D02*
X226700D01*
X228600D02*
X230700D01*
X232600D02*
X242700D01*
X244700D02*
X246700D01*
X247900D02*
X250000D01*
X252200D02*
X257300D01*
X259400D02*
X261600D01*
X197700Y125800D02*
X199900D01*
X202100D02*
X207000D01*
X209200D02*
X211400D01*
X212600D02*
X214600D01*
X216600D02*
X226700D01*
X228600D02*
X230700D01*
X232600D02*
X242700D01*
X244700D02*
X246700D01*
X247900D02*
X250100D01*
X252300D02*
X257200D01*
X259400D02*
X261600D01*
X197800Y125700D02*
X200000D01*
X202200D02*
X207000D01*
X209200D02*
X211400D01*
X212600D02*
X214600D01*
X216600D02*
X226700D01*
X228600D02*
X230700D01*
X232600D02*
X242700D01*
X244700D02*
X246700D01*
X247900D02*
X250100D01*
X252300D02*
X257100D01*
X259300D02*
X261500D01*
X197800Y125600D02*
X200000D01*
X202300D02*
X206900D01*
X209100D02*
X211300D01*
X212600D02*
X214600D01*
X216600D02*
X226700D01*
X228600D02*
X230700D01*
X232600D02*
X242700D01*
X244700D02*
X246700D01*
X248000D02*
X250200D01*
X252400D02*
X257000D01*
X259300D02*
X261500D01*
X197800Y125500D02*
X200000D01*
X202300D02*
X206800D01*
X209100D02*
X211300D01*
X212600D02*
X214600D01*
X216600D02*
X226700D01*
X228600D02*
X230700D01*
X232600D02*
X242700D01*
X244700D02*
X246700D01*
X248000D02*
X250200D01*
X252500D02*
X256900D01*
X259200D02*
X261500D01*
X197900Y125400D02*
X200100D01*
X202400D02*
X206700D01*
X209000D02*
X211300D01*
X212600D02*
X214600D01*
X216600D02*
X226700D01*
X228600D02*
X230700D01*
X232600D02*
X242700D01*
X244700D02*
X246700D01*
X248000D02*
X250200D01*
X252600D02*
X256800D01*
X259200D02*
X261400D01*
X197900Y125300D02*
X200100D01*
X202600D02*
X206600D01*
X209000D02*
X211200D01*
X212600D02*
X214600D01*
X216600D02*
X226700D01*
X228600D02*
X230700D01*
X232600D02*
X242700D01*
X244700D02*
X246700D01*
X248000D02*
X250300D01*
X252700D02*
X256700D01*
X259200D02*
X261400D01*
X197900Y125200D02*
X200200D01*
X202700D02*
X206500D01*
X208900D02*
X211200D01*
X212600D02*
X214600D01*
X216600D02*
X226600D01*
X228700D02*
X230700D01*
X232600D02*
X242700D01*
X244700D02*
X246700D01*
X248100D02*
X250400D01*
X252800D02*
X256600D01*
X259100D02*
X261400D01*
X198000Y125100D02*
X200300D01*
X202800D02*
X206300D01*
X208900D02*
X211200D01*
X212600D02*
X214600D01*
X216600D02*
X226600D01*
X228700D02*
X230700D01*
X232600D02*
X242700D01*
X244700D02*
X246700D01*
X248100D02*
X250400D01*
X253000D02*
X256500D01*
X259000D02*
X261300D01*
X198000Y125000D02*
X200300D01*
X203000D02*
X206200D01*
X208800D02*
X211100D01*
X212600D02*
X214600D01*
X216500D02*
X226600D01*
X228700D02*
X230700D01*
X232600D02*
X242800D01*
X244700D02*
X246700D01*
X248200D02*
X250500D01*
X253100D02*
X256300D01*
X259000D02*
X261300D01*
X198000Y124900D02*
X200400D01*
X203100D02*
X206000D01*
X208800D02*
X211100D01*
X212600D02*
X214600D01*
X216500D02*
X226600D01*
X228700D02*
X230700D01*
X232600D02*
X242800D01*
X244700D02*
X246700D01*
X248200D02*
X250500D01*
X253300D02*
X256100D01*
X258900D02*
X261200D01*
X198100Y124800D02*
X200400D01*
X203400D02*
X205800D01*
X208700D02*
X211000D01*
X212600D02*
X214700D01*
X216500D02*
X226500D01*
X228700D02*
X230600D01*
X232700D02*
X242800D01*
X244600D02*
X246700D01*
X248200D02*
X250600D01*
X253500D02*
X255900D01*
X258800D02*
X261200D01*
X198100Y124700D02*
X200500D01*
X203700D02*
X205500D01*
X208600D02*
X211000D01*
X212600D02*
X214700D01*
X216400D02*
X226500D01*
X228800D02*
X230600D01*
X232700D02*
X243000D01*
X244600D02*
X246700D01*
X248300D02*
X250700D01*
X253800D02*
X255600D01*
X258800D02*
X261200D01*
X198200Y124600D02*
X200600D01*
X204100D02*
X205100D01*
X208600D02*
X211000D01*
X212600D02*
X214900D01*
X216100D02*
X226200D01*
X229000D02*
X230400D01*
X232900D02*
X243300D01*
X244400D02*
X246700D01*
X248300D02*
X250700D01*
X254200D02*
X255200D01*
X258700D02*
X261100D01*
X198200Y124500D02*
X200700D01*
X208500D02*
X210900D01*
X212600D02*
X218800D01*
X240500D02*
X246700D01*
X248400D02*
X250800D01*
X258600D02*
X261100D01*
X198300Y124400D02*
X200700D01*
X208400D02*
X210900D01*
X212600D02*
X218700D01*
X240600D02*
X246700D01*
X248400D02*
X250900D01*
X258500D02*
X261000D01*
X198300Y124300D02*
X200800D01*
X208300D02*
X210800D01*
X212600D02*
X218600D01*
X240600D02*
X246700D01*
X248500D02*
X251000D01*
X258500D02*
X261000D01*
X198400Y124200D02*
X200900D01*
X208200D02*
X210800D01*
X212600D02*
X218600D01*
X240700D02*
X246700D01*
X248500D02*
X251100D01*
X258400D02*
X260900D01*
X198400Y124100D02*
X201000D01*
X208100D02*
X210700D01*
X212600D02*
X218600D01*
X240700D02*
X246700D01*
X248600D02*
X251200D01*
X258300D02*
X260900D01*
X198500Y124000D02*
X201100D01*
X208000D02*
X210600D01*
X212600D02*
X218600D01*
X240700D02*
X246700D01*
X248600D02*
X251300D01*
X258200D02*
X260800D01*
X198600Y123900D02*
X201200D01*
X207900D02*
X210600D01*
X212600D02*
X218600D01*
X240700D02*
X246700D01*
X248700D02*
X251400D01*
X258100D02*
X260700D01*
X198600Y123800D02*
X201300D01*
X207800D02*
X210500D01*
X212600D02*
X218600D01*
X240700D02*
X246700D01*
X248800D02*
X251500D01*
X257900D02*
X260700D01*
X198700Y123700D02*
X201500D01*
X207700D02*
X210500D01*
X212600D02*
X218600D01*
X240700D02*
X246700D01*
X248800D02*
X251600D01*
X257800D02*
X260600D01*
X198700Y123600D02*
X201600D01*
X207500D02*
X210400D01*
X212600D02*
X218600D01*
X240700D02*
X246700D01*
X248900D02*
X251700D01*
X257700D02*
X260500D01*
X198800Y123500D02*
X201700D01*
X207400D02*
X210300D01*
X212600D02*
X218600D01*
X240700D02*
X246700D01*
X249000D02*
X251900D01*
X257600D02*
X260500D01*
X198900Y123400D02*
X201900D01*
X207300D02*
X210200D01*
X212600D02*
X218600D01*
X240700D02*
X246700D01*
X249000D02*
X252000D01*
X257400D02*
X260400D01*
X199000Y123300D02*
X202000D01*
X207100D02*
X210200D01*
X212600D02*
X218600D01*
X240700D02*
X246700D01*
X249100D02*
X252200D01*
X257200D02*
X260300D01*
X199000Y123200D02*
X202200D01*
X206900D02*
X210100D01*
X212600D02*
X218600D01*
X240700D02*
X246700D01*
X249200D02*
X252400D01*
X257100D02*
X260200D01*
X199100Y123100D02*
X202400D01*
X206700D02*
X210000D01*
X212600D02*
X218600D01*
X240700D02*
X246700D01*
X249300D02*
X252600D01*
X256900D02*
X260200D01*
X199200Y123000D02*
X202600D01*
X206500D02*
X209900D01*
X212600D02*
X218600D01*
X240700D02*
X246700D01*
X249400D02*
X252800D01*
X256600D02*
X260100D01*
X199300Y122900D02*
X202900D01*
X206200D02*
X209800D01*
X212600D02*
X218600D01*
X240700D02*
X246700D01*
X249400D02*
X253000D01*
X256400D02*
X260000D01*
X199400Y122800D02*
X203200D01*
X205900D02*
X209800D01*
X212600D02*
X218600D01*
X240700D02*
X246700D01*
X249500D02*
X253300D01*
X256100D02*
X259900D01*
X199500Y122700D02*
X203600D01*
X205500D02*
X209700D01*
X212700D02*
X218600D01*
X240700D02*
X246600D01*
X249600D02*
X253700D01*
X255700D02*
X259800D01*
X199600Y122600D02*
X204500D01*
X204600D02*
X209600D01*
X212800D02*
X218600D01*
X240700D02*
X246500D01*
X249700D02*
X254600D01*
X254800D02*
X259700D01*
X199700Y122500D02*
X209500D01*
X216400D02*
X218600D01*
X240700D02*
X242800D01*
X249800D02*
X259600D01*
X199800Y122400D02*
X209400D01*
X216500D02*
X218600D01*
X240700D02*
X242700D01*
X249900D02*
X259500D01*
X199900Y122300D02*
X209200D01*
X216600D02*
X218600D01*
X240700D02*
X242700D01*
X250100D02*
X259400D01*
X200000Y122200D02*
X209100D01*
X216600D02*
X218600D01*
X240700D02*
X242700D01*
X250200D02*
X259300D01*
X200100Y122100D02*
X209000D01*
X216600D02*
X218600D01*
X240700D02*
X242700D01*
X250300D02*
X259100D01*
X200300Y122000D02*
X208900D01*
X216600D02*
X218600D01*
X240700D02*
X242700D01*
X250400D02*
X259000D01*
X200400Y121900D02*
X208700D01*
X216600D02*
X218600D01*
X240700D02*
X242700D01*
X250600D02*
X258900D01*
X200600Y121800D02*
X208600D01*
X216600D02*
X218600D01*
X240700D02*
X242700D01*
X250700D02*
X258700D01*
X200700Y121700D02*
X208400D01*
X216600D02*
X218600D01*
X240700D02*
X242700D01*
X250900D02*
X258600D01*
X200900Y121600D02*
X208300D01*
X216600D02*
X218600D01*
X240700D02*
X242700D01*
X251000D02*
X258400D01*
X201000Y121500D02*
X208100D01*
X216600D02*
X218600D01*
X240700D02*
X242700D01*
X251200D02*
X258300D01*
X201200Y121400D02*
X207900D01*
X216600D02*
X218600D01*
X240700D02*
X242700D01*
X251400D02*
X258100D01*
X201400Y121300D02*
X207700D01*
X216600D02*
X218600D01*
X240700D02*
X242700D01*
X251600D02*
X257900D01*
X201600Y121200D02*
X207500D01*
X216600D02*
X218600D01*
X240700D02*
X242700D01*
X251800D02*
X257700D01*
X201800Y121100D02*
X207300D01*
X216600D02*
X218600D01*
X240700D02*
X242700D01*
X252000D02*
X257500D01*
X202100Y121000D02*
X207000D01*
X216600D02*
X218600D01*
X240700D02*
X242700D01*
X252300D02*
X257200D01*
X202400Y120900D02*
X206700D01*
X216600D02*
X218600D01*
X240700D02*
X242700D01*
X252600D02*
X256900D01*
X202700Y120800D02*
X206400D01*
X216600D02*
X218600D01*
X240700D02*
X242700D01*
X252900D02*
X256500D01*
X203200Y120700D02*
X206000D01*
X216600D02*
X218600D01*
X240700D02*
X242700D01*
X253300D02*
X256100D01*
X203400Y120600D02*
X205800D01*
X216600D02*
X218600D01*
X225300D02*
X226000D01*
X240700D02*
X242700D01*
X253500D02*
X255900D01*
X203500Y120500D02*
X205700D01*
X216600D02*
X218600D01*
X224700D02*
X226400D01*
X228800D02*
X230600D01*
X232700D02*
X234600D01*
X240700D02*
X242700D01*
X253600D02*
X255800D01*
X203500Y120400D02*
X205700D01*
X216600D02*
X218600D01*
X224600D02*
X226500D01*
X228700D02*
X230600D01*
X232700D02*
X234600D01*
X240700D02*
X242700D01*
X253600D02*
X255800D01*
X203600Y120300D02*
X205600D01*
X216600D02*
X218600D01*
X224600D02*
X226600D01*
X228700D02*
X230700D01*
X232600D02*
X234700D01*
X240700D02*
X242700D01*
X253700D02*
X255700D01*
X203600Y120200D02*
X205600D01*
X216600D02*
X218600D01*
X224600D02*
X226600D01*
X228600D02*
X230700D01*
X232600D02*
X234700D01*
X240700D02*
X242700D01*
X253700D02*
X255700D01*
X203600Y120100D02*
X205600D01*
X216600D02*
X218600D01*
X224600D02*
X226700D01*
X228600D02*
X230700D01*
X232600D02*
X234700D01*
X240700D02*
X242700D01*
X253700D02*
X255700D01*
X203600Y120000D02*
X205600D01*
X216600D02*
X218600D01*
X224600D02*
X226700D01*
X228600D02*
X230700D01*
X232600D02*
X234700D01*
X240700D02*
X242700D01*
X253700D02*
X255700D01*
X203600Y119900D02*
X205600D01*
X216600D02*
X218600D01*
X224600D02*
X226700D01*
X228600D02*
X230700D01*
X232600D02*
X234700D01*
X240700D02*
X242700D01*
X253700D02*
X255700D01*
X203600Y119800D02*
X205600D01*
X216600D02*
X218600D01*
X224600D02*
X226700D01*
X228600D02*
X230700D01*
X232600D02*
X234700D01*
X240700D02*
X242700D01*
X253700D02*
X255700D01*
X203600Y119700D02*
X205600D01*
X216600D02*
X218600D01*
X224600D02*
X226700D01*
X228600D02*
X230700D01*
X232600D02*
X234700D01*
X240700D02*
X242700D01*
X253700D02*
X255700D01*
X203600Y119600D02*
X205600D01*
X216600D02*
X218600D01*
X224600D02*
X226700D01*
X228600D02*
X230700D01*
X232600D02*
X234700D01*
X240700D02*
X242700D01*
X253700D02*
X255700D01*
X203600Y119500D02*
X205600D01*
X216600D02*
X218600D01*
X224600D02*
X226700D01*
X228600D02*
X230700D01*
X232600D02*
X234700D01*
X240700D02*
X242700D01*
X253700D02*
X255700D01*
X203600Y119400D02*
X205600D01*
X216600D02*
X218600D01*
X224600D02*
X226700D01*
X228600D02*
X230700D01*
X232600D02*
X234700D01*
X240700D02*
X242700D01*
X253700D02*
X255700D01*
X203600Y119300D02*
X205600D01*
X216600D02*
X218600D01*
X224600D02*
X226700D01*
X228600D02*
X230700D01*
X232600D02*
X234700D01*
X240700D02*
X242700D01*
X253700D02*
X255700D01*
X203600Y119200D02*
X205600D01*
X216600D02*
X218600D01*
X224600D02*
X226700D01*
X228600D02*
X230700D01*
X232600D02*
X234700D01*
X240700D02*
X242700D01*
X253700D02*
X255700D01*
X203600Y119100D02*
X205600D01*
X216600D02*
X218600D01*
X224600D02*
X226700D01*
X228600D02*
X230700D01*
X232600D02*
X234600D01*
X240700D02*
X242700D01*
X253700D02*
X255700D01*
X203600Y119000D02*
X205600D01*
X216600D02*
X218600D01*
X224600D02*
X226700D01*
X228600D02*
X230700D01*
X232700D02*
X234600D01*
X240700D02*
X242700D01*
X253700D02*
X255700D01*
X203600Y118900D02*
X205600D01*
X216600D02*
X218600D01*
X224700D02*
X226700D01*
X228600D02*
X230700D01*
X232700D02*
X234600D01*
X240700D02*
X242700D01*
X253700D02*
X255700D01*
X203600Y118800D02*
X205600D01*
X216600D02*
X218600D01*
X224700D02*
X226700D01*
X228700D02*
X230600D01*
X232700D02*
X234600D01*
X240700D02*
X242700D01*
X253700D02*
X255700D01*
X203600Y118700D02*
X205600D01*
X216600D02*
X218600D01*
X224800D02*
X226600D01*
X228700D02*
X230600D01*
X232700D02*
X234500D01*
X240700D02*
X242700D01*
X253700D02*
X255700D01*
X203600Y118600D02*
X205600D01*
X216600D02*
X218600D01*
X225000D02*
X226500D01*
X228800D02*
X230600D01*
X232800D02*
X234400D01*
X240700D02*
X242700D01*
X253700D02*
X255700D01*
X203600Y118500D02*
X205600D01*
X216600D02*
X218600D01*
X233500D02*
X234100D01*
X240700D02*
X242700D01*
X253700D02*
X255700D01*
X203600Y118400D02*
X205600D01*
X216600D02*
X218600D01*
X240700D02*
X242700D01*
X253700D02*
X255700D01*
X203600Y118300D02*
X205600D01*
X216600D02*
X218600D01*
X240700D02*
X242700D01*
X253700D02*
X255700D01*
X203600Y118200D02*
X205600D01*
X216600D02*
X218600D01*
X240700D02*
X242700D01*
X253700D02*
X255700D01*
X203600Y118100D02*
X205600D01*
X216600D02*
X218600D01*
X240700D02*
X242700D01*
X253700D02*
X255700D01*
X203600Y118000D02*
X205600D01*
X216600D02*
X218600D01*
X240700D02*
X242700D01*
X253700D02*
X255700D01*
X203600Y117900D02*
X205600D01*
X216600D02*
X218600D01*
X240700D02*
X242700D01*
X253700D02*
X255700D01*
X203600Y117800D02*
X205600D01*
X216600D02*
X218600D01*
X240700D02*
X242700D01*
X253700D02*
X255700D01*
X203600Y117700D02*
X205600D01*
X216600D02*
X218600D01*
X240700D02*
X242700D01*
X253700D02*
X255700D01*
X203600Y117600D02*
X205600D01*
X216600D02*
X218600D01*
X240700D02*
X242700D01*
X253700D02*
X255700D01*
X203600Y117500D02*
X205600D01*
X216600D02*
X218600D01*
X240700D02*
X242700D01*
X253700D02*
X255700D01*
X203600Y117400D02*
X205600D01*
X216600D02*
X218600D01*
X240700D02*
X242700D01*
X253700D02*
X255700D01*
X203600Y117300D02*
X205600D01*
X216600D02*
X218600D01*
X240700D02*
X242700D01*
X253700D02*
X255700D01*
X203600Y117200D02*
X205600D01*
X216600D02*
X218600D01*
X240700D02*
X242700D01*
X253700D02*
X255700D01*
X203600Y117100D02*
X205600D01*
X216600D02*
X218600D01*
X240700D02*
X242700D01*
X253700D02*
X255700D01*
X203600Y117000D02*
X205600D01*
X216600D02*
X218600D01*
X240700D02*
X242700D01*
X253700D02*
X255700D01*
X203600Y116900D02*
X205600D01*
X216600D02*
X218600D01*
X240700D02*
X242700D01*
X253700D02*
X255700D01*
X203600Y116800D02*
X205600D01*
X216600D02*
X218600D01*
X240700D02*
X242700D01*
X253700D02*
X255700D01*
X203600Y116700D02*
X205600D01*
X216500D02*
X218600D01*
X240700D02*
X242700D01*
X253700D02*
X255700D01*
X203600Y116600D02*
X205600D01*
X216400D02*
X218600D01*
X240700D02*
X242800D01*
X253700D02*
X255700D01*
X203600Y116500D02*
X205600D01*
X207800D02*
X218600D01*
X240700D02*
X251600D01*
X253700D02*
X255700D01*
X203600Y116400D02*
X205600D01*
X207700D02*
X218600D01*
X240700D02*
X251700D01*
X253700D02*
X255700D01*
X203600Y116300D02*
X205600D01*
X207600D02*
X218600D01*
X240700D02*
X251700D01*
X253700D02*
X255700D01*
X203600Y116200D02*
X205600D01*
X207600D02*
X218600D01*
X240700D02*
X251700D01*
X253700D02*
X255700D01*
X203600Y116100D02*
X205600D01*
X207600D02*
X218600D01*
X240700D02*
X251700D01*
X253700D02*
X255700D01*
X203600Y116000D02*
X205600D01*
X207600D02*
X218600D01*
X240700D02*
X251700D01*
X253700D02*
X255700D01*
X203600Y115900D02*
X205600D01*
X207600D02*
X218600D01*
X240700D02*
X251700D01*
X253700D02*
X255700D01*
X203600Y115800D02*
X205600D01*
X207600D02*
X218600D01*
X240700D02*
X251700D01*
X253700D02*
X255700D01*
X203600Y115700D02*
X205600D01*
X207600D02*
X218600D01*
X240700D02*
X251700D01*
X253700D02*
X255700D01*
X203600Y115600D02*
X205600D01*
X207600D02*
X218600D01*
X240700D02*
X251700D01*
X253700D02*
X255700D01*
X203600Y115500D02*
X205600D01*
X207600D02*
X218600D01*
X240700D02*
X251700D01*
X253700D02*
X255700D01*
X203600Y115400D02*
X205600D01*
X207600D02*
X218600D01*
X240700D02*
X251700D01*
X253700D02*
X255700D01*
X203600Y115300D02*
X205600D01*
X207600D02*
X218600D01*
X240700D02*
X251700D01*
X253700D02*
X255700D01*
X203600Y115200D02*
X205600D01*
X207600D02*
X218600D01*
X240700D02*
X251700D01*
X253700D02*
X255700D01*
X203600Y115100D02*
X205600D01*
X207600D02*
X218600D01*
X240700D02*
X251700D01*
X253700D02*
X255700D01*
X203600Y115000D02*
X205600D01*
X207600D02*
X218600D01*
X240700D02*
X251700D01*
X253700D02*
X255700D01*
X203600Y114900D02*
X205600D01*
X207600D02*
X218600D01*
X240700D02*
X251700D01*
X253700D02*
X255700D01*
X203600Y114800D02*
X205600D01*
X207600D02*
X218700D01*
X240600D02*
X251700D01*
X253700D02*
X255700D01*
X203600Y114700D02*
X205600D01*
X207600D02*
X218700D01*
X240600D02*
X251700D01*
X253700D02*
X255700D01*
X203600Y114600D02*
X205600D01*
X207600D02*
X218900D01*
X240400D02*
X251700D01*
X253700D02*
X255700D01*
X203600Y114500D02*
X205600D01*
X207600D02*
X209800D01*
X216100D02*
X242900D01*
X249400D02*
X251700D01*
X253700D02*
X255700D01*
X203600Y114400D02*
X205600D01*
X207600D02*
X209700D01*
X216400D02*
X242800D01*
X249600D02*
X251700D01*
X253700D02*
X255700D01*
X203600Y114300D02*
X205600D01*
X207600D02*
X209600D01*
X216500D02*
X242700D01*
X249700D02*
X251700D01*
X253700D02*
X255700D01*
X203600Y114200D02*
X205600D01*
X207600D02*
X209600D01*
X216500D02*
X242700D01*
X249700D02*
X251700D01*
X253700D02*
X255700D01*
X203600Y114100D02*
X205600D01*
X207600D02*
X209600D01*
X216600D02*
X242700D01*
X249700D02*
X251700D01*
X253700D02*
X255700D01*
X203600Y114000D02*
X205600D01*
X207600D02*
X209600D01*
X216600D02*
X242700D01*
X249700D02*
X251700D01*
X253700D02*
X255700D01*
X203600Y113900D02*
X205600D01*
X207600D02*
X209600D01*
X216600D02*
X242700D01*
X249700D02*
X251700D01*
X253700D02*
X255700D01*
X203600Y113800D02*
X205600D01*
X207600D02*
X209600D01*
X216600D02*
X242700D01*
X249700D02*
X251700D01*
X253700D02*
X255700D01*
X203600Y113700D02*
X205600D01*
X207600D02*
X209600D01*
X216600D02*
X242700D01*
X249700D02*
X251700D01*
X253700D02*
X255700D01*
X203600Y113600D02*
X205600D01*
X207600D02*
X209600D01*
X216600D02*
X242700D01*
X249700D02*
X251700D01*
X253700D02*
X255700D01*
X203600Y113500D02*
X205600D01*
X207600D02*
X209600D01*
X216600D02*
X242700D01*
X249700D02*
X251700D01*
X253700D02*
X255700D01*
X203600Y113400D02*
X205600D01*
X207600D02*
X209600D01*
X216600D02*
X242700D01*
X249700D02*
X251700D01*
X253700D02*
X255700D01*
X203600Y113300D02*
X205600D01*
X207600D02*
X209600D01*
X216600D02*
X242700D01*
X249700D02*
X251700D01*
X253700D02*
X255700D01*
X203600Y113200D02*
X205600D01*
X207600D02*
X209600D01*
X216600D02*
X242700D01*
X249700D02*
X251700D01*
X253700D02*
X255700D01*
X203600Y113100D02*
X205600D01*
X207600D02*
X209600D01*
X216600D02*
X242700D01*
X249700D02*
X251700D01*
X253700D02*
X255700D01*
X203600Y113000D02*
X205600D01*
X207600D02*
X209600D01*
X216600D02*
X242600D01*
X249700D02*
X251700D01*
X253700D02*
X255700D01*
X203600Y112900D02*
X205600D01*
X207600D02*
X209600D01*
X216600D02*
X242600D01*
X249700D02*
X251700D01*
X253700D02*
X255700D01*
X203600Y112800D02*
X205600D01*
X207600D02*
X209600D01*
X216600D02*
X242600D01*
X249700D02*
X251700D01*
X253700D02*
X255700D01*
X203600Y112700D02*
X205600D01*
X207600D02*
X209600D01*
X216700D02*
X242500D01*
X249700D02*
X251700D01*
X253700D02*
X255700D01*
X203600Y112600D02*
X205600D01*
X207600D02*
X209600D01*
X216700D02*
X242300D01*
X249700D02*
X251700D01*
X253700D02*
X255700D01*
X203600Y112500D02*
X205600D01*
X207600D02*
X209600D01*
X228400D02*
X230900D01*
X249700D02*
X251700D01*
X253700D02*
X255700D01*
X203600Y112400D02*
X205600D01*
X207600D02*
X209600D01*
X228600D02*
X230800D01*
X249700D02*
X251700D01*
X253700D02*
X255700D01*
X203600Y112300D02*
X205600D01*
X207600D02*
X209600D01*
X228600D02*
X230700D01*
X249700D02*
X251700D01*
X253700D02*
X255700D01*
X203600Y112200D02*
X205600D01*
X207600D02*
X209600D01*
X228600D02*
X230700D01*
X249700D02*
X251700D01*
X253700D02*
X255700D01*
X203600Y112100D02*
X205600D01*
X207600D02*
X209600D01*
X228600D02*
X230700D01*
X249700D02*
X251700D01*
X253700D02*
X255700D01*
X203600Y112000D02*
X205600D01*
X207600D02*
X209600D01*
X228600D02*
X230600D01*
X249700D02*
X251700D01*
X253700D02*
X255700D01*
X203600Y111900D02*
X205600D01*
X207600D02*
X209600D01*
X228600D02*
X230600D01*
X249700D02*
X251700D01*
X253700D02*
X255700D01*
X203600Y111800D02*
X205600D01*
X207600D02*
X209600D01*
X228600D02*
X230600D01*
X249700D02*
X251700D01*
X253700D02*
X255700D01*
X203600Y111700D02*
X205600D01*
X207600D02*
X209600D01*
X228600D02*
X230600D01*
X249700D02*
X251700D01*
X253700D02*
X255700D01*
X203600Y111600D02*
X205600D01*
X207600D02*
X209600D01*
X228600D02*
X230600D01*
X249700D02*
X251700D01*
X253700D02*
X255700D01*
X203600Y111500D02*
X205600D01*
X207600D02*
X209600D01*
X228600D02*
X230700D01*
X249700D02*
X251700D01*
X253700D02*
X255700D01*
X203600Y111400D02*
X205600D01*
X207600D02*
X209600D01*
X228600D02*
X230700D01*
X249700D02*
X251700D01*
X253700D02*
X255700D01*
X203600Y111300D02*
X205600D01*
X207600D02*
X209600D01*
X228600D02*
X230700D01*
X249700D02*
X251700D01*
X253700D02*
X255700D01*
X203600Y111200D02*
X205600D01*
X207600D02*
X209600D01*
X228600D02*
X230700D01*
X249700D02*
X251700D01*
X253700D02*
X255700D01*
X203600Y111100D02*
X205600D01*
X207600D02*
X209600D01*
X228600D02*
X230700D01*
X249700D02*
X251700D01*
X253700D02*
X255700D01*
X203600Y111000D02*
X205600D01*
X207600D02*
X209600D01*
X228600D02*
X230700D01*
X249700D02*
X251700D01*
X253700D02*
X255700D01*
X203600Y110900D02*
X205600D01*
X207600D02*
X209600D01*
X228600D02*
X230700D01*
X249700D02*
X251700D01*
X253700D02*
X255700D01*
X203600Y110800D02*
X205600D01*
X207600D02*
X209600D01*
X228600D02*
X230700D01*
X249700D02*
X251700D01*
X253700D02*
X255700D01*
X203600Y110700D02*
X205600D01*
X207600D02*
X209600D01*
X228600D02*
X230700D01*
X249700D02*
X251700D01*
X253700D02*
X255700D01*
X203600Y110600D02*
X205600D01*
X207600D02*
X209600D01*
X228600D02*
X230700D01*
X249700D02*
X251700D01*
X253700D02*
X255700D01*
X203600Y110500D02*
X205600D01*
X207600D02*
X209600D01*
X228600D02*
X230700D01*
X249700D02*
X251700D01*
X253700D02*
X255700D01*
X203600Y110400D02*
X205600D01*
X207600D02*
X209600D01*
X228600D02*
X230700D01*
X249700D02*
X251700D01*
X253700D02*
X255700D01*
X203600Y110300D02*
X205600D01*
X207600D02*
X209600D01*
X228600D02*
X230700D01*
X249700D02*
X251700D01*
X253700D02*
X255700D01*
X203600Y110200D02*
X205600D01*
X207600D02*
X209600D01*
X228600D02*
X230700D01*
X249700D02*
X251700D01*
X253700D02*
X255700D01*
X203600Y110100D02*
X205600D01*
X207600D02*
X209600D01*
X228600D02*
X230700D01*
X249700D02*
X251700D01*
X253700D02*
X255700D01*
X203600Y110000D02*
X205600D01*
X207600D02*
X209600D01*
X228600D02*
X230700D01*
X249700D02*
X251700D01*
X253700D02*
X255700D01*
X203600Y109900D02*
X205600D01*
X207600D02*
X209600D01*
X228600D02*
X230700D01*
X249700D02*
X251700D01*
X253700D02*
X255700D01*
X203600Y109800D02*
X205600D01*
X207600D02*
X209600D01*
X228600D02*
X230700D01*
X249700D02*
X251700D01*
X253700D02*
X255700D01*
X203600Y109700D02*
X205600D01*
X207600D02*
X209600D01*
X228600D02*
X230700D01*
X249700D02*
X251700D01*
X253700D02*
X255700D01*
X203600Y109600D02*
X205600D01*
X207600D02*
X209600D01*
X228600D02*
X230700D01*
X249700D02*
X251700D01*
X253700D02*
X255700D01*
X203600Y109500D02*
X205600D01*
X207600D02*
X209600D01*
X228600D02*
X230700D01*
X249700D02*
X251700D01*
X253700D02*
X255700D01*
X203600Y109400D02*
X205600D01*
X207600D02*
X209600D01*
X228600D02*
X230700D01*
X249700D02*
X251700D01*
X253700D02*
X255700D01*
X203600Y109300D02*
X205600D01*
X207600D02*
X209600D01*
X228600D02*
X230700D01*
X249700D02*
X251700D01*
X253700D02*
X255700D01*
X203600Y109200D02*
X205600D01*
X207600D02*
X209600D01*
X228600D02*
X230700D01*
X249700D02*
X251700D01*
X253700D02*
X255700D01*
X203600Y109100D02*
X205600D01*
X207500D02*
X209600D01*
X228600D02*
X230700D01*
X249700D02*
X251700D01*
X253700D02*
X255700D01*
X203600Y109000D02*
X205600D01*
X207500D02*
X209600D01*
X228600D02*
X230700D01*
X249700D02*
X251700D01*
X253700D02*
X255700D01*
X203600Y108900D02*
X205600D01*
X207500D02*
X209600D01*
X228600D02*
X230700D01*
X249700D02*
X251700D01*
X253600D02*
X255700D01*
X203500Y108800D02*
X205600D01*
X207500D02*
X209600D01*
X228600D02*
X230700D01*
X249700D02*
X251800D01*
X253600D02*
X255800D01*
X203500Y108700D02*
X205700D01*
X207400D02*
X209700D01*
X228600D02*
X230700D01*
X249600D02*
X251800D01*
X253500D02*
X255800D01*
X203400Y108600D02*
X205800D01*
X207100D02*
X209800D01*
X228600D02*
X230700D01*
X249500D02*
X251900D01*
X253300D02*
X256000D01*
X197800Y108500D02*
X219400D01*
X228600D02*
X230700D01*
X239900D02*
X261600D01*
X197600Y108400D02*
X219500D01*
X228600D02*
X230700D01*
X239700D02*
X261700D01*
X197600Y108300D02*
X219600D01*
X228600D02*
X230700D01*
X239700D02*
X261700D01*
X197600Y108200D02*
X219600D01*
X228600D02*
X230700D01*
X239700D02*
X261700D01*
X197500Y108100D02*
X219600D01*
X228600D02*
X230700D01*
X239700D02*
X261800D01*
X197500Y108000D02*
X219600D01*
X228600D02*
X230700D01*
X239700D02*
X261800D01*
X197500Y107900D02*
X219600D01*
X228600D02*
X230700D01*
X239700D02*
X261800D01*
X197500Y107800D02*
X219600D01*
X228600D02*
X230700D01*
X239700D02*
X261800D01*
X197500Y107700D02*
X219600D01*
X228600D02*
X230700D01*
X239700D02*
X261800D01*
X197500Y107600D02*
X219600D01*
X228600D02*
X230700D01*
X239700D02*
X261800D01*
X197500Y107500D02*
X219600D01*
X228600D02*
X230700D01*
X239700D02*
X261800D01*
X197500Y107400D02*
X219600D01*
X228600D02*
X230700D01*
X239700D02*
X261800D01*
X197500Y107300D02*
X219600D01*
X228600D02*
X230700D01*
X239700D02*
X261800D01*
X197500Y107200D02*
X219600D01*
X228600D02*
X230700D01*
X239700D02*
X261800D01*
X197500Y107100D02*
X219600D01*
X228600D02*
X230600D01*
X239700D02*
X261800D01*
X197500Y107000D02*
X219600D01*
X228600D02*
X230600D01*
X239700D02*
X261800D01*
X197500Y106900D02*
X219600D01*
X228600D02*
X230600D01*
X239700D02*
X261800D01*
X197500Y106800D02*
X219600D01*
X228600D02*
X230700D01*
X239700D02*
X261800D01*
X197500Y106700D02*
X219600D01*
X228600D02*
X230700D01*
X239700D02*
X261800D01*
X197500Y106600D02*
X219600D01*
X228600D02*
X230700D01*
X239700D02*
X261700D01*
X197500Y106500D02*
X199900D01*
X217300D02*
X219600D01*
X228500D02*
X230800D01*
X239700D02*
X242000D01*
X259400D02*
X261700D01*
X197500Y106400D02*
X199700D01*
X217500D02*
X219600D01*
X228300D02*
X231000D01*
X239700D02*
X241800D01*
X259600D02*
X261700D01*
X197500Y106300D02*
X199600D01*
X217500D02*
X219600D01*
X227900D02*
X231400D01*
X239700D02*
X241800D01*
X259700D02*
X261700D01*
X197500Y106200D02*
X199600D01*
X217600D02*
X219600D01*
X227500D02*
X231800D01*
X239700D02*
X241700D01*
X259700D02*
X261700D01*
X197500Y106100D02*
X199600D01*
X217600D02*
X219600D01*
X227200D02*
X232100D01*
X239700D02*
X241700D01*
X259700D02*
X261700D01*
X197500Y106000D02*
X199600D01*
X217600D02*
X219600D01*
X226900D02*
X232300D01*
X239700D02*
X241700D01*
X259700D02*
X261700D01*
X197500Y105900D02*
X199600D01*
X217600D02*
X219600D01*
X226700D02*
X232600D01*
X239700D02*
X241700D01*
X259700D02*
X261700D01*
X197500Y105800D02*
X199600D01*
X217600D02*
X219600D01*
X226500D02*
X232800D01*
X239700D02*
X241700D01*
X259700D02*
X261700D01*
X197500Y105700D02*
X199600D01*
X217600D02*
X219600D01*
X226300D02*
X233000D01*
X239700D02*
X241700D01*
X259700D02*
X261700D01*
X197500Y105600D02*
X199600D01*
X217600D02*
X219600D01*
X226100D02*
X233200D01*
X239700D02*
X241700D01*
X259700D02*
X261700D01*
X197500Y105500D02*
X199600D01*
X217600D02*
X219600D01*
X225900D02*
X233300D01*
X239700D02*
X241700D01*
X259700D02*
X261700D01*
X197500Y105400D02*
X199600D01*
X217600D02*
X219600D01*
X225800D02*
X233500D01*
X239700D02*
X241700D01*
X259700D02*
X261700D01*
X197500Y105300D02*
X199600D01*
X217600D02*
X219600D01*
X225600D02*
X233600D01*
X239700D02*
X241700D01*
X259700D02*
X261700D01*
X197500Y105200D02*
X199600D01*
X217600D02*
X219600D01*
X225500D02*
X233800D01*
X239700D02*
X241700D01*
X259700D02*
X261700D01*
X197500Y105100D02*
X199600D01*
X217600D02*
X219600D01*
X225300D02*
X233900D01*
X239700D02*
X241700D01*
X259700D02*
X261700D01*
X197500Y105000D02*
X199600D01*
X217600D02*
X219600D01*
X225200D02*
X234000D01*
X239700D02*
X241700D01*
X259700D02*
X261700D01*
X197500Y104900D02*
X199600D01*
X217600D02*
X219600D01*
X225100D02*
X234200D01*
X239700D02*
X241700D01*
X259700D02*
X261700D01*
X197500Y104800D02*
X199600D01*
X217600D02*
X219600D01*
X225000D02*
X234300D01*
X239700D02*
X241700D01*
X259700D02*
X261700D01*
X197500Y104700D02*
X199600D01*
X217600D02*
X219600D01*
X224900D02*
X234400D01*
X239700D02*
X241700D01*
X259700D02*
X261700D01*
X197500Y104600D02*
X199600D01*
X217600D02*
X219600D01*
X224800D02*
X234500D01*
X239700D02*
X241700D01*
X259700D02*
X261700D01*
X197500Y104500D02*
X199600D01*
X201700D02*
X215400D01*
X217600D02*
X219600D01*
X224700D02*
X234600D01*
X239700D02*
X241700D01*
X243900D02*
X257500D01*
X259700D02*
X261700D01*
X197500Y104400D02*
X199600D01*
X201600D02*
X215500D01*
X217600D02*
X219600D01*
X224600D02*
X228700D01*
X230600D02*
X234700D01*
X239700D02*
X241700D01*
X243800D02*
X257600D01*
X259700D02*
X261700D01*
X197500Y104300D02*
X199600D01*
X201600D02*
X215600D01*
X217600D02*
X219600D01*
X224500D02*
X228300D01*
X231000D02*
X234800D01*
X239700D02*
X241700D01*
X243700D02*
X257700D01*
X259700D02*
X261700D01*
X197500Y104200D02*
X199600D01*
X201600D02*
X215600D01*
X217600D02*
X219600D01*
X224400D02*
X228000D01*
X231300D02*
X234900D01*
X239700D02*
X241700D01*
X243700D02*
X257700D01*
X259700D02*
X261700D01*
X197500Y104100D02*
X199600D01*
X201500D02*
X215600D01*
X217600D02*
X219600D01*
X224300D02*
X227700D01*
X231600D02*
X235000D01*
X239700D02*
X241700D01*
X243700D02*
X257700D01*
X259700D02*
X261700D01*
X197500Y104000D02*
X199600D01*
X201500D02*
X215600D01*
X217600D02*
X219600D01*
X224200D02*
X227500D01*
X231800D02*
X235100D01*
X239700D02*
X241700D01*
X243700D02*
X257700D01*
X259700D02*
X261700D01*
X197500Y103900D02*
X199600D01*
X201500D02*
X215600D01*
X217600D02*
X219600D01*
X224100D02*
X227300D01*
X232000D02*
X235200D01*
X239700D02*
X241700D01*
X243700D02*
X257700D01*
X259700D02*
X261700D01*
X197500Y103800D02*
X199600D01*
X201500D02*
X215600D01*
X217600D02*
X219600D01*
X224100D02*
X227100D01*
X232200D02*
X235200D01*
X239700D02*
X241700D01*
X243700D02*
X257700D01*
X259700D02*
X261700D01*
X197500Y103700D02*
X199600D01*
X201500D02*
X215600D01*
X217600D02*
X219600D01*
X224000D02*
X227000D01*
X232300D02*
X235300D01*
X239700D02*
X241700D01*
X243700D02*
X257700D01*
X259700D02*
X261700D01*
X197500Y103600D02*
X199600D01*
X201500D02*
X215600D01*
X217600D02*
X219600D01*
X223900D02*
X226800D01*
X232500D02*
X235400D01*
X239700D02*
X241700D01*
X243700D02*
X257700D01*
X259700D02*
X261700D01*
X197500Y103500D02*
X199600D01*
X201600D02*
X215600D01*
X217600D02*
X219600D01*
X223800D02*
X226700D01*
X229200D02*
X230000D01*
X232600D02*
X235500D01*
X239700D02*
X241700D01*
X243700D02*
X257700D01*
X259700D02*
X261700D01*
X197500Y103400D02*
X199600D01*
X201600D02*
X215600D01*
X217600D02*
X219600D01*
X223800D02*
X226600D01*
X228600D02*
X230600D01*
X232700D02*
X235500D01*
X239700D02*
X241700D01*
X243700D02*
X257700D01*
X259700D02*
X261700D01*
X197500Y103300D02*
X199600D01*
X201600D02*
X215600D01*
X217600D02*
X219600D01*
X223700D02*
X226400D01*
X228300D02*
X231000D01*
X232900D02*
X235600D01*
X239700D02*
X241700D01*
X243700D02*
X257700D01*
X259700D02*
X261700D01*
X197500Y103200D02*
X199600D01*
X201600D02*
X215600D01*
X217600D02*
X219600D01*
X223600D02*
X226300D01*
X228000D02*
X231300D01*
X233000D02*
X235700D01*
X239700D02*
X241700D01*
X243700D02*
X257700D01*
X259700D02*
X261700D01*
X197500Y103100D02*
X199600D01*
X201600D02*
X215600D01*
X217600D02*
X219600D01*
X223600D02*
X226200D01*
X227800D02*
X231500D01*
X233100D02*
X235700D01*
X239700D02*
X241700D01*
X243700D02*
X257700D01*
X259700D02*
X261700D01*
X197500Y103000D02*
X199600D01*
X201600D02*
X215600D01*
X217600D02*
X219600D01*
X223500D02*
X226100D01*
X227600D02*
X231700D01*
X233200D02*
X235800D01*
X239700D02*
X241700D01*
X243700D02*
X257700D01*
X259700D02*
X261700D01*
X197500Y102900D02*
X199600D01*
X201600D02*
X215600D01*
X217600D02*
X219600D01*
X223500D02*
X226000D01*
X227400D02*
X231800D01*
X233300D02*
X235800D01*
X239700D02*
X241700D01*
X243700D02*
X257700D01*
X259700D02*
X261700D01*
X197500Y102800D02*
X199600D01*
X201600D02*
X215600D01*
X217600D02*
X219600D01*
X223400D02*
X225900D01*
X227300D02*
X232000D01*
X233400D02*
X235900D01*
X239700D02*
X241700D01*
X243700D02*
X257700D01*
X259700D02*
X261700D01*
X197500Y102700D02*
X199600D01*
X201600D02*
X215600D01*
X217600D02*
X219600D01*
X223400D02*
X225800D01*
X227200D02*
X232100D01*
X233400D02*
X235900D01*
X239700D02*
X241700D01*
X243700D02*
X257700D01*
X259700D02*
X261700D01*
X197500Y102600D02*
X199600D01*
X201600D02*
X215600D01*
X217600D02*
X219600D01*
X223300D02*
X225800D01*
X227000D02*
X232200D01*
X233500D02*
X236000D01*
X239700D02*
X241700D01*
X243700D02*
X257700D01*
X259700D02*
X261700D01*
X197500Y102500D02*
X199600D01*
X201600D02*
X215600D01*
X217600D02*
X219600D01*
X223300D02*
X225700D01*
X226900D02*
X232400D01*
X233600D02*
X236000D01*
X239700D02*
X241700D01*
X243700D02*
X257700D01*
X259700D02*
X261700D01*
X197500Y102400D02*
X199600D01*
X201600D02*
X203700D01*
X213500D02*
X215600D01*
X217600D02*
X219600D01*
X223200D02*
X225600D01*
X226800D02*
X232500D01*
X233700D02*
X236100D01*
X239700D02*
X241700D01*
X243700D02*
X245800D01*
X255600D02*
X257700D01*
X259700D02*
X261700D01*
X197500Y102300D02*
X199600D01*
X201600D02*
X203600D01*
X213500D02*
X215600D01*
X217600D02*
X219600D01*
X223200D02*
X225500D01*
X226700D02*
X232600D01*
X233800D02*
X236100D01*
X239700D02*
X241700D01*
X243700D02*
X245800D01*
X255700D02*
X257700D01*
X259700D02*
X261700D01*
X197500Y102200D02*
X199600D01*
X201600D02*
X203600D01*
X213600D02*
X215600D01*
X217600D02*
X219600D01*
X223100D02*
X225500D01*
X226600D02*
X232700D01*
X233800D02*
X236200D01*
X239700D02*
X241700D01*
X243700D02*
X245700D01*
X255700D02*
X257700D01*
X259700D02*
X261700D01*
X197500Y102100D02*
X199600D01*
X201600D02*
X203600D01*
X213600D02*
X215600D01*
X217600D02*
X219600D01*
X223100D02*
X225400D01*
X226500D02*
X232800D01*
X233900D02*
X236200D01*
X239700D02*
X241700D01*
X243700D02*
X245700D01*
X255700D02*
X257700D01*
X259700D02*
X261700D01*
X197500Y102000D02*
X199600D01*
X201600D02*
X203600D01*
X213600D02*
X215600D01*
X217600D02*
X219600D01*
X223100D02*
X225300D01*
X226500D02*
X232800D01*
X233900D02*
X236300D01*
X239700D02*
X241700D01*
X243700D02*
X245700D01*
X255700D02*
X257700D01*
X259700D02*
X261700D01*
X197500Y101900D02*
X199600D01*
X201600D02*
X203600D01*
X213600D02*
X215600D01*
X217600D02*
X219600D01*
X223000D02*
X225300D01*
X226400D02*
X232900D01*
X234000D02*
X236300D01*
X239700D02*
X241700D01*
X243700D02*
X245700D01*
X255700D02*
X257700D01*
X259700D02*
X261700D01*
X197500Y101800D02*
X199600D01*
X201600D02*
X203600D01*
X213600D02*
X215600D01*
X217600D02*
X219600D01*
X223000D02*
X225200D01*
X226300D02*
X233000D01*
X234100D02*
X236300D01*
X239700D02*
X241700D01*
X243700D02*
X245700D01*
X255700D02*
X257700D01*
X259700D02*
X261700D01*
X197500Y101700D02*
X199600D01*
X201600D02*
X203600D01*
X213600D02*
X215600D01*
X217600D02*
X219600D01*
X223000D02*
X225200D01*
X226200D02*
X233000D01*
X234100D02*
X236400D01*
X239700D02*
X241700D01*
X243700D02*
X245700D01*
X255700D02*
X257700D01*
X259700D02*
X261700D01*
X197500Y101600D02*
X199600D01*
X201600D02*
X203600D01*
X213600D02*
X215600D01*
X217600D02*
X219600D01*
X222900D02*
X225100D01*
X226200D02*
X233100D01*
X234200D02*
X236400D01*
X239700D02*
X241700D01*
X243700D02*
X245700D01*
X255700D02*
X257700D01*
X259700D02*
X261700D01*
X197500Y101500D02*
X199600D01*
X201600D02*
X203600D01*
X205900D02*
X207300D01*
X209900D02*
X211200D01*
X213600D02*
X215600D01*
X217600D02*
X219600D01*
X222900D02*
X225100D01*
X226100D02*
X233200D01*
X234200D02*
X236400D01*
X239700D02*
X241700D01*
X243700D02*
X245700D01*
X248100D02*
X249400D01*
X251800D02*
X253400D01*
X255700D02*
X257700D01*
X259700D02*
X261700D01*
X197500Y101400D02*
X199600D01*
X201600D02*
X203600D01*
X205700D02*
X207500D01*
X209700D02*
X211500D01*
X213600D02*
X215600D01*
X217600D02*
X219600D01*
X222900D02*
X225000D01*
X226100D02*
X229100D01*
X230200D02*
X233200D01*
X234300D02*
X236500D01*
X239700D02*
X241700D01*
X243700D02*
X245700D01*
X247800D02*
X249600D01*
X251700D02*
X253600D01*
X255700D02*
X257700D01*
X259700D02*
X261700D01*
X197500Y101300D02*
X199600D01*
X201600D02*
X203600D01*
X205600D02*
X207500D01*
X209600D02*
X211500D01*
X213600D02*
X215600D01*
X217600D02*
X219600D01*
X222900D02*
X225000D01*
X226000D02*
X228800D01*
X230400D02*
X233300D01*
X234300D02*
X236500D01*
X239700D02*
X241700D01*
X243700D02*
X245700D01*
X247800D02*
X249700D01*
X251700D02*
X253700D01*
X255700D02*
X257700D01*
X259700D02*
X261700D01*
X197500Y101200D02*
X199600D01*
X201600D02*
X203600D01*
X205600D02*
X207600D01*
X209600D02*
X211600D01*
X213600D02*
X215600D01*
X217600D02*
X219600D01*
X222800D02*
X225000D01*
X226000D02*
X228700D01*
X230600D02*
X233300D01*
X234300D02*
X236500D01*
X239700D02*
X241700D01*
X243700D02*
X245700D01*
X247700D02*
X249700D01*
X251700D02*
X253700D01*
X255700D02*
X257700D01*
X259700D02*
X261700D01*
X197500Y101100D02*
X199600D01*
X201600D02*
X203600D01*
X205600D02*
X207600D01*
X209600D02*
X211600D01*
X213600D02*
X215600D01*
X217600D02*
X219600D01*
X222800D02*
X224900D01*
X225900D02*
X228500D01*
X230800D02*
X233400D01*
X234400D02*
X236500D01*
X239700D02*
X241700D01*
X243700D02*
X245700D01*
X247700D02*
X249700D01*
X251700D02*
X253700D01*
X255700D02*
X257700D01*
X259700D02*
X261700D01*
X197500Y101000D02*
X199600D01*
X201600D02*
X203600D01*
X205600D02*
X207600D01*
X209600D02*
X211600D01*
X213600D02*
X215600D01*
X217600D02*
X219600D01*
X222800D02*
X224900D01*
X225900D02*
X228400D01*
X230900D02*
X233400D01*
X234400D02*
X236600D01*
X239700D02*
X241700D01*
X243700D02*
X245700D01*
X247700D02*
X249700D01*
X251700D02*
X253700D01*
X255700D02*
X257700D01*
X259700D02*
X261700D01*
X197500Y100900D02*
X199600D01*
X201600D02*
X203600D01*
X205600D02*
X207600D01*
X209600D02*
X211600D01*
X213600D02*
X215600D01*
X217600D02*
X219600D01*
X222800D02*
X224900D01*
X225900D02*
X228300D01*
X231000D02*
X233400D01*
X234400D02*
X236600D01*
X239700D02*
X241700D01*
X243700D02*
X245700D01*
X247700D02*
X249700D01*
X251700D02*
X253700D01*
X255700D02*
X257700D01*
X259700D02*
X261700D01*
X197500Y100800D02*
X199600D01*
X201600D02*
X203600D01*
X205600D02*
X207600D01*
X209600D02*
X211600D01*
X213600D02*
X215600D01*
X217600D02*
X219600D01*
X222700D02*
X224800D01*
X225800D02*
X228200D01*
X231100D02*
X233500D01*
X234500D02*
X236600D01*
X239700D02*
X241700D01*
X243700D02*
X245700D01*
X247700D02*
X249700D01*
X251700D02*
X253700D01*
X255700D02*
X257700D01*
X259700D02*
X261700D01*
X197500Y100700D02*
X199600D01*
X201600D02*
X203600D01*
X205600D02*
X207600D01*
X209600D02*
X211600D01*
X213600D02*
X215600D01*
X217600D02*
X219600D01*
X222700D02*
X224800D01*
X225800D02*
X228100D01*
X231200D02*
X233500D01*
X234500D02*
X236600D01*
X239700D02*
X241700D01*
X243700D02*
X245700D01*
X247700D02*
X249700D01*
X251700D02*
X253700D01*
X255700D02*
X257700D01*
X259700D02*
X261700D01*
X197500Y100600D02*
X199600D01*
X201600D02*
X203600D01*
X205600D02*
X207600D01*
X209600D02*
X211600D01*
X213600D02*
X215600D01*
X217600D02*
X219600D01*
X222700D02*
X224800D01*
X225800D02*
X228000D01*
X231300D02*
X233500D01*
X234500D02*
X236600D01*
X239700D02*
X241700D01*
X243700D02*
X245700D01*
X247700D02*
X249700D01*
X251700D02*
X253700D01*
X255700D02*
X257700D01*
X259700D02*
X261700D01*
X197500Y100500D02*
X199600D01*
X201600D02*
X203600D01*
X205600D02*
X207600D01*
X209600D02*
X211600D01*
X213600D02*
X215600D01*
X217600D02*
X219600D01*
X222700D02*
X224800D01*
X225700D02*
X227900D01*
X231300D02*
X233600D01*
X234500D02*
X236600D01*
X239700D02*
X241700D01*
X243700D02*
X245700D01*
X247700D02*
X249700D01*
X251700D02*
X253700D01*
X255700D02*
X257700D01*
X259700D02*
X261700D01*
X197500Y100400D02*
X199600D01*
X201600D02*
X203600D01*
X205600D02*
X207600D01*
X209600D02*
X211600D01*
X213600D02*
X215600D01*
X217600D02*
X219600D01*
X222700D02*
X224700D01*
X225700D02*
X227900D01*
X231400D02*
X233600D01*
X234600D02*
X236700D01*
X239700D02*
X241700D01*
X243700D02*
X245700D01*
X247700D02*
X249700D01*
X251700D02*
X253700D01*
X255700D02*
X257700D01*
X259700D02*
X261700D01*
X197500Y100300D02*
X199600D01*
X201600D02*
X203600D01*
X205600D02*
X207600D01*
X209600D02*
X211600D01*
X213600D02*
X215600D01*
X217600D02*
X219600D01*
X222700D02*
X224700D01*
X225700D02*
X227800D01*
X231500D02*
X233600D01*
X234600D02*
X236700D01*
X239700D02*
X241700D01*
X243700D02*
X245700D01*
X247700D02*
X249700D01*
X251700D02*
X253700D01*
X255700D02*
X257700D01*
X259700D02*
X261700D01*
X197500Y100200D02*
X199600D01*
X201600D02*
X203600D01*
X205600D02*
X207600D01*
X209600D02*
X211600D01*
X213600D02*
X215600D01*
X217600D02*
X219600D01*
X222700D02*
X224700D01*
X225700D02*
X227800D01*
X231500D02*
X233600D01*
X234600D02*
X236700D01*
X239700D02*
X241700D01*
X243700D02*
X245700D01*
X247700D02*
X249700D01*
X251700D02*
X253700D01*
X255700D02*
X257700D01*
X259700D02*
X261700D01*
X197500Y100100D02*
X199600D01*
X201600D02*
X203600D01*
X205600D02*
X207600D01*
X209600D02*
X211600D01*
X213600D02*
X215600D01*
X217600D02*
X219600D01*
X222600D02*
X224700D01*
X225700D02*
X227800D01*
X231500D02*
X233600D01*
X234600D02*
X236700D01*
X239700D02*
X241700D01*
X243700D02*
X245700D01*
X247700D02*
X249700D01*
X251700D02*
X253700D01*
X255700D02*
X257700D01*
X259700D02*
X261700D01*
X197500Y100000D02*
X199600D01*
X201600D02*
X203600D01*
X205600D02*
X207600D01*
X209600D02*
X211600D01*
X213600D02*
X215600D01*
X217600D02*
X219600D01*
X222600D02*
X224700D01*
X225700D02*
X227700D01*
X231600D02*
X233600D01*
X234600D02*
X236700D01*
X239700D02*
X241700D01*
X243700D02*
X245700D01*
X247700D02*
X249700D01*
X251700D02*
X253700D01*
X255700D02*
X257700D01*
X259700D02*
X261700D01*
X197500Y99900D02*
X199600D01*
X201600D02*
X203600D01*
X205600D02*
X207600D01*
X209600D02*
X211600D01*
X213600D02*
X215600D01*
X217600D02*
X219600D01*
X222600D02*
X224700D01*
X225600D02*
X227700D01*
X231600D02*
X233600D01*
X234600D02*
X236700D01*
X239700D02*
X241700D01*
X243700D02*
X245700D01*
X247700D02*
X249700D01*
X251700D02*
X253700D01*
X255700D02*
X257700D01*
X259700D02*
X261700D01*
X197500Y99800D02*
X199600D01*
X201600D02*
X203600D01*
X205600D02*
X207600D01*
X209600D02*
X211600D01*
X213600D02*
X215600D01*
X217600D02*
X219600D01*
X222600D02*
X224700D01*
X225600D02*
X227700D01*
X231600D02*
X233700D01*
X234600D02*
X236700D01*
X239700D02*
X241700D01*
X243700D02*
X245700D01*
X247700D02*
X249700D01*
X251700D02*
X253700D01*
X255700D02*
X257700D01*
X259700D02*
X261700D01*
X197500Y99700D02*
X199600D01*
X201600D02*
X203600D01*
X205600D02*
X207500D01*
X209700D02*
X211600D01*
X213600D02*
X215600D01*
X217600D02*
X219600D01*
X222600D02*
X224600D01*
X225600D02*
X227700D01*
X231600D02*
X233700D01*
X234600D02*
X236700D01*
X239700D02*
X241700D01*
X243700D02*
X245700D01*
X247700D02*
X249600D01*
X251700D02*
X253700D01*
X255700D02*
X257700D01*
X259700D02*
X261700D01*
X197500Y99600D02*
X199600D01*
X201600D02*
X203600D01*
X205600D02*
X207400D01*
X209800D02*
X211600D01*
X213600D02*
X215600D01*
X217600D02*
X219600D01*
X222600D02*
X224600D01*
X225600D02*
X227700D01*
X231600D02*
X233700D01*
X234600D02*
X236700D01*
X239700D02*
X241700D01*
X243700D02*
X245700D01*
X247700D02*
X249500D01*
X251700D02*
X253600D01*
X255700D02*
X257700D01*
X259700D02*
X261700D01*
X197500Y99500D02*
X199600D01*
X201600D02*
X203600D01*
X205700D02*
X207200D01*
X210000D02*
X211500D01*
X213600D02*
X215600D01*
X217600D02*
X219600D01*
X222600D02*
X224600D01*
X225600D02*
X227600D01*
X231600D02*
X233700D01*
X234600D02*
X236700D01*
X239700D02*
X241700D01*
X243700D02*
X245700D01*
X247800D02*
X249300D01*
X251800D02*
X253400D01*
X255700D02*
X257700D01*
X259700D02*
X261700D01*
X197500Y99400D02*
X199600D01*
X201600D02*
X203600D01*
X213600D02*
X215600D01*
X217600D02*
X219600D01*
X222600D02*
X224600D01*
X225600D02*
X227700D01*
X231600D02*
X233700D01*
X234600D02*
X236700D01*
X239700D02*
X241700D01*
X243700D02*
X245700D01*
X255700D02*
X257700D01*
X259700D02*
X261700D01*
X197500Y99300D02*
X199600D01*
X201600D02*
X203600D01*
X213600D02*
X215600D01*
X217600D02*
X219600D01*
X222600D02*
X224600D01*
X225600D02*
X227700D01*
X231600D02*
X233700D01*
X234600D02*
X236700D01*
X239700D02*
X241700D01*
X243700D02*
X245700D01*
X255700D02*
X257700D01*
X259700D02*
X261700D01*
X197500Y99200D02*
X199600D01*
X201600D02*
X203600D01*
X213600D02*
X215600D01*
X217600D02*
X219600D01*
X222600D02*
X224700D01*
X225600D02*
X227700D01*
X231600D02*
X233700D01*
X234600D02*
X236700D01*
X239700D02*
X241700D01*
X243700D02*
X245700D01*
X255700D02*
X257700D01*
X259700D02*
X261700D01*
X197500Y99100D02*
X199600D01*
X201600D02*
X203600D01*
X213600D02*
X215600D01*
X217600D02*
X219600D01*
X222600D02*
X224700D01*
X225600D02*
X227700D01*
X231600D02*
X233600D01*
X234600D02*
X236700D01*
X239700D02*
X241700D01*
X243700D02*
X245700D01*
X255700D02*
X257700D01*
X259700D02*
X261700D01*
X197500Y99000D02*
X199600D01*
X201600D02*
X203600D01*
X213600D02*
X215600D01*
X217600D02*
X219600D01*
X222600D02*
X224700D01*
X225700D02*
X227700D01*
X231600D02*
X233600D01*
X234600D02*
X236700D01*
X239700D02*
X241700D01*
X243700D02*
X245700D01*
X255700D02*
X257700D01*
X259700D02*
X261700D01*
X197500Y98900D02*
X199600D01*
X201600D02*
X203600D01*
X213600D02*
X215600D01*
X217600D02*
X219600D01*
X222600D02*
X224700D01*
X225700D02*
X227800D01*
X231500D02*
X233600D01*
X234600D02*
X236700D01*
X239700D02*
X241700D01*
X243700D02*
X245700D01*
X255700D02*
X257700D01*
X259700D02*
X261700D01*
X197500Y98800D02*
X199600D01*
X201600D02*
X203600D01*
X213600D02*
X215600D01*
X217600D02*
X219600D01*
X222600D02*
X224700D01*
X225700D02*
X227800D01*
X231500D02*
X233600D01*
X234600D02*
X236700D01*
X239700D02*
X241700D01*
X243700D02*
X245700D01*
X255700D02*
X257700D01*
X259700D02*
X261700D01*
X197500Y98700D02*
X199600D01*
X201600D02*
X203600D01*
X213500D02*
X215600D01*
X217600D02*
X219600D01*
X222600D02*
X224700D01*
X225700D02*
X227800D01*
X231400D02*
X233600D01*
X234600D02*
X236700D01*
X239700D02*
X241700D01*
X243700D02*
X245800D01*
X255700D02*
X257700D01*
X259700D02*
X261700D01*
X197500Y98600D02*
X199600D01*
X201600D02*
X203700D01*
X213400D02*
X215600D01*
X217600D02*
X219600D01*
X222700D02*
X224700D01*
X225700D02*
X227900D01*
X231400D02*
X233600D01*
X234600D02*
X236600D01*
X239700D02*
X241700D01*
X243700D02*
X245800D01*
X255600D02*
X257700D01*
X259700D02*
X261700D01*
X197500Y98500D02*
X199600D01*
X201600D02*
X215600D01*
X217600D02*
X219600D01*
X222700D02*
X224800D01*
X225700D02*
X228000D01*
X231300D02*
X233600D01*
X234500D02*
X236600D01*
X239700D02*
X241700D01*
X243700D02*
X257700D01*
X259700D02*
X261700D01*
X197500Y98400D02*
X199600D01*
X201600D02*
X215600D01*
X217600D02*
X219600D01*
X222700D02*
X224800D01*
X225800D02*
X228000D01*
X231300D02*
X233500D01*
X234500D02*
X236600D01*
X239700D02*
X241700D01*
X243700D02*
X257700D01*
X259700D02*
X261700D01*
X197500Y98300D02*
X199600D01*
X201600D02*
X215600D01*
X217600D02*
X219600D01*
X222700D02*
X224800D01*
X225800D02*
X228100D01*
X231200D02*
X233500D01*
X234500D02*
X236600D01*
X239700D02*
X241700D01*
X243700D02*
X257700D01*
X259700D02*
X261700D01*
X197500Y98200D02*
X199600D01*
X201600D02*
X215600D01*
X217600D02*
X219600D01*
X222700D02*
X224800D01*
X225800D02*
X228200D01*
X231100D02*
X233500D01*
X234500D02*
X236600D01*
X239700D02*
X241700D01*
X243700D02*
X257700D01*
X259700D02*
X261700D01*
X197500Y98100D02*
X199600D01*
X201600D02*
X215600D01*
X217600D02*
X219600D01*
X222700D02*
X224900D01*
X225900D02*
X228300D01*
X231000D02*
X233400D01*
X234400D02*
X236600D01*
X239700D02*
X241700D01*
X243700D02*
X257700D01*
X259700D02*
X261700D01*
X197500Y98000D02*
X199600D01*
X201600D02*
X215600D01*
X217600D02*
X219600D01*
X222700D02*
X224900D01*
X225900D02*
X228400D01*
X230900D02*
X233400D01*
X234400D02*
X236500D01*
X239700D02*
X241700D01*
X243700D02*
X257700D01*
X259700D02*
X261700D01*
X197500Y97900D02*
X199600D01*
X201600D02*
X215600D01*
X217600D02*
X219600D01*
X222800D02*
X224900D01*
X225900D02*
X228500D01*
X230800D02*
X233400D01*
X234400D02*
X236500D01*
X239700D02*
X241700D01*
X243700D02*
X257700D01*
X259700D02*
X261700D01*
X197500Y97800D02*
X199600D01*
X201600D02*
X215600D01*
X217600D02*
X219600D01*
X222800D02*
X225000D01*
X226000D02*
X228700D01*
X230600D02*
X233300D01*
X234300D02*
X236500D01*
X239700D02*
X241700D01*
X243700D02*
X257700D01*
X259700D02*
X261700D01*
X197500Y97700D02*
X199600D01*
X201600D02*
X215600D01*
X217600D02*
X219600D01*
X222800D02*
X225000D01*
X226000D02*
X228800D01*
X230400D02*
X233300D01*
X234300D02*
X236500D01*
X239700D02*
X241700D01*
X243700D02*
X257700D01*
X259700D02*
X261700D01*
X197500Y97600D02*
X199600D01*
X201600D02*
X215600D01*
X217600D02*
X219600D01*
X222800D02*
X225000D01*
X226100D02*
X229100D01*
X230200D02*
X233200D01*
X234300D02*
X236400D01*
X239700D02*
X241700D01*
X243700D02*
X257700D01*
X259700D02*
X261700D01*
X197500Y97500D02*
X199600D01*
X201500D02*
X215600D01*
X217600D02*
X219600D01*
X222900D02*
X225100D01*
X226100D02*
X233200D01*
X234200D02*
X236400D01*
X239700D02*
X241700D01*
X243700D02*
X257700D01*
X259700D02*
X261700D01*
X197500Y97400D02*
X199600D01*
X201500D02*
X215600D01*
X217600D02*
X219600D01*
X222900D02*
X225100D01*
X226200D02*
X233100D01*
X234200D02*
X236400D01*
X239700D02*
X241700D01*
X243700D02*
X257700D01*
X259700D02*
X261700D01*
X197500Y97300D02*
X199600D01*
X201500D02*
X215600D01*
X217600D02*
X219600D01*
X222900D02*
X225200D01*
X226200D02*
X233000D01*
X234100D02*
X236300D01*
X239700D02*
X241700D01*
X243700D02*
X257700D01*
X259700D02*
X261700D01*
X197500Y97200D02*
X199600D01*
X201500D02*
X215600D01*
X217600D02*
X219600D01*
X223000D02*
X225200D01*
X226300D02*
X233000D01*
X234100D02*
X236300D01*
X239700D02*
X241700D01*
X243700D02*
X257700D01*
X259700D02*
X261700D01*
X197500Y97100D02*
X199600D01*
X201500D02*
X215600D01*
X217600D02*
X219600D01*
X223000D02*
X225300D01*
X226400D02*
X232900D01*
X234000D02*
X236300D01*
X239700D02*
X241700D01*
X243700D02*
X257700D01*
X259700D02*
X261700D01*
X197500Y97000D02*
X199600D01*
X201500D02*
X215600D01*
X217600D02*
X219600D01*
X223000D02*
X225300D01*
X226500D02*
X232800D01*
X233900D02*
X236200D01*
X239700D02*
X241700D01*
X243700D02*
X257700D01*
X259700D02*
X261700D01*
X197500Y96900D02*
X199600D01*
X201500D02*
X215600D01*
X217600D02*
X219600D01*
X223100D02*
X225400D01*
X226500D02*
X232700D01*
X233900D02*
X236200D01*
X239700D02*
X241700D01*
X243700D02*
X257700D01*
X259700D02*
X261700D01*
X197500Y96800D02*
X199600D01*
X201600D02*
X215600D01*
X217600D02*
X219600D01*
X223100D02*
X225500D01*
X226600D02*
X232700D01*
X233800D02*
X236100D01*
X239700D02*
X241700D01*
X243700D02*
X257700D01*
X259700D02*
X261700D01*
X197500Y96700D02*
X199600D01*
X201600D02*
X215600D01*
X217600D02*
X219600D01*
X223200D02*
X225500D01*
X226700D02*
X232600D01*
X233800D02*
X236100D01*
X239700D02*
X241700D01*
X243700D02*
X257700D01*
X259700D02*
X261700D01*
X197500Y96600D02*
X199600D01*
X201600D02*
X215500D01*
X217600D02*
X219600D01*
X223200D02*
X225600D01*
X226800D02*
X232500D01*
X233700D02*
X236100D01*
X239700D02*
X241700D01*
X243800D02*
X257600D01*
X259700D02*
X261700D01*
X197500Y96500D02*
X199600D01*
X201800D02*
X215400D01*
X217600D02*
X219600D01*
X223200D02*
X225700D01*
X226900D02*
X232400D01*
X233600D02*
X236000D01*
X239700D02*
X241700D01*
X243900D02*
X257500D01*
X259700D02*
X261700D01*
X197500Y96400D02*
X199600D01*
X217600D02*
X219600D01*
X223300D02*
X225800D01*
X227000D02*
X232300D01*
X233500D02*
X236000D01*
X239700D02*
X241700D01*
X259700D02*
X261700D01*
X197500Y96300D02*
X199600D01*
X217600D02*
X219600D01*
X223300D02*
X225800D01*
X227200D02*
X232100D01*
X233400D02*
X235900D01*
X239700D02*
X241700D01*
X259700D02*
X261700D01*
X197500Y96200D02*
X199600D01*
X217600D02*
X219600D01*
X223400D02*
X225900D01*
X227300D02*
X232000D01*
X233400D02*
X235900D01*
X239700D02*
X241700D01*
X259700D02*
X261700D01*
X197500Y96100D02*
X199600D01*
X217600D02*
X219600D01*
X223500D02*
X226000D01*
X227500D02*
X231800D01*
X233300D02*
X235800D01*
X239700D02*
X241700D01*
X259700D02*
X261700D01*
X197500Y96000D02*
X199600D01*
X217600D02*
X219600D01*
X223500D02*
X226100D01*
X227600D02*
X231700D01*
X233200D02*
X235800D01*
X239700D02*
X241700D01*
X259700D02*
X261700D01*
X197500Y95900D02*
X199600D01*
X217600D02*
X219600D01*
X223600D02*
X226200D01*
X227800D02*
X231500D01*
X233100D02*
X235700D01*
X239700D02*
X241700D01*
X259700D02*
X261700D01*
X197500Y95800D02*
X199600D01*
X217600D02*
X219600D01*
X223600D02*
X226300D01*
X228000D02*
X231300D01*
X233000D02*
X235600D01*
X239700D02*
X241700D01*
X259700D02*
X261700D01*
X197500Y95700D02*
X199600D01*
X217600D02*
X219600D01*
X223700D02*
X226400D01*
X228300D02*
X231000D01*
X232800D02*
X235600D01*
X239700D02*
X241700D01*
X259700D02*
X261700D01*
X197500Y95600D02*
X199600D01*
X217600D02*
X219600D01*
X223800D02*
X226600D01*
X228600D02*
X230700D01*
X232700D02*
X235500D01*
X239700D02*
X241700D01*
X259700D02*
X261700D01*
X197500Y95500D02*
X199600D01*
X217600D02*
X219600D01*
X223800D02*
X226700D01*
X229200D02*
X230100D01*
X232600D02*
X235400D01*
X239700D02*
X241700D01*
X259700D02*
X261700D01*
X197500Y95400D02*
X199600D01*
X217600D02*
X219600D01*
X223900D02*
X226800D01*
X232500D02*
X235400D01*
X239700D02*
X241700D01*
X259700D02*
X261700D01*
X197500Y95300D02*
X199600D01*
X217600D02*
X219600D01*
X224000D02*
X227000D01*
X232300D02*
X235300D01*
X239700D02*
X241700D01*
X259700D02*
X261700D01*
X197500Y95200D02*
X199600D01*
X217600D02*
X219600D01*
X224100D02*
X227100D01*
X232200D02*
X235200D01*
X239700D02*
X241700D01*
X259700D02*
X261700D01*
X197500Y95100D02*
X199600D01*
X217600D02*
X219600D01*
X224100D02*
X227300D01*
X232000D02*
X235200D01*
X239700D02*
X241700D01*
X259700D02*
X261700D01*
X197500Y95000D02*
X199600D01*
X217600D02*
X219600D01*
X224200D02*
X227500D01*
X231800D02*
X235100D01*
X239700D02*
X241700D01*
X259700D02*
X261700D01*
X197500Y94900D02*
X199600D01*
X217600D02*
X219600D01*
X224300D02*
X227700D01*
X231600D02*
X235000D01*
X239700D02*
X241700D01*
X259700D02*
X261800D01*
X197500Y94800D02*
X199600D01*
X217600D02*
X219600D01*
X224400D02*
X228000D01*
X231300D02*
X234900D01*
X239700D02*
X241700D01*
X259700D02*
X261800D01*
X197500Y94700D02*
X199600D01*
X217500D02*
X219600D01*
X224500D02*
X228300D01*
X231000D02*
X234800D01*
X239700D02*
X241800D01*
X259700D02*
X261800D01*
X197500Y94600D02*
X199700D01*
X217500D02*
X219600D01*
X224600D02*
X228700D01*
X230600D02*
X234700D01*
X239700D02*
X241800D01*
X259600D02*
X261800D01*
X197500Y94500D02*
X199900D01*
X217200D02*
X219600D01*
X224700D02*
X229400D01*
X229900D02*
X234600D01*
X239700D02*
X242100D01*
X259400D02*
X261800D01*
X197500Y94400D02*
X219600D01*
X224800D02*
X234500D01*
X239700D02*
X261800D01*
X197500Y94300D02*
X219600D01*
X224900D02*
X234400D01*
X239700D02*
X261800D01*
X197500Y94200D02*
X219600D01*
X225000D02*
X234300D01*
X239700D02*
X261800D01*
X197500Y94100D02*
X219600D01*
X225100D02*
X234200D01*
X239700D02*
X261800D01*
X197500Y94000D02*
X219600D01*
X225200D02*
X234100D01*
X239700D02*
X261800D01*
X197500Y93900D02*
X219600D01*
X225400D02*
X233900D01*
X239700D02*
X261800D01*
X197500Y93800D02*
X219600D01*
X225500D02*
X233800D01*
X239700D02*
X261800D01*
X197500Y93700D02*
X219600D01*
X225600D02*
X233700D01*
X239700D02*
X261800D01*
X197500Y93600D02*
X219600D01*
X225800D02*
X233500D01*
X239700D02*
X261800D01*
X197500Y93500D02*
X219600D01*
X225900D02*
X233400D01*
X239700D02*
X261800D01*
X197500Y93400D02*
X219600D01*
X226100D02*
X233200D01*
X239700D02*
X261800D01*
X197500Y93300D02*
X219600D01*
X226300D02*
X233000D01*
X239700D02*
X261800D01*
X197500Y93200D02*
X219600D01*
X226500D02*
X232800D01*
X239700D02*
X261800D01*
X197500Y93100D02*
X219600D01*
X226700D02*
X232600D01*
X239700D02*
X261800D01*
X197500Y93000D02*
X219600D01*
X226900D02*
X232400D01*
X239700D02*
X261800D01*
X197500Y92900D02*
X219600D01*
X227100D02*
X232100D01*
X239700D02*
X261700D01*
X197600Y92800D02*
X219600D01*
X227400D02*
X231900D01*
X239700D02*
X261700D01*
X197600Y92700D02*
X219600D01*
X227700D02*
X231500D01*
X239700D02*
X261700D01*
X197700Y92600D02*
X219500D01*
X228200D02*
X231100D01*
X239800D02*
X261600D01*
X197800Y92500D02*
X219300D01*
X228800D02*
X230500D01*
X239900D02*
X261500D01*
X204800Y89300D02*
X206800D01*
X210900D02*
X212900D01*
X218400D02*
X218500D01*
X223700D02*
X223800D01*
X232100D02*
X239100D01*
X240900D02*
X242900D01*
X247000D02*
X249000D01*
X199000Y89200D02*
X201000D01*
X204800D02*
X206800D01*
X210900D02*
X212900D01*
X218400D02*
X218600D01*
X223700D02*
X223900D01*
X229600D02*
X231500D01*
X232100D02*
X239200D01*
X240900D02*
X242900D01*
X247000D02*
X249000D01*
X252500D02*
X252600D01*
X258800D02*
X258900D01*
X198600Y89100D02*
X201500D01*
X204800D02*
X206800D01*
X210900D02*
X212900D01*
X218300D02*
X218600D01*
X223700D02*
X224000D01*
X229600D02*
X231500D01*
X232200D02*
X239300D01*
X240900D02*
X242900D01*
X247000D02*
X249000D01*
X252400D02*
X252700D01*
X258700D02*
X259000D01*
X198200Y89000D02*
X201800D01*
X204800D02*
X206800D01*
X210900D02*
X212900D01*
X218300D02*
X218600D01*
X223700D02*
X224100D01*
X229600D02*
X231500D01*
X232200D02*
X239400D01*
X240900D02*
X242900D01*
X247000D02*
X249000D01*
X252400D02*
X252700D01*
X258700D02*
X259000D01*
X198000Y88900D02*
X202000D01*
X204800D02*
X206800D01*
X210900D02*
X212900D01*
X218200D02*
X218700D01*
X223700D02*
X224200D01*
X229600D02*
X231500D01*
X232300D02*
X239400D01*
X240900D02*
X242900D01*
X247000D02*
X249000D01*
X252400D02*
X252800D01*
X258600D02*
X259000D01*
X197800Y88800D02*
X202200D01*
X204800D02*
X206800D01*
X210900D02*
X212900D01*
X218200D02*
X218700D01*
X223700D02*
X224300D01*
X229600D02*
X231500D01*
X232400D02*
X239500D01*
X240900D02*
X242900D01*
X247000D02*
X249000D01*
X252400D02*
X252800D01*
X258600D02*
X259000D01*
X197600Y88700D02*
X202400D01*
X204800D02*
X206800D01*
X210900D02*
X212900D01*
X218100D02*
X218800D01*
X223700D02*
X224400D01*
X229600D02*
X231500D01*
X232400D02*
X239600D01*
X240900D02*
X242900D01*
X247000D02*
X249000D01*
X252300D02*
X252900D01*
X258500D02*
X259100D01*
X197500Y88600D02*
X202500D01*
X204800D02*
X206800D01*
X210900D02*
X212900D01*
X218100D02*
X218800D01*
X223700D02*
X224500D01*
X229600D02*
X231500D01*
X232500D02*
X239700D01*
X240900D02*
X242900D01*
X247000D02*
X249000D01*
X252300D02*
X252900D01*
X258500D02*
X259100D01*
X197300Y88500D02*
X202700D01*
X204800D02*
X206800D01*
X210900D02*
X212900D01*
X218000D02*
X218900D01*
X223700D02*
X224600D01*
X229600D02*
X231500D01*
X232600D02*
X239700D01*
X240900D02*
X242900D01*
X247000D02*
X249000D01*
X252300D02*
X253000D01*
X258400D02*
X259100D01*
X197200Y88400D02*
X202800D01*
X204800D02*
X206800D01*
X210900D02*
X212900D01*
X218000D02*
X218900D01*
X223700D02*
X224700D01*
X229600D02*
X231500D01*
X232600D02*
X239800D01*
X240900D02*
X242900D01*
X247000D02*
X249000D01*
X252200D02*
X253100D01*
X258400D02*
X259200D01*
X197100Y88300D02*
X202900D01*
X204800D02*
X206800D01*
X210900D02*
X212900D01*
X217900D02*
X219000D01*
X223700D02*
X224800D01*
X229600D02*
X231500D01*
X232700D02*
X239900D01*
X240900D02*
X242900D01*
X247000D02*
X249000D01*
X252200D02*
X253100D01*
X258300D02*
X259200D01*
X197000Y88200D02*
X203000D01*
X204800D02*
X206800D01*
X210900D02*
X212900D01*
X217900D02*
X219000D01*
X223700D02*
X224900D01*
X229600D02*
X231500D01*
X232800D02*
X239900D01*
X240900D02*
X242900D01*
X247000D02*
X249000D01*
X252200D02*
X253200D01*
X258300D02*
X259200D01*
X196900Y88100D02*
X203100D01*
X204800D02*
X206800D01*
X210900D02*
X212900D01*
X217900D02*
X219100D01*
X223700D02*
X225000D01*
X229600D02*
X231500D01*
X232900D02*
X240000D01*
X240900D02*
X242900D01*
X247000D02*
X249000D01*
X252200D02*
X253200D01*
X258200D02*
X259300D01*
X196800Y88000D02*
X203200D01*
X204800D02*
X206800D01*
X210900D02*
X212900D01*
X217800D02*
X219100D01*
X223700D02*
X225100D01*
X229600D02*
X231500D01*
X232900D02*
X240100D01*
X240900D02*
X242900D01*
X247000D02*
X249000D01*
X252100D02*
X253300D01*
X258100D02*
X259300D01*
X196800Y87900D02*
X203200D01*
X204800D02*
X206800D01*
X210900D02*
X212900D01*
X217800D02*
X219200D01*
X223700D02*
X225300D01*
X229600D02*
X231500D01*
X233000D02*
X240200D01*
X240900D02*
X242900D01*
X247000D02*
X249000D01*
X252100D02*
X253300D01*
X258100D02*
X259300D01*
X196700Y87800D02*
X203300D01*
X204800D02*
X206800D01*
X210900D02*
X212900D01*
X217700D02*
X219200D01*
X223700D02*
X225400D01*
X229600D02*
X231500D01*
X233100D02*
X240200D01*
X240900D02*
X242900D01*
X247000D02*
X249000D01*
X252100D02*
X253400D01*
X258000D02*
X259300D01*
X196600Y87700D02*
X203400D01*
X204800D02*
X206800D01*
X210900D02*
X212900D01*
X217700D02*
X219300D01*
X223700D02*
X225500D01*
X229600D02*
X231500D01*
X233100D02*
X240300D01*
X240900D02*
X242900D01*
X247000D02*
X249000D01*
X252000D02*
X253400D01*
X258000D02*
X259400D01*
X196600Y87600D02*
X203400D01*
X204800D02*
X206800D01*
X210900D02*
X212900D01*
X217600D02*
X219300D01*
X223700D02*
X225600D01*
X229600D02*
X231500D01*
X233200D02*
X240400D01*
X240900D02*
X242900D01*
X247000D02*
X249000D01*
X252000D02*
X253500D01*
X257900D02*
X259400D01*
X196500Y87500D02*
X203500D01*
X204800D02*
X206800D01*
X210900D02*
X212900D01*
X217600D02*
X219400D01*
X223700D02*
X225700D01*
X229600D02*
X231500D01*
X233300D02*
X240400D01*
X240900D02*
X242900D01*
X247000D02*
X249000D01*
X252000D02*
X253600D01*
X257900D02*
X259400D01*
X196500Y87400D02*
X199900D01*
X200100D02*
X203500D01*
X204800D02*
X206800D01*
X210900D02*
X212900D01*
X217500D02*
X219400D01*
X223700D02*
X225800D01*
X229600D02*
X231500D01*
X235400D02*
X237300D01*
X240900D02*
X242900D01*
X247000D02*
X249000D01*
X251900D02*
X253600D01*
X257800D02*
X259500D01*
X196400Y87300D02*
X199300D01*
X200700D02*
X203600D01*
X204800D02*
X206800D01*
X210900D02*
X212900D01*
X217500D02*
X219500D01*
X223700D02*
X225900D01*
X229600D02*
X231500D01*
X235400D02*
X237300D01*
X240900D02*
X242900D01*
X247000D02*
X249000D01*
X251900D02*
X253700D01*
X257800D02*
X259500D01*
X196400Y87200D02*
X199000D01*
X201000D02*
X203600D01*
X204800D02*
X206800D01*
X210900D02*
X212900D01*
X217400D02*
X219500D01*
X223700D02*
X226000D01*
X229600D02*
X231500D01*
X235400D02*
X237300D01*
X240900D02*
X242900D01*
X247000D02*
X249000D01*
X251900D02*
X253700D01*
X257700D02*
X259500D01*
X196300Y87100D02*
X198800D01*
X201200D02*
X203700D01*
X204800D02*
X206800D01*
X210900D02*
X212900D01*
X217400D02*
X219500D01*
X223700D02*
X226100D01*
X229600D02*
X231500D01*
X235400D02*
X237300D01*
X240900D02*
X242900D01*
X247000D02*
X249000D01*
X251900D02*
X253800D01*
X257700D02*
X259600D01*
X196300Y87000D02*
X198700D01*
X201400D02*
X203700D01*
X204800D02*
X206800D01*
X210900D02*
X212900D01*
X217300D02*
X219600D01*
X223700D02*
X226200D01*
X229600D02*
X231500D01*
X235400D02*
X237300D01*
X240900D02*
X242900D01*
X247000D02*
X249000D01*
X251800D02*
X253800D01*
X257600D02*
X259600D01*
X196300Y86900D02*
X198500D01*
X201500D02*
X203800D01*
X204800D02*
X206800D01*
X210900D02*
X212900D01*
X217300D02*
X219600D01*
X223700D02*
X226300D01*
X229600D02*
X231500D01*
X235400D02*
X237300D01*
X240900D02*
X242900D01*
X247000D02*
X249000D01*
X251800D02*
X253900D01*
X257600D02*
X259600D01*
X196200Y86800D02*
X198400D01*
X201600D02*
X203800D01*
X204800D02*
X206800D01*
X210900D02*
X212900D01*
X217200D02*
X219700D01*
X223700D02*
X226400D01*
X229600D02*
X231500D01*
X235400D02*
X237300D01*
X240900D02*
X242900D01*
X247000D02*
X249000D01*
X251800D02*
X253900D01*
X257500D02*
X259600D01*
X196200Y86700D02*
X198300D01*
X201700D02*
X203800D01*
X204800D02*
X206800D01*
X210900D02*
X212900D01*
X217200D02*
X219700D01*
X223700D02*
X226500D01*
X229600D02*
X231500D01*
X235400D02*
X237300D01*
X240900D02*
X242900D01*
X247000D02*
X249000D01*
X251700D02*
X254000D01*
X257500D02*
X259700D01*
X196200Y86600D02*
X198300D01*
X201800D02*
X203900D01*
X204800D02*
X206800D01*
X210900D02*
X212900D01*
X217100D02*
X219800D01*
X223700D02*
X226600D01*
X229600D02*
X231500D01*
X235400D02*
X237300D01*
X240900D02*
X242900D01*
X247000D02*
X249000D01*
X251700D02*
X254000D01*
X257400D02*
X259700D01*
X196100Y86500D02*
X198200D01*
X201900D02*
X203900D01*
X204800D02*
X206800D01*
X210900D02*
X212900D01*
X217100D02*
X219800D01*
X223700D02*
X226700D01*
X229600D02*
X231500D01*
X235400D02*
X237300D01*
X240900D02*
X242900D01*
X247000D02*
X249000D01*
X251700D02*
X254100D01*
X257400D02*
X259700D01*
X196100Y86400D02*
X198100D01*
X201900D02*
X203900D01*
X204800D02*
X206800D01*
X210900D02*
X212900D01*
X217000D02*
X219900D01*
X223700D02*
X226800D01*
X229600D02*
X231500D01*
X235400D02*
X237300D01*
X240900D02*
X242900D01*
X247000D02*
X249000D01*
X251700D02*
X254200D01*
X257300D02*
X259800D01*
X196100Y86300D02*
X198100D01*
X202000D02*
X203900D01*
X204800D02*
X206800D01*
X210900D02*
X212900D01*
X217000D02*
X219900D01*
X223700D02*
X226900D01*
X229600D02*
X231500D01*
X235400D02*
X237300D01*
X240900D02*
X242900D01*
X247000D02*
X249000D01*
X251600D02*
X254200D01*
X257300D02*
X259800D01*
X196100Y86200D02*
X198000D01*
X202000D02*
X203900D01*
X204800D02*
X206800D01*
X210900D02*
X212900D01*
X216900D02*
X220000D01*
X223700D02*
X227000D01*
X229600D02*
X231500D01*
X235400D02*
X237300D01*
X240900D02*
X242900D01*
X247000D02*
X249000D01*
X251600D02*
X254300D01*
X257200D02*
X259800D01*
X196000Y86100D02*
X198000D01*
X202000D02*
X204000D01*
X204800D02*
X206800D01*
X210900D02*
X212900D01*
X216900D02*
X220000D01*
X223700D02*
X227200D01*
X229600D02*
X231500D01*
X235400D02*
X237300D01*
X240900D02*
X242900D01*
X247000D02*
X249000D01*
X251600D02*
X254300D01*
X257100D02*
X259900D01*
X196000Y86000D02*
X197900D01*
X202100D02*
X204000D01*
X204800D02*
X206800D01*
X210900D02*
X212900D01*
X216800D02*
X220100D01*
X223700D02*
X227300D01*
X229600D02*
X231500D01*
X235400D02*
X237300D01*
X240900D02*
X242900D01*
X247000D02*
X249000D01*
X251500D02*
X254400D01*
X257100D02*
X259900D01*
X196000Y85900D02*
X197900D01*
X202100D02*
X204000D01*
X204800D02*
X206800D01*
X210900D02*
X212900D01*
X216800D02*
X220100D01*
X223700D02*
X227400D01*
X229600D02*
X231500D01*
X235400D02*
X237300D01*
X240900D02*
X242900D01*
X247000D02*
X249000D01*
X251500D02*
X254400D01*
X257000D02*
X259900D01*
X196000Y85800D02*
X197900D01*
X202100D02*
X204000D01*
X204800D02*
X206800D01*
X210900D02*
X212900D01*
X216700D02*
X220200D01*
X223700D02*
X227500D01*
X229600D02*
X231500D01*
X235400D02*
X237300D01*
X240900D02*
X242900D01*
X247000D02*
X249000D01*
X251500D02*
X254500D01*
X257000D02*
X259900D01*
X196000Y85700D02*
X197800D01*
X202200D02*
X204000D01*
X204800D02*
X206800D01*
X210900D02*
X212900D01*
X216700D02*
X220200D01*
X223700D02*
X227600D01*
X229600D02*
X231500D01*
X235400D02*
X237300D01*
X240900D02*
X242900D01*
X247000D02*
X249000D01*
X251500D02*
X254500D01*
X256900D02*
X260000D01*
X196000Y85600D02*
X197800D01*
X202200D02*
X204000D01*
X204800D02*
X206800D01*
X210900D02*
X212900D01*
X216600D02*
X220300D01*
X223700D02*
X227700D01*
X229600D02*
X231500D01*
X235400D02*
X237300D01*
X240900D02*
X242900D01*
X247000D02*
X249000D01*
X251400D02*
X254600D01*
X256900D02*
X260000D01*
X195900Y85500D02*
X197800D01*
X202200D02*
X204100D01*
X204800D02*
X206800D01*
X210900D02*
X212900D01*
X216600D02*
X220300D01*
X223700D02*
X227800D01*
X229600D02*
X231500D01*
X235400D02*
X237300D01*
X240900D02*
X242900D01*
X247000D02*
X249000D01*
X251400D02*
X254600D01*
X256800D02*
X260000D01*
X195900Y85400D02*
X197800D01*
X202300D02*
X204100D01*
X204800D02*
X206800D01*
X210900D02*
X212900D01*
X216500D02*
X220400D01*
X223700D02*
X227900D01*
X229600D02*
X231500D01*
X235400D02*
X237300D01*
X240900D02*
X242900D01*
X247000D02*
X249000D01*
X251400D02*
X254700D01*
X256800D02*
X260100D01*
X195900Y85300D02*
X197700D01*
X202300D02*
X204100D01*
X204800D02*
X206800D01*
X210900D02*
X212900D01*
X216500D02*
X220400D01*
X223700D02*
X228000D01*
X229600D02*
X231500D01*
X235400D02*
X237300D01*
X240900D02*
X242900D01*
X247000D02*
X249000D01*
X251300D02*
X254800D01*
X256700D02*
X260100D01*
X195900Y85200D02*
X197700D01*
X202300D02*
X204100D01*
X204800D02*
X206800D01*
X210900D02*
X212900D01*
X216400D02*
X220400D01*
X223700D02*
X228100D01*
X229600D02*
X231500D01*
X235400D02*
X237300D01*
X240900D02*
X242900D01*
X247000D02*
X249000D01*
X251300D02*
X254800D01*
X256700D02*
X260100D01*
X195900Y85100D02*
X197700D01*
X202300D02*
X204100D01*
X204800D02*
X206800D01*
X210900D02*
X212900D01*
X216400D02*
X218400D01*
X218500D02*
X220500D01*
X223700D02*
X228200D01*
X229600D02*
X231500D01*
X235400D02*
X237300D01*
X240900D02*
X242900D01*
X247000D02*
X249000D01*
X251300D02*
X254900D01*
X256600D02*
X260200D01*
X195900Y85000D02*
X197700D01*
X202300D02*
X204100D01*
X204800D02*
X206800D01*
X210900D02*
X212900D01*
X216300D02*
X218400D01*
X218500D02*
X220500D01*
X223700D02*
X228300D01*
X229600D02*
X231500D01*
X235400D02*
X237300D01*
X240900D02*
X242900D01*
X247000D02*
X249000D01*
X251200D02*
X254900D01*
X256600D02*
X260200D01*
X195900Y84900D02*
X197700D01*
X202300D02*
X204100D01*
X204800D02*
X206800D01*
X210900D02*
X212900D01*
X216300D02*
X218300D01*
X218600D02*
X220600D01*
X223700D02*
X228400D01*
X229600D02*
X231500D01*
X235400D02*
X237300D01*
X240900D02*
X242900D01*
X247000D02*
X249000D01*
X251200D02*
X255000D01*
X256500D02*
X260200D01*
X195900Y84800D02*
X197700D01*
X202300D02*
X204100D01*
X204800D02*
X206800D01*
X210900D02*
X212900D01*
X216300D02*
X218300D01*
X218600D02*
X220600D01*
X223700D02*
X225600D01*
X225700D02*
X228500D01*
X229600D02*
X231500D01*
X235400D02*
X237300D01*
X240900D02*
X242900D01*
X247000D02*
X249000D01*
X251200D02*
X255000D01*
X256500D02*
X260200D01*
X195900Y84700D02*
X197700D01*
X202300D02*
X204100D01*
X204800D02*
X206800D01*
X210900D02*
X212900D01*
X216200D02*
X218200D01*
X218600D02*
X220700D01*
X223700D02*
X225600D01*
X225800D02*
X228600D01*
X229600D02*
X231500D01*
X235400D02*
X237300D01*
X240900D02*
X242900D01*
X247000D02*
X249000D01*
X251200D02*
X255100D01*
X256400D02*
X260300D01*
X195900Y84600D02*
X197700D01*
X202300D02*
X204100D01*
X204800D02*
X206800D01*
X210900D02*
X212900D01*
X216200D02*
X218200D01*
X218700D02*
X220700D01*
X223700D02*
X225600D01*
X225900D02*
X228700D01*
X229600D02*
X231500D01*
X235400D02*
X237300D01*
X240900D02*
X242900D01*
X247000D02*
X249000D01*
X251100D02*
X255100D01*
X256400D02*
X260300D01*
X195900Y84500D02*
X197700D01*
X202400D02*
X204100D01*
X204800D02*
X206800D01*
X210900D02*
X212900D01*
X216100D02*
X218100D01*
X218700D02*
X220800D01*
X223700D02*
X225600D01*
X226000D02*
X228800D01*
X229600D02*
X231500D01*
X235400D02*
X237300D01*
X240900D02*
X242900D01*
X247000D02*
X249000D01*
X251100D02*
X253000D01*
X253100D02*
X255200D01*
X256300D02*
X258200D01*
X258300D02*
X260300D01*
X195900Y84400D02*
X197700D01*
X202400D02*
X204100D01*
X204800D02*
X206800D01*
X210900D02*
X212900D01*
X216100D02*
X218100D01*
X218800D02*
X220800D01*
X223700D02*
X225600D01*
X226100D02*
X228900D01*
X229600D02*
X231500D01*
X235400D02*
X237300D01*
X240900D02*
X242900D01*
X247000D02*
X249000D01*
X251100D02*
X252900D01*
X253200D02*
X255300D01*
X256300D02*
X258100D01*
X258400D02*
X260400D01*
X195900Y84300D02*
X197700D01*
X202400D02*
X204100D01*
X204800D02*
X206800D01*
X210900D02*
X212900D01*
X216000D02*
X218000D01*
X218800D02*
X220900D01*
X223700D02*
X225600D01*
X226200D02*
X229000D01*
X229600D02*
X231500D01*
X235400D02*
X237300D01*
X240900D02*
X242900D01*
X247000D02*
X249000D01*
X251000D02*
X252900D01*
X253200D02*
X255300D01*
X256200D02*
X258100D01*
X258400D02*
X260400D01*
X195900Y84200D02*
X197700D01*
X202400D02*
X204100D01*
X204800D02*
X206800D01*
X210900D02*
X212900D01*
X216000D02*
X218000D01*
X218900D02*
X220900D01*
X223700D02*
X225600D01*
X226300D02*
X229200D01*
X229600D02*
X231500D01*
X235400D02*
X237300D01*
X240900D02*
X242900D01*
X247000D02*
X249000D01*
X251000D02*
X252900D01*
X253300D02*
X255400D01*
X256200D02*
X258000D01*
X258400D02*
X260400D01*
X195900Y84100D02*
X197700D01*
X202400D02*
X204100D01*
X204800D02*
X206800D01*
X210900D02*
X212900D01*
X215900D02*
X217900D01*
X218900D02*
X221000D01*
X223700D02*
X225600D01*
X226400D02*
X229300D01*
X229600D02*
X231500D01*
X235400D02*
X237300D01*
X240900D02*
X242900D01*
X247000D02*
X249000D01*
X251000D02*
X252900D01*
X253300D02*
X255400D01*
X256100D02*
X258000D01*
X258400D02*
X260500D01*
X195900Y84000D02*
X197700D01*
X202300D02*
X204100D01*
X204800D02*
X206800D01*
X210900D02*
X212900D01*
X215900D02*
X217900D01*
X218900D02*
X221000D01*
X223700D02*
X225600D01*
X226500D02*
X229400D01*
X229600D02*
X231500D01*
X235400D02*
X237300D01*
X240900D02*
X242900D01*
X247000D02*
X249000D01*
X251000D02*
X252800D01*
X253400D02*
X255500D01*
X256000D02*
X257900D01*
X258500D02*
X260500D01*
X195900Y83900D02*
X197700D01*
X202300D02*
X204100D01*
X204800D02*
X206800D01*
X210900D02*
X212900D01*
X215800D02*
X217800D01*
X219000D02*
X221100D01*
X223700D02*
X225600D01*
X226600D02*
X229500D01*
X229600D02*
X231500D01*
X235400D02*
X237300D01*
X240900D02*
X242900D01*
X247000D02*
X249000D01*
X250900D02*
X252800D01*
X253500D02*
X255500D01*
X256000D02*
X257900D01*
X258500D02*
X260500D01*
X195900Y83800D02*
X197700D01*
X202300D02*
X204100D01*
X204800D02*
X206800D01*
X210900D02*
X212900D01*
X215800D02*
X217800D01*
X219000D02*
X221100D01*
X223700D02*
X225600D01*
X226700D02*
X231500D01*
X235400D02*
X237300D01*
X240900D02*
X242900D01*
X247000D02*
X249000D01*
X250900D02*
X252800D01*
X253500D02*
X255600D01*
X255900D02*
X257800D01*
X258500D02*
X260500D01*
X195900Y83700D02*
X197700D01*
X202300D02*
X204000D01*
X204800D02*
X206800D01*
X210900D02*
X212900D01*
X215700D02*
X217800D01*
X219100D02*
X221200D01*
X223700D02*
X225600D01*
X226800D02*
X231500D01*
X235400D02*
X237300D01*
X240900D02*
X242900D01*
X247000D02*
X249000D01*
X250900D02*
X252700D01*
X253600D02*
X255600D01*
X255900D02*
X257800D01*
X258600D02*
X260600D01*
X195900Y83600D02*
X197700D01*
X199200D02*
X201000D01*
X202300D02*
X204000D01*
X204800D02*
X206800D01*
X210900D02*
X212900D01*
X215700D02*
X217700D01*
X219100D02*
X221200D01*
X223700D02*
X225600D01*
X226900D02*
X231500D01*
X235400D02*
X237300D01*
X240900D02*
X242900D01*
X247000D02*
X249000D01*
X250800D02*
X252700D01*
X253600D02*
X255700D01*
X255800D02*
X257700D01*
X258600D02*
X260600D01*
X195900Y83500D02*
X197700D01*
X199200D02*
X201100D01*
X202300D02*
X204000D01*
X204800D02*
X206800D01*
X210900D02*
X212900D01*
X215600D02*
X217700D01*
X219200D02*
X221200D01*
X223700D02*
X225600D01*
X227100D02*
X231500D01*
X235400D02*
X237300D01*
X240900D02*
X242900D01*
X247000D02*
X249000D01*
X250800D02*
X252700D01*
X253700D02*
X255700D01*
X255800D02*
X257600D01*
X258600D02*
X260600D01*
X195900Y83400D02*
X197700D01*
X199300D02*
X201200D01*
X202300D02*
X204000D01*
X204900D02*
X206800D01*
X210900D02*
X212900D01*
X215600D02*
X217600D01*
X219200D02*
X221300D01*
X223700D02*
X225600D01*
X227200D02*
X231500D01*
X235400D02*
X237300D01*
X241000D02*
X242900D01*
X247000D02*
X249000D01*
X250800D02*
X252700D01*
X253800D02*
X257600D01*
X258700D02*
X260700D01*
X195900Y83300D02*
X197700D01*
X199400D02*
X201300D01*
X202300D02*
X203900D01*
X204900D02*
X206800D01*
X210900D02*
X212800D01*
X215500D02*
X217600D01*
X219200D02*
X221300D01*
X223700D02*
X225600D01*
X227300D02*
X231500D01*
X235400D02*
X237300D01*
X241000D02*
X242900D01*
X247000D02*
X248900D01*
X250800D02*
X252600D01*
X253800D02*
X257500D01*
X258700D02*
X260700D01*
X195900Y83200D02*
X197700D01*
X199500D02*
X201400D01*
X202200D02*
X203900D01*
X204900D02*
X206800D01*
X210900D02*
X212800D01*
X215500D02*
X217500D01*
X219300D02*
X221400D01*
X223700D02*
X225600D01*
X227400D02*
X231500D01*
X235400D02*
X237300D01*
X241000D02*
X242900D01*
X247000D02*
X248900D01*
X250700D02*
X252600D01*
X253900D02*
X257500D01*
X258700D02*
X260700D01*
X196000Y83100D02*
X197700D01*
X199600D02*
X201400D01*
X202200D02*
X203900D01*
X204900D02*
X206800D01*
X210900D02*
X212800D01*
X215400D02*
X217500D01*
X219300D02*
X221400D01*
X223700D02*
X225600D01*
X227500D02*
X231500D01*
X235400D02*
X237300D01*
X241000D02*
X242900D01*
X247000D02*
X248900D01*
X250700D02*
X252600D01*
X253900D02*
X257400D01*
X258700D02*
X260800D01*
X196000Y83000D02*
X197800D01*
X199600D02*
X201500D01*
X202100D02*
X203900D01*
X204900D02*
X206800D01*
X210900D02*
X212800D01*
X215400D02*
X217400D01*
X219400D02*
X221500D01*
X223700D02*
X225600D01*
X227600D02*
X231500D01*
X235400D02*
X237300D01*
X241000D02*
X242900D01*
X247000D02*
X248900D01*
X250700D02*
X252500D01*
X254000D02*
X257400D01*
X258800D02*
X260800D01*
X196000Y82900D02*
X197800D01*
X199700D02*
X201600D01*
X202100D02*
X203800D01*
X204900D02*
X206800D01*
X210900D02*
X212800D01*
X215300D02*
X217400D01*
X219400D02*
X221500D01*
X223700D02*
X225600D01*
X227700D02*
X231500D01*
X235400D02*
X237300D01*
X241000D02*
X242900D01*
X247000D02*
X248900D01*
X250600D02*
X252500D01*
X254100D02*
X257300D01*
X258800D02*
X260800D01*
X196000Y82800D02*
X197800D01*
X199800D02*
X201700D01*
X202000D02*
X203800D01*
X204900D02*
X206800D01*
X210900D02*
X212800D01*
X215300D02*
X217300D01*
X219500D02*
X221600D01*
X223700D02*
X225600D01*
X227800D02*
X231500D01*
X235400D02*
X237300D01*
X241000D02*
X242900D01*
X247000D02*
X248900D01*
X250600D02*
X252500D01*
X254100D02*
X257200D01*
X258800D02*
X260800D01*
X196000Y82700D02*
X197800D01*
X199900D02*
X201800D01*
X202000D02*
X203800D01*
X204900D02*
X206800D01*
X210900D02*
X212800D01*
X215200D02*
X217300D01*
X219500D02*
X221600D01*
X223700D02*
X225600D01*
X227900D02*
X231500D01*
X235400D02*
X237300D01*
X241000D02*
X242900D01*
X247000D02*
X248900D01*
X250600D02*
X252400D01*
X254200D02*
X257200D01*
X258900D02*
X260900D01*
X196000Y82600D02*
X197900D01*
X199900D02*
X203700D01*
X204900D02*
X206900D01*
X210800D02*
X212800D01*
X215200D02*
X217300D01*
X219500D02*
X221700D01*
X223700D02*
X225600D01*
X228000D02*
X231500D01*
X235400D02*
X237300D01*
X241000D02*
X243000D01*
X246900D02*
X248900D01*
X250600D02*
X252400D01*
X254200D02*
X257100D01*
X258900D02*
X260900D01*
X196100Y82500D02*
X197900D01*
X200000D02*
X201900D01*
X204900D02*
X206900D01*
X210800D02*
X212800D01*
X215100D02*
X217200D01*
X219600D02*
X221700D01*
X223700D02*
X225600D01*
X228100D02*
X231500D01*
X235400D02*
X237300D01*
X241000D02*
X243000D01*
X246900D02*
X248900D01*
X250500D02*
X252400D01*
X254300D02*
X257100D01*
X258900D02*
X260900D01*
X196100Y82400D02*
X197900D01*
X200100D02*
X202000D01*
X205000D02*
X207000D01*
X210800D02*
X212700D01*
X215100D02*
X217200D01*
X219600D02*
X221800D01*
X223700D02*
X225600D01*
X228200D02*
X231500D01*
X235400D02*
X237300D01*
X241100D02*
X243100D01*
X246900D02*
X248800D01*
X250500D02*
X252400D01*
X254400D02*
X257000D01*
X258900D02*
X261000D01*
X196100Y82300D02*
X198000D01*
X200200D02*
X202100D01*
X205000D02*
X207000D01*
X210700D02*
X212700D01*
X215000D02*
X217100D01*
X219700D02*
X221800D01*
X223700D02*
X225600D01*
X228300D02*
X231500D01*
X235400D02*
X237300D01*
X241100D02*
X243100D01*
X246800D02*
X248800D01*
X250500D02*
X252300D01*
X254400D02*
X257000D01*
X259000D02*
X261000D01*
X196100Y82200D02*
X198000D01*
X200200D02*
X202200D01*
X205000D02*
X207100D01*
X210700D02*
X212700D01*
X215000D02*
X217100D01*
X219700D02*
X221900D01*
X223700D02*
X225600D01*
X228400D02*
X231500D01*
X235400D02*
X237300D01*
X241100D02*
X243200D01*
X246800D02*
X248800D01*
X250400D02*
X252300D01*
X254500D02*
X256900D01*
X259000D02*
X261000D01*
X196200Y82100D02*
X198100D01*
X200300D02*
X202300D01*
X205000D02*
X207100D01*
X210600D02*
X212700D01*
X214900D02*
X217000D01*
X219800D02*
X221900D01*
X223700D02*
X225600D01*
X228600D02*
X231500D01*
X235400D02*
X237300D01*
X241100D02*
X243200D01*
X246700D02*
X248800D01*
X250400D02*
X252300D01*
X254500D02*
X256800D01*
X259000D02*
X261100D01*
X196200Y82000D02*
X198100D01*
X200400D02*
X202300D01*
X205100D02*
X207200D01*
X210600D02*
X212700D01*
X214900D02*
X217000D01*
X219800D02*
X222000D01*
X223700D02*
X225600D01*
X228700D02*
X231500D01*
X235400D02*
X237300D01*
X241200D02*
X243300D01*
X246700D02*
X248800D01*
X250400D02*
X252200D01*
X254600D02*
X256800D01*
X259100D02*
X261100D01*
X196200Y81900D02*
X198200D01*
X200500D02*
X202400D01*
X205100D02*
X207200D01*
X210500D02*
X212600D01*
X214800D02*
X216900D01*
X219800D02*
X222000D01*
X223700D02*
X225600D01*
X228800D02*
X231500D01*
X235400D02*
X237300D01*
X241200D02*
X243300D01*
X246600D02*
X248700D01*
X250300D02*
X252200D01*
X254700D02*
X256700D01*
X259100D02*
X261100D01*
X196300Y81800D02*
X198200D01*
X200500D02*
X202500D01*
X205100D02*
X207300D01*
X210500D02*
X212600D01*
X214800D02*
X216900D01*
X219900D02*
X222100D01*
X223700D02*
X225600D01*
X228900D02*
X231500D01*
X235400D02*
X237300D01*
X241200D02*
X243400D01*
X246600D02*
X248700D01*
X250300D02*
X252200D01*
X254700D02*
X256700D01*
X259100D02*
X261100D01*
X196300Y81700D02*
X198300D01*
X200600D02*
X202600D01*
X205100D02*
X207400D01*
X210400D02*
X212600D01*
X214800D02*
X216800D01*
X219900D02*
X222100D01*
X223700D02*
X225600D01*
X229000D02*
X231500D01*
X235400D02*
X237300D01*
X241200D02*
X243500D01*
X246500D02*
X248700D01*
X250300D02*
X252200D01*
X254800D02*
X256600D01*
X259200D02*
X261200D01*
X196400Y81600D02*
X198400D01*
X200700D02*
X202700D01*
X205200D02*
X207500D01*
X210300D02*
X212500D01*
X214700D02*
X216800D01*
X220000D02*
X222100D01*
X223700D02*
X225600D01*
X229100D02*
X231500D01*
X235400D02*
X237300D01*
X241300D02*
X243600D01*
X246400D02*
X248600D01*
X250300D02*
X252100D01*
X254800D02*
X256600D01*
X259200D02*
X261200D01*
X196400Y81500D02*
X198500D01*
X200700D02*
X202700D01*
X205200D02*
X207600D01*
X210200D02*
X212500D01*
X214700D02*
X216800D01*
X220000D02*
X222200D01*
X223700D02*
X225600D01*
X229200D02*
X231500D01*
X235400D02*
X237300D01*
X241300D02*
X243700D01*
X246300D02*
X248600D01*
X250200D02*
X252100D01*
X254900D02*
X256500D01*
X259200D02*
X261200D01*
X196400Y81400D02*
X198600D01*
X200600D02*
X202800D01*
X205300D02*
X207700D01*
X210100D02*
X212500D01*
X214600D02*
X216700D01*
X220100D02*
X222200D01*
X223700D02*
X225600D01*
X229300D02*
X231500D01*
X235400D02*
X237300D01*
X241400D02*
X243800D01*
X246200D02*
X248600D01*
X250200D02*
X252100D01*
X255000D02*
X256500D01*
X259200D02*
X261300D01*
X196500Y81300D02*
X198700D01*
X200400D02*
X202900D01*
X205300D02*
X207900D01*
X209900D02*
X212400D01*
X214600D02*
X216700D01*
X220100D02*
X222300D01*
X223700D02*
X225600D01*
X229400D02*
X231500D01*
X235400D02*
X237300D01*
X241400D02*
X244000D01*
X246000D02*
X248500D01*
X250200D02*
X252000D01*
X255000D02*
X256400D01*
X259300D02*
X261300D01*
X196600Y81200D02*
X198900D01*
X200200D02*
X203000D01*
X205400D02*
X208100D01*
X209700D02*
X212400D01*
X214500D02*
X216600D01*
X220100D02*
X222300D01*
X223700D02*
X225600D01*
X229500D02*
X231500D01*
X235400D02*
X237300D01*
X241500D02*
X244200D01*
X245800D02*
X248500D01*
X250100D02*
X252000D01*
X255100D02*
X256300D01*
X259300D02*
X261300D01*
X196600Y81100D02*
X199200D01*
X199900D02*
X203100D01*
X205400D02*
X208600D01*
X209300D02*
X212300D01*
X214500D02*
X222400D01*
X223700D02*
X225600D01*
X229600D02*
X231500D01*
X235400D02*
X237300D01*
X241500D02*
X244700D01*
X245400D02*
X248400D01*
X250100D02*
X252000D01*
X255100D02*
X256300D01*
X259300D02*
X261400D01*
X196700Y81000D02*
X203100D01*
X205500D02*
X212300D01*
X214400D02*
X216500D01*
X216600D02*
X222400D01*
X223700D02*
X225600D01*
X229700D02*
X231500D01*
X235400D02*
X237300D01*
X241600D02*
X248400D01*
X250100D02*
X252000D01*
X255200D02*
X256200D01*
X259400D02*
X261400D01*
X196800Y80900D02*
X203200D01*
X205500D02*
X212200D01*
X214400D02*
X216500D01*
X216600D02*
X222500D01*
X223700D02*
X225600D01*
X229800D02*
X231500D01*
X235400D02*
X237300D01*
X241600D02*
X248300D01*
X250100D02*
X251900D01*
X255300D02*
X256200D01*
X259400D02*
X261400D01*
X196800Y80800D02*
X203300D01*
X205600D02*
X212100D01*
X214300D02*
X216400D01*
X216700D02*
X222500D01*
X223700D02*
X225600D01*
X229900D02*
X231500D01*
X235400D02*
X237300D01*
X241700D02*
X248200D01*
X250000D02*
X251900D01*
X255300D02*
X256100D01*
X259400D02*
X261400D01*
X196900Y80700D02*
X203400D01*
X205700D02*
X212100D01*
X214300D02*
X216400D01*
X216700D02*
X222600D01*
X223700D02*
X225600D01*
X230000D02*
X231500D01*
X235400D02*
X237300D01*
X241800D02*
X248200D01*
X250000D02*
X251900D01*
X255400D02*
X256100D01*
X259400D02*
X261500D01*
X197000Y80600D02*
X203500D01*
X205800D02*
X212000D01*
X214200D02*
X216300D01*
X216700D02*
X222600D01*
X223700D02*
X225600D01*
X230200D02*
X231500D01*
X235400D02*
X237300D01*
X241900D02*
X248100D01*
X250000D02*
X251800D01*
X255400D02*
X256000D01*
X259500D02*
X261500D01*
X197100Y80500D02*
X203600D01*
X205800D02*
X211900D01*
X214200D02*
X216300D01*
X216800D02*
X222700D01*
X223700D02*
X225600D01*
X230300D02*
X231500D01*
X235400D02*
X237300D01*
X241900D02*
X248000D01*
X249900D02*
X251800D01*
X255500D02*
X255900D01*
X259500D02*
X261500D01*
X197200Y80400D02*
X203600D01*
X205900D02*
X211800D01*
X214100D02*
X216300D01*
X216800D02*
X222700D01*
X223700D02*
X225600D01*
X230400D02*
X231500D01*
X235400D02*
X237300D01*
X242000D02*
X247900D01*
X249900D02*
X251800D01*
X255600D02*
X255900D01*
X259500D02*
X261600D01*
X197300Y80300D02*
X203700D01*
X206000D02*
X211700D01*
X214100D02*
X216200D01*
X216900D02*
X222800D01*
X223700D02*
X225600D01*
X230500D02*
X231500D01*
X235400D02*
X237300D01*
X242100D02*
X247800D01*
X249900D02*
X251700D01*
X255600D02*
X255800D01*
X259600D02*
X261600D01*
X197400Y80200D02*
X203800D01*
X206200D02*
X211600D01*
X214000D02*
X216200D01*
X216900D02*
X222800D01*
X223700D02*
X225600D01*
X230600D02*
X231500D01*
X235400D02*
X237300D01*
X242300D02*
X247700D01*
X249900D02*
X251700D01*
X255700D02*
X255800D01*
X259600D02*
X261600D01*
X197600Y80100D02*
X201800D01*
X201900D02*
X203900D01*
X206300D02*
X211500D01*
X214000D02*
X216100D01*
X216900D02*
X222900D01*
X223700D02*
X225600D01*
X230700D02*
X231500D01*
X235400D02*
X237300D01*
X242400D02*
X247600D01*
X249800D02*
X251700D01*
X259600D02*
X261700D01*
X197700Y80000D02*
X201600D01*
X202000D02*
X204000D01*
X206500D02*
X211300D01*
X213900D02*
X216100D01*
X217000D02*
X222900D01*
X223700D02*
X225600D01*
X230800D02*
X231500D01*
X235400D02*
X237300D01*
X242600D02*
X247400D01*
X249800D02*
X251700D01*
X259700D02*
X261700D01*
X197900Y79900D02*
X201400D01*
X202100D02*
X204000D01*
X206600D02*
X211200D01*
X213900D02*
X216000D01*
X217000D02*
X223000D01*
X223700D02*
X225600D01*
X230900D02*
X231500D01*
X235400D02*
X237300D01*
X242700D02*
X247300D01*
X249800D02*
X251600D01*
X259700D02*
X261700D01*
X198100Y79800D02*
X201200D01*
X202100D02*
X204100D01*
X206800D02*
X211000D01*
X213800D02*
X216000D01*
X217100D02*
X223000D01*
X223700D02*
X225600D01*
X231000D02*
X231500D01*
X235400D02*
X237300D01*
X242900D02*
X247100D01*
X249700D02*
X251600D01*
X259700D02*
X261700D01*
X198400Y79700D02*
X201000D01*
X202200D02*
X204200D01*
X207100D02*
X210800D01*
X213800D02*
X215900D01*
X217100D02*
X223000D01*
X223700D02*
X225600D01*
X231100D02*
X231500D01*
X235400D02*
X237300D01*
X243200D02*
X246900D01*
X249700D02*
X251600D01*
X259700D02*
X261800D01*
X198600Y79600D02*
X200700D01*
X202300D02*
X204300D01*
X207400D02*
X210500D01*
X213700D02*
X215900D01*
X217100D02*
X223100D01*
X223700D02*
X225600D01*
X231200D02*
X231500D01*
X235400D02*
X237300D01*
X243500D02*
X246600D01*
X249700D02*
X251500D01*
X259800D02*
X261800D01*
X199000Y79500D02*
X200300D01*
X202400D02*
X204400D01*
X207800D02*
X210100D01*
X213700D02*
X215800D01*
X217200D02*
X223100D01*
X223700D02*
X225600D01*
X231300D02*
X231500D01*
X235400D02*
X237300D01*
X243900D02*
X246200D01*
X249600D02*
X251500D01*
X259800D02*
X261800D01*
X196600Y78500D02*
X202500D01*
X208800D02*
X210600D01*
X214400D02*
X221400D01*
X227200D02*
X229100D01*
X232800D02*
X239900D01*
X241700D02*
X243700D01*
X247700D02*
X251500D01*
X255100D02*
X259400D01*
X196700Y78400D02*
X202800D01*
X208300D02*
X211100D01*
X214500D02*
X221700D01*
X226700D02*
X229600D01*
X232800D02*
X240000D01*
X241700D02*
X243700D01*
X247300D02*
X251600D01*
X254800D02*
X259500D01*
X196700Y78300D02*
X203100D01*
X208000D02*
X211400D01*
X214600D02*
X221900D01*
X226400D02*
X229900D01*
X232900D02*
X240000D01*
X241700D02*
X243700D01*
X247000D02*
X251600D01*
X254500D02*
X259600D01*
X196800Y78200D02*
X203300D01*
X207700D02*
X211700D01*
X214700D02*
X222100D01*
X226200D02*
X230100D01*
X233000D02*
X240100D01*
X241700D02*
X243700D01*
X246800D02*
X251700D01*
X254300D02*
X259600D01*
X196900Y78100D02*
X203400D01*
X207500D02*
X211900D01*
X214800D02*
X222200D01*
X225900D02*
X230400D01*
X233000D02*
X240200D01*
X241700D02*
X243700D01*
X246600D02*
X251800D01*
X254200D02*
X259700D01*
X197000Y78000D02*
X203600D01*
X207300D02*
X212100D01*
X214800D02*
X222300D01*
X225800D02*
X230500D01*
X233100D02*
X240200D01*
X241700D02*
X243700D01*
X246500D02*
X251800D01*
X254100D02*
X259800D01*
X197100Y77900D02*
X203700D01*
X207200D02*
X212200D01*
X214900D02*
X222400D01*
X225600D02*
X230700D01*
X233200D02*
X240300D01*
X241700D02*
X243700D01*
X246300D02*
X251900D01*
X254000D02*
X259900D01*
X197100Y77800D02*
X203800D01*
X207000D02*
X212400D01*
X215000D02*
X222500D01*
X225500D02*
X230800D01*
X233200D02*
X240400D01*
X241700D02*
X243700D01*
X246200D02*
X252000D01*
X253900D02*
X260000D01*
X197200Y77700D02*
X203900D01*
X206900D02*
X212500D01*
X215100D02*
X222600D01*
X225300D02*
X231000D01*
X233300D02*
X240500D01*
X241700D02*
X243700D01*
X246100D02*
X252000D01*
X253800D02*
X260100D01*
X197300Y77600D02*
X204000D01*
X206800D02*
X212600D01*
X215200D02*
X222700D01*
X225200D02*
X231100D01*
X233400D02*
X240500D01*
X241700D02*
X243700D01*
X246000D02*
X252100D01*
X253700D02*
X260100D01*
X197400Y77500D02*
X204100D01*
X206700D02*
X212700D01*
X215300D02*
X222700D01*
X225100D02*
X231200D01*
X233400D02*
X240600D01*
X241700D02*
X243700D01*
X245900D02*
X252200D01*
X253700D02*
X260200D01*
X197500Y77400D02*
X204100D01*
X206600D02*
X212800D01*
X215300D02*
X222800D01*
X225000D02*
X231300D01*
X233500D02*
X240700D01*
X241700D02*
X243700D01*
X245800D02*
X252200D01*
X253600D02*
X260300D01*
X197600Y77300D02*
X204200D01*
X206500D02*
X212900D01*
X215400D02*
X222800D01*
X224900D02*
X231400D01*
X233600D02*
X240700D01*
X241700D02*
X243700D01*
X245700D02*
X252300D01*
X253600D02*
X260400D01*
X197600Y77200D02*
X204300D01*
X206400D02*
X213000D01*
X215500D02*
X222900D01*
X224900D02*
X231400D01*
X233700D02*
X240800D01*
X241700D02*
X243700D01*
X245600D02*
X252400D01*
X253500D02*
X260500D01*
X197700Y77100D02*
X204300D01*
X206300D02*
X213100D01*
X215600D02*
X222900D01*
X224800D02*
X231500D01*
X233700D02*
X240900D01*
X241700D02*
X243700D01*
X245600D02*
X252400D01*
X253500D02*
X260600D01*
X197800Y77000D02*
X204400D01*
X206300D02*
X213100D01*
X215700D02*
X223000D01*
X224700D02*
X231600D01*
X233800D02*
X241000D01*
X241700D02*
X243700D01*
X245500D02*
X252500D01*
X253500D02*
X260600D01*
X197900Y76900D02*
X204400D01*
X206200D02*
X213200D01*
X215700D02*
X223000D01*
X224700D02*
X231600D01*
X233900D02*
X241000D01*
X241700D02*
X243700D01*
X245400D02*
X252600D01*
X253400D02*
X260700D01*
X198000Y76800D02*
X204500D01*
X206200D02*
X213200D01*
X215800D02*
X223000D01*
X224600D02*
X231700D01*
X233900D02*
X241100D01*
X241700D02*
X243700D01*
X245400D02*
X252600D01*
X253400D02*
X260800D01*
X202400Y76700D02*
X204500D01*
X206100D02*
X213300D01*
X220800D02*
X223000D01*
X224600D02*
X231700D01*
X236100D02*
X238000D01*
X241700D02*
X243700D01*
X245300D02*
X248300D01*
X253400D02*
X255600D01*
X202600Y76600D02*
X204500D01*
X206100D02*
X213300D01*
X220900D02*
X223100D01*
X224500D02*
X231800D01*
X236100D02*
X238000D01*
X241700D02*
X243700D01*
X245300D02*
X247900D01*
X253400D02*
X255400D01*
X202700Y76500D02*
X204600D01*
X206000D02*
X213400D01*
X221000D02*
X223100D01*
X224500D02*
X231800D01*
X236100D02*
X238000D01*
X241700D02*
X243700D01*
X245200D02*
X247700D01*
X253300D02*
X255200D01*
X202800Y76400D02*
X204600D01*
X206000D02*
X209100D01*
X210300D02*
X213400D01*
X221100D02*
X223100D01*
X224400D02*
X227600D01*
X228700D02*
X231900D01*
X236100D02*
X238000D01*
X241700D02*
X243700D01*
X245200D02*
X247600D01*
X253300D02*
X255200D01*
X202800Y76300D02*
X204600D01*
X205900D02*
X208800D01*
X210600D02*
X213500D01*
X221200D02*
X223100D01*
X224400D02*
X227300D01*
X229000D02*
X231900D01*
X236100D02*
X238000D01*
X241700D02*
X243700D01*
X245100D02*
X247400D01*
X253300D02*
X255100D01*
X202900Y76200D02*
X204700D01*
X205900D02*
X208600D01*
X210800D02*
X213500D01*
X221200D02*
X223100D01*
X224300D02*
X227100D01*
X229200D02*
X232000D01*
X236100D02*
X238000D01*
X241700D02*
X243700D01*
X245100D02*
X247300D01*
X253300D02*
X255100D01*
X202900Y76100D02*
X204700D01*
X205900D02*
X208500D01*
X210900D02*
X213500D01*
X221200D02*
X223100D01*
X224300D02*
X226900D01*
X229400D02*
X232000D01*
X236100D02*
X238000D01*
X241700D02*
X243700D01*
X245000D02*
X247300D01*
X253300D02*
X255100D01*
X203000Y76000D02*
X204700D01*
X205800D02*
X208400D01*
X211000D02*
X213600D01*
X221300D02*
X223100D01*
X224300D02*
X226800D01*
X229500D02*
X232000D01*
X236100D02*
X238000D01*
X241700D02*
X243700D01*
X245000D02*
X247200D01*
X253300D02*
X255000D01*
X203000Y75900D02*
X204700D01*
X205800D02*
X208200D01*
X211200D02*
X213600D01*
X221300D02*
X223100D01*
X224200D02*
X226700D01*
X229600D02*
X232100D01*
X236100D02*
X238000D01*
X241700D02*
X243700D01*
X244900D02*
X247100D01*
X253300D02*
X255000D01*
X203000Y75800D02*
X204700D01*
X205800D02*
X208100D01*
X211300D02*
X213600D01*
X221300D02*
X223100D01*
X224200D02*
X226600D01*
X229700D02*
X232100D01*
X236100D02*
X238000D01*
X241700D02*
X243700D01*
X244900D02*
X247100D01*
X253300D02*
X255000D01*
X203000Y75700D02*
X204700D01*
X205700D02*
X208000D01*
X211400D02*
X213700D01*
X221300D02*
X223100D01*
X224200D02*
X226500D01*
X229800D02*
X232100D01*
X236100D02*
X238000D01*
X241700D02*
X243700D01*
X244900D02*
X247000D01*
X253200D02*
X255000D01*
X203000Y75600D02*
X204700D01*
X205700D02*
X207900D01*
X211500D02*
X213700D01*
X221300D02*
X223100D01*
X224200D02*
X226400D01*
X229900D02*
X232100D01*
X236100D02*
X238000D01*
X241700D02*
X243700D01*
X244900D02*
X247000D01*
X253200D02*
X255000D01*
X203000Y75500D02*
X204700D01*
X205700D02*
X207900D01*
X211500D02*
X213700D01*
X221300D02*
X223100D01*
X224100D02*
X226300D01*
X230000D02*
X232200D01*
X236100D02*
X238000D01*
X241700D02*
X243700D01*
X244800D02*
X246900D01*
X253200D02*
X255000D01*
X203000Y75400D02*
X204700D01*
X205700D02*
X207800D01*
X211600D02*
X213700D01*
X221300D02*
X223100D01*
X224100D02*
X226300D01*
X230100D02*
X232200D01*
X236100D02*
X238000D01*
X241700D02*
X243700D01*
X244800D02*
X246900D01*
X253200D02*
X255000D01*
X203000Y75300D02*
X204700D01*
X205700D02*
X207700D01*
X211700D02*
X213700D01*
X221300D02*
X223100D01*
X224100D02*
X226200D01*
X230100D02*
X232200D01*
X236100D02*
X238000D01*
X241700D02*
X243700D01*
X244800D02*
X246800D01*
X253200D02*
X255000D01*
X202900Y75200D02*
X204700D01*
X205600D02*
X207700D01*
X211700D02*
X213800D01*
X221300D02*
X223100D01*
X224100D02*
X226100D01*
X230200D02*
X232200D01*
X236100D02*
X238000D01*
X241700D02*
X243700D01*
X244800D02*
X246800D01*
X253200D02*
X255000D01*
X202900Y75100D02*
X204600D01*
X205600D02*
X207600D01*
X211800D02*
X213800D01*
X221200D02*
X223100D01*
X224100D02*
X226100D01*
X230200D02*
X232200D01*
X236100D02*
X238000D01*
X241700D02*
X243700D01*
X244700D02*
X246800D01*
X253300D02*
X255000D01*
X202800Y75000D02*
X204600D01*
X205600D02*
X207600D01*
X211800D02*
X213800D01*
X221200D02*
X223000D01*
X224100D02*
X226000D01*
X230300D02*
X232200D01*
X236100D02*
X238000D01*
X241700D02*
X243700D01*
X244700D02*
X246700D01*
X253300D02*
X255100D01*
X202800Y74900D02*
X204600D01*
X205600D02*
X207500D01*
X211900D02*
X213800D01*
X221200D02*
X223000D01*
X224000D02*
X226000D01*
X230300D02*
X232300D01*
X236100D02*
X238000D01*
X241700D02*
X243700D01*
X244700D02*
X246700D01*
X253300D02*
X255100D01*
X202700Y74800D02*
X204600D01*
X205600D02*
X207500D01*
X211900D02*
X213800D01*
X221100D02*
X223000D01*
X224000D02*
X226000D01*
X230300D02*
X232300D01*
X236100D02*
X238000D01*
X241700D02*
X243700D01*
X244700D02*
X246700D01*
X253300D02*
X255200D01*
X202500Y74700D02*
X204500D01*
X205600D02*
X207500D01*
X211900D02*
X213800D01*
X221000D02*
X223000D01*
X224000D02*
X225900D01*
X230400D02*
X232300D01*
X236100D02*
X238000D01*
X241700D02*
X243700D01*
X244700D02*
X246700D01*
X253300D02*
X255300D01*
X202300Y74600D02*
X204500D01*
X205600D02*
X207400D01*
X212000D02*
X213800D01*
X220800D02*
X222900D01*
X224000D02*
X225900D01*
X230400D02*
X232300D01*
X236100D02*
X238000D01*
X241700D02*
X243700D01*
X244700D02*
X246700D01*
X253300D02*
X255500D01*
X197000Y74500D02*
X204400D01*
X205500D02*
X207400D01*
X212000D02*
X213900D01*
X215300D02*
X222900D01*
X224000D02*
X225900D01*
X230400D02*
X232300D01*
X236100D02*
X238000D01*
X241700D02*
X243700D01*
X244600D02*
X246600D01*
X253300D02*
X259500D01*
X197000Y74400D02*
X204400D01*
X205500D02*
X207400D01*
X212000D02*
X213900D01*
X215300D02*
X222800D01*
X224000D02*
X225800D01*
X230500D02*
X232300D01*
X236100D02*
X238000D01*
X241700D02*
X243700D01*
X244600D02*
X246600D01*
X253400D02*
X259800D01*
X197000Y74300D02*
X204300D01*
X205500D02*
X207400D01*
X212000D02*
X213900D01*
X215300D02*
X222800D01*
X224000D02*
X225800D01*
X230500D02*
X232300D01*
X236100D02*
X238000D01*
X241700D02*
X243700D01*
X244600D02*
X246600D01*
X253400D02*
X260000D01*
X197000Y74200D02*
X204300D01*
X205500D02*
X207400D01*
X212000D02*
X213900D01*
X215300D02*
X222700D01*
X224000D02*
X225800D01*
X230500D02*
X232300D01*
X236100D02*
X238000D01*
X241700D02*
X243700D01*
X244600D02*
X246600D01*
X253400D02*
X260200D01*
X197000Y74100D02*
X204200D01*
X205500D02*
X207400D01*
X212000D02*
X213900D01*
X215300D02*
X222700D01*
X224000D02*
X225800D01*
X230500D02*
X232300D01*
X236100D02*
X238000D01*
X241700D02*
X243700D01*
X244600D02*
X246600D01*
X253400D02*
X260300D01*
X197000Y74000D02*
X204100D01*
X205500D02*
X207300D01*
X212100D02*
X213900D01*
X215300D02*
X222600D01*
X224000D02*
X225800D01*
X230500D02*
X232300D01*
X236100D02*
X238000D01*
X241700D02*
X243700D01*
X244600D02*
X246600D01*
X253500D02*
X260400D01*
X197000Y73900D02*
X204100D01*
X205500D02*
X207300D01*
X212100D02*
X213900D01*
X215300D02*
X222500D01*
X224000D02*
X225800D01*
X230500D02*
X232300D01*
X236100D02*
X238000D01*
X241700D02*
X243700D01*
X244600D02*
X246600D01*
X253500D02*
X260500D01*
X197000Y73800D02*
X204000D01*
X205500D02*
X207300D01*
X212100D02*
X213900D01*
X215300D02*
X222400D01*
X224000D02*
X225800D01*
X230500D02*
X232300D01*
X236100D02*
X238000D01*
X241700D02*
X243700D01*
X244600D02*
X246600D01*
X253500D02*
X260600D01*
X197000Y73700D02*
X203900D01*
X205500D02*
X207300D01*
X212100D02*
X213900D01*
X215300D02*
X222400D01*
X224000D02*
X225800D01*
X230500D02*
X232300D01*
X236100D02*
X238000D01*
X241700D02*
X243700D01*
X244600D02*
X246500D01*
X253600D02*
X260700D01*
X197000Y73600D02*
X203800D01*
X205500D02*
X207300D01*
X212100D02*
X213900D01*
X215300D02*
X222600D01*
X224000D02*
X225800D01*
X230500D02*
X232300D01*
X236100D02*
X238000D01*
X241700D02*
X243700D01*
X244600D02*
X246500D01*
X253700D02*
X260700D01*
X197000Y73500D02*
X203700D01*
X205500D02*
X207300D01*
X212100D02*
X213900D01*
X215300D02*
X222700D01*
X224000D02*
X225800D01*
X230500D02*
X232300D01*
X236100D02*
X238000D01*
X241700D02*
X243700D01*
X244600D02*
X246500D01*
X253700D02*
X260800D01*
X197000Y73400D02*
X203600D01*
X205500D02*
X207300D01*
X212100D02*
X213900D01*
X215300D02*
X222700D01*
X224000D02*
X225800D01*
X230500D02*
X232300D01*
X236100D02*
X238000D01*
X241700D02*
X243700D01*
X244600D02*
X246600D01*
X253800D02*
X260800D01*
X197000Y73300D02*
X203400D01*
X205500D02*
X207300D01*
X212100D02*
X213900D01*
X215300D02*
X222800D01*
X224000D02*
X225800D01*
X230500D02*
X232300D01*
X236100D02*
X238000D01*
X241700D02*
X243700D01*
X244600D02*
X246600D01*
X253900D02*
X260800D01*
X197000Y73200D02*
X203300D01*
X205500D02*
X207300D01*
X212100D02*
X213900D01*
X215300D02*
X222900D01*
X224000D02*
X225800D01*
X230500D02*
X232300D01*
X236100D02*
X238000D01*
X241700D02*
X243700D01*
X244600D02*
X246600D01*
X254000D02*
X260900D01*
X197000Y73100D02*
X203100D01*
X205500D02*
X207300D01*
X212100D02*
X213900D01*
X215300D02*
X222900D01*
X224000D02*
X225800D01*
X230500D02*
X232300D01*
X236100D02*
X238000D01*
X241700D02*
X243700D01*
X244600D02*
X246600D01*
X254100D02*
X260900D01*
X197000Y73000D02*
X202900D01*
X205500D02*
X207300D01*
X212100D02*
X213900D01*
X215300D02*
X223000D01*
X224000D02*
X225800D01*
X230500D02*
X232300D01*
X236100D02*
X238000D01*
X241700D02*
X243700D01*
X244600D02*
X246600D01*
X254200D02*
X260900D01*
X197000Y72900D02*
X202500D01*
X205500D02*
X207300D01*
X212100D02*
X213900D01*
X215300D02*
X223000D01*
X224000D02*
X225800D01*
X230500D02*
X232300D01*
X236100D02*
X238000D01*
X241700D02*
X243700D01*
X244600D02*
X246600D01*
X254500D02*
X261000D01*
X197000Y72800D02*
X198900D01*
X199900D02*
X201900D01*
X205500D02*
X207300D01*
X212100D02*
X213900D01*
X215300D02*
X217200D01*
X220600D02*
X223100D01*
X224000D02*
X225800D01*
X230500D02*
X232300D01*
X236100D02*
X238000D01*
X241700D02*
X243700D01*
X244700D02*
X246600D01*
X254900D02*
X261000D01*
X197000Y72700D02*
X198900D01*
X199900D02*
X202000D01*
X205500D02*
X207400D01*
X212000D02*
X213900D01*
X215300D02*
X217200D01*
X220800D02*
X223100D01*
X224000D02*
X225800D01*
X230500D02*
X232300D01*
X236100D02*
X238000D01*
X241700D02*
X243700D01*
X244700D02*
X246600D01*
X258900D02*
X261000D01*
X197000Y72600D02*
X198900D01*
X200000D02*
X202000D01*
X205500D02*
X207400D01*
X212000D02*
X213900D01*
X215300D02*
X217200D01*
X221000D02*
X223100D01*
X224000D02*
X225800D01*
X230500D02*
X232300D01*
X236100D02*
X238000D01*
X241700D02*
X243700D01*
X244700D02*
X246700D01*
X259100D02*
X261000D01*
X197000Y72500D02*
X198900D01*
X200100D02*
X202100D01*
X205600D02*
X207400D01*
X212000D02*
X213800D01*
X215300D02*
X217200D01*
X221100D02*
X223100D01*
X224000D02*
X225800D01*
X230500D02*
X232300D01*
X236100D02*
X238000D01*
X241700D02*
X243700D01*
X244700D02*
X246700D01*
X259200D02*
X261000D01*
X197000Y72400D02*
X198900D01*
X200100D02*
X202200D01*
X205600D02*
X207400D01*
X212000D02*
X213800D01*
X215300D02*
X217200D01*
X221100D02*
X223200D01*
X224000D02*
X225900D01*
X230500D02*
X232300D01*
X236100D02*
X238000D01*
X241700D02*
X243700D01*
X244700D02*
X246700D01*
X259200D02*
X261000D01*
X197000Y72300D02*
X198900D01*
X200200D02*
X202200D01*
X205600D02*
X207400D01*
X212000D02*
X213800D01*
X215300D02*
X217200D01*
X221200D02*
X223200D01*
X224000D02*
X225900D01*
X230400D02*
X232300D01*
X236100D02*
X238000D01*
X241700D02*
X243700D01*
X244700D02*
X246700D01*
X259300D02*
X261000D01*
X197000Y72200D02*
X198900D01*
X200300D02*
X202300D01*
X205600D02*
X207400D01*
X212000D02*
X213800D01*
X215300D02*
X217200D01*
X221200D02*
X223200D01*
X224000D02*
X225900D01*
X230400D02*
X232300D01*
X236100D02*
X238000D01*
X241700D02*
X243700D01*
X244800D02*
X246800D01*
X259300D02*
X261000D01*
X197000Y72100D02*
X198900D01*
X200300D02*
X202400D01*
X205600D02*
X207500D01*
X211900D02*
X213800D01*
X215300D02*
X217200D01*
X221200D02*
X223200D01*
X224100D02*
X225900D01*
X230400D02*
X232200D01*
X236100D02*
X238000D01*
X241700D02*
X243700D01*
X244800D02*
X246800D01*
X259300D02*
X261000D01*
X197000Y72000D02*
X198900D01*
X200400D02*
X202400D01*
X205600D02*
X207500D01*
X211900D02*
X213800D01*
X215300D02*
X217200D01*
X221200D02*
X223200D01*
X224100D02*
X226000D01*
X230300D02*
X232200D01*
X236100D02*
X238000D01*
X241700D02*
X243700D01*
X244800D02*
X246800D01*
X259300D02*
X261000D01*
X197000Y71900D02*
X198900D01*
X200500D02*
X202500D01*
X205600D02*
X207500D01*
X211900D02*
X213800D01*
X215300D02*
X217200D01*
X221300D02*
X223200D01*
X224100D02*
X226000D01*
X230300D02*
X232200D01*
X236100D02*
X238000D01*
X241700D02*
X243700D01*
X244800D02*
X246900D01*
X259300D02*
X261000D01*
X197000Y71800D02*
X198900D01*
X200600D02*
X202600D01*
X205700D02*
X207600D01*
X211800D02*
X213800D01*
X215300D02*
X217200D01*
X221300D02*
X223200D01*
X224100D02*
X226000D01*
X230300D02*
X232200D01*
X236100D02*
X238000D01*
X241700D02*
X243700D01*
X244900D02*
X246900D01*
X259400D02*
X261000D01*
X197000Y71700D02*
X198900D01*
X200600D02*
X202600D01*
X205700D02*
X207600D01*
X211800D02*
X213700D01*
X215300D02*
X217200D01*
X221300D02*
X223200D01*
X224100D02*
X226100D01*
X230200D02*
X232200D01*
X236100D02*
X238000D01*
X241700D02*
X243700D01*
X244900D02*
X247000D01*
X259400D02*
X261000D01*
X197000Y71600D02*
X198900D01*
X200700D02*
X202700D01*
X205700D02*
X207700D01*
X211700D02*
X213700D01*
X215300D02*
X217200D01*
X221300D02*
X223200D01*
X224100D02*
X226100D01*
X230200D02*
X232200D01*
X236100D02*
X238000D01*
X241700D02*
X243700D01*
X244900D02*
X247000D01*
X259400D02*
X261000D01*
X197000Y71500D02*
X198900D01*
X200800D02*
X202800D01*
X205700D02*
X207700D01*
X211700D02*
X213700D01*
X215300D02*
X217200D01*
X221300D02*
X223200D01*
X224200D02*
X226200D01*
X230100D02*
X232100D01*
X236100D02*
X238000D01*
X241700D02*
X243700D01*
X244900D02*
X247100D01*
X259400D02*
X261000D01*
X197000Y71400D02*
X198900D01*
X200800D02*
X202800D01*
X205700D02*
X207800D01*
X211600D02*
X213700D01*
X215300D02*
X217200D01*
X221300D02*
X223200D01*
X224200D02*
X226200D01*
X230100D02*
X232100D01*
X236100D02*
X238000D01*
X241700D02*
X243700D01*
X245000D02*
X247100D01*
X259300D02*
X261000D01*
X197000Y71300D02*
X198900D01*
X200900D02*
X202900D01*
X205800D02*
X207900D01*
X211600D02*
X213600D01*
X215300D02*
X217200D01*
X221300D02*
X223200D01*
X224200D02*
X226300D01*
X230000D02*
X232100D01*
X236100D02*
X238000D01*
X241700D02*
X243700D01*
X245000D02*
X247200D01*
X259300D02*
X261000D01*
X197000Y71200D02*
X198900D01*
X201000D02*
X203000D01*
X205800D02*
X207900D01*
X211500D02*
X213600D01*
X215300D02*
X217200D01*
X221300D02*
X223200D01*
X224200D02*
X226400D01*
X229900D02*
X232100D01*
X236100D02*
X238000D01*
X241700D02*
X243700D01*
X245100D02*
X247300D01*
X259300D02*
X261000D01*
X197000Y71100D02*
X198900D01*
X201000D02*
X203100D01*
X205800D02*
X208000D01*
X211400D02*
X213600D01*
X215300D02*
X217200D01*
X221300D02*
X223200D01*
X224300D02*
X226400D01*
X229900D02*
X232000D01*
X236100D02*
X238000D01*
X241700D02*
X243700D01*
X245100D02*
X247400D01*
X259300D02*
X261000D01*
X197000Y71000D02*
X198900D01*
X201100D02*
X203100D01*
X205900D02*
X208100D01*
X211300D02*
X213500D01*
X215300D02*
X217200D01*
X221200D02*
X223200D01*
X224300D02*
X226500D01*
X229800D02*
X232000D01*
X236100D02*
X238000D01*
X241700D02*
X243700D01*
X245100D02*
X247500D01*
X259300D02*
X261000D01*
X197000Y70900D02*
X198900D01*
X201200D02*
X203200D01*
X205900D02*
X208200D01*
X211200D02*
X213500D01*
X215300D02*
X217200D01*
X221200D02*
X223200D01*
X224300D02*
X226600D01*
X229700D02*
X232000D01*
X236100D02*
X238000D01*
X241700D02*
X243700D01*
X245200D02*
X247600D01*
X259300D02*
X261000D01*
X197000Y70800D02*
X198900D01*
X201200D02*
X203300D01*
X205900D02*
X208300D01*
X211100D02*
X213500D01*
X215300D02*
X217200D01*
X221200D02*
X223200D01*
X224400D02*
X226700D01*
X229600D02*
X231900D01*
X236100D02*
X238000D01*
X241700D02*
X243700D01*
X245200D02*
X247700D01*
X259200D02*
X261000D01*
X197000Y70700D02*
X198900D01*
X201300D02*
X203300D01*
X206000D02*
X208400D01*
X211000D02*
X213400D01*
X215300D02*
X217200D01*
X221100D02*
X223200D01*
X224400D02*
X226900D01*
X229400D02*
X231900D01*
X236100D02*
X238000D01*
X241700D02*
X243700D01*
X245300D02*
X247800D01*
X259200D02*
X260900D01*
X197000Y70600D02*
X198900D01*
X201400D02*
X203400D01*
X206000D02*
X208600D01*
X210800D02*
X213400D01*
X215300D02*
X217200D01*
X221100D02*
X223200D01*
X224500D02*
X227000D01*
X229300D02*
X231800D01*
X236100D02*
X238000D01*
X241700D02*
X243700D01*
X245300D02*
X248000D01*
X259100D02*
X260900D01*
X197000Y70500D02*
X198900D01*
X201500D02*
X203500D01*
X206000D02*
X208800D01*
X210600D02*
X213400D01*
X215300D02*
X217200D01*
X220900D02*
X223100D01*
X224500D02*
X227200D01*
X229100D02*
X231800D01*
X236100D02*
X238000D01*
X241700D02*
X243700D01*
X245400D02*
X248400D01*
X259000D02*
X260900D01*
X197000Y70400D02*
X198900D01*
X201500D02*
X203500D01*
X206100D02*
X209100D01*
X210300D02*
X213300D01*
X215300D02*
X217200D01*
X220600D02*
X223100D01*
X224500D02*
X227500D01*
X228800D02*
X231800D01*
X236100D02*
X238000D01*
X241700D02*
X243700D01*
X245500D02*
X252600D01*
X258900D02*
X260900D01*
X197000Y70300D02*
X198900D01*
X201600D02*
X203600D01*
X206100D02*
X213300D01*
X215300D02*
X223100D01*
X224600D02*
X231700D01*
X236100D02*
X238000D01*
X241700D02*
X243700D01*
X245500D02*
X252600D01*
X253000D02*
X260800D01*
X197000Y70200D02*
X198900D01*
X201700D02*
X203700D01*
X206200D02*
X213200D01*
X215300D02*
X223100D01*
X224700D02*
X231600D01*
X236100D02*
X238000D01*
X241700D02*
X243700D01*
X245600D02*
X252600D01*
X253100D02*
X260800D01*
X197000Y70100D02*
X198900D01*
X201700D02*
X203700D01*
X206300D02*
X213100D01*
X215300D02*
X223000D01*
X224700D02*
X231600D01*
X236100D02*
X238000D01*
X241700D02*
X243700D01*
X245700D02*
X252600D01*
X253200D02*
X260800D01*
X197000Y70000D02*
X198900D01*
X201800D02*
X203800D01*
X206300D02*
X213100D01*
X215300D02*
X223000D01*
X224800D02*
X231500D01*
X236100D02*
X238000D01*
X241700D02*
X243700D01*
X245700D02*
X252600D01*
X253200D02*
X260700D01*
X197000Y69900D02*
X198900D01*
X201900D02*
X203900D01*
X206400D02*
X213000D01*
X215300D02*
X223000D01*
X224900D02*
X231400D01*
X236100D02*
X238000D01*
X241700D02*
X243700D01*
X245800D02*
X252600D01*
X253300D02*
X260700D01*
X197000Y69800D02*
X198900D01*
X201900D02*
X203900D01*
X206500D02*
X212900D01*
X215300D02*
X222900D01*
X224900D02*
X231400D01*
X236100D02*
X238000D01*
X241700D02*
X243700D01*
X245900D02*
X252600D01*
X253400D02*
X260600D01*
X197000Y69700D02*
X198900D01*
X202000D02*
X204000D01*
X206600D02*
X212800D01*
X215300D02*
X222900D01*
X225000D02*
X231300D01*
X236100D02*
X238000D01*
X241700D02*
X243700D01*
X246000D02*
X252600D01*
X253500D02*
X260600D01*
X197000Y69600D02*
X198900D01*
X202100D02*
X204100D01*
X206700D02*
X212700D01*
X215300D02*
X222800D01*
X225100D02*
X231200D01*
X236100D02*
X238000D01*
X241700D02*
X243700D01*
X246100D02*
X252600D01*
X253500D02*
X260500D01*
X197000Y69500D02*
X198900D01*
X202100D02*
X204100D01*
X206800D02*
X212600D01*
X215300D02*
X222700D01*
X225200D02*
X231100D01*
X236100D02*
X238000D01*
X241700D02*
X243700D01*
X246200D02*
X252600D01*
X253600D02*
X260400D01*
X197000Y69400D02*
X198900D01*
X202200D02*
X204200D01*
X206900D02*
X212500D01*
X215300D02*
X222600D01*
X225300D02*
X231000D01*
X236100D02*
X238000D01*
X241700D02*
X243700D01*
X246300D02*
X252600D01*
X253700D02*
X260400D01*
X197000Y69300D02*
X198900D01*
X202300D02*
X204300D01*
X207000D02*
X212400D01*
X215300D02*
X222500D01*
X225400D02*
X230900D01*
X236100D02*
X238000D01*
X241700D02*
X243700D01*
X246400D02*
X252600D01*
X253800D02*
X260300D01*
X197000Y69200D02*
X198900D01*
X202400D02*
X204400D01*
X207100D02*
X212300D01*
X215300D02*
X222400D01*
X225600D02*
X230700D01*
X236100D02*
X238000D01*
X241700D02*
X243700D01*
X246600D02*
X252600D01*
X253800D02*
X260200D01*
X197000Y69100D02*
X198900D01*
X202400D02*
X204400D01*
X207300D02*
X212100D01*
X215300D02*
X222300D01*
X225700D02*
X230600D01*
X236100D02*
X238000D01*
X241700D02*
X243700D01*
X246700D02*
X252600D01*
X253900D02*
X260000D01*
X197000Y69000D02*
X198900D01*
X202500D02*
X204500D01*
X207400D02*
X212000D01*
X215300D02*
X222200D01*
X225900D02*
X230400D01*
X236100D02*
X238000D01*
X241700D02*
X243700D01*
X246900D02*
X252700D01*
X254000D02*
X259900D01*
X197000Y68900D02*
X198900D01*
X202600D02*
X204600D01*
X207700D02*
X211700D01*
X215300D02*
X222000D01*
X226100D02*
X230200D01*
X236100D02*
X238000D01*
X241700D02*
X243700D01*
X247100D02*
X252700D01*
X254100D02*
X259700D01*
X197000Y68800D02*
X198900D01*
X202600D02*
X204600D01*
X207900D02*
X211500D01*
X215300D02*
X221700D01*
X226300D02*
X230000D01*
X236100D02*
X238000D01*
X241700D02*
X243700D01*
X247400D02*
X252700D01*
X254100D02*
X259400D01*
X197000Y68700D02*
X198900D01*
X202700D02*
X204700D01*
X208200D02*
X211200D01*
X215300D02*
X221200D01*
X226700D02*
X229600D01*
X236100D02*
X238000D01*
X241700D02*
X243700D01*
X247900D02*
X252700D01*
X254200D02*
X259000D01*
X208600Y68600D02*
X210700D01*
X227100D02*
X229200D01*
D65*
X135209Y120271D02*
Y116729D01*
X136389Y117909D01*
X137570Y116729D01*
Y120271D01*
X138751Y116729D02*
X139931D01*
X139341D01*
Y120271D01*
X138751D01*
X139931D01*
X144064Y117319D02*
X143474Y116729D01*
X142293D01*
X141703Y117319D01*
Y117909D01*
X142293Y118500D01*
X143474D01*
X144064Y119090D01*
Y119680D01*
X143474Y120271D01*
X142293D01*
X141703Y119680D01*
X147016Y116729D02*
X145835D01*
X145245Y117319D01*
Y119680D01*
X145835Y120271D01*
X147016D01*
X147606Y119680D01*
Y117319D01*
X147016Y116729D01*
X104801Y137130D02*
X101259D01*
X102440Y135949D01*
X101259Y134768D01*
X104801D01*
Y133587D02*
Y132407D01*
Y132997D01*
X102440D01*
Y133587D01*
Y128274D02*
Y130045D01*
X103030Y130636D01*
X104211D01*
X104801Y130045D01*
Y128274D01*
X102440Y127094D02*
X104801D01*
X103620D01*
X103030Y126503D01*
X102440Y125913D01*
Y125322D01*
X104801Y122961D02*
Y121780D01*
X104211Y121190D01*
X103030D01*
X102440Y121780D01*
Y122961D01*
X103030Y123551D01*
X104211D01*
X104801Y122961D01*
X101849Y114105D02*
X101259Y114696D01*
Y115877D01*
X101849Y116467D01*
X102440D01*
X103030Y115877D01*
Y114696D01*
X103620Y114105D01*
X104211D01*
X104801Y114696D01*
Y115877D01*
X104211Y116467D01*
X101259Y112925D02*
X104801D01*
Y111154D01*
X104211Y110563D01*
X101849D01*
X101259Y111154D01*
Y112925D01*
X104801Y105841D02*
X101259D01*
X102440Y104660D01*
X101259Y103479D01*
X104801D01*
Y101708D02*
Y100527D01*
X104211Y99937D01*
X103030D01*
X102440Y100527D01*
Y101708D01*
X103030Y102298D01*
X104211D01*
X104801Y101708D01*
X101259Y96395D02*
X104801D01*
Y98166D01*
X104211Y98756D01*
X103030D01*
X102440Y98166D01*
Y96395D01*
Y95214D02*
X104211D01*
X104801Y94624D01*
Y92853D01*
X102440D01*
X104801Y91672D02*
Y90491D01*
Y91082D01*
X101259D01*
Y91672D01*
X104801Y86949D02*
Y88130D01*
X104211Y88720D01*
X103030D01*
X102440Y88130D01*
Y86949D01*
X103030Y86359D01*
X103620D01*
Y88720D01*
X110752Y123256D02*
X108391D01*
X107210Y122075D01*
X108391Y120895D01*
X110752D01*
X108981D01*
Y123256D01*
X108391Y119714D02*
X110752D01*
X109572D01*
X108981Y119124D01*
X108391Y118533D01*
Y117943D01*
X107210Y113810D02*
X110752D01*
Y115581D01*
X110162Y116172D01*
X108981D01*
X108391Y115581D01*
Y113810D01*
Y112630D02*
X110162D01*
X110752Y112039D01*
Y110268D01*
X108391D01*
X110752Y109088D02*
Y107907D01*
Y108497D01*
X108391D01*
Y109088D01*
X110752Y106136D02*
X108391D01*
Y104365D01*
X108981Y103774D01*
X110752D01*
Y102003D02*
Y100822D01*
X110162Y100232D01*
X108981D01*
X108391Y100822D01*
Y102003D01*
X108981Y102594D01*
X110162D01*
X110752Y102003D01*
X143841Y87319D02*
X143251Y86729D01*
X142070D01*
X141480Y87319D01*
Y89680D01*
X142070Y90271D01*
X143251D01*
X143841Y89680D01*
X147383Y87319D02*
X146793Y86729D01*
X145612D01*
X145022Y87319D01*
Y87909D01*
X145612Y88500D01*
X146793D01*
X147383Y89090D01*
Y89680D01*
X146793Y90271D01*
X145612D01*
X145022Y89680D01*
X135709Y110271D02*
Y106729D01*
X136889Y107909D01*
X138070Y106729D01*
Y110271D01*
X141022Y106729D02*
X139841D01*
X139251Y107319D01*
Y109680D01*
X139841Y110271D01*
X141022D01*
X141612Y109680D01*
Y107319D01*
X141022Y106729D01*
X145154Y107319D02*
X144564Y106729D01*
X143383D01*
X142793Y107319D01*
Y107909D01*
X143383Y108500D01*
X144564D01*
X145154Y109090D01*
Y109680D01*
X144564Y110271D01*
X143383D01*
X142793Y109680D01*
X146335Y106729D02*
X147516D01*
X146925D01*
Y110271D01*
X146335D01*
X147516D01*
X140570Y97319D02*
X139980Y96729D01*
X138799D01*
X138209Y97319D01*
Y97909D01*
X138799Y98500D01*
X139980D01*
X140570Y99090D01*
Y99680D01*
X139980Y100271D01*
X138799D01*
X138209Y99680D01*
X144112Y97319D02*
X143522Y96729D01*
X142341D01*
X141751Y97319D01*
Y99680D01*
X142341Y100271D01*
X143522D01*
X144112Y99680D01*
X145293Y96729D02*
Y100271D01*
Y99090D01*
X147654Y96729D01*
X145883Y98500D01*
X147654Y100271D01*
X138209Y126729D02*
Y129090D01*
X139389Y130271D01*
X140570Y129090D01*
Y126729D01*
X144112Y127319D02*
X143522Y126729D01*
X142341D01*
X141751Y127319D01*
Y129680D01*
X142341Y130271D01*
X143522D01*
X144112Y129680D01*
X147654Y127319D02*
X147064Y126729D01*
X145883D01*
X145293Y127319D01*
Y129680D01*
X145883Y130271D01*
X147064D01*
X147654Y129680D01*
X140570Y137319D02*
X139980Y136729D01*
X138799D01*
X138209Y137319D01*
Y139680D01*
X138799Y140271D01*
X139980D01*
X140570Y139680D01*
Y138500D01*
X139389D01*
X141751Y140271D02*
Y136729D01*
X144112Y140271D01*
Y136729D01*
X145293D02*
Y140271D01*
X147064D01*
X147654Y139680D01*
Y137319D01*
X147064Y136729D01*
X145293D01*
M02*
