G04 Layer_Color=65535*
%FSLAX25Y25*%
%MOIN*%
G70*
G01*
G75*
%ADD12C,0.01000*%
%ADD36C,0.00787*%
%ADD37C,0.00913*%
%ADD38C,0.00984*%
%ADD39C,0.02362*%
%ADD40C,0.00500*%
%ADD41C,0.00800*%
D12*
X328000Y122000D02*
X327000Y121732D01*
X326268Y121000D01*
X326000Y120000D01*
X336000Y119500D02*
X335810Y120457D01*
X335268Y121268D01*
X334457Y121810D01*
X333500Y122000D01*
Y92000D02*
X334457Y92190D01*
X335268Y92732D01*
X335810Y93543D01*
X336000Y94500D01*
X326000D02*
X326190Y93543D01*
X326732Y92732D01*
X327543Y92190D01*
X328500Y92000D01*
X289000Y5000D02*
Y15000D01*
X369000D01*
Y5000D02*
Y15000D01*
X289000Y5000D02*
X369000D01*
X299000D02*
Y15000D01*
X349000Y195000D02*
Y205000D01*
X269000Y195000D02*
X349000D01*
X269000D02*
Y205000D01*
X349000D01*
X339000Y195000D02*
Y205000D01*
X199000Y5000D02*
Y15000D01*
X279000D01*
Y5000D02*
Y15000D01*
X199000Y5000D02*
X279000D01*
X209000D02*
Y15000D01*
X259000Y195000D02*
Y205000D01*
X179000Y195000D02*
X259000D01*
X179000D02*
Y205000D01*
X259000D01*
X249000Y195000D02*
Y205000D01*
X389000Y25000D02*
Y202500D01*
X386500Y205000D02*
X389000Y202500D01*
X369000Y205000D02*
X386500D01*
X379000Y195000D02*
Y205000D01*
Y195000D02*
X389000D01*
X369000Y25000D02*
Y205000D01*
Y25000D02*
X389000D01*
X189000Y5000D02*
Y10000D01*
X179000Y5000D02*
X189000D01*
X129000Y15000D02*
X179000D01*
X129000Y5000D02*
Y15000D01*
Y5000D02*
X179000D01*
Y15000D01*
X189000D01*
Y10000D02*
Y15000D01*
X173000Y195000D02*
Y205000D01*
X93000Y195000D02*
X173000D01*
X93000D02*
Y205000D01*
X173000D01*
X163000Y195000D02*
Y205000D01*
X328500Y92000D02*
X333500D01*
X336000Y94500D02*
Y119500D01*
X328000Y122000D02*
X333500D01*
X326000Y94500D02*
Y120000D01*
X67500Y25500D02*
Y38000D01*
Y25500D02*
X102500D01*
Y38000D01*
X67500D02*
X102500D01*
X67500D02*
Y41500D01*
X102500D01*
Y38000D02*
Y41500D01*
X7638Y374D02*
X52362D01*
X7638Y-30370D02*
X52362D01*
X7638D02*
Y16874D01*
X52362Y-30370D02*
Y16874D01*
X7638D02*
X52362D01*
X55638Y374D02*
X100362D01*
X55638Y-30370D02*
X100362D01*
X55638D02*
Y16874D01*
X100362Y-30370D02*
Y16874D01*
X55638D02*
X100362D01*
X14004Y29000D02*
X45500D01*
X14000Y29004D02*
Y60500D01*
X45500Y29004D02*
Y60500D01*
X14000D02*
X45496D01*
X22000Y37252D02*
Y53000D01*
X22126D02*
X37874D01*
X22126Y37000D02*
X37874D01*
X38000D02*
Y52748D01*
X184999Y137678D02*
X184428Y138249D01*
X183571Y138535D01*
X182428D01*
X181571Y138249D01*
X181000Y137678D01*
Y137106D01*
X181286Y136535D01*
X181571Y136249D01*
X182143Y135964D01*
X183856Y135392D01*
X184428Y135107D01*
X184713Y134821D01*
X184999Y134250D01*
Y133393D01*
X184428Y132822D01*
X183571Y132536D01*
X182428D01*
X181571Y132822D01*
X181000Y133393D01*
X186342Y138535D02*
Y132536D01*
Y135392D02*
X187199Y136249D01*
X187770Y136535D01*
X188627D01*
X189198Y136249D01*
X189484Y135392D01*
Y132536D01*
X191626Y138535D02*
X191912Y138249D01*
X192198Y138535D01*
X191912Y138820D01*
X191626Y138535D01*
X191912Y136535D02*
Y132536D01*
X193254Y134821D02*
X196682D01*
Y135392D01*
X196397Y135964D01*
X196111Y136249D01*
X195540Y136535D01*
X194683D01*
X194112Y136249D01*
X193540Y135678D01*
X193254Y134821D01*
Y134250D01*
X193540Y133393D01*
X194112Y132822D01*
X194683Y132536D01*
X195540D01*
X196111Y132822D01*
X196682Y133393D01*
X197968Y138535D02*
Y132536D01*
X202653Y138535D02*
Y132536D01*
Y135678D02*
X202081Y136249D01*
X201510Y136535D01*
X200653D01*
X200082Y136249D01*
X199510Y135678D01*
X199225Y134821D01*
Y134250D01*
X199510Y133393D01*
X200082Y132822D01*
X200653Y132536D01*
X201510D01*
X202081Y132822D01*
X202653Y133393D01*
X211251Y138535D02*
X210679D01*
X210108Y138249D01*
X209822Y137392D01*
Y132536D01*
X208965Y136535D02*
X210965D01*
X213536D02*
X212965Y136249D01*
X212393Y135678D01*
X212108Y134821D01*
Y134250D01*
X212393Y133393D01*
X212965Y132822D01*
X213536Y132536D01*
X214393D01*
X214964Y132822D01*
X215535Y133393D01*
X215821Y134250D01*
Y134821D01*
X215535Y135678D01*
X214964Y136249D01*
X214393Y136535D01*
X213536D01*
X217135D02*
Y132536D01*
Y134821D02*
X217421Y135678D01*
X217992Y136249D01*
X218563Y136535D01*
X219420D01*
X229247Y132536D02*
X226962Y138535D01*
X224676Y132536D01*
X225533Y134536D02*
X228390D01*
X230646Y136535D02*
Y132536D01*
Y134821D02*
X230932Y135678D01*
X231504Y136249D01*
X232075Y136535D01*
X232932D01*
X236902Y138535D02*
Y132536D01*
Y135678D02*
X236331Y136249D01*
X235760Y136535D01*
X234903D01*
X234331Y136249D01*
X233760Y135678D01*
X233474Y134821D01*
Y134250D01*
X233760Y133393D01*
X234331Y132822D01*
X234903Y132536D01*
X235760D01*
X236331Y132822D01*
X236902Y133393D01*
X238502Y136535D02*
Y133679D01*
X238788Y132822D01*
X239359Y132536D01*
X240216D01*
X240787Y132822D01*
X241644Y133679D01*
Y136535D02*
Y132536D01*
X243787Y138535D02*
X244072Y138249D01*
X244358Y138535D01*
X244072Y138820D01*
X243787Y138535D01*
X244072Y136535D02*
Y132536D01*
X245415Y136535D02*
Y132536D01*
Y135392D02*
X246272Y136249D01*
X246843Y136535D01*
X247700D01*
X248271Y136249D01*
X248557Y135392D01*
Y132536D01*
X251556Y136535D02*
X250985Y136249D01*
X250414Y135678D01*
X250128Y134821D01*
Y134250D01*
X250414Y133393D01*
X250985Y132822D01*
X251556Y132536D01*
X252413D01*
X252985Y132822D01*
X253556Y133393D01*
X253842Y134250D01*
Y134821D01*
X253556Y135678D01*
X252985Y136249D01*
X252413Y136535D01*
X251556D01*
X259869Y138535D02*
Y132536D01*
Y138535D02*
X261868D01*
X262725Y138249D01*
X263297Y137678D01*
X263582Y137106D01*
X263868Y136249D01*
Y134821D01*
X263582Y133964D01*
X263297Y133393D01*
X262725Y132822D01*
X261868Y132536D01*
X259869D01*
X265211Y138535D02*
Y134250D01*
X265496Y133393D01*
X266068Y132822D01*
X266925Y132536D01*
X267496D01*
X268353Y132822D01*
X268924Y133393D01*
X269210Y134250D01*
Y138535D01*
X274580D02*
X270866D01*
Y132536D01*
X274580D01*
X270866Y135678D02*
X273152D01*
X185285Y127508D02*
X184999Y128079D01*
X184428Y128651D01*
X183856Y128936D01*
X182714D01*
X182143Y128651D01*
X181571Y128079D01*
X181286Y127508D01*
X181000Y126651D01*
Y125223D01*
X181286Y124366D01*
X181571Y123794D01*
X182143Y123223D01*
X182714Y122938D01*
X183856D01*
X184428Y123223D01*
X184999Y123794D01*
X185285Y124366D01*
X188398Y126937D02*
X187827Y126651D01*
X187256Y126080D01*
X186970Y125223D01*
Y124652D01*
X187256Y123794D01*
X187827Y123223D01*
X188398Y122938D01*
X189255D01*
X189827Y123223D01*
X190398Y123794D01*
X190684Y124652D01*
Y125223D01*
X190398Y126080D01*
X189827Y126651D01*
X189255Y126937D01*
X188398D01*
X191998D02*
Y122938D01*
Y125794D02*
X192855Y126651D01*
X193426Y126937D01*
X194283D01*
X194854Y126651D01*
X195140Y125794D01*
Y122938D01*
X197568Y128936D02*
Y124080D01*
X197854Y123223D01*
X198425Y122938D01*
X198996D01*
X196711Y126937D02*
X198711D01*
X199853D02*
Y122938D01*
Y125223D02*
X200139Y126080D01*
X200710Y126651D01*
X201281Y126937D01*
X202138D01*
X204109D02*
X203538Y126651D01*
X202967Y126080D01*
X202681Y125223D01*
Y124652D01*
X202967Y123794D01*
X203538Y123223D01*
X204109Y122938D01*
X204966D01*
X205538Y123223D01*
X206109Y123794D01*
X206395Y124652D01*
Y125223D01*
X206109Y126080D01*
X205538Y126651D01*
X204966Y126937D01*
X204109D01*
X207709Y128936D02*
Y122938D01*
X215964Y128936D02*
X215393D01*
X214821Y128651D01*
X214536Y127794D01*
Y122938D01*
X213679Y126937D02*
X215678D01*
X218249D02*
X217678Y126651D01*
X217107Y126080D01*
X216821Y125223D01*
Y124652D01*
X217107Y123794D01*
X217678Y123223D01*
X218249Y122938D01*
X219106D01*
X219677Y123223D01*
X220249Y123794D01*
X220534Y124652D01*
Y125223D01*
X220249Y126080D01*
X219677Y126651D01*
X219106Y126937D01*
X218249D01*
X221848D02*
Y122938D01*
Y125223D02*
X222134Y126080D01*
X222705Y126651D01*
X223277Y126937D01*
X224134D01*
X229390Y128936D02*
Y122938D01*
X233389Y128936D02*
Y122938D01*
X229390Y126080D02*
X233389D01*
X235046Y125223D02*
X238473D01*
Y125794D01*
X238188Y126365D01*
X237902Y126651D01*
X237331Y126937D01*
X236474D01*
X235903Y126651D01*
X235331Y126080D01*
X235046Y125223D01*
Y124652D01*
X235331Y123794D01*
X235903Y123223D01*
X236474Y122938D01*
X237331D01*
X237902Y123223D01*
X238473Y123794D01*
X239759Y126937D02*
X242901Y122938D01*
Y126937D02*
X239759Y122938D01*
X247586Y126937D02*
Y122938D01*
Y126080D02*
X247014Y126651D01*
X246443Y126937D01*
X245586D01*
X245015Y126651D01*
X244444Y126080D01*
X244158Y125223D01*
Y124652D01*
X244444Y123794D01*
X245015Y123223D01*
X245586Y122938D01*
X246443D01*
X247014Y123223D01*
X247586Y123794D01*
X249185Y126937D02*
Y120938D01*
Y126080D02*
X249757Y126651D01*
X250328Y126937D01*
X251185D01*
X251756Y126651D01*
X252328Y126080D01*
X252613Y125223D01*
Y124652D01*
X252328Y123794D01*
X251756Y123223D01*
X251185Y122938D01*
X250328D01*
X249757Y123223D01*
X249185Y123794D01*
X255327Y126937D02*
X254756Y126651D01*
X254184Y126080D01*
X253899Y125223D01*
Y124652D01*
X254184Y123794D01*
X254756Y123223D01*
X255327Y122938D01*
X256184D01*
X256755Y123223D01*
X257327Y123794D01*
X257612Y124652D01*
Y125223D01*
X257327Y126080D01*
X256755Y126651D01*
X256184Y126937D01*
X255327D01*
X262354Y128936D02*
Y122938D01*
Y126080D02*
X261783Y126651D01*
X261211Y126937D01*
X260354D01*
X259783Y126651D01*
X259212Y126080D01*
X258926Y125223D01*
Y124652D01*
X259212Y123794D01*
X259783Y123223D01*
X260354Y122938D01*
X261211D01*
X261783Y123223D01*
X262354Y123794D01*
X181000Y117338D02*
X183285Y111339D01*
X185571Y117338D02*
X183285Y111339D01*
X186342Y113625D02*
X189770D01*
Y114196D01*
X189484Y114767D01*
X189198Y115053D01*
X188627Y115339D01*
X187770D01*
X187199Y115053D01*
X186627Y114482D01*
X186342Y113625D01*
Y113053D01*
X186627Y112197D01*
X187199Y111625D01*
X187770Y111339D01*
X188627D01*
X189198Y111625D01*
X189770Y112197D01*
X191055Y115339D02*
Y111339D01*
Y113625D02*
X191341Y114482D01*
X191912Y115053D01*
X192483Y115339D01*
X193340D01*
X194169Y111911D02*
X193883Y111625D01*
X194169Y111339D01*
X194454Y111625D01*
X194169Y111911D01*
X200482Y116196D02*
X201053Y116481D01*
X201910Y117338D01*
Y111339D01*
X205166Y111911D02*
X204881Y111625D01*
X205166Y111339D01*
X205452Y111625D01*
X205166Y111911D01*
X208480Y117338D02*
X207623Y117053D01*
X207052Y116196D01*
X206766Y114767D01*
Y113910D01*
X207052Y112482D01*
X207623Y111625D01*
X208480Y111339D01*
X209051D01*
X209908Y111625D01*
X210479Y112482D01*
X210765Y113910D01*
Y114767D01*
X210479Y116196D01*
X209908Y117053D01*
X209051Y117338D01*
X208480D01*
X182714Y107454D02*
X182143Y107168D01*
X181571Y106597D01*
X181286Y106026D01*
X181000Y105169D01*
Y103741D01*
X181286Y102884D01*
X181571Y102312D01*
X182143Y101741D01*
X182714Y101455D01*
X183856D01*
X184428Y101741D01*
X184999Y102312D01*
X185285Y102884D01*
X185571Y103741D01*
Y105169D01*
X185285Y106026D01*
X184999Y106597D01*
X184428Y107168D01*
X183856Y107454D01*
X182714D01*
X183571Y102598D02*
X185285Y100884D01*
X186970Y105455D02*
Y102598D01*
X187256Y101741D01*
X187827Y101455D01*
X188684D01*
X189255Y101741D01*
X190112Y102598D01*
Y105455D02*
Y101455D01*
X195111Y105455D02*
Y101455D01*
Y104598D02*
X194540Y105169D01*
X193969Y105455D01*
X193112D01*
X192540Y105169D01*
X191969Y104598D01*
X191683Y103741D01*
Y103169D01*
X191969Y102312D01*
X192540Y101741D01*
X193112Y101455D01*
X193969D01*
X194540Y101741D01*
X195111Y102312D01*
X196711Y105455D02*
Y101455D01*
Y104312D02*
X197568Y105169D01*
X198139Y105455D01*
X198996D01*
X199567Y105169D01*
X199853Y104312D01*
Y101455D01*
X202281Y107454D02*
Y102598D01*
X202567Y101741D01*
X203138Y101455D01*
X203709D01*
X201424Y105455D02*
X203424D01*
X204566D02*
Y102598D01*
X204852Y101741D01*
X205423Y101455D01*
X206280D01*
X206852Y101741D01*
X207709Y102598D01*
Y105455D02*
Y101455D01*
X209280Y105455D02*
Y101455D01*
Y104312D02*
X210137Y105169D01*
X210708Y105455D01*
X211565D01*
X212136Y105169D01*
X212422Y104312D01*
Y101455D01*
Y104312D02*
X213279Y105169D01*
X213850Y105455D01*
X214707D01*
X215278Y105169D01*
X215564Y104312D01*
Y101455D01*
X222163Y107454D02*
Y101455D01*
Y107454D02*
X224733D01*
X225590Y107168D01*
X225876Y106883D01*
X226162Y106312D01*
Y105740D01*
X225876Y105169D01*
X225590Y104883D01*
X224733Y104598D01*
X222163D01*
X224162D02*
X226162Y101455D01*
X228933Y105455D02*
X228361Y105169D01*
X227790Y104598D01*
X227504Y103741D01*
Y103169D01*
X227790Y102312D01*
X228361Y101741D01*
X228933Y101455D01*
X229790D01*
X230361Y101741D01*
X230932Y102312D01*
X231218Y103169D01*
Y103741D01*
X230932Y104598D01*
X230361Y105169D01*
X229790Y105455D01*
X228933D01*
X232532Y107454D02*
Y101455D01*
Y104598D02*
X233103Y105169D01*
X233674Y105455D01*
X234531D01*
X235103Y105169D01*
X235674Y104598D01*
X235960Y103741D01*
Y103169D01*
X235674Y102312D01*
X235103Y101741D01*
X234531Y101455D01*
X233674D01*
X233103Y101741D01*
X232532Y102312D01*
X238673Y105455D02*
X238102Y105169D01*
X237531Y104598D01*
X237245Y103741D01*
Y103169D01*
X237531Y102312D01*
X238102Y101741D01*
X238673Y101455D01*
X239530D01*
X240102Y101741D01*
X240673Y102312D01*
X240959Y103169D01*
Y103741D01*
X240673Y104598D01*
X240102Y105169D01*
X239530Y105455D01*
X238673D01*
X243130Y107454D02*
Y102598D01*
X243415Y101741D01*
X243987Y101455D01*
X244558D01*
X242273Y105455D02*
X244272D01*
X245986Y107454D02*
X246272Y107168D01*
X246557Y107454D01*
X246272Y107740D01*
X245986Y107454D01*
X246272Y105455D02*
Y101455D01*
X251042Y104598D02*
X250471Y105169D01*
X249900Y105455D01*
X249043D01*
X248471Y105169D01*
X247900Y104598D01*
X247614Y103741D01*
Y103169D01*
X247900Y102312D01*
X248471Y101741D01*
X249043Y101455D01*
X249900D01*
X250471Y101741D01*
X251042Y102312D01*
X255470Y104598D02*
X255184Y105169D01*
X254327Y105455D01*
X253470D01*
X252613Y105169D01*
X252328Y104598D01*
X252613Y104026D01*
X253185Y103741D01*
X254613Y103455D01*
X255184Y103169D01*
X255470Y102598D01*
Y102312D01*
X255184Y101741D01*
X254327Y101455D01*
X253470D01*
X252613Y101741D01*
X252328Y102312D01*
X181000Y96999D02*
Y91000D01*
Y96999D02*
X183000D01*
X183856Y96713D01*
X184428Y96142D01*
X184713Y95570D01*
X184999Y94713D01*
Y93285D01*
X184713Y92428D01*
X184428Y91857D01*
X183856Y91286D01*
X183000Y91000D01*
X181000D01*
X189770Y94999D02*
Y91000D01*
Y94142D02*
X189198Y94713D01*
X188627Y94999D01*
X187770D01*
X187199Y94713D01*
X186627Y94142D01*
X186342Y93285D01*
Y92714D01*
X186627Y91857D01*
X187199Y91286D01*
X187770Y91000D01*
X188627D01*
X189198Y91286D01*
X189770Y91857D01*
X191369Y94999D02*
Y91000D01*
Y93857D02*
X192226Y94713D01*
X192798Y94999D01*
X193654D01*
X194226Y94713D01*
X194511Y93857D01*
Y91000D01*
X196654Y96999D02*
X196939Y96713D01*
X197225Y96999D01*
X196939Y97284D01*
X196654Y96999D01*
X196939Y94999D02*
Y91000D01*
X198282Y93285D02*
X201710D01*
Y93857D01*
X201424Y94428D01*
X201138Y94713D01*
X200567Y94999D01*
X199710D01*
X199139Y94713D01*
X198568Y94142D01*
X198282Y93285D01*
Y92714D01*
X198568Y91857D01*
X199139Y91286D01*
X199710Y91000D01*
X200567D01*
X201138Y91286D01*
X201710Y91857D01*
X202995Y96999D02*
Y91000D01*
X208965Y93857D02*
X211536D01*
X212393Y94142D01*
X212679Y94428D01*
X212965Y94999D01*
Y95856D01*
X212679Y96427D01*
X212393Y96713D01*
X211536Y96999D01*
X208965D01*
Y91000D01*
X215735Y94999D02*
X215164Y94713D01*
X214593Y94142D01*
X214307Y93285D01*
Y92714D01*
X214593Y91857D01*
X215164Y91286D01*
X215735Y91000D01*
X216592D01*
X217164Y91286D01*
X217735Y91857D01*
X218021Y92714D01*
Y93285D01*
X217735Y94142D01*
X217164Y94713D01*
X216592Y94999D01*
X215735D01*
X219335Y96999D02*
Y91000D01*
X224019Y94999D02*
Y91000D01*
Y94142D02*
X223448Y94713D01*
X222877Y94999D01*
X222020D01*
X221448Y94713D01*
X220877Y94142D01*
X220591Y93285D01*
Y92714D01*
X220877Y91857D01*
X221448Y91286D01*
X222020Y91000D01*
X222877D01*
X223448Y91286D01*
X224019Y91857D01*
X225619Y94999D02*
Y91000D01*
Y93857D02*
X226476Y94713D01*
X227047Y94999D01*
X227904D01*
X228475Y94713D01*
X228761Y93857D01*
Y91000D01*
X233760Y94142D02*
X233189Y94713D01*
X232617Y94999D01*
X231761D01*
X231189Y94713D01*
X230618Y94142D01*
X230332Y93285D01*
Y92714D01*
X230618Y91857D01*
X231189Y91286D01*
X231761Y91000D01*
X232617D01*
X233189Y91286D01*
X233760Y91857D01*
X236474Y94999D02*
X235903Y94713D01*
X235331Y94142D01*
X235046Y93285D01*
Y92714D01*
X235331Y91857D01*
X235903Y91286D01*
X236474Y91000D01*
X237331D01*
X237902Y91286D01*
X238473Y91857D01*
X238759Y92714D01*
Y93285D01*
X238473Y94142D01*
X237902Y94713D01*
X237331Y94999D01*
X236474D01*
X85999Y122998D02*
X84999Y123998D01*
X83000D01*
X82000Y122998D01*
Y119000D01*
X83000Y118000D01*
X84999D01*
X85999Y119000D01*
X87998Y118000D02*
X89997D01*
X88998D01*
Y123998D01*
X87998Y122998D01*
X130699Y123898D02*
X129699Y124898D01*
X127700D01*
X126700Y123898D01*
Y119900D01*
X127700Y118900D01*
X129699D01*
X130699Y119900D01*
X136697Y118900D02*
X132698D01*
X136697Y122899D01*
Y123898D01*
X135697Y124898D01*
X133698D01*
X132698Y123898D01*
X15699D02*
X14699Y124898D01*
X12700D01*
X11700Y123898D01*
Y119900D01*
X12700Y118900D01*
X14699D01*
X15699Y119900D01*
X17698Y123898D02*
X18698Y124898D01*
X20697D01*
X21697Y123898D01*
Y122899D01*
X20697Y121899D01*
X19697D01*
X20697D01*
X21697Y120899D01*
Y119900D01*
X20697Y118900D01*
X18698D01*
X17698Y119900D01*
X64999Y122998D02*
X63999Y123998D01*
X62000D01*
X61000Y122998D01*
Y119000D01*
X62000Y118000D01*
X63999D01*
X64999Y119000D01*
X69997Y118000D02*
Y123998D01*
X66998Y120999D01*
X70997D01*
X69999Y70998D02*
X68999Y71998D01*
X67000D01*
X66000Y70998D01*
Y67000D01*
X67000Y66000D01*
X68999D01*
X69999Y67000D01*
X75997Y71998D02*
X71998D01*
Y68999D01*
X73997Y69999D01*
X74997D01*
X75997Y68999D01*
Y67000D01*
X74997Y66000D01*
X72998D01*
X71998Y67000D01*
X96999Y69998D02*
X95999Y70998D01*
X94000D01*
X93000Y69998D01*
Y66000D01*
X94000Y65000D01*
X95999D01*
X96999Y66000D01*
X102997Y70998D02*
X100997Y69998D01*
X98998Y67999D01*
Y66000D01*
X99998Y65000D01*
X101997D01*
X102997Y66000D01*
Y66999D01*
X101997Y67999D01*
X98998D01*
X144999Y61998D02*
X141000D01*
Y58999D01*
X142999Y59999D01*
X143999D01*
X144999Y58999D01*
Y57000D01*
X143999Y56000D01*
X142000D01*
X141000Y57000D01*
X146998Y61998D02*
Y57999D01*
X148997Y56000D01*
X150997Y57999D01*
Y61998D01*
X141000Y43998D02*
X142000Y44998D01*
X143999D01*
X144999Y43998D01*
Y42999D01*
X143999Y41999D01*
X142999D01*
X143999D01*
X144999Y40999D01*
Y40000D01*
X143999Y39000D01*
X142000D01*
X141000Y40000D01*
X146998Y39000D02*
Y40000D01*
X147998D01*
Y39000D01*
X146998D01*
X151996Y43998D02*
X152996Y44998D01*
X154996D01*
X155995Y43998D01*
Y42999D01*
X154996Y41999D01*
X153996D01*
X154996D01*
X155995Y40999D01*
Y40000D01*
X154996Y39000D01*
X152996D01*
X151996Y40000D01*
X157994Y44998D02*
Y40999D01*
X159994Y39000D01*
X161993Y40999D01*
Y44998D01*
X143666Y25332D02*
X142999Y25999D01*
X141666D01*
X141000Y25332D01*
Y24666D01*
X141666Y23999D01*
X142999D01*
X143666Y23333D01*
Y22667D01*
X142999Y22000D01*
X141666D01*
X141000Y22667D01*
X146998Y22000D02*
X145665D01*
X144999Y22667D01*
Y23999D01*
X145665Y24666D01*
X146998D01*
X147664Y23999D01*
Y23333D01*
X144999D01*
X148997Y24666D02*
Y22000D01*
Y23333D01*
X149664Y23999D01*
X150330Y24666D01*
X150997D01*
X152996D02*
X154329Y22000D01*
X155662Y24666D01*
X157661Y22000D02*
X158994D01*
X159661Y22667D01*
Y23999D01*
X158994Y24666D01*
X157661D01*
X156995Y23999D01*
Y22667D01*
X157661Y22000D01*
X160994D02*
Y25999D01*
X162326Y24666D01*
X163659Y25999D01*
Y22000D01*
X165659D02*
X166992D01*
X167658Y22667D01*
Y23999D01*
X166992Y24666D01*
X165659D01*
X164992Y23999D01*
Y22667D01*
X165659Y22000D01*
X169657Y25332D02*
Y24666D01*
X168991D01*
X170324D01*
X169657D01*
Y22667D01*
X170324Y22000D01*
X172990D02*
X174323D01*
X174989Y22667D01*
Y23999D01*
X174323Y24666D01*
X172990D01*
X172323Y23999D01*
Y22667D01*
X172990Y22000D01*
X176322Y24666D02*
Y22000D01*
Y23333D01*
X176988Y23999D01*
X177655Y24666D01*
X178321D01*
X182320Y22000D02*
X180987D01*
X180321Y22667D01*
Y23999D01*
X180987Y24666D01*
X182320D01*
X182986Y23999D01*
Y23333D01*
X180321D01*
X184319Y22000D02*
X186319D01*
X186985Y22667D01*
X186319Y23333D01*
X184986D01*
X184319Y23999D01*
X184986Y24666D01*
X186985D01*
X181666Y37332D02*
X180999Y37999D01*
X179666D01*
X179000Y37332D01*
Y36666D01*
X179666Y35999D01*
X180999D01*
X181666Y35333D01*
Y34666D01*
X180999Y34000D01*
X179666D01*
X179000Y34666D01*
X182999Y37999D02*
X185664D01*
X184332D01*
Y34000D01*
X186997D02*
Y36666D01*
X188330Y37999D01*
X189663Y36666D01*
Y34000D01*
Y35999D01*
X186997D01*
X190996Y37999D02*
X193662D01*
X192329D01*
Y34000D01*
X194995Y37999D02*
Y34666D01*
X195661Y34000D01*
X196994D01*
X197661Y34666D01*
Y37999D01*
X201659Y37332D02*
X200993Y37999D01*
X199660D01*
X198994Y37332D01*
Y36666D01*
X199660Y35999D01*
X200993D01*
X201659Y35333D01*
Y34666D01*
X200993Y34000D01*
X199660D01*
X198994Y34666D01*
X206991Y37999D02*
Y34000D01*
X208990D01*
X209657Y34666D01*
Y37332D01*
X208990Y37999D01*
X206991D01*
X210990D02*
Y34666D01*
X211656Y34000D01*
X212989D01*
X213655Y34666D01*
Y37999D01*
X217654D02*
X214988D01*
Y34000D01*
X217654D01*
X214988Y35999D02*
X216321D01*
X185666Y65332D02*
X184999Y65999D01*
X183667D01*
X183000Y65332D01*
Y64666D01*
X183667Y63999D01*
X184999D01*
X185666Y63333D01*
Y62666D01*
X184999Y62000D01*
X183667D01*
X183000Y62666D01*
X187665Y65332D02*
Y64666D01*
X186999D01*
X188332D01*
X187665D01*
Y62666D01*
X188332Y62000D01*
X190997Y64666D02*
X192330D01*
X192997Y63999D01*
Y62000D01*
X190997D01*
X190331Y62666D01*
X190997Y63333D01*
X192997D01*
X194996Y65332D02*
Y64666D01*
X194330D01*
X195663D01*
X194996D01*
Y62666D01*
X195663Y62000D01*
X197662Y64666D02*
Y62666D01*
X198328Y62000D01*
X200328D01*
Y64666D01*
X201661Y62000D02*
X203660D01*
X204326Y62666D01*
X203660Y63333D01*
X202327D01*
X201661Y63999D01*
X202327Y64666D01*
X204326D01*
X212324Y65332D02*
X211657Y65999D01*
X210325D01*
X209658Y65332D01*
Y64666D01*
X210325Y63999D01*
X211657D01*
X212324Y63333D01*
Y62666D01*
X211657Y62000D01*
X210325D01*
X209658Y62666D01*
X213657Y65999D02*
Y62000D01*
X215656D01*
X216323Y62666D01*
Y65332D01*
X215656Y65999D01*
X213657D01*
X328002Y126999D02*
Y125000D01*
X329002Y124000D01*
X333000D01*
X334000Y125000D01*
Y126999D01*
X333000Y127999D01*
X329002D01*
X328002Y126999D01*
X329002Y133997D02*
X328002Y132997D01*
Y130998D01*
X329002Y129998D01*
X330001D01*
X331001Y130998D01*
Y132997D01*
X332001Y133997D01*
X333000D01*
X334000Y132997D01*
Y130998D01*
X333000Y129998D01*
X334000Y135996D02*
Y137996D01*
Y136996D01*
X328002D01*
X329002Y135996D01*
X8000Y18000D02*
Y23998D01*
X10999D01*
X11999Y22998D01*
Y20999D01*
X10999Y19999D01*
X8000D01*
X13998Y18000D02*
X15997D01*
X14998D01*
Y23998D01*
X13998Y22998D01*
X56000Y18000D02*
Y23998D01*
X58999D01*
X59999Y22998D01*
Y20999D01*
X58999Y19999D01*
X56000D01*
X65997Y18000D02*
X61998D01*
X65997Y21999D01*
Y22998D01*
X64997Y23998D01*
X62998D01*
X61998Y22998D01*
X71000Y176000D02*
Y170002D01*
X69001Y172001D01*
X67001Y170002D01*
Y176000D01*
X65002D02*
Y170002D01*
X62003D01*
X61003Y171002D01*
Y173001D01*
X62003Y174001D01*
X65002D01*
X59004Y170002D02*
Y175000D01*
X58004Y176000D01*
X56005D01*
X55005Y175000D01*
Y170002D01*
X43009D02*
X45008Y171002D01*
X47008Y173001D01*
Y175000D01*
X46008Y176000D01*
X44009D01*
X43009Y175000D01*
Y174001D01*
X44009Y173001D01*
X47008D01*
X41010Y171002D02*
X40010Y170002D01*
X38011D01*
X37011Y171002D01*
Y175000D01*
X38011Y176000D01*
X40010D01*
X41010Y175000D01*
Y171002D01*
X31013Y170002D02*
X35012D01*
Y173001D01*
X33012Y172001D01*
X32013D01*
X31013Y173001D01*
Y175000D01*
X32013Y176000D01*
X34012D01*
X35012Y175000D01*
X29014Y171002D02*
X28014Y170002D01*
X26015D01*
X25015Y171002D01*
Y175000D01*
X26015Y176000D01*
X28014D01*
X29014Y175000D01*
Y171002D01*
X328000Y164998D02*
Y159000D01*
X331999D01*
X337997Y164998D02*
X333998D01*
Y159000D01*
X337997D01*
X333998Y161999D02*
X335997D01*
X343995Y163998D02*
X342995Y164998D01*
X340996D01*
X339996Y163998D01*
Y160000D01*
X340996Y159000D01*
X342995D01*
X343995Y160000D01*
Y161999D01*
X341996D01*
X345994Y159000D02*
X347993D01*
X346994D01*
Y164998D01*
X345994Y163998D01*
X283000Y164998D02*
Y159000D01*
X286999D01*
X292997Y164998D02*
X288998D01*
Y159000D01*
X292997D01*
X288998Y161999D02*
X290997D01*
X298995Y163998D02*
X297995Y164998D01*
X295996D01*
X294996Y163998D01*
Y160000D01*
X295996Y159000D01*
X297995D01*
X298995Y160000D01*
Y161999D01*
X296995D01*
X304993Y159000D02*
X300994D01*
X304993Y162999D01*
Y163998D01*
X303993Y164998D01*
X301994D01*
X300994Y163998D01*
X238000Y164998D02*
Y159000D01*
X241999D01*
X247997Y164998D02*
X243998D01*
Y159000D01*
X247997D01*
X243998Y161999D02*
X245997D01*
X253995Y163998D02*
X252995Y164998D01*
X250996D01*
X249996Y163998D01*
Y160000D01*
X250996Y159000D01*
X252995D01*
X253995Y160000D01*
Y161999D01*
X251995D01*
X255994Y163998D02*
X256994Y164998D01*
X258993D01*
X259993Y163998D01*
Y162999D01*
X258993Y161999D01*
X257994D01*
X258993D01*
X259993Y160999D01*
Y160000D01*
X258993Y159000D01*
X256994D01*
X255994Y160000D01*
X193000Y164998D02*
Y159000D01*
X196999D01*
X202997Y164998D02*
X198998D01*
Y159000D01*
X202997D01*
X198998Y161999D02*
X200997D01*
X208995Y163998D02*
X207995Y164998D01*
X205996D01*
X204996Y163998D01*
Y160000D01*
X205996Y159000D01*
X207995D01*
X208995Y160000D01*
Y161999D01*
X206996D01*
X213993Y159000D02*
Y164998D01*
X210994Y161999D01*
X214993D01*
X152000Y165999D02*
Y162000D01*
X154666D01*
X158665Y165999D02*
X155999D01*
Y162000D01*
X158665D01*
X155999Y163999D02*
X157332D01*
X162663Y165332D02*
X161997Y165999D01*
X160664D01*
X159997Y165332D01*
Y162666D01*
X160664Y162000D01*
X161997D01*
X162663Y162666D01*
Y163999D01*
X161330D01*
X166662Y165999D02*
X163996D01*
Y163999D01*
X165329Y164666D01*
X165996D01*
X166662Y163999D01*
Y162666D01*
X165996Y162000D01*
X164663D01*
X163996Y162666D01*
X108000Y165999D02*
Y162000D01*
X110666D01*
X114664Y165999D02*
X111999D01*
Y162000D01*
X114664D01*
X111999Y163999D02*
X113332D01*
X118663Y165332D02*
X117997Y165999D01*
X116664D01*
X115997Y165332D01*
Y162666D01*
X116664Y162000D01*
X117997D01*
X118663Y162666D01*
Y163999D01*
X117330D01*
X122662Y165999D02*
X121329Y165332D01*
X119996Y163999D01*
Y162666D01*
X120663Y162000D01*
X121995D01*
X122662Y162666D01*
Y163333D01*
X121995Y163999D01*
X119996D01*
X100000Y79000D02*
Y84998D01*
X102999D01*
X103999Y83998D01*
Y81999D01*
X102999Y80999D01*
X100000D01*
X105998Y79000D02*
Y84998D01*
X108997D01*
X109997Y83998D01*
Y81999D01*
X108997Y80999D01*
X105998D01*
X107997D02*
X109997Y79000D01*
X111996Y81999D02*
X115995D01*
X117994Y79000D02*
X119994D01*
X118994D01*
Y84998D01*
X117994Y83998D01*
X33157Y77000D02*
Y82998D01*
X36156D01*
X37156Y81998D01*
Y79999D01*
X36156Y78999D01*
X33157D01*
X39156Y77000D02*
Y82998D01*
X42154D01*
X43154Y81998D01*
Y79999D01*
X42154Y78999D01*
X39156D01*
X41155D02*
X43154Y77000D01*
X45154Y79999D02*
X49152D01*
X55150Y77000D02*
X51152D01*
X55150Y80999D01*
Y81998D01*
X54151Y82998D01*
X52151D01*
X51152Y81998D01*
X111000Y22000D02*
X105002D01*
Y24999D01*
X106002Y25999D01*
X108001D01*
X109001Y24999D01*
Y22000D01*
X111000Y27998D02*
X105002D01*
Y30997D01*
X106002Y31997D01*
X108001D01*
X109001Y30997D01*
Y27998D01*
Y29997D02*
X111000Y31997D01*
X108001Y33996D02*
Y37995D01*
X106002Y39994D02*
X105002Y40994D01*
Y42993D01*
X106002Y43993D01*
X107001D01*
X108001Y42993D01*
Y41993D01*
Y42993D01*
X109001Y43993D01*
X110000D01*
X111000Y42993D01*
Y40994D01*
X110000Y39994D01*
X341600Y121400D02*
Y127398D01*
X344599D01*
X345599Y126398D01*
Y124399D01*
X344599Y123399D01*
X341600D01*
X343599D02*
X345599Y121400D01*
X351597Y127398D02*
X347598D01*
Y124399D01*
X349597D01*
X347598D01*
Y121400D01*
X353596D02*
X355595D01*
X354596D01*
Y127398D01*
X353596Y126398D01*
X25999Y66998D02*
X24999Y67998D01*
X23000D01*
X22000Y66998D01*
Y65999D01*
X23000Y64999D01*
X24999D01*
X25999Y63999D01*
Y63000D01*
X24999Y62000D01*
X23000D01*
X22000Y63000D01*
X27998Y67998D02*
Y62000D01*
X29997Y63999D01*
X31997Y62000D01*
Y67998D01*
X33996Y62000D02*
X35996D01*
X34996D01*
Y67998D01*
X33996Y66998D01*
X280000Y19000D02*
X276001D01*
X274002Y20999D01*
X276001Y22999D01*
X280000D01*
X277001D01*
Y19000D01*
X275002Y25998D02*
X276001D01*
Y24998D01*
Y26997D01*
Y25998D01*
X279000D01*
X280000Y26997D01*
Y29996D02*
X276001D01*
Y30996D01*
X277001Y31996D01*
X280000D01*
X277001D01*
X276001Y32996D01*
X277001Y33995D01*
X280000D01*
Y38993D02*
Y36994D01*
X279000Y35994D01*
X277001D01*
X276001Y36994D01*
Y38993D01*
X277001Y39993D01*
X278001D01*
Y35994D01*
X281999Y43992D02*
Y44992D01*
X281000Y45991D01*
X276001D01*
Y42992D01*
X277001Y41993D01*
X279000D01*
X280000Y42992D01*
Y45991D01*
X276001Y48990D02*
Y50990D01*
X277001Y51989D01*
X280000D01*
Y48990D01*
X279000Y47991D01*
X278001Y48990D01*
Y51989D01*
X275002Y53989D02*
X274002Y54988D01*
Y56988D01*
X275002Y57987D01*
X276001D01*
X277001Y56988D01*
Y55988D01*
Y56988D01*
X278001Y57987D01*
X279000D01*
X280000Y56988D01*
Y54988D01*
X279000Y53989D01*
X280000Y63986D02*
Y59987D01*
X276001Y63986D01*
X275002D01*
X274002Y62986D01*
Y60986D01*
X275002Y59987D01*
Y65985D02*
X274002Y66984D01*
Y68984D01*
X275002Y69984D01*
X276001D01*
X277001Y68984D01*
X278001Y69984D01*
X279000D01*
X280000Y68984D01*
Y66984D01*
X279000Y65985D01*
X278001D01*
X277001Y66984D01*
X276001Y65985D01*
X275002D01*
X277001Y66984D02*
Y68984D01*
X281999Y71983D02*
X276001D01*
Y74982D01*
X277001Y75982D01*
X279000D01*
X280000Y74982D01*
Y71983D01*
D36*
X23232Y96360D02*
X24034Y96946D01*
X24756Y97627D01*
X25387Y98395D01*
X25916Y99235D01*
X26334Y100135D01*
X26637Y101081D01*
X26817Y102058D01*
X26874Y103049D01*
X26805Y104040D01*
X26612Y105014D01*
X26298Y105956D01*
X25868Y106851D01*
X25329Y107684D01*
X24689Y108444D01*
X23959Y109116D01*
X23149Y109692D01*
X22274Y110161D01*
X15726Y110161D02*
X14851Y109692D01*
X14041Y109116D01*
X13311Y108444D01*
X12671Y107685D01*
X12132Y106851D01*
X11702Y105956D01*
X11388Y105014D01*
X11195Y104040D01*
X11126Y103049D01*
X11183Y102058D01*
X11363Y101081D01*
X11666Y100135D01*
X12084Y99235D01*
X12613Y98395D01*
X13244Y97627D01*
X13966Y96946D01*
X14768Y96360D01*
X138232D02*
X139034Y96946D01*
X139756Y97627D01*
X140387Y98395D01*
X140916Y99235D01*
X141334Y100135D01*
X141637Y101081D01*
X141817Y102058D01*
X141874Y103049D01*
X141805Y104040D01*
X141612Y105014D01*
X141298Y105956D01*
X140868Y106851D01*
X140329Y107684D01*
X139689Y108444D01*
X138959Y109116D01*
X138150Y109692D01*
X137274Y110161D01*
X130726Y110161D02*
X129850Y109692D01*
X129041Y109116D01*
X128311Y108444D01*
X127671Y107685D01*
X127132Y106851D01*
X126702Y105956D01*
X126388Y105014D01*
X126195Y104040D01*
X126126Y103049D01*
X126183Y102058D01*
X126363Y101081D01*
X126666Y100135D01*
X127085Y99235D01*
X127613Y98395D01*
X128244Y97627D01*
X128966Y96946D01*
X129768Y96360D01*
X101378Y86504D02*
X100591D01*
X101378D01*
X136045Y64549D02*
X135271Y65165D01*
X134423Y65673D01*
X133516Y66066D01*
X132564Y66335D01*
X131586Y66477D01*
X130597Y66489D01*
X129616Y66371D01*
X128658Y66125D01*
X127741Y65755D01*
X126881Y65268D01*
X126092Y64671D01*
X125389Y63977D01*
X124783Y63195D01*
X124285Y62341D01*
X123904Y61429D01*
X123646Y60474D01*
X123516Y59494D01*
Y58506D01*
X123646Y57526D01*
X123904Y56571D01*
X124285Y55659D01*
X124783Y54805D01*
X125389Y54023D01*
X126092Y53329D01*
X126881Y52732D01*
X127741Y52245D01*
X128658Y51875D01*
X129616Y51629D01*
X130597Y51511D01*
X131586Y51523D01*
X132564Y51665D01*
X133516Y51934D01*
X134423Y52327D01*
X135271Y52835D01*
X136045Y53451D01*
Y47550D02*
X135271Y48165D01*
X134423Y48673D01*
X133516Y49066D01*
X132564Y49335D01*
X131586Y49477D01*
X130597Y49489D01*
X129616Y49371D01*
X128658Y49125D01*
X127741Y48755D01*
X126881Y48268D01*
X126092Y47671D01*
X125389Y46977D01*
X124783Y46195D01*
X124285Y45341D01*
X123904Y44429D01*
X123646Y43474D01*
X123516Y42494D01*
Y41506D01*
X123646Y40526D01*
X123904Y39571D01*
X124285Y38659D01*
X124783Y37805D01*
X125389Y37023D01*
X126092Y36329D01*
X126881Y35732D01*
X127741Y35245D01*
X128658Y34875D01*
X129616Y34629D01*
X130597Y34511D01*
X131586Y34523D01*
X132564Y34665D01*
X133516Y34934D01*
X134423Y35327D01*
X135271Y35835D01*
X136045Y36450D01*
X34378Y85783D02*
X33591D01*
X34378D01*
X304500Y18315D02*
X304310Y19272D01*
X303768Y20083D01*
X302957Y20625D01*
X302000Y20815D01*
X301043Y20625D01*
X300232Y20083D01*
X299690Y19272D01*
X299500Y18315D01*
X136045Y30549D02*
X135271Y31165D01*
X134423Y31673D01*
X133516Y32065D01*
X132564Y32335D01*
X131586Y32477D01*
X130597Y32489D01*
X129616Y32371D01*
X128658Y32125D01*
X127741Y31755D01*
X126881Y31268D01*
X126092Y30672D01*
X125389Y29977D01*
X124783Y29195D01*
X124285Y28341D01*
X123904Y27429D01*
X123646Y26474D01*
X123516Y25494D01*
Y24506D01*
X123646Y23526D01*
X123904Y22571D01*
X124285Y21659D01*
X124783Y20805D01*
X125389Y20023D01*
X126092Y19329D01*
X126881Y18732D01*
X127741Y18245D01*
X128658Y17875D01*
X129616Y17629D01*
X130597Y17511D01*
X131586Y17523D01*
X132564Y17665D01*
X133516Y17934D01*
X134423Y18327D01*
X135271Y18835D01*
X136045Y19451D01*
X64360Y51768D02*
X64946Y50966D01*
X65627Y50244D01*
X66395Y49613D01*
X67235Y49084D01*
X68135Y48666D01*
X69081Y48363D01*
X70058Y48183D01*
X71049Y48126D01*
X72040Y48195D01*
X73014Y48388D01*
X73956Y48702D01*
X74851Y49132D01*
X75684Y49671D01*
X76444Y50311D01*
X77117Y51041D01*
X77692Y51850D01*
X78161Y52726D01*
Y59274D02*
X77692Y60150D01*
X77117Y60959D01*
X76444Y61689D01*
X75684Y62329D01*
X74851Y62868D01*
X73956Y63298D01*
X73014Y63612D01*
X72040Y63805D01*
X71049Y63874D01*
X70058Y63817D01*
X69081Y63637D01*
X68135Y63334D01*
X67235Y62915D01*
X66395Y62387D01*
X65627Y61756D01*
X64946Y61034D01*
X64360Y60232D01*
X104640Y60232D02*
X104054Y61034D01*
X103373Y61756D01*
X102605Y62387D01*
X101765Y62916D01*
X100865Y63334D01*
X99919Y63637D01*
X98942Y63817D01*
X97951Y63874D01*
X96961Y63805D01*
X95986Y63612D01*
X95044Y63298D01*
X94149Y62868D01*
X93316Y62329D01*
X92556Y61689D01*
X91883Y60959D01*
X91308Y60150D01*
X90839Y59274D01*
Y52726D02*
X91308Y51850D01*
X91883Y51041D01*
X92556Y50311D01*
X93316Y49671D01*
X94149Y49132D01*
X95044Y48702D01*
X95986Y48388D01*
X96961Y48195D01*
X97951Y48126D01*
X98942Y48183D01*
X99919Y48363D01*
X100865Y48666D01*
X101765Y49084D01*
X102605Y49613D01*
X103373Y50244D01*
X104054Y50966D01*
X104640Y51768D01*
X90232Y96360D02*
X91034Y96946D01*
X91756Y97627D01*
X92387Y98395D01*
X92916Y99235D01*
X93334Y100135D01*
X93637Y101081D01*
X93817Y102058D01*
X93874Y103049D01*
X93805Y104040D01*
X93612Y105014D01*
X93298Y105956D01*
X92868Y106851D01*
X92329Y107684D01*
X91689Y108444D01*
X90959Y109116D01*
X90150Y109692D01*
X89274Y110161D01*
X82726Y110161D02*
X81850Y109692D01*
X81041Y109116D01*
X80311Y108444D01*
X79671Y107685D01*
X79132Y106851D01*
X78702Y105956D01*
X78388Y105014D01*
X78195Y104040D01*
X78126Y103049D01*
X78183Y102058D01*
X78363Y101081D01*
X78666Y100135D01*
X79084Y99235D01*
X79613Y98395D01*
X80244Y97627D01*
X80966Y96946D01*
X81768Y96360D01*
X71232D02*
X72034Y96946D01*
X72756Y97627D01*
X73387Y98395D01*
X73916Y99235D01*
X74334Y100135D01*
X74637Y101081D01*
X74817Y102058D01*
X74874Y103049D01*
X74805Y104040D01*
X74612Y105014D01*
X74298Y105956D01*
X73868Y106851D01*
X73329Y107684D01*
X72689Y108444D01*
X71959Y109116D01*
X71149Y109692D01*
X70274Y110161D01*
X63726Y110161D02*
X62850Y109692D01*
X62041Y109116D01*
X61311Y108444D01*
X60671Y107685D01*
X60132Y106851D01*
X59702Y105956D01*
X59388Y105014D01*
X59195Y104040D01*
X59126Y103049D01*
X59183Y102058D01*
X59363Y101081D01*
X59666Y100135D01*
X60084Y99235D01*
X60613Y98395D01*
X61244Y97627D01*
X61966Y96946D01*
X62768Y96360D01*
X341000Y78000D02*
Y118000D01*
X361000Y78000D02*
Y118000D01*
X341000D02*
X361000D01*
X341000Y78000D02*
X361000D01*
X8000Y178000D02*
X88000D01*
Y188000D01*
X8000D02*
X88000D01*
X8000Y178000D02*
Y188000D01*
X189000Y187000D02*
X219000D01*
Y167000D02*
Y187000D01*
X189000Y167000D02*
X219000D01*
X189000D02*
Y187000D01*
X136045Y63045D02*
Y64550D01*
Y53450D02*
Y54955D01*
Y46045D02*
Y47550D01*
Y36450D02*
Y37955D01*
X234000Y187000D02*
X264000D01*
Y167000D02*
Y187000D01*
X234000Y167000D02*
X264000D01*
X234000D02*
Y187000D01*
X279000D02*
X309000D01*
Y167000D02*
Y187000D01*
X279000Y167000D02*
X309000D01*
X279000D02*
Y187000D01*
X324000D02*
X354000D01*
Y167000D02*
Y187000D01*
X324000Y167000D02*
X354000D01*
X324000D02*
Y187000D01*
X100000D02*
X130000D01*
Y167000D02*
Y187000D01*
X100000Y167000D02*
X130000D01*
X100000D02*
Y187000D01*
X144000D02*
X174000D01*
Y167000D02*
Y187000D01*
X144000Y167000D02*
X174000D01*
X144000D02*
Y187000D01*
X312433Y18315D02*
Y157685D01*
X291567Y18315D02*
Y157685D01*
X304500Y18315D02*
X312433D01*
X291567D02*
X299500D01*
X291567Y157685D02*
X312433D01*
X136045Y29045D02*
Y30550D01*
Y19450D02*
Y20955D01*
D37*
X242614Y31000D02*
X242571Y31998D01*
X242442Y32989D01*
X242229Y33966D01*
X241933Y34920D01*
X241555Y35845D01*
X241100Y36735D01*
X240569Y37582D01*
X239968Y38380D01*
X239300Y39124D01*
X238571Y39807D01*
X237786Y40425D01*
X236951Y40974D01*
X236071Y41449D01*
X235154Y41846D01*
X234207Y42163D01*
X233235Y42397D01*
X232247Y42547D01*
X231250Y42612D01*
X230251Y42590D01*
X229257Y42483D01*
X228277Y42290D01*
X227316Y42014D01*
X226383Y41657D01*
X225484Y41221D01*
X224626Y40709D01*
X223815Y40125D01*
X223057Y39473D01*
X222358Y38759D01*
X221723Y37987D01*
X221157Y37164D01*
X220663Y36295D01*
X220246Y35387D01*
X219909Y34446D01*
X219654Y33480D01*
X219482Y32495D01*
X219397Y31500D01*
Y30500D01*
X219482Y29505D01*
X219654Y28520D01*
X219909Y27554D01*
X220246Y26613D01*
X220663Y25705D01*
X221157Y24836D01*
X221723Y24013D01*
X222358Y23241D01*
X223057Y22527D01*
X223815Y21875D01*
X224626Y21291D01*
X225484Y20779D01*
X226383Y20343D01*
X227316Y19986D01*
X228276Y19710D01*
X229257Y19517D01*
X230251Y19410D01*
X231250Y19388D01*
X232247Y19453D01*
X233235Y19603D01*
X234207Y19837D01*
X235154Y20154D01*
X236071Y20551D01*
X236951Y21026D01*
X237786Y21575D01*
X238571Y22193D01*
X239300Y22876D01*
X239968Y23620D01*
X240569Y24418D01*
X241100Y25265D01*
X241555Y26155D01*
X241933Y27080D01*
X242229Y28034D01*
X242442Y29011D01*
X242571Y30002D01*
X242614Y31000D01*
X242465Y56000D02*
X242422Y56998D01*
X242293Y57989D01*
X242079Y58966D01*
X241783Y59920D01*
X241406Y60845D01*
X240950Y61735D01*
X240420Y62582D01*
X239818Y63380D01*
X239151Y64124D01*
X238422Y64807D01*
X237636Y65425D01*
X236801Y65974D01*
X235922Y66448D01*
X235005Y66846D01*
X234057Y67163D01*
X233086Y67397D01*
X232098Y67547D01*
X231100Y67611D01*
X230101Y67590D01*
X229108Y67483D01*
X228127Y67290D01*
X227167Y67014D01*
X226233Y66657D01*
X225334Y66221D01*
X224476Y65709D01*
X223665Y65125D01*
X222907Y64473D01*
X222208Y63759D01*
X221573Y62987D01*
X221007Y62164D01*
X220514Y61295D01*
X220096Y60387D01*
X219759Y59446D01*
X219504Y58480D01*
X219333Y57495D01*
X219247Y56500D01*
Y55500D01*
X219333Y54505D01*
X219504Y53520D01*
X219759Y52554D01*
X220096Y51613D01*
X220514Y50705D01*
X221007Y49836D01*
X221573Y49013D01*
X222208Y48241D01*
X222907Y47527D01*
X223665Y46875D01*
X224476Y46291D01*
X225334Y45779D01*
X226233Y45343D01*
X227166Y44986D01*
X228127Y44710D01*
X229108Y44517D01*
X230101Y44410D01*
X231100Y44388D01*
X232098Y44453D01*
X233085Y44603D01*
X234057Y44837D01*
X235005Y45154D01*
X235922Y45551D01*
X236801Y46026D01*
X237636Y46575D01*
X238422Y47193D01*
X239151Y47876D01*
X239818Y48620D01*
X240420Y49418D01*
X240950Y50265D01*
X241406Y51155D01*
X241783Y52080D01*
X242079Y53034D01*
X242293Y54011D01*
X242422Y55002D01*
X242465Y56000D01*
D38*
X317492Y17882D02*
X316754Y18308D01*
Y17456D01*
X317492Y17882D01*
D39*
X309677Y22252D02*
X309232Y23175D01*
X308233Y23404D01*
X307432Y22764D01*
Y21739D01*
X308233Y21101D01*
X309232Y21329D01*
X309677Y22252D01*
D40*
X96772Y111043D02*
X103071D01*
X117362D02*
X123228D01*
X122244Y96398D02*
X123228D01*
X96772D02*
X97795D01*
X123228D02*
Y111043D01*
X96772Y96398D02*
Y111043D01*
X29772Y110323D02*
X36071D01*
X50362D02*
X56228D01*
X55244Y95677D02*
X56228D01*
X29772D02*
X30795D01*
X56228D02*
Y110323D01*
X29772Y95677D02*
Y110323D01*
D41*
X182668Y169002D02*
X184334Y169835D01*
X186000Y171501D01*
Y173167D01*
X185167Y174000D01*
X183501D01*
X182668Y173167D01*
Y172334D01*
X183501Y171501D01*
X186000D01*
Y179835D02*
X185167Y179002D01*
X183501D01*
X182668Y179835D01*
Y180668D01*
X183501Y181501D01*
X184334D01*
X183501D01*
X182668Y182334D01*
Y183167D01*
X183501Y184000D01*
X185167D01*
X186000Y183167D01*
X222000Y184000D02*
X220334D01*
X221167D01*
Y179002D01*
X222000Y179835D01*
X221501Y174000D02*
Y169002D01*
X224000Y171501D01*
X220668D01*
X227668Y169002D02*
X229334Y169835D01*
X231000Y171501D01*
Y173167D01*
X230167Y174000D01*
X228501D01*
X227668Y173167D01*
Y172334D01*
X228501Y171501D01*
X231000D01*
Y179835D02*
X230167Y179002D01*
X228501D01*
X227668Y179835D01*
Y180668D01*
X228501Y181501D01*
X229334D01*
X228501D01*
X227668Y182334D01*
Y183167D01*
X228501Y184000D01*
X230167D01*
X231000Y183167D01*
X267000Y184000D02*
X265334D01*
X266167D01*
Y179002D01*
X267000Y179835D01*
X266501Y174000D02*
Y169002D01*
X269000Y171501D01*
X265668D01*
X272668Y169002D02*
X274334Y169835D01*
X276000Y171501D01*
Y173167D01*
X275167Y174000D01*
X273501D01*
X272668Y173167D01*
Y172334D01*
X273501Y171501D01*
X276000D01*
Y179835D02*
X275167Y179002D01*
X273501D01*
X272668Y179835D01*
Y180668D01*
X273501Y181501D01*
X274334D01*
X273501D01*
X272668Y182334D01*
Y183167D01*
X273501Y184000D01*
X275167D01*
X276000Y183167D01*
X312000Y184000D02*
X310334D01*
X311167D01*
Y179002D01*
X312000Y179835D01*
X311501Y174000D02*
Y169002D01*
X314000Y171501D01*
X310668D01*
X317668Y169002D02*
X319334Y169835D01*
X321000Y171501D01*
Y173167D01*
X320167Y174000D01*
X318501D01*
X317668Y173167D01*
Y172334D01*
X318501Y171501D01*
X321000D01*
Y179835D02*
X320167Y179002D01*
X318501D01*
X317668Y179835D01*
Y180668D01*
X318501Y181501D01*
X319334D01*
X318501D01*
X317668Y182334D01*
Y183167D01*
X318501Y184000D01*
X320167D01*
X321000Y183167D01*
X357000Y184000D02*
X355334D01*
X356167D01*
Y179002D01*
X357000Y179835D01*
X356501Y174000D02*
Y169002D01*
X359000Y171501D01*
X355668D01*
X93668Y169002D02*
X95334Y169835D01*
X97000Y171501D01*
Y173167D01*
X96167Y174000D01*
X94501D01*
X93668Y173167D01*
Y172334D01*
X94501Y171501D01*
X97000D01*
Y179835D02*
X96167Y179002D01*
X94501D01*
X93668Y179835D01*
Y180668D01*
X94501Y181501D01*
X95334D01*
X94501D01*
X93668Y182334D01*
Y183167D01*
X94501Y184000D01*
X96167D01*
X97000Y183167D01*
X133000Y184000D02*
X131334D01*
X132167D01*
Y179002D01*
X133000Y179835D01*
X132501Y174000D02*
Y169002D01*
X135000Y171501D01*
X131668D01*
X137668Y169002D02*
X139334Y169835D01*
X141000Y171501D01*
Y173167D01*
X140167Y174000D01*
X138501D01*
X137668Y173167D01*
Y172334D01*
X138501Y171501D01*
X141000D01*
Y179835D02*
X140167Y179002D01*
X138501D01*
X137668Y179835D01*
Y180668D01*
X138501Y181501D01*
X139334D01*
X138501D01*
X137668Y182334D01*
Y183167D01*
X138501Y184000D01*
X140167D01*
X141000Y183167D01*
X177000Y184000D02*
X175334D01*
X176167D01*
Y179002D01*
X177000Y179835D01*
X176501Y174000D02*
Y169002D01*
X179000Y171501D01*
X175668D01*
M02*
