G04 Layer_Color=16711935*
%FSLAX25Y25*%
%MOIN*%
G70*
G01*
G75*
%ADD67C,0.00394*%
D67*
X314598Y22055D02*
X314335Y23039D01*
X313614Y23760D01*
X312630Y24024D01*
X311646Y23760D01*
X310925Y23039D01*
X310661Y22055D01*
X310925Y21071D01*
X311646Y20350D01*
X312630Y20087D01*
X313614Y20350D01*
X314335Y21071D01*
X314598Y22055D01*
X186524Y35406D02*
Y48594D01*
X211917Y35406D02*
Y48594D01*
X186524Y35406D02*
X211917D01*
X186524Y48594D02*
X211917D01*
X186524Y19406D02*
Y32594D01*
X211917Y19406D02*
Y32594D01*
X186524Y19406D02*
X211917D01*
X186524Y32594D02*
X211917D01*
X142303Y51406D02*
Y64594D01*
X167697Y51406D02*
Y64594D01*
X142303Y51406D02*
X167697D01*
X142303Y64594D02*
X167697D01*
X142083Y34406D02*
Y47594D01*
X167476Y34406D02*
Y47594D01*
X142083Y34406D02*
X167476D01*
X142083Y47594D02*
X167476D01*
X142303Y17406D02*
Y30594D01*
X167697Y17406D02*
Y30594D01*
X142303Y17406D02*
X167697D01*
X142303Y30594D02*
X167697D01*
X316173Y18512D02*
Y157488D01*
X287827Y18512D02*
Y157488D01*
Y18512D02*
X316173D01*
X287827Y157488D02*
X316173D01*
X275917Y19406D02*
Y32594D01*
X250524Y19406D02*
Y32594D01*
X275917D01*
X250524Y19406D02*
X275917D01*
X186524Y51406D02*
Y64594D01*
X211917Y51406D02*
Y64594D01*
X186524Y51406D02*
X211917D01*
X186524Y64594D02*
X211917D01*
X275917Y34406D02*
Y47594D01*
X250524Y34406D02*
Y47594D01*
X275917D01*
X250524Y34406D02*
X275917D01*
M02*
